G04 #@! TF.FileFunction,Soldermask,Top*
%FSLAX46Y46*%
G04 Gerber Fmt 4.6, Leading zero omitted, Abs format (unit mm)*
G04 Created by KiCad (PCBNEW 4.0.7) date 04/02/18 12:26:23*
%MOMM*%
%LPD*%
G01*
G04 APERTURE LIST*
%ADD10C,0.100000*%
%ADD11C,2.398980*%
%ADD12R,2.000000X2.000000*%
%ADD13O,2.000000X2.000000*%
%ADD14C,1.800000*%
%ADD15O,1.800000X1.800000*%
%ADD16C,2.000000*%
%ADD17R,2.200000X2.200000*%
%ADD18C,2.200000*%
%ADD19R,2.100000X2.100000*%
%ADD20O,2.100000X2.100000*%
%ADD21R,3.000000X2.400000*%
%ADD22O,3.000000X2.400000*%
%ADD23R,2.000000X2.800000*%
%ADD24O,2.000000X2.800000*%
%ADD25R,2.800000X2.000000*%
%ADD26O,2.800000X2.000000*%
G04 APERTURE END LIST*
D10*
D11*
X134874000Y-78105000D03*
X131699000Y-78105000D03*
X128524000Y-78105000D03*
X130175000Y-75692000D03*
X127000000Y-75692000D03*
X123825000Y-75692000D03*
D12*
X179324000Y-118364000D03*
D13*
X176784000Y-118364000D03*
D12*
X179324000Y-81788000D03*
D13*
X176784000Y-81788000D03*
D14*
X138430000Y-106680000D03*
D15*
X135890000Y-106680000D03*
D16*
X152654000Y-82550000D03*
X147654000Y-82550000D03*
X114300000Y-99060000D03*
X114300000Y-94060000D03*
X114300000Y-90424000D03*
X114300000Y-85424000D03*
X135890000Y-85090000D03*
X130890000Y-85090000D03*
X135890000Y-100330000D03*
X130890000Y-100330000D03*
X135890000Y-95250000D03*
X130890000Y-95250000D03*
X135810000Y-110490000D03*
X130810000Y-110490000D03*
X138510000Y-95250000D03*
X143510000Y-95250000D03*
X143430000Y-85090000D03*
X138430000Y-85090000D03*
X138510000Y-110490000D03*
X143510000Y-110490000D03*
X143510000Y-100330000D03*
X138510000Y-100330000D03*
X152480000Y-87630000D03*
X157480000Y-87630000D03*
X152400000Y-109220000D03*
X157400000Y-109220000D03*
X164084000Y-94996000D03*
X159084000Y-94996000D03*
X164084000Y-102108000D03*
X159084000Y-102108000D03*
X167720000Y-94996000D03*
X172720000Y-94996000D03*
X173228000Y-84756000D03*
X173228000Y-79756000D03*
X173228000Y-113872000D03*
X173228000Y-118872000D03*
X167640000Y-102108000D03*
X172640000Y-102108000D03*
D12*
X179324000Y-104140000D03*
D13*
X176784000Y-104140000D03*
D12*
X179324000Y-96012000D03*
D13*
X176784000Y-96012000D03*
D17*
X176784000Y-91440000D03*
D18*
X179324000Y-91440000D03*
X181864000Y-91440000D03*
D17*
X176784000Y-86360000D03*
D18*
X179324000Y-86360000D03*
X181864000Y-86360000D03*
D17*
X176784000Y-113792000D03*
D18*
X179324000Y-113792000D03*
X181864000Y-113792000D03*
D17*
X176784000Y-108712000D03*
D18*
X179324000Y-108712000D03*
X181864000Y-108712000D03*
D19*
X114046000Y-103886000D03*
D20*
X114046000Y-106426000D03*
X114046000Y-108966000D03*
X114046000Y-111506000D03*
D19*
X121412000Y-80264000D03*
D20*
X118872000Y-80264000D03*
X116332000Y-80264000D03*
X113792000Y-80264000D03*
D21*
X188976000Y-91440000D03*
D22*
X188976000Y-88900000D03*
X188976000Y-86360000D03*
D21*
X188976000Y-113792000D03*
D22*
X188976000Y-111252000D03*
X188976000Y-108712000D03*
D14*
X124968000Y-114300000D03*
D15*
X122428000Y-114300000D03*
D14*
X133350000Y-91440000D03*
D15*
X130810000Y-91440000D03*
D14*
X133350000Y-88900000D03*
D15*
X130810000Y-88900000D03*
D14*
X133350000Y-106680000D03*
D15*
X130810000Y-106680000D03*
D14*
X133350000Y-104140000D03*
D15*
X130810000Y-104140000D03*
D14*
X138430000Y-91440000D03*
D15*
X135890000Y-91440000D03*
D14*
X135890000Y-88900000D03*
D15*
X138430000Y-88900000D03*
D14*
X135890000Y-104140000D03*
D15*
X138430000Y-104140000D03*
D14*
X140970000Y-91440000D03*
D15*
X143510000Y-91440000D03*
D14*
X140970000Y-88900000D03*
D15*
X143510000Y-88900000D03*
D14*
X140970000Y-106680000D03*
D15*
X143510000Y-106680000D03*
D14*
X140970000Y-104140000D03*
D15*
X143510000Y-104140000D03*
D16*
X183388000Y-96012000D03*
D13*
X193548000Y-96012000D03*
D16*
X193548000Y-81788000D03*
D13*
X183388000Y-81788000D03*
D16*
X183388000Y-118364000D03*
D13*
X193548000Y-118364000D03*
D16*
X193548000Y-104140000D03*
D13*
X183388000Y-104140000D03*
D23*
X155194000Y-93726000D03*
D24*
X147574000Y-101346000D03*
X152654000Y-93726000D03*
X150114000Y-101346000D03*
X150114000Y-93726000D03*
X152654000Y-101346000D03*
X147574000Y-93726000D03*
X155194000Y-101346000D03*
D25*
X119380000Y-86360000D03*
D26*
X127000000Y-109220000D03*
X119380000Y-88900000D03*
X127000000Y-106680000D03*
X119380000Y-91440000D03*
X127000000Y-104140000D03*
X119380000Y-93980000D03*
X127000000Y-101600000D03*
X119380000Y-96520000D03*
X127000000Y-99060000D03*
X119380000Y-99060000D03*
X127000000Y-96520000D03*
X119380000Y-101600000D03*
X127000000Y-93980000D03*
X119380000Y-104140000D03*
X127000000Y-91440000D03*
X119380000Y-106680000D03*
X127000000Y-88900000D03*
X119380000Y-109220000D03*
X127000000Y-86360000D03*
D23*
X168910000Y-81280000D03*
D24*
X161290000Y-88900000D03*
X166370000Y-81280000D03*
X163830000Y-88900000D03*
X163830000Y-81280000D03*
X166370000Y-88900000D03*
X161290000Y-81280000D03*
X168910000Y-88900000D03*
D23*
X168910000Y-107950000D03*
D24*
X161290000Y-115570000D03*
X166370000Y-107950000D03*
X163830000Y-115570000D03*
X163830000Y-107950000D03*
X166370000Y-115570000D03*
X161290000Y-107950000D03*
X168910000Y-115570000D03*
M02*
