G04 #@! TF.FileFunction,Copper,L2,Bot,Signal*
%FSLAX46Y46*%
G04 Gerber Fmt 4.6, Leading zero omitted, Abs format (unit mm)*
G04 Created by KiCad (PCBNEW 4.0.7) date 03/28/18 16:01:48*
%MOMM*%
%LPD*%
G01*
G04 APERTURE LIST*
%ADD10C,0.100000*%
%ADD11C,1.400000*%
%ADD12O,1.400000X1.400000*%
%ADD13C,1.600000*%
%ADD14R,1.600000X1.600000*%
%ADD15O,1.600000X1.600000*%
%ADD16R,1.800000X1.800000*%
%ADD17C,1.800000*%
%ADD18R,1.700000X1.700000*%
%ADD19O,1.700000X1.700000*%
%ADD20R,2.600000X2.000000*%
%ADD21O,2.600000X2.000000*%
%ADD22R,1.600000X2.400000*%
%ADD23O,1.600000X2.400000*%
%ADD24R,2.400000X1.600000*%
%ADD25O,2.400000X1.600000*%
%ADD26C,0.600000*%
%ADD27C,0.700000*%
%ADD28C,0.254000*%
G04 APERTURE END LIST*
D10*
D11*
X138430000Y-106680000D03*
D12*
X135890000Y-106680000D03*
D13*
X147828000Y-89582000D03*
X147828000Y-84582000D03*
X116840000Y-81200000D03*
X116840000Y-76200000D03*
X123190000Y-81280000D03*
X123190000Y-76280000D03*
X135890000Y-85090000D03*
X130890000Y-85090000D03*
X135890000Y-100330000D03*
X130890000Y-100330000D03*
X135890000Y-95250000D03*
X130890000Y-95250000D03*
X135810000Y-110490000D03*
X130810000Y-110490000D03*
X138510000Y-95250000D03*
X143510000Y-95250000D03*
X143430000Y-85090000D03*
X138430000Y-85090000D03*
X138510000Y-110490000D03*
X143510000Y-110490000D03*
X143510000Y-100330000D03*
X138510000Y-100330000D03*
X152480000Y-87630000D03*
X157480000Y-87630000D03*
X152400000Y-109220000D03*
X157400000Y-109220000D03*
X156210000Y-78740000D03*
X156210000Y-83740000D03*
X158830000Y-93980000D03*
X163830000Y-93980000D03*
X163750000Y-102870000D03*
X158750000Y-102870000D03*
X156210000Y-113030000D03*
X156210000Y-118030000D03*
X167720000Y-95250000D03*
X172720000Y-95250000D03*
X166450000Y-77470000D03*
X171450000Y-77470000D03*
X166370000Y-119380000D03*
X171370000Y-119380000D03*
X167720000Y-101600000D03*
X172720000Y-101600000D03*
D14*
X177800000Y-83820000D03*
D15*
X175260000Y-83820000D03*
D14*
X177800000Y-100330000D03*
D15*
X175260000Y-100330000D03*
D14*
X177800000Y-96520000D03*
D15*
X175260000Y-96520000D03*
D14*
X177800000Y-113030000D03*
D15*
X175260000Y-113030000D03*
D16*
X175260000Y-92710000D03*
D17*
X177800000Y-92710000D03*
X180340000Y-92710000D03*
D16*
X175260000Y-87630000D03*
D17*
X177800000Y-87630000D03*
X180340000Y-87630000D03*
D16*
X175260000Y-109220000D03*
D17*
X177800000Y-109220000D03*
X180340000Y-109220000D03*
D16*
X175260000Y-104140000D03*
D17*
X177800000Y-104140000D03*
X180340000Y-104140000D03*
D18*
X113030000Y-101600000D03*
D19*
X113030000Y-104140000D03*
X113030000Y-106680000D03*
X113030000Y-109220000D03*
D18*
X113030000Y-87630000D03*
D19*
X113030000Y-90170000D03*
X113030000Y-92710000D03*
X113030000Y-95250000D03*
D20*
X185420000Y-92710000D03*
D21*
X185420000Y-90170000D03*
X185420000Y-87630000D03*
D20*
X185420000Y-109220000D03*
D21*
X185420000Y-106680000D03*
X185420000Y-104140000D03*
D11*
X121412000Y-114808000D03*
D12*
X118872000Y-114808000D03*
D11*
X133350000Y-91440000D03*
D12*
X130810000Y-91440000D03*
D11*
X133350000Y-88900000D03*
D12*
X130810000Y-88900000D03*
D11*
X133350000Y-106680000D03*
D12*
X130810000Y-106680000D03*
D11*
X133350000Y-104140000D03*
D12*
X130810000Y-104140000D03*
D11*
X138430000Y-91440000D03*
D12*
X135890000Y-91440000D03*
D11*
X135890000Y-88900000D03*
D12*
X138430000Y-88900000D03*
D11*
X135890000Y-104140000D03*
D12*
X138430000Y-104140000D03*
D11*
X140970000Y-91440000D03*
D12*
X143510000Y-91440000D03*
D11*
X140970000Y-88900000D03*
D12*
X143510000Y-88900000D03*
D11*
X140970000Y-106680000D03*
D12*
X143510000Y-106680000D03*
D11*
X140970000Y-104140000D03*
D12*
X143510000Y-104140000D03*
D13*
X175260000Y-78740000D03*
D15*
X185420000Y-78740000D03*
D13*
X191770000Y-82550000D03*
D15*
X181610000Y-82550000D03*
D13*
X181610000Y-114300000D03*
D15*
X191770000Y-114300000D03*
D13*
X185420000Y-118110000D03*
D15*
X175260000Y-118110000D03*
D22*
X147320000Y-101600000D03*
D23*
X154940000Y-93980000D03*
X149860000Y-101600000D03*
X152400000Y-93980000D03*
X152400000Y-101600000D03*
X149860000Y-93980000D03*
X154940000Y-101600000D03*
X147320000Y-93980000D03*
D24*
X119380000Y-86360000D03*
D25*
X127000000Y-109220000D03*
X119380000Y-88900000D03*
X127000000Y-106680000D03*
X119380000Y-91440000D03*
X127000000Y-104140000D03*
X119380000Y-93980000D03*
X127000000Y-101600000D03*
X119380000Y-96520000D03*
X127000000Y-99060000D03*
X119380000Y-99060000D03*
X127000000Y-96520000D03*
X119380000Y-101600000D03*
X127000000Y-93980000D03*
X119380000Y-104140000D03*
X127000000Y-91440000D03*
X119380000Y-106680000D03*
X127000000Y-88900000D03*
X119380000Y-109220000D03*
X127000000Y-86360000D03*
D22*
X168910000Y-81280000D03*
D23*
X161290000Y-88900000D03*
X166370000Y-81280000D03*
X163830000Y-88900000D03*
X163830000Y-81280000D03*
X166370000Y-88900000D03*
X161290000Y-81280000D03*
X168910000Y-88900000D03*
D22*
X168910000Y-107950000D03*
D23*
X161290000Y-115570000D03*
X166370000Y-107950000D03*
X163830000Y-115570000D03*
X163830000Y-107950000D03*
X166370000Y-115570000D03*
X161290000Y-107950000D03*
X168910000Y-115570000D03*
D26*
X145288000Y-102108000D03*
X156718000Y-106172000D03*
X158496000Y-99568000D03*
X159258000Y-110744000D03*
X161148536Y-76708000D03*
D27*
X119380000Y-99060000D02*
X117480000Y-99060000D01*
X117480000Y-99060000D02*
X116840000Y-99700000D01*
X116840000Y-99700000D02*
X116840000Y-113030000D01*
X116840000Y-113030000D02*
X117094000Y-113030000D01*
X117094000Y-113030000D02*
X118872000Y-114808000D01*
X119380000Y-91440000D02*
X117480000Y-91440000D01*
X117480000Y-91440000D02*
X116840000Y-90800000D01*
X116840000Y-90800000D02*
X116840000Y-87562081D01*
X113030000Y-90170000D02*
X114232081Y-90170000D01*
X114232081Y-90170000D02*
X116840000Y-87562081D01*
X116840000Y-82331370D02*
X116840000Y-81200000D01*
X116840000Y-87562081D02*
X116840000Y-82331370D01*
X163830000Y-102950000D02*
X163750000Y-102870000D01*
X163830000Y-108350000D02*
X163830000Y-107950000D01*
X138510000Y-104060000D02*
X138430000Y-104140000D01*
X119780000Y-93980000D02*
X119380000Y-93980000D01*
X116920000Y-76280000D02*
X116840000Y-76200000D01*
X152480000Y-87630000D02*
X149860000Y-90250000D01*
X149860000Y-90250000D02*
X149860000Y-93980000D01*
X145288000Y-102108000D02*
X145288000Y-107196002D01*
X145288000Y-107196002D02*
X144254001Y-108230001D01*
X144254001Y-108230001D02*
X139980001Y-108230001D01*
X139980001Y-108230001D02*
X139129999Y-107379999D01*
X139129999Y-107379999D02*
X138430000Y-106680000D01*
X145288000Y-102108000D02*
X152400000Y-109220000D01*
X156718000Y-106172000D02*
X156718000Y-103378000D01*
X156718000Y-103378000D02*
X154940000Y-101600000D01*
X158496000Y-99568000D02*
X156972000Y-99568000D01*
X156972000Y-99568000D02*
X154940000Y-101600000D01*
X161290000Y-115570000D02*
X158670000Y-115570000D01*
X158670000Y-115570000D02*
X156210000Y-118030000D01*
X177800000Y-113030000D02*
X179300000Y-113030000D01*
X179300000Y-113030000D02*
X182090001Y-110239999D01*
X182090001Y-110239999D02*
X182090001Y-103120001D01*
X182090001Y-103120001D02*
X179300000Y-100330000D01*
X179300000Y-100330000D02*
X177800000Y-100330000D01*
X158750000Y-102870000D02*
X158750000Y-108127998D01*
X158750000Y-108127998D02*
X159258000Y-108635998D01*
X159258000Y-108635998D02*
X159258000Y-110744000D01*
X177800000Y-113030000D02*
X177800000Y-111530000D01*
X167620001Y-111379999D02*
X163830000Y-115170000D01*
X177800000Y-111530000D02*
X177649999Y-111379999D01*
X177649999Y-111379999D02*
X167620001Y-111379999D01*
X163830000Y-115170000D02*
X163830000Y-115570000D01*
X156210000Y-83740000D02*
X159070000Y-83740000D01*
X159070000Y-83740000D02*
X163830000Y-88500000D01*
X163830000Y-88500000D02*
X163830000Y-88900000D01*
X147828000Y-89582000D02*
X147828000Y-93472000D01*
X147828000Y-93472000D02*
X147320000Y-93980000D01*
X147828000Y-89582000D02*
X153670000Y-83740000D01*
X153670000Y-83740000D02*
X156210000Y-83740000D01*
X158990535Y-74549999D02*
X161148536Y-76708000D01*
X161148536Y-76708000D02*
X163670526Y-79229990D01*
X177800000Y-100330000D02*
X177800000Y-96520000D01*
X187070001Y-83063690D02*
X183134000Y-86999691D01*
X183134000Y-86999691D02*
X182090001Y-88043690D01*
X179300000Y-83820000D02*
X182479691Y-86999691D01*
X177800000Y-83820000D02*
X179300000Y-83820000D01*
X182479691Y-86999691D02*
X183134000Y-86999691D01*
X113030000Y-87630000D02*
X113030000Y-77567998D01*
X113030000Y-77567998D02*
X116047999Y-74549999D01*
X116047999Y-74549999D02*
X158990535Y-74549999D01*
X163670526Y-79229990D02*
X172328008Y-79229990D01*
X172328008Y-79229990D02*
X174467999Y-77089999D01*
X179300000Y-96520000D02*
X177800000Y-96520000D01*
X174467999Y-77089999D02*
X186212001Y-77089999D01*
X186212001Y-77089999D02*
X187070001Y-77947999D01*
X187070001Y-77947999D02*
X187070001Y-83063690D01*
X182090001Y-88043690D02*
X182090001Y-93729999D01*
X182090001Y-93729999D02*
X179300000Y-96520000D01*
X121412000Y-114808000D02*
X127000000Y-109220000D01*
X127000000Y-109220000D02*
X127000000Y-106680000D01*
D28*
G36*
X195453000Y-121793000D02*
X111887000Y-121793000D01*
X111887000Y-119664187D01*
X164934752Y-119664187D01*
X165152757Y-120191800D01*
X165556077Y-120595824D01*
X166083309Y-120814750D01*
X166654187Y-120815248D01*
X167181800Y-120597243D01*
X167585824Y-120193923D01*
X167804750Y-119666691D01*
X167804752Y-119664187D01*
X169934752Y-119664187D01*
X170152757Y-120191800D01*
X170556077Y-120595824D01*
X171083309Y-120814750D01*
X171654187Y-120815248D01*
X172181800Y-120597243D01*
X172585824Y-120193923D01*
X172804750Y-119666691D01*
X172805248Y-119095813D01*
X172587243Y-118568200D01*
X172183923Y-118164176D01*
X172053453Y-118110000D01*
X173796887Y-118110000D01*
X173906120Y-118659151D01*
X174217189Y-119124698D01*
X174682736Y-119435767D01*
X175231887Y-119545000D01*
X175288113Y-119545000D01*
X175837264Y-119435767D01*
X176302811Y-119124698D01*
X176307456Y-119117745D01*
X184591861Y-119117745D01*
X184665995Y-119363864D01*
X185203223Y-119556965D01*
X185773454Y-119529778D01*
X186174005Y-119363864D01*
X186248139Y-119117745D01*
X185420000Y-118289605D01*
X184591861Y-119117745D01*
X176307456Y-119117745D01*
X176613880Y-118659151D01*
X176723113Y-118110000D01*
X176679994Y-117893223D01*
X183973035Y-117893223D01*
X184000222Y-118463454D01*
X184166136Y-118864005D01*
X184412255Y-118938139D01*
X185240395Y-118110000D01*
X185599605Y-118110000D01*
X186427745Y-118938139D01*
X186673864Y-118864005D01*
X186866965Y-118326777D01*
X186839778Y-117756546D01*
X186673864Y-117355995D01*
X186427745Y-117281861D01*
X185599605Y-118110000D01*
X185240395Y-118110000D01*
X184412255Y-117281861D01*
X184166136Y-117355995D01*
X183973035Y-117893223D01*
X176679994Y-117893223D01*
X176613880Y-117560849D01*
X176307457Y-117102255D01*
X184591861Y-117102255D01*
X185420000Y-117930395D01*
X186248139Y-117102255D01*
X186174005Y-116856136D01*
X185636777Y-116663035D01*
X185066546Y-116690222D01*
X184665995Y-116856136D01*
X184591861Y-117102255D01*
X176307457Y-117102255D01*
X176302811Y-117095302D01*
X175837264Y-116784233D01*
X175288113Y-116675000D01*
X175231887Y-116675000D01*
X174682736Y-116784233D01*
X174217189Y-117095302D01*
X173906120Y-117560849D01*
X173796887Y-118110000D01*
X172053453Y-118110000D01*
X171656691Y-117945250D01*
X171085813Y-117944752D01*
X170558200Y-118162757D01*
X170154176Y-118566077D01*
X169935250Y-119093309D01*
X169934752Y-119664187D01*
X167804752Y-119664187D01*
X167805248Y-119095813D01*
X167587243Y-118568200D01*
X167183923Y-118164176D01*
X166656691Y-117945250D01*
X166085813Y-117944752D01*
X165558200Y-118162757D01*
X165154176Y-118566077D01*
X164935250Y-119093309D01*
X164934752Y-119664187D01*
X111887000Y-119664187D01*
X111887000Y-110174491D01*
X111950853Y-110270054D01*
X112432622Y-110591961D01*
X113000907Y-110705000D01*
X113059093Y-110705000D01*
X113627378Y-110591961D01*
X114109147Y-110270054D01*
X114431054Y-109788285D01*
X114544093Y-109220000D01*
X114431054Y-108651715D01*
X114109147Y-108169946D01*
X113779974Y-107950000D01*
X114109147Y-107730054D01*
X114431054Y-107248285D01*
X114544093Y-106680000D01*
X114431054Y-106111715D01*
X114109147Y-105629946D01*
X113779974Y-105410000D01*
X114109147Y-105190054D01*
X114431054Y-104708285D01*
X114544093Y-104140000D01*
X114431054Y-103571715D01*
X114109147Y-103089946D01*
X114067548Y-103062150D01*
X114115317Y-103053162D01*
X114331441Y-102914090D01*
X114476431Y-102701890D01*
X114527440Y-102450000D01*
X114527440Y-100750000D01*
X114483162Y-100514683D01*
X114344090Y-100298559D01*
X114131890Y-100153569D01*
X113880000Y-100102560D01*
X112180000Y-100102560D01*
X111944683Y-100146838D01*
X111887000Y-100183956D01*
X111887000Y-99700000D01*
X115855000Y-99700000D01*
X115855000Y-113030000D01*
X115929979Y-113406943D01*
X116143500Y-113726500D01*
X116463057Y-113940021D01*
X116647761Y-113976761D01*
X117518753Y-114847753D01*
X117612467Y-115318882D01*
X117901858Y-115751988D01*
X118334964Y-116041379D01*
X118845846Y-116143000D01*
X118898154Y-116143000D01*
X119409036Y-116041379D01*
X119842142Y-115751988D01*
X120131533Y-115318882D01*
X120146835Y-115241955D01*
X120279582Y-115563229D01*
X120654796Y-115939098D01*
X121145287Y-116142768D01*
X121676383Y-116143231D01*
X122167229Y-115940418D01*
X122543098Y-115565204D01*
X122746768Y-115074713D01*
X122746950Y-114866050D01*
X123575255Y-114037745D01*
X155381861Y-114037745D01*
X155455995Y-114283864D01*
X155993223Y-114476965D01*
X156563454Y-114449778D01*
X156964005Y-114283864D01*
X157038139Y-114037745D01*
X156210000Y-113209605D01*
X155381861Y-114037745D01*
X123575255Y-114037745D01*
X124799777Y-112813223D01*
X154763035Y-112813223D01*
X154790222Y-113383454D01*
X154956136Y-113784005D01*
X155202255Y-113858139D01*
X156030395Y-113030000D01*
X156389605Y-113030000D01*
X157217745Y-113858139D01*
X157463864Y-113784005D01*
X157656965Y-113246777D01*
X157629778Y-112676546D01*
X157463864Y-112275995D01*
X157217745Y-112201861D01*
X156389605Y-113030000D01*
X156030395Y-113030000D01*
X155202255Y-112201861D01*
X154956136Y-112275995D01*
X154763035Y-112813223D01*
X124799777Y-112813223D01*
X125590745Y-112022255D01*
X155381861Y-112022255D01*
X156210000Y-112850395D01*
X157038139Y-112022255D01*
X156964005Y-111776136D01*
X156426777Y-111583035D01*
X155856546Y-111610222D01*
X155455995Y-111776136D01*
X155381861Y-112022255D01*
X125590745Y-112022255D01*
X126115255Y-111497745D01*
X129981861Y-111497745D01*
X130055995Y-111743864D01*
X130593223Y-111936965D01*
X131163454Y-111909778D01*
X131564005Y-111743864D01*
X131638139Y-111497745D01*
X130810000Y-110669605D01*
X129981861Y-111497745D01*
X126115255Y-111497745D01*
X126958000Y-110655000D01*
X127435950Y-110655000D01*
X127985101Y-110545767D01*
X128392991Y-110273223D01*
X129363035Y-110273223D01*
X129390222Y-110843454D01*
X129556136Y-111244005D01*
X129802255Y-111318139D01*
X130630395Y-110490000D01*
X130989605Y-110490000D01*
X131817745Y-111318139D01*
X132063864Y-111244005D01*
X132232735Y-110774187D01*
X134374752Y-110774187D01*
X134592757Y-111301800D01*
X134996077Y-111705824D01*
X135523309Y-111924750D01*
X136094187Y-111925248D01*
X136621800Y-111707243D01*
X137025824Y-111303923D01*
X137160060Y-110980648D01*
X137292757Y-111301800D01*
X137696077Y-111705824D01*
X138223309Y-111924750D01*
X138794187Y-111925248D01*
X139321800Y-111707243D01*
X139725824Y-111303923D01*
X139944750Y-110776691D01*
X139945248Y-110205813D01*
X139727243Y-109678200D01*
X139323923Y-109274176D01*
X138796691Y-109055250D01*
X138225813Y-109054752D01*
X137698200Y-109272757D01*
X137294176Y-109676077D01*
X137159940Y-109999352D01*
X137027243Y-109678200D01*
X136623923Y-109274176D01*
X136096691Y-109055250D01*
X135525813Y-109054752D01*
X134998200Y-109272757D01*
X134594176Y-109676077D01*
X134375250Y-110203309D01*
X134374752Y-110774187D01*
X132232735Y-110774187D01*
X132256965Y-110706777D01*
X132229778Y-110136546D01*
X132063864Y-109735995D01*
X131817745Y-109661861D01*
X130989605Y-110490000D01*
X130630395Y-110490000D01*
X129802255Y-109661861D01*
X129556136Y-109735995D01*
X129363035Y-110273223D01*
X128392991Y-110273223D01*
X128450648Y-110234698D01*
X128761717Y-109769151D01*
X128818784Y-109482255D01*
X129981861Y-109482255D01*
X130810000Y-110310395D01*
X131638139Y-109482255D01*
X131564005Y-109236136D01*
X131026777Y-109043035D01*
X130456546Y-109070222D01*
X130055995Y-109236136D01*
X129981861Y-109482255D01*
X128818784Y-109482255D01*
X128870950Y-109220000D01*
X128761717Y-108670849D01*
X128450648Y-108205302D01*
X128068562Y-107950000D01*
X128450648Y-107694698D01*
X128761717Y-107229151D01*
X128870950Y-106680000D01*
X128761717Y-106130849D01*
X128450648Y-105665302D01*
X128068562Y-105410000D01*
X128450648Y-105154698D01*
X128761717Y-104689151D01*
X128870950Y-104140000D01*
X129448846Y-104140000D01*
X129550467Y-104650882D01*
X129839858Y-105083988D01*
X130272964Y-105373379D01*
X130457070Y-105410000D01*
X130272964Y-105446621D01*
X129839858Y-105736012D01*
X129550467Y-106169118D01*
X129448846Y-106680000D01*
X129550467Y-107190882D01*
X129839858Y-107623988D01*
X130272964Y-107913379D01*
X130783846Y-108015000D01*
X130836154Y-108015000D01*
X131347036Y-107913379D01*
X131780142Y-107623988D01*
X132069533Y-107190882D01*
X132084835Y-107113955D01*
X132217582Y-107435229D01*
X132592796Y-107811098D01*
X133083287Y-108014768D01*
X133614383Y-108015231D01*
X134105229Y-107812418D01*
X134481098Y-107437204D01*
X134615216Y-107114212D01*
X134630467Y-107190882D01*
X134919858Y-107623988D01*
X135352964Y-107913379D01*
X135863846Y-108015000D01*
X135916154Y-108015000D01*
X136427036Y-107913379D01*
X136860142Y-107623988D01*
X137149533Y-107190882D01*
X137164835Y-107113955D01*
X137297582Y-107435229D01*
X137672796Y-107811098D01*
X138163287Y-108014768D01*
X138371950Y-108014950D01*
X139283501Y-108926501D01*
X139603058Y-109140022D01*
X139980001Y-109215001D01*
X142837980Y-109215001D01*
X142698200Y-109272757D01*
X142294176Y-109676077D01*
X142075250Y-110203309D01*
X142074752Y-110774187D01*
X142292757Y-111301800D01*
X142696077Y-111705824D01*
X143223309Y-111924750D01*
X143794187Y-111925248D01*
X144321800Y-111707243D01*
X144725824Y-111303923D01*
X144944750Y-110776691D01*
X144945248Y-110205813D01*
X144727243Y-109678200D01*
X144323923Y-109274176D01*
X144181414Y-109215001D01*
X144254001Y-109215001D01*
X144630944Y-109140022D01*
X144950501Y-108926501D01*
X145984500Y-107892502D01*
X146198021Y-107572945D01*
X146209736Y-107514050D01*
X146273000Y-107196002D01*
X146273000Y-104486000D01*
X150965037Y-109178037D01*
X150964752Y-109504187D01*
X151182757Y-110031800D01*
X151586077Y-110435824D01*
X152113309Y-110654750D01*
X152684187Y-110655248D01*
X153211800Y-110437243D01*
X153615824Y-110033923D01*
X153834750Y-109506691D01*
X153835248Y-108935813D01*
X153617243Y-108408200D01*
X153213923Y-108004176D01*
X152686691Y-107785250D01*
X152357963Y-107784963D01*
X148020440Y-103447440D01*
X148120000Y-103447440D01*
X148355317Y-103403162D01*
X148571441Y-103264090D01*
X148716431Y-103051890D01*
X148746597Y-102902926D01*
X148845302Y-103050648D01*
X149310849Y-103361717D01*
X149860000Y-103470950D01*
X150409151Y-103361717D01*
X150874698Y-103050648D01*
X151130000Y-102668562D01*
X151385302Y-103050648D01*
X151850849Y-103361717D01*
X152400000Y-103470950D01*
X152949151Y-103361717D01*
X153414698Y-103050648D01*
X153670000Y-102668562D01*
X153925302Y-103050648D01*
X154390849Y-103361717D01*
X154940000Y-103470950D01*
X155338653Y-103391653D01*
X155733000Y-103786000D01*
X155733000Y-106172000D01*
X155807979Y-106548943D01*
X156021500Y-106868500D01*
X156341057Y-107082021D01*
X156718000Y-107157000D01*
X157094943Y-107082021D01*
X157414500Y-106868500D01*
X157628021Y-106548943D01*
X157703000Y-106172000D01*
X157703000Y-103852340D01*
X157765000Y-103914448D01*
X157765000Y-107817767D01*
X157686691Y-107785250D01*
X157115813Y-107784752D01*
X156588200Y-108002757D01*
X156184176Y-108406077D01*
X155965250Y-108933309D01*
X155964752Y-109504187D01*
X156182757Y-110031800D01*
X156586077Y-110435824D01*
X157113309Y-110654750D01*
X157684187Y-110655248D01*
X158211800Y-110437243D01*
X158273000Y-110376150D01*
X158273000Y-110744000D01*
X158347979Y-111120943D01*
X158561500Y-111440500D01*
X158881057Y-111654021D01*
X159258000Y-111729000D01*
X159634943Y-111654021D01*
X159954500Y-111440500D01*
X160168021Y-111120943D01*
X160243000Y-110744000D01*
X160243000Y-109352305D01*
X160275302Y-109400648D01*
X160740849Y-109711717D01*
X161290000Y-109820950D01*
X161839151Y-109711717D01*
X162304698Y-109400648D01*
X162557507Y-109022293D01*
X162905104Y-109454500D01*
X163398181Y-109724367D01*
X163480961Y-109741904D01*
X163703000Y-109619915D01*
X163703000Y-108077000D01*
X163683000Y-108077000D01*
X163683000Y-107823000D01*
X163703000Y-107823000D01*
X163703000Y-106280085D01*
X163957000Y-106280085D01*
X163957000Y-107823000D01*
X163977000Y-107823000D01*
X163977000Y-108077000D01*
X163957000Y-108077000D01*
X163957000Y-109619915D01*
X164179039Y-109741904D01*
X164261819Y-109724367D01*
X164754896Y-109454500D01*
X165102493Y-109022293D01*
X165355302Y-109400648D01*
X165820849Y-109711717D01*
X166370000Y-109820950D01*
X166919151Y-109711717D01*
X167384698Y-109400648D01*
X167482251Y-109254650D01*
X167506838Y-109385317D01*
X167645910Y-109601441D01*
X167858110Y-109746431D01*
X168110000Y-109797440D01*
X169710000Y-109797440D01*
X169945317Y-109753162D01*
X170161441Y-109614090D01*
X170306431Y-109401890D01*
X170357440Y-109150000D01*
X170357440Y-106750000D01*
X170313162Y-106514683D01*
X170174090Y-106298559D01*
X169961890Y-106153569D01*
X169710000Y-106102560D01*
X168110000Y-106102560D01*
X167874683Y-106146838D01*
X167658559Y-106285910D01*
X167513569Y-106498110D01*
X167483403Y-106647074D01*
X167384698Y-106499352D01*
X166919151Y-106188283D01*
X166370000Y-106079050D01*
X165820849Y-106188283D01*
X165355302Y-106499352D01*
X165102493Y-106877707D01*
X164754896Y-106445500D01*
X164261819Y-106175633D01*
X164179039Y-106158096D01*
X163957000Y-106280085D01*
X163703000Y-106280085D01*
X163480961Y-106158096D01*
X163398181Y-106175633D01*
X162905104Y-106445500D01*
X162557507Y-106877707D01*
X162304698Y-106499352D01*
X161839151Y-106188283D01*
X161290000Y-106079050D01*
X160740849Y-106188283D01*
X160275302Y-106499352D01*
X159964233Y-106964899D01*
X159855000Y-107514050D01*
X159855000Y-107839997D01*
X159735000Y-107719997D01*
X159735000Y-103914345D01*
X159771663Y-103877745D01*
X162921861Y-103877745D01*
X162995995Y-104123864D01*
X163533223Y-104316965D01*
X164103454Y-104289778D01*
X164504005Y-104123864D01*
X164578139Y-103877745D01*
X163750000Y-103049605D01*
X162921861Y-103877745D01*
X159771663Y-103877745D01*
X159965824Y-103683923D01*
X160184750Y-103156691D01*
X160185189Y-102653223D01*
X162303035Y-102653223D01*
X162330222Y-103223454D01*
X162496136Y-103624005D01*
X162742255Y-103698139D01*
X163570395Y-102870000D01*
X163929605Y-102870000D01*
X164757745Y-103698139D01*
X165003864Y-103624005D01*
X165141890Y-103240000D01*
X173712560Y-103240000D01*
X173712560Y-105040000D01*
X173756838Y-105275317D01*
X173895910Y-105491441D01*
X174108110Y-105636431D01*
X174360000Y-105687440D01*
X176160000Y-105687440D01*
X176395317Y-105643162D01*
X176611441Y-105504090D01*
X176750598Y-105300426D01*
X176784890Y-105334718D01*
X176899447Y-105220161D01*
X176985852Y-105476643D01*
X177559336Y-105686458D01*
X178169460Y-105660839D01*
X178614148Y-105476643D01*
X178700554Y-105220159D01*
X177800000Y-104319605D01*
X177785858Y-104333748D01*
X177606253Y-104154143D01*
X177620395Y-104140000D01*
X177606253Y-104125858D01*
X177785858Y-103946253D01*
X177800000Y-103960395D01*
X178700554Y-103059841D01*
X178614148Y-102803357D01*
X178040664Y-102593542D01*
X177430540Y-102619161D01*
X176985852Y-102803357D01*
X176899447Y-103059839D01*
X176784890Y-102945282D01*
X176748412Y-102981760D01*
X176624090Y-102788559D01*
X176411890Y-102643569D01*
X176160000Y-102592560D01*
X174360000Y-102592560D01*
X174124683Y-102636838D01*
X173908559Y-102775910D01*
X173763569Y-102988110D01*
X173712560Y-103240000D01*
X165141890Y-103240000D01*
X165196965Y-103086777D01*
X165169778Y-102516546D01*
X165003864Y-102115995D01*
X164757745Y-102041861D01*
X163929605Y-102870000D01*
X163570395Y-102870000D01*
X162742255Y-102041861D01*
X162496136Y-102115995D01*
X162303035Y-102653223D01*
X160185189Y-102653223D01*
X160185248Y-102585813D01*
X159967243Y-102058200D01*
X159771640Y-101862255D01*
X162921861Y-101862255D01*
X163750000Y-102690395D01*
X164556207Y-101884187D01*
X166284752Y-101884187D01*
X166502757Y-102411800D01*
X166906077Y-102815824D01*
X167433309Y-103034750D01*
X168004187Y-103035248D01*
X168531800Y-102817243D01*
X168935824Y-102413923D01*
X169154750Y-101886691D01*
X169155248Y-101315813D01*
X168937243Y-100788200D01*
X168533923Y-100384176D01*
X168006691Y-100165250D01*
X167435813Y-100164752D01*
X166908200Y-100382757D01*
X166504176Y-100786077D01*
X166285250Y-101313309D01*
X166284752Y-101884187D01*
X164556207Y-101884187D01*
X164578139Y-101862255D01*
X164504005Y-101616136D01*
X163966777Y-101423035D01*
X163396546Y-101450222D01*
X162995995Y-101616136D01*
X162921861Y-101862255D01*
X159771640Y-101862255D01*
X159563923Y-101654176D01*
X159036691Y-101435250D01*
X158465813Y-101434752D01*
X157938200Y-101652757D01*
X157534176Y-102056077D01*
X157315561Y-102582561D01*
X156375000Y-101642000D01*
X156375000Y-101558000D01*
X157380000Y-100553000D01*
X158496000Y-100553000D01*
X158872943Y-100478021D01*
X159192500Y-100264500D01*
X159406021Y-99944943D01*
X159481000Y-99568000D01*
X159406021Y-99191057D01*
X159192500Y-98871500D01*
X158872943Y-98657979D01*
X158496000Y-98583000D01*
X156972000Y-98583000D01*
X156595057Y-98657979D01*
X156275500Y-98871500D01*
X155338653Y-99808347D01*
X154940000Y-99729050D01*
X154390849Y-99838283D01*
X153925302Y-100149352D01*
X153670000Y-100531438D01*
X153414698Y-100149352D01*
X152949151Y-99838283D01*
X152400000Y-99729050D01*
X151850849Y-99838283D01*
X151385302Y-100149352D01*
X151130000Y-100531438D01*
X150874698Y-100149352D01*
X150409151Y-99838283D01*
X149860000Y-99729050D01*
X149310849Y-99838283D01*
X148845302Y-100149352D01*
X148747749Y-100295350D01*
X148723162Y-100164683D01*
X148584090Y-99948559D01*
X148371890Y-99803569D01*
X148120000Y-99752560D01*
X146520000Y-99752560D01*
X146284683Y-99796838D01*
X146068559Y-99935910D01*
X145923569Y-100148110D01*
X145872560Y-100400000D01*
X145872560Y-101336704D01*
X145664943Y-101197979D01*
X145288000Y-101123000D01*
X144911057Y-101197979D01*
X144591500Y-101411500D01*
X144377979Y-101731057D01*
X144303000Y-102108000D01*
X144303000Y-103077650D01*
X144047036Y-102906621D01*
X143536154Y-102805000D01*
X143483846Y-102805000D01*
X142972964Y-102906621D01*
X142539858Y-103196012D01*
X142250467Y-103629118D01*
X142235165Y-103706045D01*
X142102418Y-103384771D01*
X141727204Y-103008902D01*
X141236713Y-102805232D01*
X140705617Y-102804769D01*
X140214771Y-103007582D01*
X139838902Y-103382796D01*
X139692843Y-103734545D01*
X139579797Y-103461604D01*
X139232663Y-103073236D01*
X138763331Y-102847273D01*
X138557000Y-102969794D01*
X138557000Y-104013000D01*
X138577000Y-104013000D01*
X138577000Y-104267000D01*
X138557000Y-104267000D01*
X138557000Y-104287000D01*
X138303000Y-104287000D01*
X138303000Y-104267000D01*
X138283000Y-104267000D01*
X138283000Y-104013000D01*
X138303000Y-104013000D01*
X138303000Y-102969794D01*
X138096669Y-102847273D01*
X137627337Y-103073236D01*
X137280203Y-103461604D01*
X137167049Y-103734806D01*
X137022418Y-103384771D01*
X136647204Y-103008902D01*
X136156713Y-102805232D01*
X135625617Y-102804769D01*
X135134771Y-103007582D01*
X134758902Y-103382796D01*
X134619909Y-103717527D01*
X134482418Y-103384771D01*
X134107204Y-103008902D01*
X133616713Y-102805232D01*
X133085617Y-102804769D01*
X132594771Y-103007582D01*
X132218902Y-103382796D01*
X132084784Y-103705788D01*
X132069533Y-103629118D01*
X131780142Y-103196012D01*
X131347036Y-102906621D01*
X130836154Y-102805000D01*
X130783846Y-102805000D01*
X130272964Y-102906621D01*
X129839858Y-103196012D01*
X129550467Y-103629118D01*
X129448846Y-104140000D01*
X128870950Y-104140000D01*
X128761717Y-103590849D01*
X128450648Y-103125302D01*
X128068562Y-102870000D01*
X128450648Y-102614698D01*
X128761717Y-102149151D01*
X128870950Y-101600000D01*
X128818785Y-101337745D01*
X130061861Y-101337745D01*
X130135995Y-101583864D01*
X130673223Y-101776965D01*
X131243454Y-101749778D01*
X131644005Y-101583864D01*
X131718139Y-101337745D01*
X130890000Y-100509605D01*
X130061861Y-101337745D01*
X128818785Y-101337745D01*
X128761717Y-101050849D01*
X128450648Y-100585302D01*
X128068562Y-100330000D01*
X128392991Y-100113223D01*
X129443035Y-100113223D01*
X129470222Y-100683454D01*
X129636136Y-101084005D01*
X129882255Y-101158139D01*
X130710395Y-100330000D01*
X131069605Y-100330000D01*
X131897745Y-101158139D01*
X132143864Y-101084005D01*
X132312735Y-100614187D01*
X134454752Y-100614187D01*
X134672757Y-101141800D01*
X135076077Y-101545824D01*
X135603309Y-101764750D01*
X136174187Y-101765248D01*
X136701800Y-101547243D01*
X136911663Y-101337745D01*
X137681861Y-101337745D01*
X137755995Y-101583864D01*
X138293223Y-101776965D01*
X138863454Y-101749778D01*
X139264005Y-101583864D01*
X139338139Y-101337745D01*
X138510000Y-100509605D01*
X137681861Y-101337745D01*
X136911663Y-101337745D01*
X137105824Y-101143923D01*
X137193497Y-100932782D01*
X137256136Y-101084005D01*
X137502255Y-101158139D01*
X138330395Y-100330000D01*
X138689605Y-100330000D01*
X139517745Y-101158139D01*
X139763864Y-101084005D01*
X139932735Y-100614187D01*
X142074752Y-100614187D01*
X142292757Y-101141800D01*
X142696077Y-101545824D01*
X143223309Y-101764750D01*
X143794187Y-101765248D01*
X144321800Y-101547243D01*
X144725824Y-101143923D01*
X144944750Y-100616691D01*
X144945248Y-100045813D01*
X144727243Y-99518200D01*
X144323923Y-99114176D01*
X143796691Y-98895250D01*
X143225813Y-98894752D01*
X142698200Y-99112757D01*
X142294176Y-99516077D01*
X142075250Y-100043309D01*
X142074752Y-100614187D01*
X139932735Y-100614187D01*
X139956965Y-100546777D01*
X139929778Y-99976546D01*
X139763864Y-99575995D01*
X139517745Y-99501861D01*
X138689605Y-100330000D01*
X138330395Y-100330000D01*
X137502255Y-99501861D01*
X137256136Y-99575995D01*
X137197978Y-99737796D01*
X137107243Y-99518200D01*
X136911640Y-99322255D01*
X137681861Y-99322255D01*
X138510000Y-100150395D01*
X139338139Y-99322255D01*
X139264005Y-99076136D01*
X138726777Y-98883035D01*
X138156546Y-98910222D01*
X137755995Y-99076136D01*
X137681861Y-99322255D01*
X136911640Y-99322255D01*
X136703923Y-99114176D01*
X136176691Y-98895250D01*
X135605813Y-98894752D01*
X135078200Y-99112757D01*
X134674176Y-99516077D01*
X134455250Y-100043309D01*
X134454752Y-100614187D01*
X132312735Y-100614187D01*
X132336965Y-100546777D01*
X132309778Y-99976546D01*
X132143864Y-99575995D01*
X131897745Y-99501861D01*
X131069605Y-100330000D01*
X130710395Y-100330000D01*
X129882255Y-99501861D01*
X129636136Y-99575995D01*
X129443035Y-100113223D01*
X128392991Y-100113223D01*
X128450648Y-100074698D01*
X128761717Y-99609151D01*
X128818784Y-99322255D01*
X130061861Y-99322255D01*
X130890000Y-100150395D01*
X131718139Y-99322255D01*
X131644005Y-99076136D01*
X131106777Y-98883035D01*
X130536546Y-98910222D01*
X130135995Y-99076136D01*
X130061861Y-99322255D01*
X128818784Y-99322255D01*
X128870950Y-99060000D01*
X128761717Y-98510849D01*
X128450648Y-98045302D01*
X128068562Y-97790000D01*
X128450648Y-97534698D01*
X128761717Y-97069151D01*
X128870950Y-96520000D01*
X128818785Y-96257745D01*
X130061861Y-96257745D01*
X130135995Y-96503864D01*
X130673223Y-96696965D01*
X131243454Y-96669778D01*
X131644005Y-96503864D01*
X131718139Y-96257745D01*
X130890000Y-95429605D01*
X130061861Y-96257745D01*
X128818785Y-96257745D01*
X128761717Y-95970849D01*
X128450648Y-95505302D01*
X128068562Y-95250000D01*
X128392991Y-95033223D01*
X129443035Y-95033223D01*
X129470222Y-95603454D01*
X129636136Y-96004005D01*
X129882255Y-96078139D01*
X130710395Y-95250000D01*
X131069605Y-95250000D01*
X131897745Y-96078139D01*
X132143864Y-96004005D01*
X132312735Y-95534187D01*
X134454752Y-95534187D01*
X134672757Y-96061800D01*
X135076077Y-96465824D01*
X135603309Y-96684750D01*
X136174187Y-96685248D01*
X136701800Y-96467243D01*
X137105824Y-96063923D01*
X137199961Y-95837216D01*
X137292757Y-96061800D01*
X137696077Y-96465824D01*
X138223309Y-96684750D01*
X138794187Y-96685248D01*
X139321800Y-96467243D01*
X139725824Y-96063923D01*
X139944750Y-95536691D01*
X139944752Y-95534187D01*
X142074752Y-95534187D01*
X142292757Y-96061800D01*
X142696077Y-96465824D01*
X143223309Y-96684750D01*
X143794187Y-96685248D01*
X144321800Y-96467243D01*
X144725824Y-96063923D01*
X144944750Y-95536691D01*
X144945248Y-94965813D01*
X144727243Y-94438200D01*
X144323923Y-94034176D01*
X143796691Y-93815250D01*
X143225813Y-93814752D01*
X142698200Y-94032757D01*
X142294176Y-94436077D01*
X142075250Y-94963309D01*
X142074752Y-95534187D01*
X139944752Y-95534187D01*
X139945248Y-94965813D01*
X139727243Y-94438200D01*
X139323923Y-94034176D01*
X138796691Y-93815250D01*
X138225813Y-93814752D01*
X137698200Y-94032757D01*
X137294176Y-94436077D01*
X137200039Y-94662784D01*
X137107243Y-94438200D01*
X136703923Y-94034176D01*
X136176691Y-93815250D01*
X135605813Y-93814752D01*
X135078200Y-94032757D01*
X134674176Y-94436077D01*
X134455250Y-94963309D01*
X134454752Y-95534187D01*
X132312735Y-95534187D01*
X132336965Y-95466777D01*
X132309778Y-94896546D01*
X132143864Y-94495995D01*
X131897745Y-94421861D01*
X131069605Y-95250000D01*
X130710395Y-95250000D01*
X129882255Y-94421861D01*
X129636136Y-94495995D01*
X129443035Y-95033223D01*
X128392991Y-95033223D01*
X128450648Y-94994698D01*
X128761717Y-94529151D01*
X128818784Y-94242255D01*
X130061861Y-94242255D01*
X130890000Y-95070395D01*
X131718139Y-94242255D01*
X131644005Y-93996136D01*
X131106777Y-93803035D01*
X130536546Y-93830222D01*
X130135995Y-93996136D01*
X130061861Y-94242255D01*
X128818784Y-94242255D01*
X128870950Y-93980000D01*
X128784235Y-93544050D01*
X145885000Y-93544050D01*
X145885000Y-94415950D01*
X145994233Y-94965101D01*
X146305302Y-95430648D01*
X146770849Y-95741717D01*
X147320000Y-95850950D01*
X147869151Y-95741717D01*
X148334698Y-95430648D01*
X148590000Y-95048562D01*
X148845302Y-95430648D01*
X149310849Y-95741717D01*
X149860000Y-95850950D01*
X150409151Y-95741717D01*
X150874698Y-95430648D01*
X151130000Y-95048562D01*
X151385302Y-95430648D01*
X151850849Y-95741717D01*
X152400000Y-95850950D01*
X152949151Y-95741717D01*
X153414698Y-95430648D01*
X153670000Y-95048562D01*
X153925302Y-95430648D01*
X154390849Y-95741717D01*
X154940000Y-95850950D01*
X155489151Y-95741717D01*
X155799741Y-95534187D01*
X166284752Y-95534187D01*
X166502757Y-96061800D01*
X166906077Y-96465824D01*
X167433309Y-96684750D01*
X168004187Y-96685248D01*
X168531800Y-96467243D01*
X168935824Y-96063923D01*
X169154750Y-95536691D01*
X169155248Y-94965813D01*
X168937243Y-94438200D01*
X168533923Y-94034176D01*
X168006691Y-93815250D01*
X167435813Y-93814752D01*
X166908200Y-94032757D01*
X166504176Y-94436077D01*
X166285250Y-94963309D01*
X166284752Y-95534187D01*
X155799741Y-95534187D01*
X155954698Y-95430648D01*
X156250636Y-94987745D01*
X158001861Y-94987745D01*
X158075995Y-95233864D01*
X158613223Y-95426965D01*
X159183454Y-95399778D01*
X159584005Y-95233864D01*
X159658139Y-94987745D01*
X158830000Y-94159605D01*
X158001861Y-94987745D01*
X156250636Y-94987745D01*
X156265767Y-94965101D01*
X156375000Y-94415950D01*
X156375000Y-93763223D01*
X157383035Y-93763223D01*
X157410222Y-94333454D01*
X157576136Y-94734005D01*
X157822255Y-94808139D01*
X158650395Y-93980000D01*
X159009605Y-93980000D01*
X159837745Y-94808139D01*
X160083864Y-94734005D01*
X160252735Y-94264187D01*
X162394752Y-94264187D01*
X162612757Y-94791800D01*
X163016077Y-95195824D01*
X163543309Y-95414750D01*
X164114187Y-95415248D01*
X164641800Y-95197243D01*
X165045824Y-94793923D01*
X165264750Y-94266691D01*
X165265248Y-93695813D01*
X165047243Y-93168200D01*
X164643923Y-92764176D01*
X164116691Y-92545250D01*
X163545813Y-92544752D01*
X163018200Y-92762757D01*
X162614176Y-93166077D01*
X162395250Y-93693309D01*
X162394752Y-94264187D01*
X160252735Y-94264187D01*
X160276965Y-94196777D01*
X160249778Y-93626546D01*
X160083864Y-93225995D01*
X159837745Y-93151861D01*
X159009605Y-93980000D01*
X158650395Y-93980000D01*
X157822255Y-93151861D01*
X157576136Y-93225995D01*
X157383035Y-93763223D01*
X156375000Y-93763223D01*
X156375000Y-93544050D01*
X156265767Y-92994899D01*
X156250637Y-92972255D01*
X158001861Y-92972255D01*
X158830000Y-93800395D01*
X159658139Y-92972255D01*
X159584005Y-92726136D01*
X159046777Y-92533035D01*
X158476546Y-92560222D01*
X158075995Y-92726136D01*
X158001861Y-92972255D01*
X156250637Y-92972255D01*
X155954698Y-92529352D01*
X155489151Y-92218283D01*
X154940000Y-92109050D01*
X154390849Y-92218283D01*
X153925302Y-92529352D01*
X153670000Y-92911438D01*
X153414698Y-92529352D01*
X152949151Y-92218283D01*
X152400000Y-92109050D01*
X151850849Y-92218283D01*
X151385302Y-92529352D01*
X151130000Y-92911438D01*
X150874698Y-92529352D01*
X150845000Y-92509508D01*
X150845000Y-91810000D01*
X173712560Y-91810000D01*
X173712560Y-93610000D01*
X173756838Y-93845317D01*
X173895910Y-94061441D01*
X174108110Y-94206431D01*
X174360000Y-94257440D01*
X176160000Y-94257440D01*
X176395317Y-94213162D01*
X176611441Y-94074090D01*
X176750598Y-93870426D01*
X176784890Y-93904718D01*
X176899447Y-93790161D01*
X176985852Y-94046643D01*
X177559336Y-94256458D01*
X178169460Y-94230839D01*
X178614148Y-94046643D01*
X178700554Y-93790159D01*
X177800000Y-92889605D01*
X177785858Y-92903748D01*
X177606253Y-92724143D01*
X177620395Y-92710000D01*
X177606253Y-92695858D01*
X177785858Y-92516253D01*
X177800000Y-92530395D01*
X178700554Y-91629841D01*
X178614148Y-91373357D01*
X178040664Y-91163542D01*
X177430540Y-91189161D01*
X176985852Y-91373357D01*
X176899447Y-91629839D01*
X176784890Y-91515282D01*
X176748412Y-91551760D01*
X176624090Y-91358559D01*
X176411890Y-91213569D01*
X176160000Y-91162560D01*
X174360000Y-91162560D01*
X174124683Y-91206838D01*
X173908559Y-91345910D01*
X173763569Y-91558110D01*
X173712560Y-91810000D01*
X150845000Y-91810000D01*
X150845000Y-90658000D01*
X152438037Y-89064963D01*
X152764187Y-89065248D01*
X153291800Y-88847243D01*
X153695824Y-88443923D01*
X153914750Y-87916691D01*
X153914752Y-87914187D01*
X156044752Y-87914187D01*
X156262757Y-88441800D01*
X156666077Y-88845824D01*
X157193309Y-89064750D01*
X157764187Y-89065248D01*
X158291800Y-88847243D01*
X158695824Y-88443923D01*
X158914750Y-87916691D01*
X158915248Y-87345813D01*
X158697243Y-86818200D01*
X158293923Y-86414176D01*
X157766691Y-86195250D01*
X157195813Y-86194752D01*
X156668200Y-86412757D01*
X156264176Y-86816077D01*
X156045250Y-87343309D01*
X156044752Y-87914187D01*
X153914752Y-87914187D01*
X153915248Y-87345813D01*
X153697243Y-86818200D01*
X153293923Y-86414176D01*
X152766691Y-86195250D01*
X152607889Y-86195111D01*
X154078000Y-84725000D01*
X155165655Y-84725000D01*
X155396077Y-84955824D01*
X155923309Y-85174750D01*
X156494187Y-85175248D01*
X157021800Y-84957243D01*
X157254448Y-84725000D01*
X158662000Y-84725000D01*
X161019797Y-87082797D01*
X160740849Y-87138283D01*
X160275302Y-87449352D01*
X159964233Y-87914899D01*
X159855000Y-88464050D01*
X159855000Y-89335950D01*
X159964233Y-89885101D01*
X160275302Y-90350648D01*
X160740849Y-90661717D01*
X161290000Y-90770950D01*
X161839151Y-90661717D01*
X162304698Y-90350648D01*
X162560000Y-89968562D01*
X162815302Y-90350648D01*
X163280849Y-90661717D01*
X163830000Y-90770950D01*
X164379151Y-90661717D01*
X164844698Y-90350648D01*
X165100000Y-89968562D01*
X165355302Y-90350648D01*
X165820849Y-90661717D01*
X166370000Y-90770950D01*
X166919151Y-90661717D01*
X167384698Y-90350648D01*
X167640000Y-89968562D01*
X167895302Y-90350648D01*
X168360849Y-90661717D01*
X168910000Y-90770950D01*
X169459151Y-90661717D01*
X169924698Y-90350648D01*
X170235767Y-89885101D01*
X170345000Y-89335950D01*
X170345000Y-88464050D01*
X170235767Y-87914899D01*
X169924698Y-87449352D01*
X169459151Y-87138283D01*
X168910000Y-87029050D01*
X168360849Y-87138283D01*
X167895302Y-87449352D01*
X167640000Y-87831438D01*
X167384698Y-87449352D01*
X166919151Y-87138283D01*
X166370000Y-87029050D01*
X165820849Y-87138283D01*
X165355302Y-87449352D01*
X165100000Y-87831438D01*
X164844698Y-87449352D01*
X164379151Y-87138283D01*
X163830000Y-87029050D01*
X163764983Y-87041983D01*
X163453000Y-86730000D01*
X173712560Y-86730000D01*
X173712560Y-88530000D01*
X173756838Y-88765317D01*
X173895910Y-88981441D01*
X174108110Y-89126431D01*
X174360000Y-89177440D01*
X176160000Y-89177440D01*
X176395317Y-89133162D01*
X176611441Y-88994090D01*
X176750598Y-88790426D01*
X176784890Y-88824718D01*
X176899447Y-88710161D01*
X176985852Y-88966643D01*
X177559336Y-89176458D01*
X178169460Y-89150839D01*
X178614148Y-88966643D01*
X178700554Y-88710159D01*
X177800000Y-87809605D01*
X177785858Y-87823748D01*
X177606253Y-87644143D01*
X177620395Y-87630000D01*
X177606253Y-87615858D01*
X177785858Y-87436253D01*
X177800000Y-87450395D01*
X178700554Y-86549841D01*
X178614148Y-86293357D01*
X178040664Y-86083542D01*
X177430540Y-86109161D01*
X176985852Y-86293357D01*
X176899447Y-86549839D01*
X176784890Y-86435282D01*
X176748412Y-86471760D01*
X176624090Y-86278559D01*
X176411890Y-86133569D01*
X176160000Y-86082560D01*
X174360000Y-86082560D01*
X174124683Y-86126838D01*
X173908559Y-86265910D01*
X173763569Y-86478110D01*
X173712560Y-86730000D01*
X163453000Y-86730000D01*
X159766500Y-83043500D01*
X159446943Y-82829979D01*
X159070000Y-82755000D01*
X157254345Y-82755000D01*
X157023923Y-82524176D01*
X156496691Y-82305250D01*
X155925813Y-82304752D01*
X155398200Y-82522757D01*
X155165552Y-82755000D01*
X153670000Y-82755000D01*
X153293057Y-82829979D01*
X152973500Y-83043500D01*
X147869963Y-88147037D01*
X147543813Y-88146752D01*
X147016200Y-88364757D01*
X146612176Y-88768077D01*
X146393250Y-89295309D01*
X146392752Y-89866187D01*
X146610757Y-90393800D01*
X146843000Y-90626448D01*
X146843000Y-92203931D01*
X146770849Y-92218283D01*
X146305302Y-92529352D01*
X145994233Y-92994899D01*
X145885000Y-93544050D01*
X128784235Y-93544050D01*
X128761717Y-93430849D01*
X128450648Y-92965302D01*
X128068562Y-92710000D01*
X128450648Y-92454698D01*
X128761717Y-91989151D01*
X128870950Y-91440000D01*
X128761717Y-90890849D01*
X128450648Y-90425302D01*
X128068562Y-90170000D01*
X128450648Y-89914698D01*
X128761717Y-89449151D01*
X128870950Y-88900000D01*
X129448846Y-88900000D01*
X129550467Y-89410882D01*
X129839858Y-89843988D01*
X130272964Y-90133379D01*
X130457070Y-90170000D01*
X130272964Y-90206621D01*
X129839858Y-90496012D01*
X129550467Y-90929118D01*
X129448846Y-91440000D01*
X129550467Y-91950882D01*
X129839858Y-92383988D01*
X130272964Y-92673379D01*
X130783846Y-92775000D01*
X130836154Y-92775000D01*
X131347036Y-92673379D01*
X131780142Y-92383988D01*
X132069533Y-91950882D01*
X132084835Y-91873955D01*
X132217582Y-92195229D01*
X132592796Y-92571098D01*
X133083287Y-92774768D01*
X133614383Y-92775231D01*
X134105229Y-92572418D01*
X134481098Y-92197204D01*
X134615216Y-91874212D01*
X134630467Y-91950882D01*
X134919858Y-92383988D01*
X135352964Y-92673379D01*
X135863846Y-92775000D01*
X135916154Y-92775000D01*
X136427036Y-92673379D01*
X136860142Y-92383988D01*
X137149533Y-91950882D01*
X137164835Y-91873955D01*
X137297582Y-92195229D01*
X137672796Y-92571098D01*
X138163287Y-92774768D01*
X138694383Y-92775231D01*
X139185229Y-92572418D01*
X139561098Y-92197204D01*
X139700091Y-91862473D01*
X139837582Y-92195229D01*
X140212796Y-92571098D01*
X140703287Y-92774768D01*
X141234383Y-92775231D01*
X141725229Y-92572418D01*
X142101098Y-92197204D01*
X142235216Y-91874212D01*
X142250467Y-91950882D01*
X142539858Y-92383988D01*
X142972964Y-92673379D01*
X143483846Y-92775000D01*
X143536154Y-92775000D01*
X144047036Y-92673379D01*
X144480142Y-92383988D01*
X144769533Y-91950882D01*
X144871154Y-91440000D01*
X144769533Y-90929118D01*
X144480142Y-90496012D01*
X144047036Y-90206621D01*
X143862930Y-90170000D01*
X144047036Y-90133379D01*
X144480142Y-89843988D01*
X144769533Y-89410882D01*
X144871154Y-88900000D01*
X144769533Y-88389118D01*
X144480142Y-87956012D01*
X144047036Y-87666621D01*
X143536154Y-87565000D01*
X143483846Y-87565000D01*
X142972964Y-87666621D01*
X142539858Y-87956012D01*
X142250467Y-88389118D01*
X142235165Y-88466045D01*
X142102418Y-88144771D01*
X141727204Y-87768902D01*
X141236713Y-87565232D01*
X140705617Y-87564769D01*
X140214771Y-87767582D01*
X139838902Y-88142796D01*
X139692843Y-88494545D01*
X139579797Y-88221604D01*
X139232663Y-87833236D01*
X138763331Y-87607273D01*
X138557000Y-87729794D01*
X138557000Y-88773000D01*
X138577000Y-88773000D01*
X138577000Y-89027000D01*
X138557000Y-89027000D01*
X138557000Y-89047000D01*
X138303000Y-89047000D01*
X138303000Y-89027000D01*
X138283000Y-89027000D01*
X138283000Y-88773000D01*
X138303000Y-88773000D01*
X138303000Y-87729794D01*
X138096669Y-87607273D01*
X137627337Y-87833236D01*
X137280203Y-88221604D01*
X137167049Y-88494806D01*
X137022418Y-88144771D01*
X136647204Y-87768902D01*
X136156713Y-87565232D01*
X135625617Y-87564769D01*
X135134771Y-87767582D01*
X134758902Y-88142796D01*
X134619909Y-88477527D01*
X134482418Y-88144771D01*
X134107204Y-87768902D01*
X133616713Y-87565232D01*
X133085617Y-87564769D01*
X132594771Y-87767582D01*
X132218902Y-88142796D01*
X132084784Y-88465788D01*
X132069533Y-88389118D01*
X131780142Y-87956012D01*
X131347036Y-87666621D01*
X130836154Y-87565000D01*
X130783846Y-87565000D01*
X130272964Y-87666621D01*
X129839858Y-87956012D01*
X129550467Y-88389118D01*
X129448846Y-88900000D01*
X128870950Y-88900000D01*
X128761717Y-88350849D01*
X128450648Y-87885302D01*
X128068562Y-87630000D01*
X128450648Y-87374698D01*
X128761717Y-86909151D01*
X128870950Y-86360000D01*
X128818785Y-86097745D01*
X130061861Y-86097745D01*
X130135995Y-86343864D01*
X130673223Y-86536965D01*
X131243454Y-86509778D01*
X131644005Y-86343864D01*
X131718139Y-86097745D01*
X130890000Y-85269605D01*
X130061861Y-86097745D01*
X128818785Y-86097745D01*
X128761717Y-85810849D01*
X128450648Y-85345302D01*
X127985101Y-85034233D01*
X127435950Y-84925000D01*
X126564050Y-84925000D01*
X126014899Y-85034233D01*
X125549352Y-85345302D01*
X125238283Y-85810849D01*
X125129050Y-86360000D01*
X125238283Y-86909151D01*
X125549352Y-87374698D01*
X125931438Y-87630000D01*
X125549352Y-87885302D01*
X125238283Y-88350849D01*
X125129050Y-88900000D01*
X125238283Y-89449151D01*
X125549352Y-89914698D01*
X125931438Y-90170000D01*
X125549352Y-90425302D01*
X125238283Y-90890849D01*
X125129050Y-91440000D01*
X125238283Y-91989151D01*
X125549352Y-92454698D01*
X125931438Y-92710000D01*
X125549352Y-92965302D01*
X125238283Y-93430849D01*
X125129050Y-93980000D01*
X125238283Y-94529151D01*
X125549352Y-94994698D01*
X125931438Y-95250000D01*
X125549352Y-95505302D01*
X125238283Y-95970849D01*
X125129050Y-96520000D01*
X125238283Y-97069151D01*
X125549352Y-97534698D01*
X125931438Y-97790000D01*
X125549352Y-98045302D01*
X125238283Y-98510849D01*
X125129050Y-99060000D01*
X125238283Y-99609151D01*
X125549352Y-100074698D01*
X125931438Y-100330000D01*
X125549352Y-100585302D01*
X125238283Y-101050849D01*
X125129050Y-101600000D01*
X125238283Y-102149151D01*
X125549352Y-102614698D01*
X125931438Y-102870000D01*
X125549352Y-103125302D01*
X125238283Y-103590849D01*
X125129050Y-104140000D01*
X125238283Y-104689151D01*
X125549352Y-105154698D01*
X125931438Y-105410000D01*
X125549352Y-105665302D01*
X125238283Y-106130849D01*
X125129050Y-106680000D01*
X125238283Y-107229151D01*
X125549352Y-107694698D01*
X125931438Y-107950000D01*
X125549352Y-108205302D01*
X125238283Y-108670849D01*
X125129050Y-109220000D01*
X125208347Y-109618653D01*
X121354051Y-113472949D01*
X121147617Y-113472769D01*
X120656771Y-113675582D01*
X120280902Y-114050796D01*
X120146784Y-114373788D01*
X120131533Y-114297118D01*
X119842142Y-113864012D01*
X119409036Y-113574621D01*
X118937907Y-113480907D01*
X117825000Y-112368000D01*
X117825000Y-110078524D01*
X117929352Y-110234698D01*
X118394899Y-110545767D01*
X118944050Y-110655000D01*
X119815950Y-110655000D01*
X120365101Y-110545767D01*
X120830648Y-110234698D01*
X121141717Y-109769151D01*
X121250950Y-109220000D01*
X121141717Y-108670849D01*
X120830648Y-108205302D01*
X120448562Y-107950000D01*
X120830648Y-107694698D01*
X121141717Y-107229151D01*
X121250950Y-106680000D01*
X121141717Y-106130849D01*
X120830648Y-105665302D01*
X120448562Y-105410000D01*
X120830648Y-105154698D01*
X121141717Y-104689151D01*
X121250950Y-104140000D01*
X121141717Y-103590849D01*
X120830648Y-103125302D01*
X120448562Y-102870000D01*
X120830648Y-102614698D01*
X121141717Y-102149151D01*
X121250950Y-101600000D01*
X121141717Y-101050849D01*
X120830648Y-100585302D01*
X120448562Y-100330000D01*
X120830648Y-100074698D01*
X121141717Y-99609151D01*
X121250950Y-99060000D01*
X121141717Y-98510849D01*
X120830648Y-98045302D01*
X120452293Y-97792493D01*
X120884500Y-97444896D01*
X121154367Y-96951819D01*
X121171904Y-96869039D01*
X121049915Y-96647000D01*
X119507000Y-96647000D01*
X119507000Y-96667000D01*
X119253000Y-96667000D01*
X119253000Y-96647000D01*
X117710085Y-96647000D01*
X117588096Y-96869039D01*
X117605633Y-96951819D01*
X117875500Y-97444896D01*
X118307707Y-97792493D01*
X117929352Y-98045302D01*
X117909508Y-98075000D01*
X117480000Y-98075000D01*
X117103057Y-98149979D01*
X116783500Y-98363500D01*
X116143500Y-99003500D01*
X115929979Y-99323057D01*
X115855000Y-99700000D01*
X111887000Y-99700000D01*
X111887000Y-96204491D01*
X111950853Y-96300054D01*
X112432622Y-96621961D01*
X113000907Y-96735000D01*
X113059093Y-96735000D01*
X113627378Y-96621961D01*
X114109147Y-96300054D01*
X114431054Y-95818285D01*
X114544093Y-95250000D01*
X114431054Y-94681715D01*
X114195404Y-94329039D01*
X117588096Y-94329039D01*
X117605633Y-94411819D01*
X117875500Y-94904896D01*
X118304607Y-95250000D01*
X117875500Y-95595104D01*
X117605633Y-96088181D01*
X117588096Y-96170961D01*
X117710085Y-96393000D01*
X119253000Y-96393000D01*
X119253000Y-94107000D01*
X119507000Y-94107000D01*
X119507000Y-96393000D01*
X121049915Y-96393000D01*
X121171904Y-96170961D01*
X121154367Y-96088181D01*
X120884500Y-95595104D01*
X120455393Y-95250000D01*
X120884500Y-94904896D01*
X121154367Y-94411819D01*
X121171904Y-94329039D01*
X121049915Y-94107000D01*
X119507000Y-94107000D01*
X119253000Y-94107000D01*
X117710085Y-94107000D01*
X117588096Y-94329039D01*
X114195404Y-94329039D01*
X114109147Y-94199946D01*
X113768447Y-93972298D01*
X113911358Y-93905183D01*
X114301645Y-93476924D01*
X114471476Y-93066890D01*
X114350155Y-92837000D01*
X113157000Y-92837000D01*
X113157000Y-92857000D01*
X112903000Y-92857000D01*
X112903000Y-92837000D01*
X112883000Y-92837000D01*
X112883000Y-92583000D01*
X112903000Y-92583000D01*
X112903000Y-92563000D01*
X113157000Y-92563000D01*
X113157000Y-92583000D01*
X114350155Y-92583000D01*
X114471476Y-92353110D01*
X114301645Y-91943076D01*
X113911358Y-91514817D01*
X113768447Y-91447702D01*
X114109147Y-91220054D01*
X114152615Y-91155000D01*
X114232081Y-91155000D01*
X114609024Y-91080021D01*
X114928581Y-90866500D01*
X115855000Y-89940081D01*
X115855000Y-90800000D01*
X115929979Y-91176943D01*
X116143500Y-91496500D01*
X116783500Y-92136500D01*
X117103057Y-92350021D01*
X117480000Y-92425000D01*
X117909508Y-92425000D01*
X117929352Y-92454698D01*
X118307707Y-92707507D01*
X117875500Y-93055104D01*
X117605633Y-93548181D01*
X117588096Y-93630961D01*
X117710085Y-93853000D01*
X119253000Y-93853000D01*
X119253000Y-93833000D01*
X119507000Y-93833000D01*
X119507000Y-93853000D01*
X121049915Y-93853000D01*
X121171904Y-93630961D01*
X121154367Y-93548181D01*
X120884500Y-93055104D01*
X120452293Y-92707507D01*
X120830648Y-92454698D01*
X121141717Y-91989151D01*
X121250950Y-91440000D01*
X121141717Y-90890849D01*
X120830648Y-90425302D01*
X120448562Y-90170000D01*
X120830648Y-89914698D01*
X121141717Y-89449151D01*
X121250950Y-88900000D01*
X121141717Y-88350849D01*
X120830648Y-87885302D01*
X120695502Y-87795000D01*
X120706309Y-87795000D01*
X120939698Y-87698327D01*
X121118327Y-87519699D01*
X121215000Y-87286310D01*
X121215000Y-86645750D01*
X121056250Y-86487000D01*
X119507000Y-86487000D01*
X119507000Y-86507000D01*
X119253000Y-86507000D01*
X119253000Y-86487000D01*
X119233000Y-86487000D01*
X119233000Y-86233000D01*
X119253000Y-86233000D01*
X119253000Y-85083750D01*
X119507000Y-85083750D01*
X119507000Y-86233000D01*
X121056250Y-86233000D01*
X121215000Y-86074250D01*
X121215000Y-85433690D01*
X121118327Y-85200301D01*
X120939698Y-85021673D01*
X120706309Y-84925000D01*
X119665750Y-84925000D01*
X119507000Y-85083750D01*
X119253000Y-85083750D01*
X119094250Y-84925000D01*
X118053691Y-84925000D01*
X117825000Y-85019727D01*
X117825000Y-84873223D01*
X129443035Y-84873223D01*
X129470222Y-85443454D01*
X129636136Y-85844005D01*
X129882255Y-85918139D01*
X130710395Y-85090000D01*
X131069605Y-85090000D01*
X131897745Y-85918139D01*
X132143864Y-85844005D01*
X132312735Y-85374187D01*
X134454752Y-85374187D01*
X134672757Y-85901800D01*
X135076077Y-86305824D01*
X135603309Y-86524750D01*
X136174187Y-86525248D01*
X136701800Y-86307243D01*
X136911663Y-86097745D01*
X137601861Y-86097745D01*
X137675995Y-86343864D01*
X138213223Y-86536965D01*
X138783454Y-86509778D01*
X139184005Y-86343864D01*
X139258139Y-86097745D01*
X138430000Y-85269605D01*
X137601861Y-86097745D01*
X136911663Y-86097745D01*
X137105824Y-85903923D01*
X137153448Y-85789232D01*
X137176136Y-85844005D01*
X137422255Y-85918139D01*
X138250395Y-85090000D01*
X138609605Y-85090000D01*
X139437745Y-85918139D01*
X139683864Y-85844005D01*
X139852735Y-85374187D01*
X141994752Y-85374187D01*
X142212757Y-85901800D01*
X142616077Y-86305824D01*
X143143309Y-86524750D01*
X143714187Y-86525248D01*
X144241800Y-86307243D01*
X144645824Y-85903923D01*
X144864750Y-85376691D01*
X144865195Y-84866187D01*
X146392752Y-84866187D01*
X146610757Y-85393800D01*
X147014077Y-85797824D01*
X147541309Y-86016750D01*
X148112187Y-86017248D01*
X148639800Y-85799243D01*
X149043824Y-85395923D01*
X149262750Y-84868691D01*
X149263248Y-84297813D01*
X149045243Y-83770200D01*
X148641923Y-83366176D01*
X148114691Y-83147250D01*
X147543813Y-83146752D01*
X147016200Y-83364757D01*
X146612176Y-83768077D01*
X146393250Y-84295309D01*
X146392752Y-84866187D01*
X144865195Y-84866187D01*
X144865248Y-84805813D01*
X144647243Y-84278200D01*
X144243923Y-83874176D01*
X143716691Y-83655250D01*
X143145813Y-83654752D01*
X142618200Y-83872757D01*
X142214176Y-84276077D01*
X141995250Y-84803309D01*
X141994752Y-85374187D01*
X139852735Y-85374187D01*
X139876965Y-85306777D01*
X139849778Y-84736546D01*
X139683864Y-84335995D01*
X139437745Y-84261861D01*
X138609605Y-85090000D01*
X138250395Y-85090000D01*
X137422255Y-84261861D01*
X137176136Y-84335995D01*
X137155195Y-84394254D01*
X137107243Y-84278200D01*
X136911640Y-84082255D01*
X137601861Y-84082255D01*
X138430000Y-84910395D01*
X139258139Y-84082255D01*
X139184005Y-83836136D01*
X138646777Y-83643035D01*
X138076546Y-83670222D01*
X137675995Y-83836136D01*
X137601861Y-84082255D01*
X136911640Y-84082255D01*
X136703923Y-83874176D01*
X136176691Y-83655250D01*
X135605813Y-83654752D01*
X135078200Y-83872757D01*
X134674176Y-84276077D01*
X134455250Y-84803309D01*
X134454752Y-85374187D01*
X132312735Y-85374187D01*
X132336965Y-85306777D01*
X132309778Y-84736546D01*
X132143864Y-84335995D01*
X131897745Y-84261861D01*
X131069605Y-85090000D01*
X130710395Y-85090000D01*
X129882255Y-84261861D01*
X129636136Y-84335995D01*
X129443035Y-84873223D01*
X117825000Y-84873223D01*
X117825000Y-84082255D01*
X130061861Y-84082255D01*
X130890000Y-84910395D01*
X131718139Y-84082255D01*
X131644005Y-83836136D01*
X131106777Y-83643035D01*
X130536546Y-83670222D01*
X130135995Y-83836136D01*
X130061861Y-84082255D01*
X117825000Y-84082255D01*
X117825000Y-82244345D01*
X118055824Y-82013923D01*
X118242570Y-81564187D01*
X121754752Y-81564187D01*
X121972757Y-82091800D01*
X122376077Y-82495824D01*
X122903309Y-82714750D01*
X123474187Y-82715248D01*
X124001800Y-82497243D01*
X124405824Y-82093923D01*
X124624750Y-81566691D01*
X124625248Y-80995813D01*
X124407243Y-80468200D01*
X124003923Y-80064176D01*
X123476691Y-79845250D01*
X122905813Y-79844752D01*
X122378200Y-80062757D01*
X121974176Y-80466077D01*
X121755250Y-80993309D01*
X121754752Y-81564187D01*
X118242570Y-81564187D01*
X118274750Y-81486691D01*
X118275248Y-80915813D01*
X118057243Y-80388200D01*
X117653923Y-79984176D01*
X117126691Y-79765250D01*
X116555813Y-79764752D01*
X116028200Y-79982757D01*
X115624176Y-80386077D01*
X115405250Y-80913309D01*
X115404752Y-81484187D01*
X115622757Y-82011800D01*
X115855000Y-82244448D01*
X115855000Y-87154081D01*
X114527023Y-88482058D01*
X114527440Y-88480000D01*
X114527440Y-86780000D01*
X114483162Y-86544683D01*
X114344090Y-86328559D01*
X114131890Y-86183569D01*
X114015000Y-86159898D01*
X114015000Y-79747745D01*
X155381861Y-79747745D01*
X155455995Y-79993864D01*
X155993223Y-80186965D01*
X156563454Y-80159778D01*
X156964005Y-79993864D01*
X157038139Y-79747745D01*
X156210000Y-78919605D01*
X155381861Y-79747745D01*
X114015000Y-79747745D01*
X114015000Y-78523223D01*
X154763035Y-78523223D01*
X154790222Y-79093454D01*
X154956136Y-79494005D01*
X155202255Y-79568139D01*
X156030395Y-78740000D01*
X156389605Y-78740000D01*
X157217745Y-79568139D01*
X157463864Y-79494005D01*
X157656965Y-78956777D01*
X157629778Y-78386546D01*
X157463864Y-77985995D01*
X157217745Y-77911861D01*
X156389605Y-78740000D01*
X156030395Y-78740000D01*
X155202255Y-77911861D01*
X154956136Y-77985995D01*
X154763035Y-78523223D01*
X114015000Y-78523223D01*
X114015000Y-77975998D01*
X114258743Y-77732255D01*
X155381861Y-77732255D01*
X156210000Y-78560395D01*
X157038139Y-77732255D01*
X156964005Y-77486136D01*
X156426777Y-77293035D01*
X155856546Y-77320222D01*
X155455995Y-77486136D01*
X155381861Y-77732255D01*
X114258743Y-77732255D01*
X114783253Y-77207745D01*
X116011861Y-77207745D01*
X116085995Y-77453864D01*
X116623223Y-77646965D01*
X117193454Y-77619778D01*
X117594005Y-77453864D01*
X117644042Y-77287745D01*
X122361861Y-77287745D01*
X122435995Y-77533864D01*
X122973223Y-77726965D01*
X123543454Y-77699778D01*
X123944005Y-77533864D01*
X124018139Y-77287745D01*
X123190000Y-76459605D01*
X122361861Y-77287745D01*
X117644042Y-77287745D01*
X117668139Y-77207745D01*
X116840000Y-76379605D01*
X116011861Y-77207745D01*
X114783253Y-77207745D01*
X115425296Y-76565702D01*
X115586136Y-76954005D01*
X115832255Y-77028139D01*
X116660395Y-76200000D01*
X116646252Y-76185858D01*
X116825858Y-76006252D01*
X116840000Y-76020395D01*
X116854142Y-76006252D01*
X117033748Y-76185858D01*
X117019605Y-76200000D01*
X117847745Y-77028139D01*
X118093864Y-76954005D01*
X118286965Y-76416777D01*
X118259778Y-75846546D01*
X118130731Y-75534999D01*
X121932900Y-75534999D01*
X121743035Y-76063223D01*
X121770222Y-76633454D01*
X121936136Y-77034005D01*
X122182255Y-77108139D01*
X123010395Y-76280000D01*
X122996252Y-76265858D01*
X123175858Y-76086252D01*
X123190000Y-76100395D01*
X123204142Y-76086252D01*
X123383748Y-76265858D01*
X123369605Y-76280000D01*
X124197745Y-77108139D01*
X124443864Y-77034005D01*
X124636965Y-76496777D01*
X124609778Y-75926546D01*
X124447594Y-75534999D01*
X158582535Y-75534999D01*
X160452036Y-77404500D01*
X162868522Y-79820987D01*
X162557507Y-80207707D01*
X162304698Y-79829352D01*
X161839151Y-79518283D01*
X161290000Y-79409050D01*
X160740849Y-79518283D01*
X160275302Y-79829352D01*
X159964233Y-80294899D01*
X159855000Y-80844050D01*
X159855000Y-81715950D01*
X159964233Y-82265101D01*
X160275302Y-82730648D01*
X160740849Y-83041717D01*
X161290000Y-83150950D01*
X161839151Y-83041717D01*
X162304698Y-82730648D01*
X162557507Y-82352293D01*
X162905104Y-82784500D01*
X163398181Y-83054367D01*
X163480961Y-83071904D01*
X163703000Y-82949915D01*
X163703000Y-81407000D01*
X163683000Y-81407000D01*
X163683000Y-81153000D01*
X163703000Y-81153000D01*
X163703000Y-81133000D01*
X163957000Y-81133000D01*
X163957000Y-81153000D01*
X163977000Y-81153000D01*
X163977000Y-81407000D01*
X163957000Y-81407000D01*
X163957000Y-82949915D01*
X164179039Y-83071904D01*
X164261819Y-83054367D01*
X164754896Y-82784500D01*
X165102493Y-82352293D01*
X165355302Y-82730648D01*
X165820849Y-83041717D01*
X166370000Y-83150950D01*
X166919151Y-83041717D01*
X167384698Y-82730648D01*
X167482251Y-82584650D01*
X167506838Y-82715317D01*
X167645910Y-82931441D01*
X167858110Y-83076431D01*
X168110000Y-83127440D01*
X169710000Y-83127440D01*
X169945317Y-83083162D01*
X170161441Y-82944090D01*
X170306431Y-82731890D01*
X170357440Y-82480000D01*
X170357440Y-80214990D01*
X172328008Y-80214990D01*
X172704951Y-80140011D01*
X173024508Y-79926490D01*
X173854592Y-79096406D01*
X174042757Y-79551800D01*
X174446077Y-79955824D01*
X174973309Y-80174750D01*
X175544187Y-80175248D01*
X176071800Y-79957243D01*
X176475824Y-79553923D01*
X176668860Y-79089039D01*
X184028096Y-79089039D01*
X184188959Y-79477423D01*
X184564866Y-79892389D01*
X185070959Y-80131914D01*
X185293000Y-80010629D01*
X185293000Y-78867000D01*
X184150085Y-78867000D01*
X184028096Y-79089039D01*
X176668860Y-79089039D01*
X176694750Y-79026691D01*
X176695248Y-78455813D01*
X176537899Y-78074999D01*
X184158963Y-78074999D01*
X184028096Y-78390961D01*
X184150085Y-78613000D01*
X185293000Y-78613000D01*
X185293000Y-78593000D01*
X185547000Y-78593000D01*
X185547000Y-78613000D01*
X185567000Y-78613000D01*
X185567000Y-78867000D01*
X185547000Y-78867000D01*
X185547000Y-80010629D01*
X185769041Y-80131914D01*
X186085001Y-79982376D01*
X186085001Y-82655690D01*
X182806846Y-85933846D01*
X179996500Y-83123500D01*
X179676943Y-82909979D01*
X179300000Y-82835000D01*
X179212630Y-82835000D01*
X179203162Y-82784683D01*
X179064090Y-82568559D01*
X179036928Y-82550000D01*
X180146887Y-82550000D01*
X180256120Y-83099151D01*
X180567189Y-83564698D01*
X181032736Y-83875767D01*
X181581887Y-83985000D01*
X181638113Y-83985000D01*
X182187264Y-83875767D01*
X182652811Y-83564698D01*
X182963880Y-83099151D01*
X183073113Y-82550000D01*
X182963880Y-82000849D01*
X182652811Y-81535302D01*
X182187264Y-81224233D01*
X181638113Y-81115000D01*
X181581887Y-81115000D01*
X181032736Y-81224233D01*
X180567189Y-81535302D01*
X180256120Y-82000849D01*
X180146887Y-82550000D01*
X179036928Y-82550000D01*
X178851890Y-82423569D01*
X178600000Y-82372560D01*
X177000000Y-82372560D01*
X176764683Y-82416838D01*
X176548559Y-82555910D01*
X176403569Y-82768110D01*
X176374355Y-82912375D01*
X176302811Y-82805302D01*
X175837264Y-82494233D01*
X175288113Y-82385000D01*
X175231887Y-82385000D01*
X174682736Y-82494233D01*
X174217189Y-82805302D01*
X173906120Y-83270849D01*
X173796887Y-83820000D01*
X173906120Y-84369151D01*
X174217189Y-84834698D01*
X174682736Y-85145767D01*
X175231887Y-85255000D01*
X175288113Y-85255000D01*
X175837264Y-85145767D01*
X176302811Y-84834698D01*
X176373150Y-84729428D01*
X176396838Y-84855317D01*
X176535910Y-85071441D01*
X176748110Y-85216431D01*
X177000000Y-85267440D01*
X178600000Y-85267440D01*
X178835317Y-85223162D01*
X179051441Y-85084090D01*
X179100009Y-85013009D01*
X180181862Y-86094862D01*
X180036009Y-86094735D01*
X179471629Y-86327932D01*
X179039449Y-86759357D01*
X179030797Y-86780194D01*
X178880159Y-86729446D01*
X177979605Y-87630000D01*
X178880159Y-88530554D01*
X179030327Y-88479965D01*
X179037932Y-88498371D01*
X179469357Y-88930551D01*
X180033330Y-89164733D01*
X180643991Y-89165265D01*
X181105001Y-88974780D01*
X181105001Y-91365583D01*
X180646670Y-91175267D01*
X180036009Y-91174735D01*
X179471629Y-91407932D01*
X179039449Y-91839357D01*
X179030797Y-91860194D01*
X178880159Y-91809446D01*
X177979605Y-92710000D01*
X178880159Y-93610554D01*
X179030327Y-93559965D01*
X179037932Y-93578371D01*
X179469357Y-94010551D01*
X180033330Y-94244733D01*
X180182137Y-94244863D01*
X179101032Y-95325968D01*
X179064090Y-95268559D01*
X178851890Y-95123569D01*
X178600000Y-95072560D01*
X177000000Y-95072560D01*
X176764683Y-95116838D01*
X176548559Y-95255910D01*
X176403569Y-95468110D01*
X176374355Y-95612375D01*
X176302811Y-95505302D01*
X175837264Y-95194233D01*
X175288113Y-95085000D01*
X175231887Y-95085000D01*
X174682736Y-95194233D01*
X174217189Y-95505302D01*
X174086679Y-95700623D01*
X174154750Y-95536691D01*
X174155248Y-94965813D01*
X173937243Y-94438200D01*
X173533923Y-94034176D01*
X173006691Y-93815250D01*
X172435813Y-93814752D01*
X171908200Y-94032757D01*
X171504176Y-94436077D01*
X171285250Y-94963309D01*
X171284752Y-95534187D01*
X171502757Y-96061800D01*
X171906077Y-96465824D01*
X172433309Y-96684750D01*
X173004187Y-96685248D01*
X173531800Y-96467243D01*
X173875660Y-96123982D01*
X173796887Y-96520000D01*
X173906120Y-97069151D01*
X174217189Y-97534698D01*
X174682736Y-97845767D01*
X175231887Y-97955000D01*
X175288113Y-97955000D01*
X175837264Y-97845767D01*
X176302811Y-97534698D01*
X176373150Y-97429428D01*
X176396838Y-97555317D01*
X176535910Y-97771441D01*
X176748110Y-97916431D01*
X176815000Y-97929977D01*
X176815000Y-98917370D01*
X176764683Y-98926838D01*
X176548559Y-99065910D01*
X176403569Y-99278110D01*
X176374355Y-99422375D01*
X176302811Y-99315302D01*
X175837264Y-99004233D01*
X175288113Y-98895000D01*
X175231887Y-98895000D01*
X174682736Y-99004233D01*
X174217189Y-99315302D01*
X173906120Y-99780849D01*
X173796887Y-100330000D01*
X173875782Y-100726632D01*
X173533923Y-100384176D01*
X173006691Y-100165250D01*
X172435813Y-100164752D01*
X171908200Y-100382757D01*
X171504176Y-100786077D01*
X171285250Y-101313309D01*
X171284752Y-101884187D01*
X171502757Y-102411800D01*
X171906077Y-102815824D01*
X172433309Y-103034750D01*
X173004187Y-103035248D01*
X173531800Y-102817243D01*
X173935824Y-102413923D01*
X174154750Y-101886691D01*
X174155248Y-101315813D01*
X174086152Y-101148587D01*
X174217189Y-101344698D01*
X174682736Y-101655767D01*
X175231887Y-101765000D01*
X175288113Y-101765000D01*
X175837264Y-101655767D01*
X176302811Y-101344698D01*
X176373150Y-101239428D01*
X176396838Y-101365317D01*
X176535910Y-101581441D01*
X176748110Y-101726431D01*
X177000000Y-101777440D01*
X178600000Y-101777440D01*
X178835317Y-101733162D01*
X179051441Y-101594090D01*
X179100009Y-101523009D01*
X180181862Y-102604862D01*
X180036009Y-102604735D01*
X179471629Y-102837932D01*
X179039449Y-103269357D01*
X179030797Y-103290194D01*
X178880159Y-103239446D01*
X177979605Y-104140000D01*
X178880159Y-105040554D01*
X179030327Y-104989965D01*
X179037932Y-105008371D01*
X179469357Y-105440551D01*
X180033330Y-105674733D01*
X180643991Y-105675265D01*
X181105001Y-105484780D01*
X181105001Y-107875583D01*
X180646670Y-107685267D01*
X180036009Y-107684735D01*
X179471629Y-107917932D01*
X179039449Y-108349357D01*
X179030797Y-108370194D01*
X178880159Y-108319446D01*
X177979605Y-109220000D01*
X178880159Y-110120554D01*
X179030327Y-110069965D01*
X179037932Y-110088371D01*
X179469357Y-110520551D01*
X180033330Y-110754733D01*
X180182137Y-110754863D01*
X179101032Y-111835968D01*
X179064090Y-111778559D01*
X178851890Y-111633569D01*
X178785000Y-111620023D01*
X178785000Y-111530000D01*
X178710021Y-111153057D01*
X178496500Y-110833500D01*
X178346499Y-110683499D01*
X178331724Y-110673627D01*
X178614148Y-110556643D01*
X178700554Y-110300159D01*
X177800000Y-109399605D01*
X177785858Y-109413748D01*
X177606253Y-109234143D01*
X177620395Y-109220000D01*
X177606253Y-109205858D01*
X177785858Y-109026253D01*
X177800000Y-109040395D01*
X178700554Y-108139841D01*
X178614148Y-107883357D01*
X178040664Y-107673542D01*
X177430540Y-107699161D01*
X176985852Y-107883357D01*
X176899447Y-108139839D01*
X176784890Y-108025282D01*
X176748412Y-108061760D01*
X176624090Y-107868559D01*
X176411890Y-107723569D01*
X176160000Y-107672560D01*
X174360000Y-107672560D01*
X174124683Y-107716838D01*
X173908559Y-107855910D01*
X173763569Y-108068110D01*
X173712560Y-108320000D01*
X173712560Y-110120000D01*
X173756838Y-110355317D01*
X173782373Y-110394999D01*
X167620001Y-110394999D01*
X167243058Y-110469978D01*
X166923501Y-110683499D01*
X163895017Y-113711983D01*
X163830000Y-113699050D01*
X163280849Y-113808283D01*
X162815302Y-114119352D01*
X162560000Y-114501438D01*
X162304698Y-114119352D01*
X161839151Y-113808283D01*
X161290000Y-113699050D01*
X160740849Y-113808283D01*
X160275302Y-114119352D01*
X159964233Y-114584899D01*
X159964213Y-114585000D01*
X158670000Y-114585000D01*
X158293057Y-114659979D01*
X157973500Y-114873500D01*
X156251963Y-116595037D01*
X155925813Y-116594752D01*
X155398200Y-116812757D01*
X154994176Y-117216077D01*
X154775250Y-117743309D01*
X154774752Y-118314187D01*
X154992757Y-118841800D01*
X155396077Y-119245824D01*
X155923309Y-119464750D01*
X156494187Y-119465248D01*
X157021800Y-119247243D01*
X157425824Y-118843923D01*
X157644750Y-118316691D01*
X157645037Y-117987963D01*
X159078000Y-116555000D01*
X159964213Y-116555000D01*
X159964233Y-116555101D01*
X160275302Y-117020648D01*
X160740849Y-117331717D01*
X161290000Y-117440950D01*
X161839151Y-117331717D01*
X162304698Y-117020648D01*
X162560000Y-116638562D01*
X162815302Y-117020648D01*
X163280849Y-117331717D01*
X163830000Y-117440950D01*
X164379151Y-117331717D01*
X164844698Y-117020648D01*
X165100000Y-116638562D01*
X165355302Y-117020648D01*
X165820849Y-117331717D01*
X166370000Y-117440950D01*
X166919151Y-117331717D01*
X167384698Y-117020648D01*
X167640000Y-116638562D01*
X167895302Y-117020648D01*
X168360849Y-117331717D01*
X168910000Y-117440950D01*
X169459151Y-117331717D01*
X169924698Y-117020648D01*
X170235767Y-116555101D01*
X170345000Y-116005950D01*
X170345000Y-115134050D01*
X170235767Y-114584899D01*
X170235292Y-114584187D01*
X180174752Y-114584187D01*
X180392757Y-115111800D01*
X180796077Y-115515824D01*
X181323309Y-115734750D01*
X181894187Y-115735248D01*
X182421800Y-115517243D01*
X182825824Y-115113923D01*
X183018860Y-114649039D01*
X190378096Y-114649039D01*
X190538959Y-115037423D01*
X190914866Y-115452389D01*
X191420959Y-115691914D01*
X191643000Y-115570629D01*
X191643000Y-114427000D01*
X191897000Y-114427000D01*
X191897000Y-115570629D01*
X192119041Y-115691914D01*
X192625134Y-115452389D01*
X193001041Y-115037423D01*
X193161904Y-114649039D01*
X193039915Y-114427000D01*
X191897000Y-114427000D01*
X191643000Y-114427000D01*
X190500085Y-114427000D01*
X190378096Y-114649039D01*
X183018860Y-114649039D01*
X183044750Y-114586691D01*
X183045248Y-114015813D01*
X183018452Y-113950961D01*
X190378096Y-113950961D01*
X190500085Y-114173000D01*
X191643000Y-114173000D01*
X191643000Y-113029371D01*
X191897000Y-113029371D01*
X191897000Y-114173000D01*
X193039915Y-114173000D01*
X193161904Y-113950961D01*
X193001041Y-113562577D01*
X192625134Y-113147611D01*
X192119041Y-112908086D01*
X191897000Y-113029371D01*
X191643000Y-113029371D01*
X191420959Y-112908086D01*
X190914866Y-113147611D01*
X190538959Y-113562577D01*
X190378096Y-113950961D01*
X183018452Y-113950961D01*
X182827243Y-113488200D01*
X182423923Y-113084176D01*
X181896691Y-112865250D01*
X181325813Y-112864752D01*
X180798200Y-113082757D01*
X180394176Y-113486077D01*
X180175250Y-114013309D01*
X180174752Y-114584187D01*
X170235292Y-114584187D01*
X169924698Y-114119352D01*
X169459151Y-113808283D01*
X168910000Y-113699050D01*
X168360849Y-113808283D01*
X167895302Y-114119352D01*
X167640000Y-114501438D01*
X167384698Y-114119352D01*
X166919151Y-113808283D01*
X166640203Y-113752797D01*
X168028001Y-112364999D01*
X173983529Y-112364999D01*
X173906120Y-112480849D01*
X173796887Y-113030000D01*
X173906120Y-113579151D01*
X174217189Y-114044698D01*
X174682736Y-114355767D01*
X175231887Y-114465000D01*
X175288113Y-114465000D01*
X175837264Y-114355767D01*
X176302811Y-114044698D01*
X176373150Y-113939428D01*
X176396838Y-114065317D01*
X176535910Y-114281441D01*
X176748110Y-114426431D01*
X177000000Y-114477440D01*
X178600000Y-114477440D01*
X178835317Y-114433162D01*
X179051441Y-114294090D01*
X179196431Y-114081890D01*
X179209977Y-114015000D01*
X179300000Y-114015000D01*
X179676943Y-113940021D01*
X179996500Y-113726500D01*
X182786501Y-110936499D01*
X183000022Y-110616942D01*
X183075001Y-110239999D01*
X183075001Y-108220000D01*
X183472560Y-108220000D01*
X183472560Y-110220000D01*
X183516838Y-110455317D01*
X183655910Y-110671441D01*
X183868110Y-110816431D01*
X184120000Y-110867440D01*
X186720000Y-110867440D01*
X186955317Y-110823162D01*
X187171441Y-110684090D01*
X187316431Y-110471890D01*
X187367440Y-110220000D01*
X187367440Y-108220000D01*
X187323162Y-107984683D01*
X187184090Y-107768559D01*
X187017380Y-107654651D01*
X187279144Y-107188355D01*
X187310124Y-107060434D01*
X187190777Y-106807000D01*
X185547000Y-106807000D01*
X185547000Y-106827000D01*
X185293000Y-106827000D01*
X185293000Y-106807000D01*
X183649223Y-106807000D01*
X183529876Y-107060434D01*
X183560856Y-107188355D01*
X183823495Y-107656211D01*
X183668559Y-107755910D01*
X183523569Y-107968110D01*
X183472560Y-108220000D01*
X183075001Y-108220000D01*
X183075001Y-104140000D01*
X183447091Y-104140000D01*
X183571548Y-104765687D01*
X183925971Y-105296120D01*
X184116188Y-105423219D01*
X183874078Y-105613683D01*
X183560856Y-106171645D01*
X183529876Y-106299566D01*
X183649223Y-106553000D01*
X185293000Y-106553000D01*
X185293000Y-106533000D01*
X185547000Y-106533000D01*
X185547000Y-106553000D01*
X187190777Y-106553000D01*
X187310124Y-106299566D01*
X187279144Y-106171645D01*
X186965922Y-105613683D01*
X186723812Y-105423219D01*
X186914029Y-105296120D01*
X187268452Y-104765687D01*
X187392909Y-104140000D01*
X187268452Y-103514313D01*
X186914029Y-102983880D01*
X186383596Y-102629457D01*
X185757909Y-102505000D01*
X185082091Y-102505000D01*
X184456404Y-102629457D01*
X183925971Y-102983880D01*
X183571548Y-103514313D01*
X183447091Y-104140000D01*
X183075001Y-104140000D01*
X183075001Y-103120001D01*
X183000022Y-102743058D01*
X182786501Y-102423501D01*
X179996500Y-99633500D01*
X179676943Y-99419979D01*
X179300000Y-99345000D01*
X179212630Y-99345000D01*
X179203162Y-99294683D01*
X179064090Y-99078559D01*
X178851890Y-98933569D01*
X178785000Y-98920023D01*
X178785000Y-97932630D01*
X178835317Y-97923162D01*
X179051441Y-97784090D01*
X179196431Y-97571890D01*
X179209977Y-97505000D01*
X179300000Y-97505000D01*
X179676943Y-97430021D01*
X179996500Y-97216500D01*
X182786501Y-94426499D01*
X183000022Y-94106942D01*
X183075001Y-93729999D01*
X183075001Y-91710000D01*
X183472560Y-91710000D01*
X183472560Y-93710000D01*
X183516838Y-93945317D01*
X183655910Y-94161441D01*
X183868110Y-94306431D01*
X184120000Y-94357440D01*
X186720000Y-94357440D01*
X186955317Y-94313162D01*
X187171441Y-94174090D01*
X187316431Y-93961890D01*
X187367440Y-93710000D01*
X187367440Y-91710000D01*
X187323162Y-91474683D01*
X187184090Y-91258559D01*
X187017380Y-91144651D01*
X187279144Y-90678355D01*
X187310124Y-90550434D01*
X187190777Y-90297000D01*
X185547000Y-90297000D01*
X185547000Y-90317000D01*
X185293000Y-90317000D01*
X185293000Y-90297000D01*
X183649223Y-90297000D01*
X183529876Y-90550434D01*
X183560856Y-90678355D01*
X183823495Y-91146211D01*
X183668559Y-91245910D01*
X183523569Y-91458110D01*
X183472560Y-91710000D01*
X183075001Y-91710000D01*
X183075001Y-88451690D01*
X183521685Y-88005007D01*
X183571548Y-88255687D01*
X183925971Y-88786120D01*
X184116188Y-88913219D01*
X183874078Y-89103683D01*
X183560856Y-89661645D01*
X183529876Y-89789566D01*
X183649223Y-90043000D01*
X185293000Y-90043000D01*
X185293000Y-90023000D01*
X185547000Y-90023000D01*
X185547000Y-90043000D01*
X187190777Y-90043000D01*
X187310124Y-89789566D01*
X187279144Y-89661645D01*
X186965922Y-89103683D01*
X186723812Y-88913219D01*
X186914029Y-88786120D01*
X187268452Y-88255687D01*
X187392909Y-87630000D01*
X187268452Y-87004313D01*
X186914029Y-86473880D01*
X186383596Y-86119457D01*
X185757909Y-85995000D01*
X185531691Y-85995000D01*
X187766501Y-83760190D01*
X187901770Y-83557745D01*
X190941861Y-83557745D01*
X191015995Y-83803864D01*
X191553223Y-83996965D01*
X192123454Y-83969778D01*
X192524005Y-83803864D01*
X192598139Y-83557745D01*
X191770000Y-82729605D01*
X190941861Y-83557745D01*
X187901770Y-83557745D01*
X187980022Y-83440633D01*
X188055001Y-83063690D01*
X188055001Y-82333223D01*
X190323035Y-82333223D01*
X190350222Y-82903454D01*
X190516136Y-83304005D01*
X190762255Y-83378139D01*
X191590395Y-82550000D01*
X191949605Y-82550000D01*
X192777745Y-83378139D01*
X193023864Y-83304005D01*
X193216965Y-82766777D01*
X193189778Y-82196546D01*
X193023864Y-81795995D01*
X192777745Y-81721861D01*
X191949605Y-82550000D01*
X191590395Y-82550000D01*
X190762255Y-81721861D01*
X190516136Y-81795995D01*
X190323035Y-82333223D01*
X188055001Y-82333223D01*
X188055001Y-81542255D01*
X190941861Y-81542255D01*
X191770000Y-82370395D01*
X192598139Y-81542255D01*
X192524005Y-81296136D01*
X191986777Y-81103035D01*
X191416546Y-81130222D01*
X191015995Y-81296136D01*
X190941861Y-81542255D01*
X188055001Y-81542255D01*
X188055001Y-77947999D01*
X187980022Y-77571056D01*
X187766501Y-77251499D01*
X186908501Y-76393499D01*
X186588944Y-76179978D01*
X186212001Y-76104999D01*
X174467999Y-76104999D01*
X174091056Y-76179978D01*
X173771499Y-76393499D01*
X172885166Y-77279832D01*
X172885248Y-77185813D01*
X172667243Y-76658200D01*
X172263923Y-76254176D01*
X171736691Y-76035250D01*
X171165813Y-76034752D01*
X170638200Y-76252757D01*
X170234176Y-76656077D01*
X170015250Y-77183309D01*
X170014752Y-77754187D01*
X170217547Y-78244990D01*
X167681990Y-78244990D01*
X167884750Y-77756691D01*
X167885248Y-77185813D01*
X167667243Y-76658200D01*
X167263923Y-76254176D01*
X166736691Y-76035250D01*
X166165813Y-76034752D01*
X165638200Y-76252757D01*
X165234176Y-76656077D01*
X165015250Y-77183309D01*
X165014752Y-77754187D01*
X165217547Y-78244990D01*
X164078527Y-78244990D01*
X161845036Y-76011500D01*
X159687035Y-73853499D01*
X159367478Y-73639978D01*
X158990535Y-73564999D01*
X116047999Y-73564999D01*
X115671056Y-73639978D01*
X115351499Y-73853499D01*
X112333500Y-76871498D01*
X112119979Y-77191055D01*
X112045000Y-77567998D01*
X112045000Y-86157962D01*
X111944683Y-86176838D01*
X111887000Y-86213956D01*
X111887000Y-72517000D01*
X195453000Y-72517000D01*
X195453000Y-121793000D01*
X195453000Y-121793000D01*
G37*
X195453000Y-121793000D02*
X111887000Y-121793000D01*
X111887000Y-119664187D01*
X164934752Y-119664187D01*
X165152757Y-120191800D01*
X165556077Y-120595824D01*
X166083309Y-120814750D01*
X166654187Y-120815248D01*
X167181800Y-120597243D01*
X167585824Y-120193923D01*
X167804750Y-119666691D01*
X167804752Y-119664187D01*
X169934752Y-119664187D01*
X170152757Y-120191800D01*
X170556077Y-120595824D01*
X171083309Y-120814750D01*
X171654187Y-120815248D01*
X172181800Y-120597243D01*
X172585824Y-120193923D01*
X172804750Y-119666691D01*
X172805248Y-119095813D01*
X172587243Y-118568200D01*
X172183923Y-118164176D01*
X172053453Y-118110000D01*
X173796887Y-118110000D01*
X173906120Y-118659151D01*
X174217189Y-119124698D01*
X174682736Y-119435767D01*
X175231887Y-119545000D01*
X175288113Y-119545000D01*
X175837264Y-119435767D01*
X176302811Y-119124698D01*
X176307456Y-119117745D01*
X184591861Y-119117745D01*
X184665995Y-119363864D01*
X185203223Y-119556965D01*
X185773454Y-119529778D01*
X186174005Y-119363864D01*
X186248139Y-119117745D01*
X185420000Y-118289605D01*
X184591861Y-119117745D01*
X176307456Y-119117745D01*
X176613880Y-118659151D01*
X176723113Y-118110000D01*
X176679994Y-117893223D01*
X183973035Y-117893223D01*
X184000222Y-118463454D01*
X184166136Y-118864005D01*
X184412255Y-118938139D01*
X185240395Y-118110000D01*
X185599605Y-118110000D01*
X186427745Y-118938139D01*
X186673864Y-118864005D01*
X186866965Y-118326777D01*
X186839778Y-117756546D01*
X186673864Y-117355995D01*
X186427745Y-117281861D01*
X185599605Y-118110000D01*
X185240395Y-118110000D01*
X184412255Y-117281861D01*
X184166136Y-117355995D01*
X183973035Y-117893223D01*
X176679994Y-117893223D01*
X176613880Y-117560849D01*
X176307457Y-117102255D01*
X184591861Y-117102255D01*
X185420000Y-117930395D01*
X186248139Y-117102255D01*
X186174005Y-116856136D01*
X185636777Y-116663035D01*
X185066546Y-116690222D01*
X184665995Y-116856136D01*
X184591861Y-117102255D01*
X176307457Y-117102255D01*
X176302811Y-117095302D01*
X175837264Y-116784233D01*
X175288113Y-116675000D01*
X175231887Y-116675000D01*
X174682736Y-116784233D01*
X174217189Y-117095302D01*
X173906120Y-117560849D01*
X173796887Y-118110000D01*
X172053453Y-118110000D01*
X171656691Y-117945250D01*
X171085813Y-117944752D01*
X170558200Y-118162757D01*
X170154176Y-118566077D01*
X169935250Y-119093309D01*
X169934752Y-119664187D01*
X167804752Y-119664187D01*
X167805248Y-119095813D01*
X167587243Y-118568200D01*
X167183923Y-118164176D01*
X166656691Y-117945250D01*
X166085813Y-117944752D01*
X165558200Y-118162757D01*
X165154176Y-118566077D01*
X164935250Y-119093309D01*
X164934752Y-119664187D01*
X111887000Y-119664187D01*
X111887000Y-110174491D01*
X111950853Y-110270054D01*
X112432622Y-110591961D01*
X113000907Y-110705000D01*
X113059093Y-110705000D01*
X113627378Y-110591961D01*
X114109147Y-110270054D01*
X114431054Y-109788285D01*
X114544093Y-109220000D01*
X114431054Y-108651715D01*
X114109147Y-108169946D01*
X113779974Y-107950000D01*
X114109147Y-107730054D01*
X114431054Y-107248285D01*
X114544093Y-106680000D01*
X114431054Y-106111715D01*
X114109147Y-105629946D01*
X113779974Y-105410000D01*
X114109147Y-105190054D01*
X114431054Y-104708285D01*
X114544093Y-104140000D01*
X114431054Y-103571715D01*
X114109147Y-103089946D01*
X114067548Y-103062150D01*
X114115317Y-103053162D01*
X114331441Y-102914090D01*
X114476431Y-102701890D01*
X114527440Y-102450000D01*
X114527440Y-100750000D01*
X114483162Y-100514683D01*
X114344090Y-100298559D01*
X114131890Y-100153569D01*
X113880000Y-100102560D01*
X112180000Y-100102560D01*
X111944683Y-100146838D01*
X111887000Y-100183956D01*
X111887000Y-99700000D01*
X115855000Y-99700000D01*
X115855000Y-113030000D01*
X115929979Y-113406943D01*
X116143500Y-113726500D01*
X116463057Y-113940021D01*
X116647761Y-113976761D01*
X117518753Y-114847753D01*
X117612467Y-115318882D01*
X117901858Y-115751988D01*
X118334964Y-116041379D01*
X118845846Y-116143000D01*
X118898154Y-116143000D01*
X119409036Y-116041379D01*
X119842142Y-115751988D01*
X120131533Y-115318882D01*
X120146835Y-115241955D01*
X120279582Y-115563229D01*
X120654796Y-115939098D01*
X121145287Y-116142768D01*
X121676383Y-116143231D01*
X122167229Y-115940418D01*
X122543098Y-115565204D01*
X122746768Y-115074713D01*
X122746950Y-114866050D01*
X123575255Y-114037745D01*
X155381861Y-114037745D01*
X155455995Y-114283864D01*
X155993223Y-114476965D01*
X156563454Y-114449778D01*
X156964005Y-114283864D01*
X157038139Y-114037745D01*
X156210000Y-113209605D01*
X155381861Y-114037745D01*
X123575255Y-114037745D01*
X124799777Y-112813223D01*
X154763035Y-112813223D01*
X154790222Y-113383454D01*
X154956136Y-113784005D01*
X155202255Y-113858139D01*
X156030395Y-113030000D01*
X156389605Y-113030000D01*
X157217745Y-113858139D01*
X157463864Y-113784005D01*
X157656965Y-113246777D01*
X157629778Y-112676546D01*
X157463864Y-112275995D01*
X157217745Y-112201861D01*
X156389605Y-113030000D01*
X156030395Y-113030000D01*
X155202255Y-112201861D01*
X154956136Y-112275995D01*
X154763035Y-112813223D01*
X124799777Y-112813223D01*
X125590745Y-112022255D01*
X155381861Y-112022255D01*
X156210000Y-112850395D01*
X157038139Y-112022255D01*
X156964005Y-111776136D01*
X156426777Y-111583035D01*
X155856546Y-111610222D01*
X155455995Y-111776136D01*
X155381861Y-112022255D01*
X125590745Y-112022255D01*
X126115255Y-111497745D01*
X129981861Y-111497745D01*
X130055995Y-111743864D01*
X130593223Y-111936965D01*
X131163454Y-111909778D01*
X131564005Y-111743864D01*
X131638139Y-111497745D01*
X130810000Y-110669605D01*
X129981861Y-111497745D01*
X126115255Y-111497745D01*
X126958000Y-110655000D01*
X127435950Y-110655000D01*
X127985101Y-110545767D01*
X128392991Y-110273223D01*
X129363035Y-110273223D01*
X129390222Y-110843454D01*
X129556136Y-111244005D01*
X129802255Y-111318139D01*
X130630395Y-110490000D01*
X130989605Y-110490000D01*
X131817745Y-111318139D01*
X132063864Y-111244005D01*
X132232735Y-110774187D01*
X134374752Y-110774187D01*
X134592757Y-111301800D01*
X134996077Y-111705824D01*
X135523309Y-111924750D01*
X136094187Y-111925248D01*
X136621800Y-111707243D01*
X137025824Y-111303923D01*
X137160060Y-110980648D01*
X137292757Y-111301800D01*
X137696077Y-111705824D01*
X138223309Y-111924750D01*
X138794187Y-111925248D01*
X139321800Y-111707243D01*
X139725824Y-111303923D01*
X139944750Y-110776691D01*
X139945248Y-110205813D01*
X139727243Y-109678200D01*
X139323923Y-109274176D01*
X138796691Y-109055250D01*
X138225813Y-109054752D01*
X137698200Y-109272757D01*
X137294176Y-109676077D01*
X137159940Y-109999352D01*
X137027243Y-109678200D01*
X136623923Y-109274176D01*
X136096691Y-109055250D01*
X135525813Y-109054752D01*
X134998200Y-109272757D01*
X134594176Y-109676077D01*
X134375250Y-110203309D01*
X134374752Y-110774187D01*
X132232735Y-110774187D01*
X132256965Y-110706777D01*
X132229778Y-110136546D01*
X132063864Y-109735995D01*
X131817745Y-109661861D01*
X130989605Y-110490000D01*
X130630395Y-110490000D01*
X129802255Y-109661861D01*
X129556136Y-109735995D01*
X129363035Y-110273223D01*
X128392991Y-110273223D01*
X128450648Y-110234698D01*
X128761717Y-109769151D01*
X128818784Y-109482255D01*
X129981861Y-109482255D01*
X130810000Y-110310395D01*
X131638139Y-109482255D01*
X131564005Y-109236136D01*
X131026777Y-109043035D01*
X130456546Y-109070222D01*
X130055995Y-109236136D01*
X129981861Y-109482255D01*
X128818784Y-109482255D01*
X128870950Y-109220000D01*
X128761717Y-108670849D01*
X128450648Y-108205302D01*
X128068562Y-107950000D01*
X128450648Y-107694698D01*
X128761717Y-107229151D01*
X128870950Y-106680000D01*
X128761717Y-106130849D01*
X128450648Y-105665302D01*
X128068562Y-105410000D01*
X128450648Y-105154698D01*
X128761717Y-104689151D01*
X128870950Y-104140000D01*
X129448846Y-104140000D01*
X129550467Y-104650882D01*
X129839858Y-105083988D01*
X130272964Y-105373379D01*
X130457070Y-105410000D01*
X130272964Y-105446621D01*
X129839858Y-105736012D01*
X129550467Y-106169118D01*
X129448846Y-106680000D01*
X129550467Y-107190882D01*
X129839858Y-107623988D01*
X130272964Y-107913379D01*
X130783846Y-108015000D01*
X130836154Y-108015000D01*
X131347036Y-107913379D01*
X131780142Y-107623988D01*
X132069533Y-107190882D01*
X132084835Y-107113955D01*
X132217582Y-107435229D01*
X132592796Y-107811098D01*
X133083287Y-108014768D01*
X133614383Y-108015231D01*
X134105229Y-107812418D01*
X134481098Y-107437204D01*
X134615216Y-107114212D01*
X134630467Y-107190882D01*
X134919858Y-107623988D01*
X135352964Y-107913379D01*
X135863846Y-108015000D01*
X135916154Y-108015000D01*
X136427036Y-107913379D01*
X136860142Y-107623988D01*
X137149533Y-107190882D01*
X137164835Y-107113955D01*
X137297582Y-107435229D01*
X137672796Y-107811098D01*
X138163287Y-108014768D01*
X138371950Y-108014950D01*
X139283501Y-108926501D01*
X139603058Y-109140022D01*
X139980001Y-109215001D01*
X142837980Y-109215001D01*
X142698200Y-109272757D01*
X142294176Y-109676077D01*
X142075250Y-110203309D01*
X142074752Y-110774187D01*
X142292757Y-111301800D01*
X142696077Y-111705824D01*
X143223309Y-111924750D01*
X143794187Y-111925248D01*
X144321800Y-111707243D01*
X144725824Y-111303923D01*
X144944750Y-110776691D01*
X144945248Y-110205813D01*
X144727243Y-109678200D01*
X144323923Y-109274176D01*
X144181414Y-109215001D01*
X144254001Y-109215001D01*
X144630944Y-109140022D01*
X144950501Y-108926501D01*
X145984500Y-107892502D01*
X146198021Y-107572945D01*
X146209736Y-107514050D01*
X146273000Y-107196002D01*
X146273000Y-104486000D01*
X150965037Y-109178037D01*
X150964752Y-109504187D01*
X151182757Y-110031800D01*
X151586077Y-110435824D01*
X152113309Y-110654750D01*
X152684187Y-110655248D01*
X153211800Y-110437243D01*
X153615824Y-110033923D01*
X153834750Y-109506691D01*
X153835248Y-108935813D01*
X153617243Y-108408200D01*
X153213923Y-108004176D01*
X152686691Y-107785250D01*
X152357963Y-107784963D01*
X148020440Y-103447440D01*
X148120000Y-103447440D01*
X148355317Y-103403162D01*
X148571441Y-103264090D01*
X148716431Y-103051890D01*
X148746597Y-102902926D01*
X148845302Y-103050648D01*
X149310849Y-103361717D01*
X149860000Y-103470950D01*
X150409151Y-103361717D01*
X150874698Y-103050648D01*
X151130000Y-102668562D01*
X151385302Y-103050648D01*
X151850849Y-103361717D01*
X152400000Y-103470950D01*
X152949151Y-103361717D01*
X153414698Y-103050648D01*
X153670000Y-102668562D01*
X153925302Y-103050648D01*
X154390849Y-103361717D01*
X154940000Y-103470950D01*
X155338653Y-103391653D01*
X155733000Y-103786000D01*
X155733000Y-106172000D01*
X155807979Y-106548943D01*
X156021500Y-106868500D01*
X156341057Y-107082021D01*
X156718000Y-107157000D01*
X157094943Y-107082021D01*
X157414500Y-106868500D01*
X157628021Y-106548943D01*
X157703000Y-106172000D01*
X157703000Y-103852340D01*
X157765000Y-103914448D01*
X157765000Y-107817767D01*
X157686691Y-107785250D01*
X157115813Y-107784752D01*
X156588200Y-108002757D01*
X156184176Y-108406077D01*
X155965250Y-108933309D01*
X155964752Y-109504187D01*
X156182757Y-110031800D01*
X156586077Y-110435824D01*
X157113309Y-110654750D01*
X157684187Y-110655248D01*
X158211800Y-110437243D01*
X158273000Y-110376150D01*
X158273000Y-110744000D01*
X158347979Y-111120943D01*
X158561500Y-111440500D01*
X158881057Y-111654021D01*
X159258000Y-111729000D01*
X159634943Y-111654021D01*
X159954500Y-111440500D01*
X160168021Y-111120943D01*
X160243000Y-110744000D01*
X160243000Y-109352305D01*
X160275302Y-109400648D01*
X160740849Y-109711717D01*
X161290000Y-109820950D01*
X161839151Y-109711717D01*
X162304698Y-109400648D01*
X162557507Y-109022293D01*
X162905104Y-109454500D01*
X163398181Y-109724367D01*
X163480961Y-109741904D01*
X163703000Y-109619915D01*
X163703000Y-108077000D01*
X163683000Y-108077000D01*
X163683000Y-107823000D01*
X163703000Y-107823000D01*
X163703000Y-106280085D01*
X163957000Y-106280085D01*
X163957000Y-107823000D01*
X163977000Y-107823000D01*
X163977000Y-108077000D01*
X163957000Y-108077000D01*
X163957000Y-109619915D01*
X164179039Y-109741904D01*
X164261819Y-109724367D01*
X164754896Y-109454500D01*
X165102493Y-109022293D01*
X165355302Y-109400648D01*
X165820849Y-109711717D01*
X166370000Y-109820950D01*
X166919151Y-109711717D01*
X167384698Y-109400648D01*
X167482251Y-109254650D01*
X167506838Y-109385317D01*
X167645910Y-109601441D01*
X167858110Y-109746431D01*
X168110000Y-109797440D01*
X169710000Y-109797440D01*
X169945317Y-109753162D01*
X170161441Y-109614090D01*
X170306431Y-109401890D01*
X170357440Y-109150000D01*
X170357440Y-106750000D01*
X170313162Y-106514683D01*
X170174090Y-106298559D01*
X169961890Y-106153569D01*
X169710000Y-106102560D01*
X168110000Y-106102560D01*
X167874683Y-106146838D01*
X167658559Y-106285910D01*
X167513569Y-106498110D01*
X167483403Y-106647074D01*
X167384698Y-106499352D01*
X166919151Y-106188283D01*
X166370000Y-106079050D01*
X165820849Y-106188283D01*
X165355302Y-106499352D01*
X165102493Y-106877707D01*
X164754896Y-106445500D01*
X164261819Y-106175633D01*
X164179039Y-106158096D01*
X163957000Y-106280085D01*
X163703000Y-106280085D01*
X163480961Y-106158096D01*
X163398181Y-106175633D01*
X162905104Y-106445500D01*
X162557507Y-106877707D01*
X162304698Y-106499352D01*
X161839151Y-106188283D01*
X161290000Y-106079050D01*
X160740849Y-106188283D01*
X160275302Y-106499352D01*
X159964233Y-106964899D01*
X159855000Y-107514050D01*
X159855000Y-107839997D01*
X159735000Y-107719997D01*
X159735000Y-103914345D01*
X159771663Y-103877745D01*
X162921861Y-103877745D01*
X162995995Y-104123864D01*
X163533223Y-104316965D01*
X164103454Y-104289778D01*
X164504005Y-104123864D01*
X164578139Y-103877745D01*
X163750000Y-103049605D01*
X162921861Y-103877745D01*
X159771663Y-103877745D01*
X159965824Y-103683923D01*
X160184750Y-103156691D01*
X160185189Y-102653223D01*
X162303035Y-102653223D01*
X162330222Y-103223454D01*
X162496136Y-103624005D01*
X162742255Y-103698139D01*
X163570395Y-102870000D01*
X163929605Y-102870000D01*
X164757745Y-103698139D01*
X165003864Y-103624005D01*
X165141890Y-103240000D01*
X173712560Y-103240000D01*
X173712560Y-105040000D01*
X173756838Y-105275317D01*
X173895910Y-105491441D01*
X174108110Y-105636431D01*
X174360000Y-105687440D01*
X176160000Y-105687440D01*
X176395317Y-105643162D01*
X176611441Y-105504090D01*
X176750598Y-105300426D01*
X176784890Y-105334718D01*
X176899447Y-105220161D01*
X176985852Y-105476643D01*
X177559336Y-105686458D01*
X178169460Y-105660839D01*
X178614148Y-105476643D01*
X178700554Y-105220159D01*
X177800000Y-104319605D01*
X177785858Y-104333748D01*
X177606253Y-104154143D01*
X177620395Y-104140000D01*
X177606253Y-104125858D01*
X177785858Y-103946253D01*
X177800000Y-103960395D01*
X178700554Y-103059841D01*
X178614148Y-102803357D01*
X178040664Y-102593542D01*
X177430540Y-102619161D01*
X176985852Y-102803357D01*
X176899447Y-103059839D01*
X176784890Y-102945282D01*
X176748412Y-102981760D01*
X176624090Y-102788559D01*
X176411890Y-102643569D01*
X176160000Y-102592560D01*
X174360000Y-102592560D01*
X174124683Y-102636838D01*
X173908559Y-102775910D01*
X173763569Y-102988110D01*
X173712560Y-103240000D01*
X165141890Y-103240000D01*
X165196965Y-103086777D01*
X165169778Y-102516546D01*
X165003864Y-102115995D01*
X164757745Y-102041861D01*
X163929605Y-102870000D01*
X163570395Y-102870000D01*
X162742255Y-102041861D01*
X162496136Y-102115995D01*
X162303035Y-102653223D01*
X160185189Y-102653223D01*
X160185248Y-102585813D01*
X159967243Y-102058200D01*
X159771640Y-101862255D01*
X162921861Y-101862255D01*
X163750000Y-102690395D01*
X164556207Y-101884187D01*
X166284752Y-101884187D01*
X166502757Y-102411800D01*
X166906077Y-102815824D01*
X167433309Y-103034750D01*
X168004187Y-103035248D01*
X168531800Y-102817243D01*
X168935824Y-102413923D01*
X169154750Y-101886691D01*
X169155248Y-101315813D01*
X168937243Y-100788200D01*
X168533923Y-100384176D01*
X168006691Y-100165250D01*
X167435813Y-100164752D01*
X166908200Y-100382757D01*
X166504176Y-100786077D01*
X166285250Y-101313309D01*
X166284752Y-101884187D01*
X164556207Y-101884187D01*
X164578139Y-101862255D01*
X164504005Y-101616136D01*
X163966777Y-101423035D01*
X163396546Y-101450222D01*
X162995995Y-101616136D01*
X162921861Y-101862255D01*
X159771640Y-101862255D01*
X159563923Y-101654176D01*
X159036691Y-101435250D01*
X158465813Y-101434752D01*
X157938200Y-101652757D01*
X157534176Y-102056077D01*
X157315561Y-102582561D01*
X156375000Y-101642000D01*
X156375000Y-101558000D01*
X157380000Y-100553000D01*
X158496000Y-100553000D01*
X158872943Y-100478021D01*
X159192500Y-100264500D01*
X159406021Y-99944943D01*
X159481000Y-99568000D01*
X159406021Y-99191057D01*
X159192500Y-98871500D01*
X158872943Y-98657979D01*
X158496000Y-98583000D01*
X156972000Y-98583000D01*
X156595057Y-98657979D01*
X156275500Y-98871500D01*
X155338653Y-99808347D01*
X154940000Y-99729050D01*
X154390849Y-99838283D01*
X153925302Y-100149352D01*
X153670000Y-100531438D01*
X153414698Y-100149352D01*
X152949151Y-99838283D01*
X152400000Y-99729050D01*
X151850849Y-99838283D01*
X151385302Y-100149352D01*
X151130000Y-100531438D01*
X150874698Y-100149352D01*
X150409151Y-99838283D01*
X149860000Y-99729050D01*
X149310849Y-99838283D01*
X148845302Y-100149352D01*
X148747749Y-100295350D01*
X148723162Y-100164683D01*
X148584090Y-99948559D01*
X148371890Y-99803569D01*
X148120000Y-99752560D01*
X146520000Y-99752560D01*
X146284683Y-99796838D01*
X146068559Y-99935910D01*
X145923569Y-100148110D01*
X145872560Y-100400000D01*
X145872560Y-101336704D01*
X145664943Y-101197979D01*
X145288000Y-101123000D01*
X144911057Y-101197979D01*
X144591500Y-101411500D01*
X144377979Y-101731057D01*
X144303000Y-102108000D01*
X144303000Y-103077650D01*
X144047036Y-102906621D01*
X143536154Y-102805000D01*
X143483846Y-102805000D01*
X142972964Y-102906621D01*
X142539858Y-103196012D01*
X142250467Y-103629118D01*
X142235165Y-103706045D01*
X142102418Y-103384771D01*
X141727204Y-103008902D01*
X141236713Y-102805232D01*
X140705617Y-102804769D01*
X140214771Y-103007582D01*
X139838902Y-103382796D01*
X139692843Y-103734545D01*
X139579797Y-103461604D01*
X139232663Y-103073236D01*
X138763331Y-102847273D01*
X138557000Y-102969794D01*
X138557000Y-104013000D01*
X138577000Y-104013000D01*
X138577000Y-104267000D01*
X138557000Y-104267000D01*
X138557000Y-104287000D01*
X138303000Y-104287000D01*
X138303000Y-104267000D01*
X138283000Y-104267000D01*
X138283000Y-104013000D01*
X138303000Y-104013000D01*
X138303000Y-102969794D01*
X138096669Y-102847273D01*
X137627337Y-103073236D01*
X137280203Y-103461604D01*
X137167049Y-103734806D01*
X137022418Y-103384771D01*
X136647204Y-103008902D01*
X136156713Y-102805232D01*
X135625617Y-102804769D01*
X135134771Y-103007582D01*
X134758902Y-103382796D01*
X134619909Y-103717527D01*
X134482418Y-103384771D01*
X134107204Y-103008902D01*
X133616713Y-102805232D01*
X133085617Y-102804769D01*
X132594771Y-103007582D01*
X132218902Y-103382796D01*
X132084784Y-103705788D01*
X132069533Y-103629118D01*
X131780142Y-103196012D01*
X131347036Y-102906621D01*
X130836154Y-102805000D01*
X130783846Y-102805000D01*
X130272964Y-102906621D01*
X129839858Y-103196012D01*
X129550467Y-103629118D01*
X129448846Y-104140000D01*
X128870950Y-104140000D01*
X128761717Y-103590849D01*
X128450648Y-103125302D01*
X128068562Y-102870000D01*
X128450648Y-102614698D01*
X128761717Y-102149151D01*
X128870950Y-101600000D01*
X128818785Y-101337745D01*
X130061861Y-101337745D01*
X130135995Y-101583864D01*
X130673223Y-101776965D01*
X131243454Y-101749778D01*
X131644005Y-101583864D01*
X131718139Y-101337745D01*
X130890000Y-100509605D01*
X130061861Y-101337745D01*
X128818785Y-101337745D01*
X128761717Y-101050849D01*
X128450648Y-100585302D01*
X128068562Y-100330000D01*
X128392991Y-100113223D01*
X129443035Y-100113223D01*
X129470222Y-100683454D01*
X129636136Y-101084005D01*
X129882255Y-101158139D01*
X130710395Y-100330000D01*
X131069605Y-100330000D01*
X131897745Y-101158139D01*
X132143864Y-101084005D01*
X132312735Y-100614187D01*
X134454752Y-100614187D01*
X134672757Y-101141800D01*
X135076077Y-101545824D01*
X135603309Y-101764750D01*
X136174187Y-101765248D01*
X136701800Y-101547243D01*
X136911663Y-101337745D01*
X137681861Y-101337745D01*
X137755995Y-101583864D01*
X138293223Y-101776965D01*
X138863454Y-101749778D01*
X139264005Y-101583864D01*
X139338139Y-101337745D01*
X138510000Y-100509605D01*
X137681861Y-101337745D01*
X136911663Y-101337745D01*
X137105824Y-101143923D01*
X137193497Y-100932782D01*
X137256136Y-101084005D01*
X137502255Y-101158139D01*
X138330395Y-100330000D01*
X138689605Y-100330000D01*
X139517745Y-101158139D01*
X139763864Y-101084005D01*
X139932735Y-100614187D01*
X142074752Y-100614187D01*
X142292757Y-101141800D01*
X142696077Y-101545824D01*
X143223309Y-101764750D01*
X143794187Y-101765248D01*
X144321800Y-101547243D01*
X144725824Y-101143923D01*
X144944750Y-100616691D01*
X144945248Y-100045813D01*
X144727243Y-99518200D01*
X144323923Y-99114176D01*
X143796691Y-98895250D01*
X143225813Y-98894752D01*
X142698200Y-99112757D01*
X142294176Y-99516077D01*
X142075250Y-100043309D01*
X142074752Y-100614187D01*
X139932735Y-100614187D01*
X139956965Y-100546777D01*
X139929778Y-99976546D01*
X139763864Y-99575995D01*
X139517745Y-99501861D01*
X138689605Y-100330000D01*
X138330395Y-100330000D01*
X137502255Y-99501861D01*
X137256136Y-99575995D01*
X137197978Y-99737796D01*
X137107243Y-99518200D01*
X136911640Y-99322255D01*
X137681861Y-99322255D01*
X138510000Y-100150395D01*
X139338139Y-99322255D01*
X139264005Y-99076136D01*
X138726777Y-98883035D01*
X138156546Y-98910222D01*
X137755995Y-99076136D01*
X137681861Y-99322255D01*
X136911640Y-99322255D01*
X136703923Y-99114176D01*
X136176691Y-98895250D01*
X135605813Y-98894752D01*
X135078200Y-99112757D01*
X134674176Y-99516077D01*
X134455250Y-100043309D01*
X134454752Y-100614187D01*
X132312735Y-100614187D01*
X132336965Y-100546777D01*
X132309778Y-99976546D01*
X132143864Y-99575995D01*
X131897745Y-99501861D01*
X131069605Y-100330000D01*
X130710395Y-100330000D01*
X129882255Y-99501861D01*
X129636136Y-99575995D01*
X129443035Y-100113223D01*
X128392991Y-100113223D01*
X128450648Y-100074698D01*
X128761717Y-99609151D01*
X128818784Y-99322255D01*
X130061861Y-99322255D01*
X130890000Y-100150395D01*
X131718139Y-99322255D01*
X131644005Y-99076136D01*
X131106777Y-98883035D01*
X130536546Y-98910222D01*
X130135995Y-99076136D01*
X130061861Y-99322255D01*
X128818784Y-99322255D01*
X128870950Y-99060000D01*
X128761717Y-98510849D01*
X128450648Y-98045302D01*
X128068562Y-97790000D01*
X128450648Y-97534698D01*
X128761717Y-97069151D01*
X128870950Y-96520000D01*
X128818785Y-96257745D01*
X130061861Y-96257745D01*
X130135995Y-96503864D01*
X130673223Y-96696965D01*
X131243454Y-96669778D01*
X131644005Y-96503864D01*
X131718139Y-96257745D01*
X130890000Y-95429605D01*
X130061861Y-96257745D01*
X128818785Y-96257745D01*
X128761717Y-95970849D01*
X128450648Y-95505302D01*
X128068562Y-95250000D01*
X128392991Y-95033223D01*
X129443035Y-95033223D01*
X129470222Y-95603454D01*
X129636136Y-96004005D01*
X129882255Y-96078139D01*
X130710395Y-95250000D01*
X131069605Y-95250000D01*
X131897745Y-96078139D01*
X132143864Y-96004005D01*
X132312735Y-95534187D01*
X134454752Y-95534187D01*
X134672757Y-96061800D01*
X135076077Y-96465824D01*
X135603309Y-96684750D01*
X136174187Y-96685248D01*
X136701800Y-96467243D01*
X137105824Y-96063923D01*
X137199961Y-95837216D01*
X137292757Y-96061800D01*
X137696077Y-96465824D01*
X138223309Y-96684750D01*
X138794187Y-96685248D01*
X139321800Y-96467243D01*
X139725824Y-96063923D01*
X139944750Y-95536691D01*
X139944752Y-95534187D01*
X142074752Y-95534187D01*
X142292757Y-96061800D01*
X142696077Y-96465824D01*
X143223309Y-96684750D01*
X143794187Y-96685248D01*
X144321800Y-96467243D01*
X144725824Y-96063923D01*
X144944750Y-95536691D01*
X144945248Y-94965813D01*
X144727243Y-94438200D01*
X144323923Y-94034176D01*
X143796691Y-93815250D01*
X143225813Y-93814752D01*
X142698200Y-94032757D01*
X142294176Y-94436077D01*
X142075250Y-94963309D01*
X142074752Y-95534187D01*
X139944752Y-95534187D01*
X139945248Y-94965813D01*
X139727243Y-94438200D01*
X139323923Y-94034176D01*
X138796691Y-93815250D01*
X138225813Y-93814752D01*
X137698200Y-94032757D01*
X137294176Y-94436077D01*
X137200039Y-94662784D01*
X137107243Y-94438200D01*
X136703923Y-94034176D01*
X136176691Y-93815250D01*
X135605813Y-93814752D01*
X135078200Y-94032757D01*
X134674176Y-94436077D01*
X134455250Y-94963309D01*
X134454752Y-95534187D01*
X132312735Y-95534187D01*
X132336965Y-95466777D01*
X132309778Y-94896546D01*
X132143864Y-94495995D01*
X131897745Y-94421861D01*
X131069605Y-95250000D01*
X130710395Y-95250000D01*
X129882255Y-94421861D01*
X129636136Y-94495995D01*
X129443035Y-95033223D01*
X128392991Y-95033223D01*
X128450648Y-94994698D01*
X128761717Y-94529151D01*
X128818784Y-94242255D01*
X130061861Y-94242255D01*
X130890000Y-95070395D01*
X131718139Y-94242255D01*
X131644005Y-93996136D01*
X131106777Y-93803035D01*
X130536546Y-93830222D01*
X130135995Y-93996136D01*
X130061861Y-94242255D01*
X128818784Y-94242255D01*
X128870950Y-93980000D01*
X128784235Y-93544050D01*
X145885000Y-93544050D01*
X145885000Y-94415950D01*
X145994233Y-94965101D01*
X146305302Y-95430648D01*
X146770849Y-95741717D01*
X147320000Y-95850950D01*
X147869151Y-95741717D01*
X148334698Y-95430648D01*
X148590000Y-95048562D01*
X148845302Y-95430648D01*
X149310849Y-95741717D01*
X149860000Y-95850950D01*
X150409151Y-95741717D01*
X150874698Y-95430648D01*
X151130000Y-95048562D01*
X151385302Y-95430648D01*
X151850849Y-95741717D01*
X152400000Y-95850950D01*
X152949151Y-95741717D01*
X153414698Y-95430648D01*
X153670000Y-95048562D01*
X153925302Y-95430648D01*
X154390849Y-95741717D01*
X154940000Y-95850950D01*
X155489151Y-95741717D01*
X155799741Y-95534187D01*
X166284752Y-95534187D01*
X166502757Y-96061800D01*
X166906077Y-96465824D01*
X167433309Y-96684750D01*
X168004187Y-96685248D01*
X168531800Y-96467243D01*
X168935824Y-96063923D01*
X169154750Y-95536691D01*
X169155248Y-94965813D01*
X168937243Y-94438200D01*
X168533923Y-94034176D01*
X168006691Y-93815250D01*
X167435813Y-93814752D01*
X166908200Y-94032757D01*
X166504176Y-94436077D01*
X166285250Y-94963309D01*
X166284752Y-95534187D01*
X155799741Y-95534187D01*
X155954698Y-95430648D01*
X156250636Y-94987745D01*
X158001861Y-94987745D01*
X158075995Y-95233864D01*
X158613223Y-95426965D01*
X159183454Y-95399778D01*
X159584005Y-95233864D01*
X159658139Y-94987745D01*
X158830000Y-94159605D01*
X158001861Y-94987745D01*
X156250636Y-94987745D01*
X156265767Y-94965101D01*
X156375000Y-94415950D01*
X156375000Y-93763223D01*
X157383035Y-93763223D01*
X157410222Y-94333454D01*
X157576136Y-94734005D01*
X157822255Y-94808139D01*
X158650395Y-93980000D01*
X159009605Y-93980000D01*
X159837745Y-94808139D01*
X160083864Y-94734005D01*
X160252735Y-94264187D01*
X162394752Y-94264187D01*
X162612757Y-94791800D01*
X163016077Y-95195824D01*
X163543309Y-95414750D01*
X164114187Y-95415248D01*
X164641800Y-95197243D01*
X165045824Y-94793923D01*
X165264750Y-94266691D01*
X165265248Y-93695813D01*
X165047243Y-93168200D01*
X164643923Y-92764176D01*
X164116691Y-92545250D01*
X163545813Y-92544752D01*
X163018200Y-92762757D01*
X162614176Y-93166077D01*
X162395250Y-93693309D01*
X162394752Y-94264187D01*
X160252735Y-94264187D01*
X160276965Y-94196777D01*
X160249778Y-93626546D01*
X160083864Y-93225995D01*
X159837745Y-93151861D01*
X159009605Y-93980000D01*
X158650395Y-93980000D01*
X157822255Y-93151861D01*
X157576136Y-93225995D01*
X157383035Y-93763223D01*
X156375000Y-93763223D01*
X156375000Y-93544050D01*
X156265767Y-92994899D01*
X156250637Y-92972255D01*
X158001861Y-92972255D01*
X158830000Y-93800395D01*
X159658139Y-92972255D01*
X159584005Y-92726136D01*
X159046777Y-92533035D01*
X158476546Y-92560222D01*
X158075995Y-92726136D01*
X158001861Y-92972255D01*
X156250637Y-92972255D01*
X155954698Y-92529352D01*
X155489151Y-92218283D01*
X154940000Y-92109050D01*
X154390849Y-92218283D01*
X153925302Y-92529352D01*
X153670000Y-92911438D01*
X153414698Y-92529352D01*
X152949151Y-92218283D01*
X152400000Y-92109050D01*
X151850849Y-92218283D01*
X151385302Y-92529352D01*
X151130000Y-92911438D01*
X150874698Y-92529352D01*
X150845000Y-92509508D01*
X150845000Y-91810000D01*
X173712560Y-91810000D01*
X173712560Y-93610000D01*
X173756838Y-93845317D01*
X173895910Y-94061441D01*
X174108110Y-94206431D01*
X174360000Y-94257440D01*
X176160000Y-94257440D01*
X176395317Y-94213162D01*
X176611441Y-94074090D01*
X176750598Y-93870426D01*
X176784890Y-93904718D01*
X176899447Y-93790161D01*
X176985852Y-94046643D01*
X177559336Y-94256458D01*
X178169460Y-94230839D01*
X178614148Y-94046643D01*
X178700554Y-93790159D01*
X177800000Y-92889605D01*
X177785858Y-92903748D01*
X177606253Y-92724143D01*
X177620395Y-92710000D01*
X177606253Y-92695858D01*
X177785858Y-92516253D01*
X177800000Y-92530395D01*
X178700554Y-91629841D01*
X178614148Y-91373357D01*
X178040664Y-91163542D01*
X177430540Y-91189161D01*
X176985852Y-91373357D01*
X176899447Y-91629839D01*
X176784890Y-91515282D01*
X176748412Y-91551760D01*
X176624090Y-91358559D01*
X176411890Y-91213569D01*
X176160000Y-91162560D01*
X174360000Y-91162560D01*
X174124683Y-91206838D01*
X173908559Y-91345910D01*
X173763569Y-91558110D01*
X173712560Y-91810000D01*
X150845000Y-91810000D01*
X150845000Y-90658000D01*
X152438037Y-89064963D01*
X152764187Y-89065248D01*
X153291800Y-88847243D01*
X153695824Y-88443923D01*
X153914750Y-87916691D01*
X153914752Y-87914187D01*
X156044752Y-87914187D01*
X156262757Y-88441800D01*
X156666077Y-88845824D01*
X157193309Y-89064750D01*
X157764187Y-89065248D01*
X158291800Y-88847243D01*
X158695824Y-88443923D01*
X158914750Y-87916691D01*
X158915248Y-87345813D01*
X158697243Y-86818200D01*
X158293923Y-86414176D01*
X157766691Y-86195250D01*
X157195813Y-86194752D01*
X156668200Y-86412757D01*
X156264176Y-86816077D01*
X156045250Y-87343309D01*
X156044752Y-87914187D01*
X153914752Y-87914187D01*
X153915248Y-87345813D01*
X153697243Y-86818200D01*
X153293923Y-86414176D01*
X152766691Y-86195250D01*
X152607889Y-86195111D01*
X154078000Y-84725000D01*
X155165655Y-84725000D01*
X155396077Y-84955824D01*
X155923309Y-85174750D01*
X156494187Y-85175248D01*
X157021800Y-84957243D01*
X157254448Y-84725000D01*
X158662000Y-84725000D01*
X161019797Y-87082797D01*
X160740849Y-87138283D01*
X160275302Y-87449352D01*
X159964233Y-87914899D01*
X159855000Y-88464050D01*
X159855000Y-89335950D01*
X159964233Y-89885101D01*
X160275302Y-90350648D01*
X160740849Y-90661717D01*
X161290000Y-90770950D01*
X161839151Y-90661717D01*
X162304698Y-90350648D01*
X162560000Y-89968562D01*
X162815302Y-90350648D01*
X163280849Y-90661717D01*
X163830000Y-90770950D01*
X164379151Y-90661717D01*
X164844698Y-90350648D01*
X165100000Y-89968562D01*
X165355302Y-90350648D01*
X165820849Y-90661717D01*
X166370000Y-90770950D01*
X166919151Y-90661717D01*
X167384698Y-90350648D01*
X167640000Y-89968562D01*
X167895302Y-90350648D01*
X168360849Y-90661717D01*
X168910000Y-90770950D01*
X169459151Y-90661717D01*
X169924698Y-90350648D01*
X170235767Y-89885101D01*
X170345000Y-89335950D01*
X170345000Y-88464050D01*
X170235767Y-87914899D01*
X169924698Y-87449352D01*
X169459151Y-87138283D01*
X168910000Y-87029050D01*
X168360849Y-87138283D01*
X167895302Y-87449352D01*
X167640000Y-87831438D01*
X167384698Y-87449352D01*
X166919151Y-87138283D01*
X166370000Y-87029050D01*
X165820849Y-87138283D01*
X165355302Y-87449352D01*
X165100000Y-87831438D01*
X164844698Y-87449352D01*
X164379151Y-87138283D01*
X163830000Y-87029050D01*
X163764983Y-87041983D01*
X163453000Y-86730000D01*
X173712560Y-86730000D01*
X173712560Y-88530000D01*
X173756838Y-88765317D01*
X173895910Y-88981441D01*
X174108110Y-89126431D01*
X174360000Y-89177440D01*
X176160000Y-89177440D01*
X176395317Y-89133162D01*
X176611441Y-88994090D01*
X176750598Y-88790426D01*
X176784890Y-88824718D01*
X176899447Y-88710161D01*
X176985852Y-88966643D01*
X177559336Y-89176458D01*
X178169460Y-89150839D01*
X178614148Y-88966643D01*
X178700554Y-88710159D01*
X177800000Y-87809605D01*
X177785858Y-87823748D01*
X177606253Y-87644143D01*
X177620395Y-87630000D01*
X177606253Y-87615858D01*
X177785858Y-87436253D01*
X177800000Y-87450395D01*
X178700554Y-86549841D01*
X178614148Y-86293357D01*
X178040664Y-86083542D01*
X177430540Y-86109161D01*
X176985852Y-86293357D01*
X176899447Y-86549839D01*
X176784890Y-86435282D01*
X176748412Y-86471760D01*
X176624090Y-86278559D01*
X176411890Y-86133569D01*
X176160000Y-86082560D01*
X174360000Y-86082560D01*
X174124683Y-86126838D01*
X173908559Y-86265910D01*
X173763569Y-86478110D01*
X173712560Y-86730000D01*
X163453000Y-86730000D01*
X159766500Y-83043500D01*
X159446943Y-82829979D01*
X159070000Y-82755000D01*
X157254345Y-82755000D01*
X157023923Y-82524176D01*
X156496691Y-82305250D01*
X155925813Y-82304752D01*
X155398200Y-82522757D01*
X155165552Y-82755000D01*
X153670000Y-82755000D01*
X153293057Y-82829979D01*
X152973500Y-83043500D01*
X147869963Y-88147037D01*
X147543813Y-88146752D01*
X147016200Y-88364757D01*
X146612176Y-88768077D01*
X146393250Y-89295309D01*
X146392752Y-89866187D01*
X146610757Y-90393800D01*
X146843000Y-90626448D01*
X146843000Y-92203931D01*
X146770849Y-92218283D01*
X146305302Y-92529352D01*
X145994233Y-92994899D01*
X145885000Y-93544050D01*
X128784235Y-93544050D01*
X128761717Y-93430849D01*
X128450648Y-92965302D01*
X128068562Y-92710000D01*
X128450648Y-92454698D01*
X128761717Y-91989151D01*
X128870950Y-91440000D01*
X128761717Y-90890849D01*
X128450648Y-90425302D01*
X128068562Y-90170000D01*
X128450648Y-89914698D01*
X128761717Y-89449151D01*
X128870950Y-88900000D01*
X129448846Y-88900000D01*
X129550467Y-89410882D01*
X129839858Y-89843988D01*
X130272964Y-90133379D01*
X130457070Y-90170000D01*
X130272964Y-90206621D01*
X129839858Y-90496012D01*
X129550467Y-90929118D01*
X129448846Y-91440000D01*
X129550467Y-91950882D01*
X129839858Y-92383988D01*
X130272964Y-92673379D01*
X130783846Y-92775000D01*
X130836154Y-92775000D01*
X131347036Y-92673379D01*
X131780142Y-92383988D01*
X132069533Y-91950882D01*
X132084835Y-91873955D01*
X132217582Y-92195229D01*
X132592796Y-92571098D01*
X133083287Y-92774768D01*
X133614383Y-92775231D01*
X134105229Y-92572418D01*
X134481098Y-92197204D01*
X134615216Y-91874212D01*
X134630467Y-91950882D01*
X134919858Y-92383988D01*
X135352964Y-92673379D01*
X135863846Y-92775000D01*
X135916154Y-92775000D01*
X136427036Y-92673379D01*
X136860142Y-92383988D01*
X137149533Y-91950882D01*
X137164835Y-91873955D01*
X137297582Y-92195229D01*
X137672796Y-92571098D01*
X138163287Y-92774768D01*
X138694383Y-92775231D01*
X139185229Y-92572418D01*
X139561098Y-92197204D01*
X139700091Y-91862473D01*
X139837582Y-92195229D01*
X140212796Y-92571098D01*
X140703287Y-92774768D01*
X141234383Y-92775231D01*
X141725229Y-92572418D01*
X142101098Y-92197204D01*
X142235216Y-91874212D01*
X142250467Y-91950882D01*
X142539858Y-92383988D01*
X142972964Y-92673379D01*
X143483846Y-92775000D01*
X143536154Y-92775000D01*
X144047036Y-92673379D01*
X144480142Y-92383988D01*
X144769533Y-91950882D01*
X144871154Y-91440000D01*
X144769533Y-90929118D01*
X144480142Y-90496012D01*
X144047036Y-90206621D01*
X143862930Y-90170000D01*
X144047036Y-90133379D01*
X144480142Y-89843988D01*
X144769533Y-89410882D01*
X144871154Y-88900000D01*
X144769533Y-88389118D01*
X144480142Y-87956012D01*
X144047036Y-87666621D01*
X143536154Y-87565000D01*
X143483846Y-87565000D01*
X142972964Y-87666621D01*
X142539858Y-87956012D01*
X142250467Y-88389118D01*
X142235165Y-88466045D01*
X142102418Y-88144771D01*
X141727204Y-87768902D01*
X141236713Y-87565232D01*
X140705617Y-87564769D01*
X140214771Y-87767582D01*
X139838902Y-88142796D01*
X139692843Y-88494545D01*
X139579797Y-88221604D01*
X139232663Y-87833236D01*
X138763331Y-87607273D01*
X138557000Y-87729794D01*
X138557000Y-88773000D01*
X138577000Y-88773000D01*
X138577000Y-89027000D01*
X138557000Y-89027000D01*
X138557000Y-89047000D01*
X138303000Y-89047000D01*
X138303000Y-89027000D01*
X138283000Y-89027000D01*
X138283000Y-88773000D01*
X138303000Y-88773000D01*
X138303000Y-87729794D01*
X138096669Y-87607273D01*
X137627337Y-87833236D01*
X137280203Y-88221604D01*
X137167049Y-88494806D01*
X137022418Y-88144771D01*
X136647204Y-87768902D01*
X136156713Y-87565232D01*
X135625617Y-87564769D01*
X135134771Y-87767582D01*
X134758902Y-88142796D01*
X134619909Y-88477527D01*
X134482418Y-88144771D01*
X134107204Y-87768902D01*
X133616713Y-87565232D01*
X133085617Y-87564769D01*
X132594771Y-87767582D01*
X132218902Y-88142796D01*
X132084784Y-88465788D01*
X132069533Y-88389118D01*
X131780142Y-87956012D01*
X131347036Y-87666621D01*
X130836154Y-87565000D01*
X130783846Y-87565000D01*
X130272964Y-87666621D01*
X129839858Y-87956012D01*
X129550467Y-88389118D01*
X129448846Y-88900000D01*
X128870950Y-88900000D01*
X128761717Y-88350849D01*
X128450648Y-87885302D01*
X128068562Y-87630000D01*
X128450648Y-87374698D01*
X128761717Y-86909151D01*
X128870950Y-86360000D01*
X128818785Y-86097745D01*
X130061861Y-86097745D01*
X130135995Y-86343864D01*
X130673223Y-86536965D01*
X131243454Y-86509778D01*
X131644005Y-86343864D01*
X131718139Y-86097745D01*
X130890000Y-85269605D01*
X130061861Y-86097745D01*
X128818785Y-86097745D01*
X128761717Y-85810849D01*
X128450648Y-85345302D01*
X127985101Y-85034233D01*
X127435950Y-84925000D01*
X126564050Y-84925000D01*
X126014899Y-85034233D01*
X125549352Y-85345302D01*
X125238283Y-85810849D01*
X125129050Y-86360000D01*
X125238283Y-86909151D01*
X125549352Y-87374698D01*
X125931438Y-87630000D01*
X125549352Y-87885302D01*
X125238283Y-88350849D01*
X125129050Y-88900000D01*
X125238283Y-89449151D01*
X125549352Y-89914698D01*
X125931438Y-90170000D01*
X125549352Y-90425302D01*
X125238283Y-90890849D01*
X125129050Y-91440000D01*
X125238283Y-91989151D01*
X125549352Y-92454698D01*
X125931438Y-92710000D01*
X125549352Y-92965302D01*
X125238283Y-93430849D01*
X125129050Y-93980000D01*
X125238283Y-94529151D01*
X125549352Y-94994698D01*
X125931438Y-95250000D01*
X125549352Y-95505302D01*
X125238283Y-95970849D01*
X125129050Y-96520000D01*
X125238283Y-97069151D01*
X125549352Y-97534698D01*
X125931438Y-97790000D01*
X125549352Y-98045302D01*
X125238283Y-98510849D01*
X125129050Y-99060000D01*
X125238283Y-99609151D01*
X125549352Y-100074698D01*
X125931438Y-100330000D01*
X125549352Y-100585302D01*
X125238283Y-101050849D01*
X125129050Y-101600000D01*
X125238283Y-102149151D01*
X125549352Y-102614698D01*
X125931438Y-102870000D01*
X125549352Y-103125302D01*
X125238283Y-103590849D01*
X125129050Y-104140000D01*
X125238283Y-104689151D01*
X125549352Y-105154698D01*
X125931438Y-105410000D01*
X125549352Y-105665302D01*
X125238283Y-106130849D01*
X125129050Y-106680000D01*
X125238283Y-107229151D01*
X125549352Y-107694698D01*
X125931438Y-107950000D01*
X125549352Y-108205302D01*
X125238283Y-108670849D01*
X125129050Y-109220000D01*
X125208347Y-109618653D01*
X121354051Y-113472949D01*
X121147617Y-113472769D01*
X120656771Y-113675582D01*
X120280902Y-114050796D01*
X120146784Y-114373788D01*
X120131533Y-114297118D01*
X119842142Y-113864012D01*
X119409036Y-113574621D01*
X118937907Y-113480907D01*
X117825000Y-112368000D01*
X117825000Y-110078524D01*
X117929352Y-110234698D01*
X118394899Y-110545767D01*
X118944050Y-110655000D01*
X119815950Y-110655000D01*
X120365101Y-110545767D01*
X120830648Y-110234698D01*
X121141717Y-109769151D01*
X121250950Y-109220000D01*
X121141717Y-108670849D01*
X120830648Y-108205302D01*
X120448562Y-107950000D01*
X120830648Y-107694698D01*
X121141717Y-107229151D01*
X121250950Y-106680000D01*
X121141717Y-106130849D01*
X120830648Y-105665302D01*
X120448562Y-105410000D01*
X120830648Y-105154698D01*
X121141717Y-104689151D01*
X121250950Y-104140000D01*
X121141717Y-103590849D01*
X120830648Y-103125302D01*
X120448562Y-102870000D01*
X120830648Y-102614698D01*
X121141717Y-102149151D01*
X121250950Y-101600000D01*
X121141717Y-101050849D01*
X120830648Y-100585302D01*
X120448562Y-100330000D01*
X120830648Y-100074698D01*
X121141717Y-99609151D01*
X121250950Y-99060000D01*
X121141717Y-98510849D01*
X120830648Y-98045302D01*
X120452293Y-97792493D01*
X120884500Y-97444896D01*
X121154367Y-96951819D01*
X121171904Y-96869039D01*
X121049915Y-96647000D01*
X119507000Y-96647000D01*
X119507000Y-96667000D01*
X119253000Y-96667000D01*
X119253000Y-96647000D01*
X117710085Y-96647000D01*
X117588096Y-96869039D01*
X117605633Y-96951819D01*
X117875500Y-97444896D01*
X118307707Y-97792493D01*
X117929352Y-98045302D01*
X117909508Y-98075000D01*
X117480000Y-98075000D01*
X117103057Y-98149979D01*
X116783500Y-98363500D01*
X116143500Y-99003500D01*
X115929979Y-99323057D01*
X115855000Y-99700000D01*
X111887000Y-99700000D01*
X111887000Y-96204491D01*
X111950853Y-96300054D01*
X112432622Y-96621961D01*
X113000907Y-96735000D01*
X113059093Y-96735000D01*
X113627378Y-96621961D01*
X114109147Y-96300054D01*
X114431054Y-95818285D01*
X114544093Y-95250000D01*
X114431054Y-94681715D01*
X114195404Y-94329039D01*
X117588096Y-94329039D01*
X117605633Y-94411819D01*
X117875500Y-94904896D01*
X118304607Y-95250000D01*
X117875500Y-95595104D01*
X117605633Y-96088181D01*
X117588096Y-96170961D01*
X117710085Y-96393000D01*
X119253000Y-96393000D01*
X119253000Y-94107000D01*
X119507000Y-94107000D01*
X119507000Y-96393000D01*
X121049915Y-96393000D01*
X121171904Y-96170961D01*
X121154367Y-96088181D01*
X120884500Y-95595104D01*
X120455393Y-95250000D01*
X120884500Y-94904896D01*
X121154367Y-94411819D01*
X121171904Y-94329039D01*
X121049915Y-94107000D01*
X119507000Y-94107000D01*
X119253000Y-94107000D01*
X117710085Y-94107000D01*
X117588096Y-94329039D01*
X114195404Y-94329039D01*
X114109147Y-94199946D01*
X113768447Y-93972298D01*
X113911358Y-93905183D01*
X114301645Y-93476924D01*
X114471476Y-93066890D01*
X114350155Y-92837000D01*
X113157000Y-92837000D01*
X113157000Y-92857000D01*
X112903000Y-92857000D01*
X112903000Y-92837000D01*
X112883000Y-92837000D01*
X112883000Y-92583000D01*
X112903000Y-92583000D01*
X112903000Y-92563000D01*
X113157000Y-92563000D01*
X113157000Y-92583000D01*
X114350155Y-92583000D01*
X114471476Y-92353110D01*
X114301645Y-91943076D01*
X113911358Y-91514817D01*
X113768447Y-91447702D01*
X114109147Y-91220054D01*
X114152615Y-91155000D01*
X114232081Y-91155000D01*
X114609024Y-91080021D01*
X114928581Y-90866500D01*
X115855000Y-89940081D01*
X115855000Y-90800000D01*
X115929979Y-91176943D01*
X116143500Y-91496500D01*
X116783500Y-92136500D01*
X117103057Y-92350021D01*
X117480000Y-92425000D01*
X117909508Y-92425000D01*
X117929352Y-92454698D01*
X118307707Y-92707507D01*
X117875500Y-93055104D01*
X117605633Y-93548181D01*
X117588096Y-93630961D01*
X117710085Y-93853000D01*
X119253000Y-93853000D01*
X119253000Y-93833000D01*
X119507000Y-93833000D01*
X119507000Y-93853000D01*
X121049915Y-93853000D01*
X121171904Y-93630961D01*
X121154367Y-93548181D01*
X120884500Y-93055104D01*
X120452293Y-92707507D01*
X120830648Y-92454698D01*
X121141717Y-91989151D01*
X121250950Y-91440000D01*
X121141717Y-90890849D01*
X120830648Y-90425302D01*
X120448562Y-90170000D01*
X120830648Y-89914698D01*
X121141717Y-89449151D01*
X121250950Y-88900000D01*
X121141717Y-88350849D01*
X120830648Y-87885302D01*
X120695502Y-87795000D01*
X120706309Y-87795000D01*
X120939698Y-87698327D01*
X121118327Y-87519699D01*
X121215000Y-87286310D01*
X121215000Y-86645750D01*
X121056250Y-86487000D01*
X119507000Y-86487000D01*
X119507000Y-86507000D01*
X119253000Y-86507000D01*
X119253000Y-86487000D01*
X119233000Y-86487000D01*
X119233000Y-86233000D01*
X119253000Y-86233000D01*
X119253000Y-85083750D01*
X119507000Y-85083750D01*
X119507000Y-86233000D01*
X121056250Y-86233000D01*
X121215000Y-86074250D01*
X121215000Y-85433690D01*
X121118327Y-85200301D01*
X120939698Y-85021673D01*
X120706309Y-84925000D01*
X119665750Y-84925000D01*
X119507000Y-85083750D01*
X119253000Y-85083750D01*
X119094250Y-84925000D01*
X118053691Y-84925000D01*
X117825000Y-85019727D01*
X117825000Y-84873223D01*
X129443035Y-84873223D01*
X129470222Y-85443454D01*
X129636136Y-85844005D01*
X129882255Y-85918139D01*
X130710395Y-85090000D01*
X131069605Y-85090000D01*
X131897745Y-85918139D01*
X132143864Y-85844005D01*
X132312735Y-85374187D01*
X134454752Y-85374187D01*
X134672757Y-85901800D01*
X135076077Y-86305824D01*
X135603309Y-86524750D01*
X136174187Y-86525248D01*
X136701800Y-86307243D01*
X136911663Y-86097745D01*
X137601861Y-86097745D01*
X137675995Y-86343864D01*
X138213223Y-86536965D01*
X138783454Y-86509778D01*
X139184005Y-86343864D01*
X139258139Y-86097745D01*
X138430000Y-85269605D01*
X137601861Y-86097745D01*
X136911663Y-86097745D01*
X137105824Y-85903923D01*
X137153448Y-85789232D01*
X137176136Y-85844005D01*
X137422255Y-85918139D01*
X138250395Y-85090000D01*
X138609605Y-85090000D01*
X139437745Y-85918139D01*
X139683864Y-85844005D01*
X139852735Y-85374187D01*
X141994752Y-85374187D01*
X142212757Y-85901800D01*
X142616077Y-86305824D01*
X143143309Y-86524750D01*
X143714187Y-86525248D01*
X144241800Y-86307243D01*
X144645824Y-85903923D01*
X144864750Y-85376691D01*
X144865195Y-84866187D01*
X146392752Y-84866187D01*
X146610757Y-85393800D01*
X147014077Y-85797824D01*
X147541309Y-86016750D01*
X148112187Y-86017248D01*
X148639800Y-85799243D01*
X149043824Y-85395923D01*
X149262750Y-84868691D01*
X149263248Y-84297813D01*
X149045243Y-83770200D01*
X148641923Y-83366176D01*
X148114691Y-83147250D01*
X147543813Y-83146752D01*
X147016200Y-83364757D01*
X146612176Y-83768077D01*
X146393250Y-84295309D01*
X146392752Y-84866187D01*
X144865195Y-84866187D01*
X144865248Y-84805813D01*
X144647243Y-84278200D01*
X144243923Y-83874176D01*
X143716691Y-83655250D01*
X143145813Y-83654752D01*
X142618200Y-83872757D01*
X142214176Y-84276077D01*
X141995250Y-84803309D01*
X141994752Y-85374187D01*
X139852735Y-85374187D01*
X139876965Y-85306777D01*
X139849778Y-84736546D01*
X139683864Y-84335995D01*
X139437745Y-84261861D01*
X138609605Y-85090000D01*
X138250395Y-85090000D01*
X137422255Y-84261861D01*
X137176136Y-84335995D01*
X137155195Y-84394254D01*
X137107243Y-84278200D01*
X136911640Y-84082255D01*
X137601861Y-84082255D01*
X138430000Y-84910395D01*
X139258139Y-84082255D01*
X139184005Y-83836136D01*
X138646777Y-83643035D01*
X138076546Y-83670222D01*
X137675995Y-83836136D01*
X137601861Y-84082255D01*
X136911640Y-84082255D01*
X136703923Y-83874176D01*
X136176691Y-83655250D01*
X135605813Y-83654752D01*
X135078200Y-83872757D01*
X134674176Y-84276077D01*
X134455250Y-84803309D01*
X134454752Y-85374187D01*
X132312735Y-85374187D01*
X132336965Y-85306777D01*
X132309778Y-84736546D01*
X132143864Y-84335995D01*
X131897745Y-84261861D01*
X131069605Y-85090000D01*
X130710395Y-85090000D01*
X129882255Y-84261861D01*
X129636136Y-84335995D01*
X129443035Y-84873223D01*
X117825000Y-84873223D01*
X117825000Y-84082255D01*
X130061861Y-84082255D01*
X130890000Y-84910395D01*
X131718139Y-84082255D01*
X131644005Y-83836136D01*
X131106777Y-83643035D01*
X130536546Y-83670222D01*
X130135995Y-83836136D01*
X130061861Y-84082255D01*
X117825000Y-84082255D01*
X117825000Y-82244345D01*
X118055824Y-82013923D01*
X118242570Y-81564187D01*
X121754752Y-81564187D01*
X121972757Y-82091800D01*
X122376077Y-82495824D01*
X122903309Y-82714750D01*
X123474187Y-82715248D01*
X124001800Y-82497243D01*
X124405824Y-82093923D01*
X124624750Y-81566691D01*
X124625248Y-80995813D01*
X124407243Y-80468200D01*
X124003923Y-80064176D01*
X123476691Y-79845250D01*
X122905813Y-79844752D01*
X122378200Y-80062757D01*
X121974176Y-80466077D01*
X121755250Y-80993309D01*
X121754752Y-81564187D01*
X118242570Y-81564187D01*
X118274750Y-81486691D01*
X118275248Y-80915813D01*
X118057243Y-80388200D01*
X117653923Y-79984176D01*
X117126691Y-79765250D01*
X116555813Y-79764752D01*
X116028200Y-79982757D01*
X115624176Y-80386077D01*
X115405250Y-80913309D01*
X115404752Y-81484187D01*
X115622757Y-82011800D01*
X115855000Y-82244448D01*
X115855000Y-87154081D01*
X114527023Y-88482058D01*
X114527440Y-88480000D01*
X114527440Y-86780000D01*
X114483162Y-86544683D01*
X114344090Y-86328559D01*
X114131890Y-86183569D01*
X114015000Y-86159898D01*
X114015000Y-79747745D01*
X155381861Y-79747745D01*
X155455995Y-79993864D01*
X155993223Y-80186965D01*
X156563454Y-80159778D01*
X156964005Y-79993864D01*
X157038139Y-79747745D01*
X156210000Y-78919605D01*
X155381861Y-79747745D01*
X114015000Y-79747745D01*
X114015000Y-78523223D01*
X154763035Y-78523223D01*
X154790222Y-79093454D01*
X154956136Y-79494005D01*
X155202255Y-79568139D01*
X156030395Y-78740000D01*
X156389605Y-78740000D01*
X157217745Y-79568139D01*
X157463864Y-79494005D01*
X157656965Y-78956777D01*
X157629778Y-78386546D01*
X157463864Y-77985995D01*
X157217745Y-77911861D01*
X156389605Y-78740000D01*
X156030395Y-78740000D01*
X155202255Y-77911861D01*
X154956136Y-77985995D01*
X154763035Y-78523223D01*
X114015000Y-78523223D01*
X114015000Y-77975998D01*
X114258743Y-77732255D01*
X155381861Y-77732255D01*
X156210000Y-78560395D01*
X157038139Y-77732255D01*
X156964005Y-77486136D01*
X156426777Y-77293035D01*
X155856546Y-77320222D01*
X155455995Y-77486136D01*
X155381861Y-77732255D01*
X114258743Y-77732255D01*
X114783253Y-77207745D01*
X116011861Y-77207745D01*
X116085995Y-77453864D01*
X116623223Y-77646965D01*
X117193454Y-77619778D01*
X117594005Y-77453864D01*
X117644042Y-77287745D01*
X122361861Y-77287745D01*
X122435995Y-77533864D01*
X122973223Y-77726965D01*
X123543454Y-77699778D01*
X123944005Y-77533864D01*
X124018139Y-77287745D01*
X123190000Y-76459605D01*
X122361861Y-77287745D01*
X117644042Y-77287745D01*
X117668139Y-77207745D01*
X116840000Y-76379605D01*
X116011861Y-77207745D01*
X114783253Y-77207745D01*
X115425296Y-76565702D01*
X115586136Y-76954005D01*
X115832255Y-77028139D01*
X116660395Y-76200000D01*
X116646252Y-76185858D01*
X116825858Y-76006252D01*
X116840000Y-76020395D01*
X116854142Y-76006252D01*
X117033748Y-76185858D01*
X117019605Y-76200000D01*
X117847745Y-77028139D01*
X118093864Y-76954005D01*
X118286965Y-76416777D01*
X118259778Y-75846546D01*
X118130731Y-75534999D01*
X121932900Y-75534999D01*
X121743035Y-76063223D01*
X121770222Y-76633454D01*
X121936136Y-77034005D01*
X122182255Y-77108139D01*
X123010395Y-76280000D01*
X122996252Y-76265858D01*
X123175858Y-76086252D01*
X123190000Y-76100395D01*
X123204142Y-76086252D01*
X123383748Y-76265858D01*
X123369605Y-76280000D01*
X124197745Y-77108139D01*
X124443864Y-77034005D01*
X124636965Y-76496777D01*
X124609778Y-75926546D01*
X124447594Y-75534999D01*
X158582535Y-75534999D01*
X160452036Y-77404500D01*
X162868522Y-79820987D01*
X162557507Y-80207707D01*
X162304698Y-79829352D01*
X161839151Y-79518283D01*
X161290000Y-79409050D01*
X160740849Y-79518283D01*
X160275302Y-79829352D01*
X159964233Y-80294899D01*
X159855000Y-80844050D01*
X159855000Y-81715950D01*
X159964233Y-82265101D01*
X160275302Y-82730648D01*
X160740849Y-83041717D01*
X161290000Y-83150950D01*
X161839151Y-83041717D01*
X162304698Y-82730648D01*
X162557507Y-82352293D01*
X162905104Y-82784500D01*
X163398181Y-83054367D01*
X163480961Y-83071904D01*
X163703000Y-82949915D01*
X163703000Y-81407000D01*
X163683000Y-81407000D01*
X163683000Y-81153000D01*
X163703000Y-81153000D01*
X163703000Y-81133000D01*
X163957000Y-81133000D01*
X163957000Y-81153000D01*
X163977000Y-81153000D01*
X163977000Y-81407000D01*
X163957000Y-81407000D01*
X163957000Y-82949915D01*
X164179039Y-83071904D01*
X164261819Y-83054367D01*
X164754896Y-82784500D01*
X165102493Y-82352293D01*
X165355302Y-82730648D01*
X165820849Y-83041717D01*
X166370000Y-83150950D01*
X166919151Y-83041717D01*
X167384698Y-82730648D01*
X167482251Y-82584650D01*
X167506838Y-82715317D01*
X167645910Y-82931441D01*
X167858110Y-83076431D01*
X168110000Y-83127440D01*
X169710000Y-83127440D01*
X169945317Y-83083162D01*
X170161441Y-82944090D01*
X170306431Y-82731890D01*
X170357440Y-82480000D01*
X170357440Y-80214990D01*
X172328008Y-80214990D01*
X172704951Y-80140011D01*
X173024508Y-79926490D01*
X173854592Y-79096406D01*
X174042757Y-79551800D01*
X174446077Y-79955824D01*
X174973309Y-80174750D01*
X175544187Y-80175248D01*
X176071800Y-79957243D01*
X176475824Y-79553923D01*
X176668860Y-79089039D01*
X184028096Y-79089039D01*
X184188959Y-79477423D01*
X184564866Y-79892389D01*
X185070959Y-80131914D01*
X185293000Y-80010629D01*
X185293000Y-78867000D01*
X184150085Y-78867000D01*
X184028096Y-79089039D01*
X176668860Y-79089039D01*
X176694750Y-79026691D01*
X176695248Y-78455813D01*
X176537899Y-78074999D01*
X184158963Y-78074999D01*
X184028096Y-78390961D01*
X184150085Y-78613000D01*
X185293000Y-78613000D01*
X185293000Y-78593000D01*
X185547000Y-78593000D01*
X185547000Y-78613000D01*
X185567000Y-78613000D01*
X185567000Y-78867000D01*
X185547000Y-78867000D01*
X185547000Y-80010629D01*
X185769041Y-80131914D01*
X186085001Y-79982376D01*
X186085001Y-82655690D01*
X182806846Y-85933846D01*
X179996500Y-83123500D01*
X179676943Y-82909979D01*
X179300000Y-82835000D01*
X179212630Y-82835000D01*
X179203162Y-82784683D01*
X179064090Y-82568559D01*
X179036928Y-82550000D01*
X180146887Y-82550000D01*
X180256120Y-83099151D01*
X180567189Y-83564698D01*
X181032736Y-83875767D01*
X181581887Y-83985000D01*
X181638113Y-83985000D01*
X182187264Y-83875767D01*
X182652811Y-83564698D01*
X182963880Y-83099151D01*
X183073113Y-82550000D01*
X182963880Y-82000849D01*
X182652811Y-81535302D01*
X182187264Y-81224233D01*
X181638113Y-81115000D01*
X181581887Y-81115000D01*
X181032736Y-81224233D01*
X180567189Y-81535302D01*
X180256120Y-82000849D01*
X180146887Y-82550000D01*
X179036928Y-82550000D01*
X178851890Y-82423569D01*
X178600000Y-82372560D01*
X177000000Y-82372560D01*
X176764683Y-82416838D01*
X176548559Y-82555910D01*
X176403569Y-82768110D01*
X176374355Y-82912375D01*
X176302811Y-82805302D01*
X175837264Y-82494233D01*
X175288113Y-82385000D01*
X175231887Y-82385000D01*
X174682736Y-82494233D01*
X174217189Y-82805302D01*
X173906120Y-83270849D01*
X173796887Y-83820000D01*
X173906120Y-84369151D01*
X174217189Y-84834698D01*
X174682736Y-85145767D01*
X175231887Y-85255000D01*
X175288113Y-85255000D01*
X175837264Y-85145767D01*
X176302811Y-84834698D01*
X176373150Y-84729428D01*
X176396838Y-84855317D01*
X176535910Y-85071441D01*
X176748110Y-85216431D01*
X177000000Y-85267440D01*
X178600000Y-85267440D01*
X178835317Y-85223162D01*
X179051441Y-85084090D01*
X179100009Y-85013009D01*
X180181862Y-86094862D01*
X180036009Y-86094735D01*
X179471629Y-86327932D01*
X179039449Y-86759357D01*
X179030797Y-86780194D01*
X178880159Y-86729446D01*
X177979605Y-87630000D01*
X178880159Y-88530554D01*
X179030327Y-88479965D01*
X179037932Y-88498371D01*
X179469357Y-88930551D01*
X180033330Y-89164733D01*
X180643991Y-89165265D01*
X181105001Y-88974780D01*
X181105001Y-91365583D01*
X180646670Y-91175267D01*
X180036009Y-91174735D01*
X179471629Y-91407932D01*
X179039449Y-91839357D01*
X179030797Y-91860194D01*
X178880159Y-91809446D01*
X177979605Y-92710000D01*
X178880159Y-93610554D01*
X179030327Y-93559965D01*
X179037932Y-93578371D01*
X179469357Y-94010551D01*
X180033330Y-94244733D01*
X180182137Y-94244863D01*
X179101032Y-95325968D01*
X179064090Y-95268559D01*
X178851890Y-95123569D01*
X178600000Y-95072560D01*
X177000000Y-95072560D01*
X176764683Y-95116838D01*
X176548559Y-95255910D01*
X176403569Y-95468110D01*
X176374355Y-95612375D01*
X176302811Y-95505302D01*
X175837264Y-95194233D01*
X175288113Y-95085000D01*
X175231887Y-95085000D01*
X174682736Y-95194233D01*
X174217189Y-95505302D01*
X174086679Y-95700623D01*
X174154750Y-95536691D01*
X174155248Y-94965813D01*
X173937243Y-94438200D01*
X173533923Y-94034176D01*
X173006691Y-93815250D01*
X172435813Y-93814752D01*
X171908200Y-94032757D01*
X171504176Y-94436077D01*
X171285250Y-94963309D01*
X171284752Y-95534187D01*
X171502757Y-96061800D01*
X171906077Y-96465824D01*
X172433309Y-96684750D01*
X173004187Y-96685248D01*
X173531800Y-96467243D01*
X173875660Y-96123982D01*
X173796887Y-96520000D01*
X173906120Y-97069151D01*
X174217189Y-97534698D01*
X174682736Y-97845767D01*
X175231887Y-97955000D01*
X175288113Y-97955000D01*
X175837264Y-97845767D01*
X176302811Y-97534698D01*
X176373150Y-97429428D01*
X176396838Y-97555317D01*
X176535910Y-97771441D01*
X176748110Y-97916431D01*
X176815000Y-97929977D01*
X176815000Y-98917370D01*
X176764683Y-98926838D01*
X176548559Y-99065910D01*
X176403569Y-99278110D01*
X176374355Y-99422375D01*
X176302811Y-99315302D01*
X175837264Y-99004233D01*
X175288113Y-98895000D01*
X175231887Y-98895000D01*
X174682736Y-99004233D01*
X174217189Y-99315302D01*
X173906120Y-99780849D01*
X173796887Y-100330000D01*
X173875782Y-100726632D01*
X173533923Y-100384176D01*
X173006691Y-100165250D01*
X172435813Y-100164752D01*
X171908200Y-100382757D01*
X171504176Y-100786077D01*
X171285250Y-101313309D01*
X171284752Y-101884187D01*
X171502757Y-102411800D01*
X171906077Y-102815824D01*
X172433309Y-103034750D01*
X173004187Y-103035248D01*
X173531800Y-102817243D01*
X173935824Y-102413923D01*
X174154750Y-101886691D01*
X174155248Y-101315813D01*
X174086152Y-101148587D01*
X174217189Y-101344698D01*
X174682736Y-101655767D01*
X175231887Y-101765000D01*
X175288113Y-101765000D01*
X175837264Y-101655767D01*
X176302811Y-101344698D01*
X176373150Y-101239428D01*
X176396838Y-101365317D01*
X176535910Y-101581441D01*
X176748110Y-101726431D01*
X177000000Y-101777440D01*
X178600000Y-101777440D01*
X178835317Y-101733162D01*
X179051441Y-101594090D01*
X179100009Y-101523009D01*
X180181862Y-102604862D01*
X180036009Y-102604735D01*
X179471629Y-102837932D01*
X179039449Y-103269357D01*
X179030797Y-103290194D01*
X178880159Y-103239446D01*
X177979605Y-104140000D01*
X178880159Y-105040554D01*
X179030327Y-104989965D01*
X179037932Y-105008371D01*
X179469357Y-105440551D01*
X180033330Y-105674733D01*
X180643991Y-105675265D01*
X181105001Y-105484780D01*
X181105001Y-107875583D01*
X180646670Y-107685267D01*
X180036009Y-107684735D01*
X179471629Y-107917932D01*
X179039449Y-108349357D01*
X179030797Y-108370194D01*
X178880159Y-108319446D01*
X177979605Y-109220000D01*
X178880159Y-110120554D01*
X179030327Y-110069965D01*
X179037932Y-110088371D01*
X179469357Y-110520551D01*
X180033330Y-110754733D01*
X180182137Y-110754863D01*
X179101032Y-111835968D01*
X179064090Y-111778559D01*
X178851890Y-111633569D01*
X178785000Y-111620023D01*
X178785000Y-111530000D01*
X178710021Y-111153057D01*
X178496500Y-110833500D01*
X178346499Y-110683499D01*
X178331724Y-110673627D01*
X178614148Y-110556643D01*
X178700554Y-110300159D01*
X177800000Y-109399605D01*
X177785858Y-109413748D01*
X177606253Y-109234143D01*
X177620395Y-109220000D01*
X177606253Y-109205858D01*
X177785858Y-109026253D01*
X177800000Y-109040395D01*
X178700554Y-108139841D01*
X178614148Y-107883357D01*
X178040664Y-107673542D01*
X177430540Y-107699161D01*
X176985852Y-107883357D01*
X176899447Y-108139839D01*
X176784890Y-108025282D01*
X176748412Y-108061760D01*
X176624090Y-107868559D01*
X176411890Y-107723569D01*
X176160000Y-107672560D01*
X174360000Y-107672560D01*
X174124683Y-107716838D01*
X173908559Y-107855910D01*
X173763569Y-108068110D01*
X173712560Y-108320000D01*
X173712560Y-110120000D01*
X173756838Y-110355317D01*
X173782373Y-110394999D01*
X167620001Y-110394999D01*
X167243058Y-110469978D01*
X166923501Y-110683499D01*
X163895017Y-113711983D01*
X163830000Y-113699050D01*
X163280849Y-113808283D01*
X162815302Y-114119352D01*
X162560000Y-114501438D01*
X162304698Y-114119352D01*
X161839151Y-113808283D01*
X161290000Y-113699050D01*
X160740849Y-113808283D01*
X160275302Y-114119352D01*
X159964233Y-114584899D01*
X159964213Y-114585000D01*
X158670000Y-114585000D01*
X158293057Y-114659979D01*
X157973500Y-114873500D01*
X156251963Y-116595037D01*
X155925813Y-116594752D01*
X155398200Y-116812757D01*
X154994176Y-117216077D01*
X154775250Y-117743309D01*
X154774752Y-118314187D01*
X154992757Y-118841800D01*
X155396077Y-119245824D01*
X155923309Y-119464750D01*
X156494187Y-119465248D01*
X157021800Y-119247243D01*
X157425824Y-118843923D01*
X157644750Y-118316691D01*
X157645037Y-117987963D01*
X159078000Y-116555000D01*
X159964213Y-116555000D01*
X159964233Y-116555101D01*
X160275302Y-117020648D01*
X160740849Y-117331717D01*
X161290000Y-117440950D01*
X161839151Y-117331717D01*
X162304698Y-117020648D01*
X162560000Y-116638562D01*
X162815302Y-117020648D01*
X163280849Y-117331717D01*
X163830000Y-117440950D01*
X164379151Y-117331717D01*
X164844698Y-117020648D01*
X165100000Y-116638562D01*
X165355302Y-117020648D01*
X165820849Y-117331717D01*
X166370000Y-117440950D01*
X166919151Y-117331717D01*
X167384698Y-117020648D01*
X167640000Y-116638562D01*
X167895302Y-117020648D01*
X168360849Y-117331717D01*
X168910000Y-117440950D01*
X169459151Y-117331717D01*
X169924698Y-117020648D01*
X170235767Y-116555101D01*
X170345000Y-116005950D01*
X170345000Y-115134050D01*
X170235767Y-114584899D01*
X170235292Y-114584187D01*
X180174752Y-114584187D01*
X180392757Y-115111800D01*
X180796077Y-115515824D01*
X181323309Y-115734750D01*
X181894187Y-115735248D01*
X182421800Y-115517243D01*
X182825824Y-115113923D01*
X183018860Y-114649039D01*
X190378096Y-114649039D01*
X190538959Y-115037423D01*
X190914866Y-115452389D01*
X191420959Y-115691914D01*
X191643000Y-115570629D01*
X191643000Y-114427000D01*
X191897000Y-114427000D01*
X191897000Y-115570629D01*
X192119041Y-115691914D01*
X192625134Y-115452389D01*
X193001041Y-115037423D01*
X193161904Y-114649039D01*
X193039915Y-114427000D01*
X191897000Y-114427000D01*
X191643000Y-114427000D01*
X190500085Y-114427000D01*
X190378096Y-114649039D01*
X183018860Y-114649039D01*
X183044750Y-114586691D01*
X183045248Y-114015813D01*
X183018452Y-113950961D01*
X190378096Y-113950961D01*
X190500085Y-114173000D01*
X191643000Y-114173000D01*
X191643000Y-113029371D01*
X191897000Y-113029371D01*
X191897000Y-114173000D01*
X193039915Y-114173000D01*
X193161904Y-113950961D01*
X193001041Y-113562577D01*
X192625134Y-113147611D01*
X192119041Y-112908086D01*
X191897000Y-113029371D01*
X191643000Y-113029371D01*
X191420959Y-112908086D01*
X190914866Y-113147611D01*
X190538959Y-113562577D01*
X190378096Y-113950961D01*
X183018452Y-113950961D01*
X182827243Y-113488200D01*
X182423923Y-113084176D01*
X181896691Y-112865250D01*
X181325813Y-112864752D01*
X180798200Y-113082757D01*
X180394176Y-113486077D01*
X180175250Y-114013309D01*
X180174752Y-114584187D01*
X170235292Y-114584187D01*
X169924698Y-114119352D01*
X169459151Y-113808283D01*
X168910000Y-113699050D01*
X168360849Y-113808283D01*
X167895302Y-114119352D01*
X167640000Y-114501438D01*
X167384698Y-114119352D01*
X166919151Y-113808283D01*
X166640203Y-113752797D01*
X168028001Y-112364999D01*
X173983529Y-112364999D01*
X173906120Y-112480849D01*
X173796887Y-113030000D01*
X173906120Y-113579151D01*
X174217189Y-114044698D01*
X174682736Y-114355767D01*
X175231887Y-114465000D01*
X175288113Y-114465000D01*
X175837264Y-114355767D01*
X176302811Y-114044698D01*
X176373150Y-113939428D01*
X176396838Y-114065317D01*
X176535910Y-114281441D01*
X176748110Y-114426431D01*
X177000000Y-114477440D01*
X178600000Y-114477440D01*
X178835317Y-114433162D01*
X179051441Y-114294090D01*
X179196431Y-114081890D01*
X179209977Y-114015000D01*
X179300000Y-114015000D01*
X179676943Y-113940021D01*
X179996500Y-113726500D01*
X182786501Y-110936499D01*
X183000022Y-110616942D01*
X183075001Y-110239999D01*
X183075001Y-108220000D01*
X183472560Y-108220000D01*
X183472560Y-110220000D01*
X183516838Y-110455317D01*
X183655910Y-110671441D01*
X183868110Y-110816431D01*
X184120000Y-110867440D01*
X186720000Y-110867440D01*
X186955317Y-110823162D01*
X187171441Y-110684090D01*
X187316431Y-110471890D01*
X187367440Y-110220000D01*
X187367440Y-108220000D01*
X187323162Y-107984683D01*
X187184090Y-107768559D01*
X187017380Y-107654651D01*
X187279144Y-107188355D01*
X187310124Y-107060434D01*
X187190777Y-106807000D01*
X185547000Y-106807000D01*
X185547000Y-106827000D01*
X185293000Y-106827000D01*
X185293000Y-106807000D01*
X183649223Y-106807000D01*
X183529876Y-107060434D01*
X183560856Y-107188355D01*
X183823495Y-107656211D01*
X183668559Y-107755910D01*
X183523569Y-107968110D01*
X183472560Y-108220000D01*
X183075001Y-108220000D01*
X183075001Y-104140000D01*
X183447091Y-104140000D01*
X183571548Y-104765687D01*
X183925971Y-105296120D01*
X184116188Y-105423219D01*
X183874078Y-105613683D01*
X183560856Y-106171645D01*
X183529876Y-106299566D01*
X183649223Y-106553000D01*
X185293000Y-106553000D01*
X185293000Y-106533000D01*
X185547000Y-106533000D01*
X185547000Y-106553000D01*
X187190777Y-106553000D01*
X187310124Y-106299566D01*
X187279144Y-106171645D01*
X186965922Y-105613683D01*
X186723812Y-105423219D01*
X186914029Y-105296120D01*
X187268452Y-104765687D01*
X187392909Y-104140000D01*
X187268452Y-103514313D01*
X186914029Y-102983880D01*
X186383596Y-102629457D01*
X185757909Y-102505000D01*
X185082091Y-102505000D01*
X184456404Y-102629457D01*
X183925971Y-102983880D01*
X183571548Y-103514313D01*
X183447091Y-104140000D01*
X183075001Y-104140000D01*
X183075001Y-103120001D01*
X183000022Y-102743058D01*
X182786501Y-102423501D01*
X179996500Y-99633500D01*
X179676943Y-99419979D01*
X179300000Y-99345000D01*
X179212630Y-99345000D01*
X179203162Y-99294683D01*
X179064090Y-99078559D01*
X178851890Y-98933569D01*
X178785000Y-98920023D01*
X178785000Y-97932630D01*
X178835317Y-97923162D01*
X179051441Y-97784090D01*
X179196431Y-97571890D01*
X179209977Y-97505000D01*
X179300000Y-97505000D01*
X179676943Y-97430021D01*
X179996500Y-97216500D01*
X182786501Y-94426499D01*
X183000022Y-94106942D01*
X183075001Y-93729999D01*
X183075001Y-91710000D01*
X183472560Y-91710000D01*
X183472560Y-93710000D01*
X183516838Y-93945317D01*
X183655910Y-94161441D01*
X183868110Y-94306431D01*
X184120000Y-94357440D01*
X186720000Y-94357440D01*
X186955317Y-94313162D01*
X187171441Y-94174090D01*
X187316431Y-93961890D01*
X187367440Y-93710000D01*
X187367440Y-91710000D01*
X187323162Y-91474683D01*
X187184090Y-91258559D01*
X187017380Y-91144651D01*
X187279144Y-90678355D01*
X187310124Y-90550434D01*
X187190777Y-90297000D01*
X185547000Y-90297000D01*
X185547000Y-90317000D01*
X185293000Y-90317000D01*
X185293000Y-90297000D01*
X183649223Y-90297000D01*
X183529876Y-90550434D01*
X183560856Y-90678355D01*
X183823495Y-91146211D01*
X183668559Y-91245910D01*
X183523569Y-91458110D01*
X183472560Y-91710000D01*
X183075001Y-91710000D01*
X183075001Y-88451690D01*
X183521685Y-88005007D01*
X183571548Y-88255687D01*
X183925971Y-88786120D01*
X184116188Y-88913219D01*
X183874078Y-89103683D01*
X183560856Y-89661645D01*
X183529876Y-89789566D01*
X183649223Y-90043000D01*
X185293000Y-90043000D01*
X185293000Y-90023000D01*
X185547000Y-90023000D01*
X185547000Y-90043000D01*
X187190777Y-90043000D01*
X187310124Y-89789566D01*
X187279144Y-89661645D01*
X186965922Y-89103683D01*
X186723812Y-88913219D01*
X186914029Y-88786120D01*
X187268452Y-88255687D01*
X187392909Y-87630000D01*
X187268452Y-87004313D01*
X186914029Y-86473880D01*
X186383596Y-86119457D01*
X185757909Y-85995000D01*
X185531691Y-85995000D01*
X187766501Y-83760190D01*
X187901770Y-83557745D01*
X190941861Y-83557745D01*
X191015995Y-83803864D01*
X191553223Y-83996965D01*
X192123454Y-83969778D01*
X192524005Y-83803864D01*
X192598139Y-83557745D01*
X191770000Y-82729605D01*
X190941861Y-83557745D01*
X187901770Y-83557745D01*
X187980022Y-83440633D01*
X188055001Y-83063690D01*
X188055001Y-82333223D01*
X190323035Y-82333223D01*
X190350222Y-82903454D01*
X190516136Y-83304005D01*
X190762255Y-83378139D01*
X191590395Y-82550000D01*
X191949605Y-82550000D01*
X192777745Y-83378139D01*
X193023864Y-83304005D01*
X193216965Y-82766777D01*
X193189778Y-82196546D01*
X193023864Y-81795995D01*
X192777745Y-81721861D01*
X191949605Y-82550000D01*
X191590395Y-82550000D01*
X190762255Y-81721861D01*
X190516136Y-81795995D01*
X190323035Y-82333223D01*
X188055001Y-82333223D01*
X188055001Y-81542255D01*
X190941861Y-81542255D01*
X191770000Y-82370395D01*
X192598139Y-81542255D01*
X192524005Y-81296136D01*
X191986777Y-81103035D01*
X191416546Y-81130222D01*
X191015995Y-81296136D01*
X190941861Y-81542255D01*
X188055001Y-81542255D01*
X188055001Y-77947999D01*
X187980022Y-77571056D01*
X187766501Y-77251499D01*
X186908501Y-76393499D01*
X186588944Y-76179978D01*
X186212001Y-76104999D01*
X174467999Y-76104999D01*
X174091056Y-76179978D01*
X173771499Y-76393499D01*
X172885166Y-77279832D01*
X172885248Y-77185813D01*
X172667243Y-76658200D01*
X172263923Y-76254176D01*
X171736691Y-76035250D01*
X171165813Y-76034752D01*
X170638200Y-76252757D01*
X170234176Y-76656077D01*
X170015250Y-77183309D01*
X170014752Y-77754187D01*
X170217547Y-78244990D01*
X167681990Y-78244990D01*
X167884750Y-77756691D01*
X167885248Y-77185813D01*
X167667243Y-76658200D01*
X167263923Y-76254176D01*
X166736691Y-76035250D01*
X166165813Y-76034752D01*
X165638200Y-76252757D01*
X165234176Y-76656077D01*
X165015250Y-77183309D01*
X165014752Y-77754187D01*
X165217547Y-78244990D01*
X164078527Y-78244990D01*
X161845036Y-76011500D01*
X159687035Y-73853499D01*
X159367478Y-73639978D01*
X158990535Y-73564999D01*
X116047999Y-73564999D01*
X115671056Y-73639978D01*
X115351499Y-73853499D01*
X112333500Y-76871498D01*
X112119979Y-77191055D01*
X112045000Y-77567998D01*
X112045000Y-86157962D01*
X111944683Y-86176838D01*
X111887000Y-86213956D01*
X111887000Y-72517000D01*
X195453000Y-72517000D01*
X195453000Y-121793000D01*
G36*
X112045000Y-86157962D02*
X111944683Y-86176838D01*
X111728559Y-86315910D01*
X111583569Y-86528110D01*
X111532560Y-86780000D01*
X111532560Y-88480000D01*
X111576838Y-88715317D01*
X111715910Y-88931441D01*
X111928110Y-89076431D01*
X111995541Y-89090086D01*
X111950853Y-89119946D01*
X111628946Y-89601715D01*
X111515907Y-90170000D01*
X111628946Y-90738285D01*
X111950853Y-91220054D01*
X112291553Y-91447702D01*
X112148642Y-91514817D01*
X111758355Y-91943076D01*
X111588524Y-92353110D01*
X111709845Y-92583000D01*
X112903000Y-92583000D01*
X112903000Y-92563000D01*
X113157000Y-92563000D01*
X113157000Y-92583000D01*
X113177000Y-92583000D01*
X113177000Y-92837000D01*
X113157000Y-92837000D01*
X113157000Y-92857000D01*
X112903000Y-92857000D01*
X112903000Y-92837000D01*
X111709845Y-92837000D01*
X111588524Y-93066890D01*
X111758355Y-93476924D01*
X112148642Y-93905183D01*
X112291553Y-93972298D01*
X111950853Y-94199946D01*
X111628946Y-94681715D01*
X111515907Y-95250000D01*
X111628946Y-95818285D01*
X111950853Y-96300054D01*
X112432622Y-96621961D01*
X113000907Y-96735000D01*
X113059093Y-96735000D01*
X113627378Y-96621961D01*
X114109147Y-96300054D01*
X114173000Y-96204491D01*
X114173000Y-100181658D01*
X114131890Y-100153569D01*
X113880000Y-100102560D01*
X112180000Y-100102560D01*
X111944683Y-100146838D01*
X111728559Y-100285910D01*
X111583569Y-100498110D01*
X111532560Y-100750000D01*
X111532560Y-102450000D01*
X111576838Y-102685317D01*
X111715910Y-102901441D01*
X111928110Y-103046431D01*
X111995541Y-103060086D01*
X111950853Y-103089946D01*
X111628946Y-103571715D01*
X111515907Y-104140000D01*
X111628946Y-104708285D01*
X111950853Y-105190054D01*
X112280026Y-105410000D01*
X111950853Y-105629946D01*
X111628946Y-106111715D01*
X111515907Y-106680000D01*
X111628946Y-107248285D01*
X111950853Y-107730054D01*
X112280026Y-107950000D01*
X111950853Y-108169946D01*
X111628946Y-108651715D01*
X111515907Y-109220000D01*
X111628946Y-109788285D01*
X111950853Y-110270054D01*
X112432622Y-110591961D01*
X113000907Y-110705000D01*
X113059093Y-110705000D01*
X113627378Y-110591961D01*
X114109147Y-110270054D01*
X114173000Y-110174491D01*
X114173000Y-115443000D01*
X105537000Y-115443000D01*
X105537000Y-78867000D01*
X112045000Y-78867000D01*
X112045000Y-86157962D01*
X112045000Y-86157962D01*
G37*
X112045000Y-86157962D02*
X111944683Y-86176838D01*
X111728559Y-86315910D01*
X111583569Y-86528110D01*
X111532560Y-86780000D01*
X111532560Y-88480000D01*
X111576838Y-88715317D01*
X111715910Y-88931441D01*
X111928110Y-89076431D01*
X111995541Y-89090086D01*
X111950853Y-89119946D01*
X111628946Y-89601715D01*
X111515907Y-90170000D01*
X111628946Y-90738285D01*
X111950853Y-91220054D01*
X112291553Y-91447702D01*
X112148642Y-91514817D01*
X111758355Y-91943076D01*
X111588524Y-92353110D01*
X111709845Y-92583000D01*
X112903000Y-92583000D01*
X112903000Y-92563000D01*
X113157000Y-92563000D01*
X113157000Y-92583000D01*
X113177000Y-92583000D01*
X113177000Y-92837000D01*
X113157000Y-92837000D01*
X113157000Y-92857000D01*
X112903000Y-92857000D01*
X112903000Y-92837000D01*
X111709845Y-92837000D01*
X111588524Y-93066890D01*
X111758355Y-93476924D01*
X112148642Y-93905183D01*
X112291553Y-93972298D01*
X111950853Y-94199946D01*
X111628946Y-94681715D01*
X111515907Y-95250000D01*
X111628946Y-95818285D01*
X111950853Y-96300054D01*
X112432622Y-96621961D01*
X113000907Y-96735000D01*
X113059093Y-96735000D01*
X113627378Y-96621961D01*
X114109147Y-96300054D01*
X114173000Y-96204491D01*
X114173000Y-100181658D01*
X114131890Y-100153569D01*
X113880000Y-100102560D01*
X112180000Y-100102560D01*
X111944683Y-100146838D01*
X111728559Y-100285910D01*
X111583569Y-100498110D01*
X111532560Y-100750000D01*
X111532560Y-102450000D01*
X111576838Y-102685317D01*
X111715910Y-102901441D01*
X111928110Y-103046431D01*
X111995541Y-103060086D01*
X111950853Y-103089946D01*
X111628946Y-103571715D01*
X111515907Y-104140000D01*
X111628946Y-104708285D01*
X111950853Y-105190054D01*
X112280026Y-105410000D01*
X111950853Y-105629946D01*
X111628946Y-106111715D01*
X111515907Y-106680000D01*
X111628946Y-107248285D01*
X111950853Y-107730054D01*
X112280026Y-107950000D01*
X111950853Y-108169946D01*
X111628946Y-108651715D01*
X111515907Y-109220000D01*
X111628946Y-109788285D01*
X111950853Y-110270054D01*
X112432622Y-110591961D01*
X113000907Y-110705000D01*
X113059093Y-110705000D01*
X113627378Y-110591961D01*
X114109147Y-110270054D01*
X114173000Y-110174491D01*
X114173000Y-115443000D01*
X105537000Y-115443000D01*
X105537000Y-78867000D01*
X112045000Y-78867000D01*
X112045000Y-86157962D01*
G36*
X200533000Y-115443000D02*
X192633639Y-115443000D01*
X193001041Y-115037423D01*
X193161904Y-114649039D01*
X193039915Y-114427000D01*
X191897000Y-114427000D01*
X191897000Y-114447000D01*
X191643000Y-114447000D01*
X191643000Y-114427000D01*
X191623000Y-114427000D01*
X191623000Y-114173000D01*
X191643000Y-114173000D01*
X191643000Y-113029371D01*
X191897000Y-113029371D01*
X191897000Y-114173000D01*
X193039915Y-114173000D01*
X193161904Y-113950961D01*
X193001041Y-113562577D01*
X192625134Y-113147611D01*
X192119041Y-112908086D01*
X191897000Y-113029371D01*
X191643000Y-113029371D01*
X191420959Y-112908086D01*
X190914866Y-113147611D01*
X190627000Y-113465388D01*
X190627000Y-83557745D01*
X190941861Y-83557745D01*
X191015995Y-83803864D01*
X191553223Y-83996965D01*
X192123454Y-83969778D01*
X192524005Y-83803864D01*
X192598139Y-83557745D01*
X191770000Y-82729605D01*
X190941861Y-83557745D01*
X190627000Y-83557745D01*
X190627000Y-83337399D01*
X190762255Y-83378139D01*
X191590395Y-82550000D01*
X191949605Y-82550000D01*
X192777745Y-83378139D01*
X193023864Y-83304005D01*
X193216965Y-82766777D01*
X193189778Y-82196546D01*
X193023864Y-81795995D01*
X192777745Y-81721861D01*
X191949605Y-82550000D01*
X191590395Y-82550000D01*
X190762255Y-81721861D01*
X190627000Y-81762601D01*
X190627000Y-81542255D01*
X190941861Y-81542255D01*
X191770000Y-82370395D01*
X192598139Y-81542255D01*
X192524005Y-81296136D01*
X191986777Y-81103035D01*
X191416546Y-81130222D01*
X191015995Y-81296136D01*
X190941861Y-81542255D01*
X190627000Y-81542255D01*
X190627000Y-78867000D01*
X200533000Y-78867000D01*
X200533000Y-115443000D01*
X200533000Y-115443000D01*
G37*
X200533000Y-115443000D02*
X192633639Y-115443000D01*
X193001041Y-115037423D01*
X193161904Y-114649039D01*
X193039915Y-114427000D01*
X191897000Y-114427000D01*
X191897000Y-114447000D01*
X191643000Y-114447000D01*
X191643000Y-114427000D01*
X191623000Y-114427000D01*
X191623000Y-114173000D01*
X191643000Y-114173000D01*
X191643000Y-113029371D01*
X191897000Y-113029371D01*
X191897000Y-114173000D01*
X193039915Y-114173000D01*
X193161904Y-113950961D01*
X193001041Y-113562577D01*
X192625134Y-113147611D01*
X192119041Y-112908086D01*
X191897000Y-113029371D01*
X191643000Y-113029371D01*
X191420959Y-112908086D01*
X190914866Y-113147611D01*
X190627000Y-113465388D01*
X190627000Y-83557745D01*
X190941861Y-83557745D01*
X191015995Y-83803864D01*
X191553223Y-83996965D01*
X192123454Y-83969778D01*
X192524005Y-83803864D01*
X192598139Y-83557745D01*
X191770000Y-82729605D01*
X190941861Y-83557745D01*
X190627000Y-83557745D01*
X190627000Y-83337399D01*
X190762255Y-83378139D01*
X191590395Y-82550000D01*
X191949605Y-82550000D01*
X192777745Y-83378139D01*
X193023864Y-83304005D01*
X193216965Y-82766777D01*
X193189778Y-82196546D01*
X193023864Y-81795995D01*
X192777745Y-81721861D01*
X191949605Y-82550000D01*
X191590395Y-82550000D01*
X190762255Y-81721861D01*
X190627000Y-81762601D01*
X190627000Y-81542255D01*
X190941861Y-81542255D01*
X191770000Y-82370395D01*
X192598139Y-81542255D01*
X192524005Y-81296136D01*
X191986777Y-81103035D01*
X191416546Y-81130222D01*
X191015995Y-81296136D01*
X190941861Y-81542255D01*
X190627000Y-81542255D01*
X190627000Y-78867000D01*
X200533000Y-78867000D01*
X200533000Y-115443000D01*
M02*
