G04 #@! TF.FileFunction,Profile,NP*
%FSLAX46Y46*%
G04 Gerber Fmt 4.6, Leading zero omitted, Abs format (unit mm)*
G04 Created by KiCad (PCBNEW 4.0.7) date 03/28/18 16:01:48*
%MOMM*%
%LPD*%
G01*
G04 APERTURE LIST*
%ADD10C,0.100000*%
%ADD11C,0.150000*%
G04 APERTURE END LIST*
D10*
D11*
X109620424Y-119951500D02*
G75*
G03X109620424Y-119951500I-1670424J0D01*
G01*
X200534221Y-119951500D02*
G75*
G03X200534221Y-119951500I-1652221J0D01*
G01*
X109495022Y-74930000D02*
G75*
G03X109495022Y-74930000I-1545022J0D01*
G01*
X200508394Y-74930000D02*
G75*
G03X200508394Y-74930000I-1626394J0D01*
G01*
X200528352Y-74930000D02*
G75*
G03X200528352Y-74930000I-1666666J0D01*
G01*
X196361686Y-74930000D02*
X201361686Y-74930000D01*
X198861686Y-72430000D02*
X198861686Y-77430000D01*
X104775000Y-123190000D02*
X104775000Y-71755000D01*
X201930000Y-123190000D02*
X104775000Y-123190000D01*
X201930000Y-71755000D02*
X201930000Y-123190000D01*
X104775000Y-71755000D02*
X201930000Y-71755000D01*
X200616666Y-119930000D02*
G75*
G03X200616666Y-119930000I-1666666J0D01*
G01*
X196450000Y-119930000D02*
X201450000Y-119930000D01*
X198950000Y-117430000D02*
X198950000Y-122430000D01*
X109616666Y-74930000D02*
G75*
G03X109616666Y-74930000I-1666666J0D01*
G01*
X105450000Y-74930000D02*
X110450000Y-74930000D01*
X107950000Y-72430000D02*
X107950000Y-77430000D01*
X109616666Y-119930000D02*
G75*
G03X109616666Y-119930000I-1666666J0D01*
G01*
X105450000Y-119930000D02*
X110450000Y-119930000D01*
X107950000Y-117430000D02*
X107950000Y-122430000D01*
M02*
