M48
;DRILL file {KiCad 4.0.7} date 03/28/18 16:02:02
;FORMAT={-:-/ absolute / metric / decimal}
FMAT,2
METRIC,TZ
T1C0.400
T2C0.700
T3C0.800
T4C0.900
T5C1.000
T6C1.200
%
G90
G05
M71
T1
X145.288Y-102.108
X156.718Y-106.172
X158.496Y-99.568
X159.258Y-110.744
X161.149Y-76.708
T2
X118.872Y-114.808
X121.412Y-114.808
X130.81Y-88.9
X130.81Y-91.44
X130.81Y-104.14
X130.81Y-106.68
X133.35Y-88.9
X133.35Y-91.44
X133.35Y-104.14
X133.35Y-106.68
X135.89Y-88.9
X135.89Y-91.44
X135.89Y-104.14
X135.89Y-106.68
X138.43Y-88.9
X138.43Y-91.44
X138.43Y-104.14
X138.43Y-106.68
X140.97Y-88.9
X140.97Y-91.44
X140.97Y-104.14
X140.97Y-106.68
X143.51Y-88.9
X143.51Y-91.44
X143.51Y-104.14
X143.51Y-106.68
T3
X116.84Y-76.2
X116.84Y-81.2
X119.38Y-86.36
X119.38Y-88.9
X119.38Y-91.44
X119.38Y-93.98
X119.38Y-96.52
X119.38Y-99.06
X119.38Y-101.6
X119.38Y-104.14
X119.38Y-106.68
X119.38Y-109.22
X123.19Y-76.28
X123.19Y-81.28
X127.Y-86.36
X127.Y-88.9
X127.Y-91.44
X127.Y-93.98
X127.Y-96.52
X127.Y-99.06
X127.Y-101.6
X127.Y-104.14
X127.Y-106.68
X127.Y-109.22
X130.81Y-110.49
X130.89Y-85.09
X130.89Y-95.25
X130.89Y-100.33
X135.81Y-110.49
X135.89Y-85.09
X135.89Y-95.25
X135.89Y-100.33
X138.43Y-85.09
X138.51Y-95.25
X138.51Y-100.33
X138.51Y-110.49
X143.43Y-85.09
X143.51Y-95.25
X143.51Y-100.33
X143.51Y-110.49
X147.32Y-93.98
X147.32Y-101.6
X147.828Y-84.582
X147.828Y-89.582
X149.86Y-93.98
X149.86Y-101.6
X152.4Y-93.98
X152.4Y-101.6
X152.4Y-109.22
X152.48Y-87.63
X154.94Y-93.98
X154.94Y-101.6
X156.21Y-78.74
X156.21Y-83.74
X156.21Y-113.03
X156.21Y-118.03
X157.4Y-109.22
X157.48Y-87.63
X158.75Y-102.87
X158.83Y-93.98
X161.29Y-81.28
X161.29Y-88.9
X161.29Y-107.95
X161.29Y-115.57
X163.75Y-102.87
X163.83Y-81.28
X163.83Y-88.9
X163.83Y-93.98
X163.83Y-107.95
X163.83Y-115.57
X166.37Y-81.28
X166.37Y-88.9
X166.37Y-107.95
X166.37Y-115.57
X166.37Y-119.38
X166.45Y-77.47
X167.72Y-95.25
X167.72Y-101.6
X168.91Y-81.28
X168.91Y-88.9
X168.91Y-107.95
X168.91Y-115.57
X171.37Y-119.38
X171.45Y-77.47
X172.72Y-95.25
X172.72Y-101.6
X175.26Y-78.74
X175.26Y-83.82
X175.26Y-96.52
X175.26Y-100.33
X175.26Y-113.03
X175.26Y-118.11
X177.8Y-83.82
X177.8Y-96.52
X177.8Y-100.33
X177.8Y-113.03
X181.61Y-82.55
X181.61Y-114.3
X185.42Y-78.74
X185.42Y-118.11
X191.77Y-82.55
X191.77Y-114.3
T4
X175.26Y-87.63
X175.26Y-92.71
X175.26Y-104.14
X175.26Y-109.22
X177.8Y-87.63
X177.8Y-92.71
X177.8Y-104.14
X177.8Y-109.22
X180.34Y-87.63
X180.34Y-92.71
X180.34Y-104.14
X180.34Y-109.22
T5
X113.03Y-87.63
X113.03Y-90.17
X113.03Y-92.71
X113.03Y-95.25
X113.03Y-101.6
X113.03Y-104.14
X113.03Y-106.68
X113.03Y-109.22
T6
X185.42Y-87.63
X185.42Y-90.17
X185.42Y-92.71
X185.42Y-104.14
X185.42Y-106.68
X185.42Y-109.22
T0
M30
