G04 #@! TF.FileFunction,Other,User*
%FSLAX46Y46*%
G04 Gerber Fmt 4.6, Leading zero omitted, Abs format (unit mm)*
G04 Created by KiCad (PCBNEW 4.0.7) date 03/28/18 16:01:48*
%MOMM*%
%LPD*%
G01*
G04 APERTURE LIST*
%ADD10C,0.100000*%
%ADD11C,0.050000*%
G04 APERTURE END LIST*
D10*
D11*
X139580000Y-107830000D02*
X139580000Y-105530000D01*
X139580000Y-105530000D02*
X134880000Y-105530000D01*
X134880000Y-105530000D02*
X134880000Y-107830000D01*
X134880000Y-107830000D02*
X139580000Y-107830000D01*
X145728000Y-91032000D02*
X149928000Y-91032000D01*
X149928000Y-91032000D02*
X149928000Y-83132000D01*
X149928000Y-83132000D02*
X145728000Y-83132000D01*
X145728000Y-83132000D02*
X145728000Y-91032000D01*
X114740000Y-82650000D02*
X118940000Y-82650000D01*
X118940000Y-82650000D02*
X118940000Y-74750000D01*
X118940000Y-74750000D02*
X114740000Y-74750000D01*
X114740000Y-74750000D02*
X114740000Y-82650000D01*
X121090000Y-82730000D02*
X125290000Y-82730000D01*
X125290000Y-82730000D02*
X125290000Y-74830000D01*
X125290000Y-74830000D02*
X121090000Y-74830000D01*
X121090000Y-74830000D02*
X121090000Y-82730000D01*
X137340000Y-87190000D02*
X137340000Y-82990000D01*
X137340000Y-82990000D02*
X129440000Y-82990000D01*
X129440000Y-82990000D02*
X129440000Y-87190000D01*
X129440000Y-87190000D02*
X137340000Y-87190000D01*
X137340000Y-102430000D02*
X137340000Y-98230000D01*
X137340000Y-98230000D02*
X129440000Y-98230000D01*
X129440000Y-98230000D02*
X129440000Y-102430000D01*
X129440000Y-102430000D02*
X137340000Y-102430000D01*
X137340000Y-97350000D02*
X137340000Y-93150000D01*
X137340000Y-93150000D02*
X129440000Y-93150000D01*
X129440000Y-93150000D02*
X129440000Y-97350000D01*
X129440000Y-97350000D02*
X137340000Y-97350000D01*
X137260000Y-112590000D02*
X137260000Y-108390000D01*
X137260000Y-108390000D02*
X129360000Y-108390000D01*
X129360000Y-108390000D02*
X129360000Y-112590000D01*
X129360000Y-112590000D02*
X137260000Y-112590000D01*
X137060000Y-93150000D02*
X137060000Y-97350000D01*
X137060000Y-97350000D02*
X144960000Y-97350000D01*
X144960000Y-97350000D02*
X144960000Y-93150000D01*
X144960000Y-93150000D02*
X137060000Y-93150000D01*
X144880000Y-87190000D02*
X144880000Y-82990000D01*
X144880000Y-82990000D02*
X136980000Y-82990000D01*
X136980000Y-82990000D02*
X136980000Y-87190000D01*
X136980000Y-87190000D02*
X144880000Y-87190000D01*
X137060000Y-108390000D02*
X137060000Y-112590000D01*
X137060000Y-112590000D02*
X144960000Y-112590000D01*
X144960000Y-112590000D02*
X144960000Y-108390000D01*
X144960000Y-108390000D02*
X137060000Y-108390000D01*
X144960000Y-102430000D02*
X144960000Y-98230000D01*
X144960000Y-98230000D02*
X137060000Y-98230000D01*
X137060000Y-98230000D02*
X137060000Y-102430000D01*
X137060000Y-102430000D02*
X144960000Y-102430000D01*
X151030000Y-85530000D02*
X151030000Y-89730000D01*
X151030000Y-89730000D02*
X158930000Y-89730000D01*
X158930000Y-89730000D02*
X158930000Y-85530000D01*
X158930000Y-85530000D02*
X151030000Y-85530000D01*
X150950000Y-107120000D02*
X150950000Y-111320000D01*
X150950000Y-111320000D02*
X158850000Y-111320000D01*
X158850000Y-111320000D02*
X158850000Y-107120000D01*
X158850000Y-107120000D02*
X150950000Y-107120000D01*
X158310000Y-77290000D02*
X154110000Y-77290000D01*
X154110000Y-77290000D02*
X154110000Y-85190000D01*
X154110000Y-85190000D02*
X158310000Y-85190000D01*
X158310000Y-85190000D02*
X158310000Y-77290000D01*
X157380000Y-91880000D02*
X157380000Y-96080000D01*
X157380000Y-96080000D02*
X165280000Y-96080000D01*
X165280000Y-96080000D02*
X165280000Y-91880000D01*
X165280000Y-91880000D02*
X157380000Y-91880000D01*
X165200000Y-104970000D02*
X165200000Y-100770000D01*
X165200000Y-100770000D02*
X157300000Y-100770000D01*
X157300000Y-100770000D02*
X157300000Y-104970000D01*
X157300000Y-104970000D02*
X165200000Y-104970000D01*
X158310000Y-111580000D02*
X154110000Y-111580000D01*
X154110000Y-111580000D02*
X154110000Y-119480000D01*
X154110000Y-119480000D02*
X158310000Y-119480000D01*
X158310000Y-119480000D02*
X158310000Y-111580000D01*
X166670000Y-93300000D02*
X166670000Y-97200000D01*
X166670000Y-97200000D02*
X173770000Y-97200000D01*
X173770000Y-97200000D02*
X173770000Y-93300000D01*
X173770000Y-93300000D02*
X166670000Y-93300000D01*
X165400000Y-75520000D02*
X165400000Y-79420000D01*
X165400000Y-79420000D02*
X172500000Y-79420000D01*
X172500000Y-79420000D02*
X172500000Y-75520000D01*
X172500000Y-75520000D02*
X165400000Y-75520000D01*
X165320000Y-117430000D02*
X165320000Y-121330000D01*
X165320000Y-121330000D02*
X172420000Y-121330000D01*
X172420000Y-121330000D02*
X172420000Y-117430000D01*
X172420000Y-117430000D02*
X165320000Y-117430000D01*
X166670000Y-99650000D02*
X166670000Y-103550000D01*
X166670000Y-103550000D02*
X173770000Y-103550000D01*
X173770000Y-103550000D02*
X173770000Y-99650000D01*
X173770000Y-99650000D02*
X166670000Y-99650000D01*
X179150000Y-85370000D02*
X179150000Y-82270000D01*
X179150000Y-82270000D02*
X174150000Y-82270000D01*
X174150000Y-82270000D02*
X174150000Y-85370000D01*
X174150000Y-85370000D02*
X179150000Y-85370000D01*
X179150000Y-101880000D02*
X179150000Y-98780000D01*
X179150000Y-98780000D02*
X174150000Y-98780000D01*
X174150000Y-98780000D02*
X174150000Y-101880000D01*
X174150000Y-101880000D02*
X179150000Y-101880000D01*
X179150000Y-98070000D02*
X179150000Y-94970000D01*
X179150000Y-94970000D02*
X174150000Y-94970000D01*
X174150000Y-94970000D02*
X174150000Y-98070000D01*
X174150000Y-98070000D02*
X179150000Y-98070000D01*
X179150000Y-114580000D02*
X179150000Y-111480000D01*
X179150000Y-111480000D02*
X174150000Y-111480000D01*
X174150000Y-111480000D02*
X174150000Y-114580000D01*
X174150000Y-114580000D02*
X179150000Y-114580000D01*
X174110000Y-91360000D02*
X174110000Y-94060000D01*
X174110000Y-94060000D02*
X181510000Y-94060000D01*
X181510000Y-94060000D02*
X181510000Y-91360000D01*
X181510000Y-91360000D02*
X174110000Y-91360000D01*
X174110000Y-86280000D02*
X174110000Y-88980000D01*
X174110000Y-88980000D02*
X181510000Y-88980000D01*
X181510000Y-88980000D02*
X181510000Y-86280000D01*
X181510000Y-86280000D02*
X174110000Y-86280000D01*
X174110000Y-107870000D02*
X174110000Y-110570000D01*
X174110000Y-110570000D02*
X181510000Y-110570000D01*
X181510000Y-110570000D02*
X181510000Y-107870000D01*
X181510000Y-107870000D02*
X174110000Y-107870000D01*
X174110000Y-102790000D02*
X174110000Y-105490000D01*
X174110000Y-105490000D02*
X181510000Y-105490000D01*
X181510000Y-105490000D02*
X181510000Y-102790000D01*
X181510000Y-102790000D02*
X174110000Y-102790000D01*
X111230000Y-99800000D02*
X111230000Y-111000000D01*
X111230000Y-111000000D02*
X114830000Y-111000000D01*
X114830000Y-111000000D02*
X114830000Y-99800000D01*
X114830000Y-99800000D02*
X111230000Y-99800000D01*
X111230000Y-85830000D02*
X111230000Y-97030000D01*
X111230000Y-97030000D02*
X114830000Y-97030000D01*
X114830000Y-97030000D02*
X114830000Y-85830000D01*
X114830000Y-85830000D02*
X111230000Y-85830000D01*
X187270000Y-95210000D02*
X182270000Y-95210000D01*
X182270000Y-95210000D02*
X182270000Y-85210000D01*
X182270000Y-85210000D02*
X187270000Y-85210000D01*
X187270000Y-85210000D02*
X187270000Y-95210000D01*
X187270000Y-111720000D02*
X182270000Y-111720000D01*
X182270000Y-111720000D02*
X182270000Y-101720000D01*
X182270000Y-101720000D02*
X187270000Y-101720000D01*
X187270000Y-101720000D02*
X187270000Y-111720000D01*
X122562000Y-115958000D02*
X122562000Y-113658000D01*
X122562000Y-113658000D02*
X117862000Y-113658000D01*
X117862000Y-113658000D02*
X117862000Y-115958000D01*
X117862000Y-115958000D02*
X122562000Y-115958000D01*
X134500000Y-92590000D02*
X134500000Y-90290000D01*
X134500000Y-90290000D02*
X129800000Y-90290000D01*
X129800000Y-90290000D02*
X129800000Y-92590000D01*
X129800000Y-92590000D02*
X134500000Y-92590000D01*
X134500000Y-90050000D02*
X134500000Y-87750000D01*
X134500000Y-87750000D02*
X129800000Y-87750000D01*
X129800000Y-87750000D02*
X129800000Y-90050000D01*
X129800000Y-90050000D02*
X134500000Y-90050000D01*
X134500000Y-107830000D02*
X134500000Y-105530000D01*
X134500000Y-105530000D02*
X129800000Y-105530000D01*
X129800000Y-105530000D02*
X129800000Y-107830000D01*
X129800000Y-107830000D02*
X134500000Y-107830000D01*
X134500000Y-105290000D02*
X134500000Y-102990000D01*
X134500000Y-102990000D02*
X129800000Y-102990000D01*
X129800000Y-102990000D02*
X129800000Y-105290000D01*
X129800000Y-105290000D02*
X134500000Y-105290000D01*
X139580000Y-92590000D02*
X139580000Y-90290000D01*
X139580000Y-90290000D02*
X134880000Y-90290000D01*
X134880000Y-90290000D02*
X134880000Y-92590000D01*
X134880000Y-92590000D02*
X139580000Y-92590000D01*
X134740000Y-87750000D02*
X134740000Y-90050000D01*
X134740000Y-90050000D02*
X139440000Y-90050000D01*
X139440000Y-90050000D02*
X139440000Y-87750000D01*
X139440000Y-87750000D02*
X134740000Y-87750000D01*
X134740000Y-102990000D02*
X134740000Y-105290000D01*
X134740000Y-105290000D02*
X139440000Y-105290000D01*
X139440000Y-105290000D02*
X139440000Y-102990000D01*
X139440000Y-102990000D02*
X134740000Y-102990000D01*
X139820000Y-90290000D02*
X139820000Y-92590000D01*
X139820000Y-92590000D02*
X144520000Y-92590000D01*
X144520000Y-92590000D02*
X144520000Y-90290000D01*
X144520000Y-90290000D02*
X139820000Y-90290000D01*
X139820000Y-87750000D02*
X139820000Y-90050000D01*
X139820000Y-90050000D02*
X144520000Y-90050000D01*
X144520000Y-90050000D02*
X144520000Y-87750000D01*
X144520000Y-87750000D02*
X139820000Y-87750000D01*
X139820000Y-105530000D02*
X139820000Y-107830000D01*
X139820000Y-107830000D02*
X144520000Y-107830000D01*
X144520000Y-107830000D02*
X144520000Y-105530000D01*
X144520000Y-105530000D02*
X139820000Y-105530000D01*
X139820000Y-102990000D02*
X139820000Y-105290000D01*
X139820000Y-105290000D02*
X144520000Y-105290000D01*
X144520000Y-105290000D02*
X144520000Y-102990000D01*
X144520000Y-102990000D02*
X139820000Y-102990000D01*
X174210000Y-77140000D02*
X174210000Y-80340000D01*
X174210000Y-80340000D02*
X186510000Y-80340000D01*
X186510000Y-80340000D02*
X186510000Y-77140000D01*
X186510000Y-77140000D02*
X174210000Y-77140000D01*
X192820000Y-84150000D02*
X192820000Y-80950000D01*
X192820000Y-80950000D02*
X180520000Y-80950000D01*
X180520000Y-80950000D02*
X180520000Y-84150000D01*
X180520000Y-84150000D02*
X192820000Y-84150000D01*
X180560000Y-112700000D02*
X180560000Y-115900000D01*
X180560000Y-115900000D02*
X192860000Y-115900000D01*
X192860000Y-115900000D02*
X192860000Y-112700000D01*
X192860000Y-112700000D02*
X180560000Y-112700000D01*
X186470000Y-119710000D02*
X186470000Y-116510000D01*
X186470000Y-116510000D02*
X174170000Y-116510000D01*
X174170000Y-116510000D02*
X174170000Y-119710000D01*
X174170000Y-119710000D02*
X186470000Y-119710000D01*
X145770000Y-103050000D02*
X156470000Y-103050000D01*
X156470000Y-103050000D02*
X156470000Y-92500000D01*
X156470000Y-92500000D02*
X145770000Y-92500000D01*
X145770000Y-92500000D02*
X145770000Y-103050000D01*
X117930000Y-84810000D02*
X117930000Y-110760000D01*
X117930000Y-110760000D02*
X128480000Y-110760000D01*
X128480000Y-110760000D02*
X128480000Y-84810000D01*
X128480000Y-84810000D02*
X117930000Y-84810000D01*
X170510000Y-79730000D02*
X159710000Y-79730000D01*
X159710000Y-79730000D02*
X159710000Y-90430000D01*
X159710000Y-90430000D02*
X170510000Y-90430000D01*
X170510000Y-90430000D02*
X170510000Y-79730000D01*
X170510000Y-106400000D02*
X159710000Y-106400000D01*
X159710000Y-106400000D02*
X159710000Y-117100000D01*
X159710000Y-117100000D02*
X170510000Y-117100000D01*
X170510000Y-117100000D02*
X170510000Y-106400000D01*
M02*
