G04 #@! TF.FileFunction,Legend,Top*
%FSLAX46Y46*%
G04 Gerber Fmt 4.6, Leading zero omitted, Abs format (unit mm)*
G04 Created by KiCad (PCBNEW 4.0.7) date 03/28/18 16:01:48*
%MOMM*%
%LPD*%
G01*
G04 APERTURE LIST*
%ADD10C,0.100000*%
%ADD11C,0.200000*%
%ADD12C,0.120000*%
%ADD13C,0.150000*%
G04 APERTURE END LIST*
D10*
D11*
X201930000Y-71755000D02*
X201930000Y-72390000D01*
X104775000Y-71755000D02*
X201930000Y-71755000D01*
X104775000Y-72390000D02*
X104775000Y-71755000D01*
X201930000Y-123190000D02*
X201930000Y-122555000D01*
X104775000Y-123190000D02*
X201930000Y-123190000D01*
X104775000Y-72390000D02*
X104775000Y-123190000D01*
X201930000Y-72390000D02*
X201930000Y-122555000D01*
D12*
X139290000Y-106680000D02*
G75*
G03X139290000Y-106680000I-860000J0D01*
G01*
X137570000Y-106680000D02*
X136890000Y-106680000D01*
X146018000Y-90742000D02*
X146018000Y-83422000D01*
X149638000Y-90742000D02*
X149638000Y-83422000D01*
X146018000Y-90742000D02*
X149638000Y-90742000D01*
X146018000Y-83422000D02*
X149638000Y-83422000D01*
X115030000Y-82360000D02*
X115030000Y-75040000D01*
X118650000Y-82360000D02*
X118650000Y-75040000D01*
X115030000Y-82360000D02*
X118650000Y-82360000D01*
X115030000Y-75040000D02*
X118650000Y-75040000D01*
X121380000Y-82440000D02*
X121380000Y-75120000D01*
X125000000Y-82440000D02*
X125000000Y-75120000D01*
X121380000Y-82440000D02*
X125000000Y-82440000D01*
X121380000Y-75120000D02*
X125000000Y-75120000D01*
X137050000Y-86900000D02*
X129730000Y-86900000D01*
X137050000Y-83280000D02*
X129730000Y-83280000D01*
X137050000Y-86900000D02*
X137050000Y-83280000D01*
X129730000Y-86900000D02*
X129730000Y-83280000D01*
X137050000Y-102140000D02*
X129730000Y-102140000D01*
X137050000Y-98520000D02*
X129730000Y-98520000D01*
X137050000Y-102140000D02*
X137050000Y-98520000D01*
X129730000Y-102140000D02*
X129730000Y-98520000D01*
X137050000Y-97060000D02*
X129730000Y-97060000D01*
X137050000Y-93440000D02*
X129730000Y-93440000D01*
X137050000Y-97060000D02*
X137050000Y-93440000D01*
X129730000Y-97060000D02*
X129730000Y-93440000D01*
X136970000Y-112300000D02*
X129650000Y-112300000D01*
X136970000Y-108680000D02*
X129650000Y-108680000D01*
X136970000Y-112300000D02*
X136970000Y-108680000D01*
X129650000Y-112300000D02*
X129650000Y-108680000D01*
X137350000Y-93440000D02*
X144670000Y-93440000D01*
X137350000Y-97060000D02*
X144670000Y-97060000D01*
X137350000Y-93440000D02*
X137350000Y-97060000D01*
X144670000Y-93440000D02*
X144670000Y-97060000D01*
X144590000Y-86900000D02*
X137270000Y-86900000D01*
X144590000Y-83280000D02*
X137270000Y-83280000D01*
X144590000Y-86900000D02*
X144590000Y-83280000D01*
X137270000Y-86900000D02*
X137270000Y-83280000D01*
X137350000Y-108680000D02*
X144670000Y-108680000D01*
X137350000Y-112300000D02*
X144670000Y-112300000D01*
X137350000Y-108680000D02*
X137350000Y-112300000D01*
X144670000Y-108680000D02*
X144670000Y-112300000D01*
X144670000Y-102140000D02*
X137350000Y-102140000D01*
X144670000Y-98520000D02*
X137350000Y-98520000D01*
X144670000Y-102140000D02*
X144670000Y-98520000D01*
X137350000Y-102140000D02*
X137350000Y-98520000D01*
X151320000Y-85820000D02*
X158640000Y-85820000D01*
X151320000Y-89440000D02*
X158640000Y-89440000D01*
X151320000Y-85820000D02*
X151320000Y-89440000D01*
X158640000Y-85820000D02*
X158640000Y-89440000D01*
X151240000Y-107410000D02*
X158560000Y-107410000D01*
X151240000Y-111030000D02*
X158560000Y-111030000D01*
X151240000Y-107410000D02*
X151240000Y-111030000D01*
X158560000Y-107410000D02*
X158560000Y-111030000D01*
X158020000Y-77580000D02*
X158020000Y-84900000D01*
X154400000Y-77580000D02*
X154400000Y-84900000D01*
X158020000Y-77580000D02*
X154400000Y-77580000D01*
X158020000Y-84900000D02*
X154400000Y-84900000D01*
X157670000Y-92170000D02*
X164990000Y-92170000D01*
X157670000Y-95790000D02*
X164990000Y-95790000D01*
X157670000Y-92170000D02*
X157670000Y-95790000D01*
X164990000Y-92170000D02*
X164990000Y-95790000D01*
X164910000Y-104680000D02*
X157590000Y-104680000D01*
X164910000Y-101060000D02*
X157590000Y-101060000D01*
X164910000Y-104680000D02*
X164910000Y-101060000D01*
X157590000Y-104680000D02*
X157590000Y-101060000D01*
X158020000Y-111870000D02*
X158020000Y-119190000D01*
X154400000Y-111870000D02*
X154400000Y-119190000D01*
X158020000Y-111870000D02*
X154400000Y-111870000D01*
X158020000Y-119190000D02*
X154400000Y-119190000D01*
X167610000Y-93590000D02*
X172830000Y-93590000D01*
X167610000Y-96910000D02*
X172830000Y-96910000D01*
X167610000Y-93590000D02*
X167610000Y-94254000D01*
X167610000Y-96246000D02*
X167610000Y-96910000D01*
X172830000Y-93590000D02*
X172830000Y-94254000D01*
X172830000Y-96246000D02*
X172830000Y-96910000D01*
X166340000Y-75810000D02*
X171560000Y-75810000D01*
X166340000Y-79130000D02*
X171560000Y-79130000D01*
X166340000Y-75810000D02*
X166340000Y-76474000D01*
X166340000Y-78466000D02*
X166340000Y-79130000D01*
X171560000Y-75810000D02*
X171560000Y-76474000D01*
X171560000Y-78466000D02*
X171560000Y-79130000D01*
X166260000Y-117720000D02*
X171480000Y-117720000D01*
X166260000Y-121040000D02*
X171480000Y-121040000D01*
X166260000Y-117720000D02*
X166260000Y-118384000D01*
X166260000Y-120376000D02*
X166260000Y-121040000D01*
X171480000Y-117720000D02*
X171480000Y-118384000D01*
X171480000Y-120376000D02*
X171480000Y-121040000D01*
X167610000Y-99940000D02*
X172830000Y-99940000D01*
X167610000Y-103260000D02*
X172830000Y-103260000D01*
X167610000Y-99940000D02*
X167610000Y-100604000D01*
X167610000Y-102596000D02*
X167610000Y-103260000D01*
X172830000Y-99940000D02*
X172830000Y-100604000D01*
X172830000Y-102596000D02*
X172830000Y-103260000D01*
X176533629Y-83820000D02*
X176360000Y-83820000D01*
X176403000Y-82840000D02*
X176403000Y-81951000D01*
X176403000Y-82395500D02*
X175810333Y-82840000D01*
X175810333Y-82840000D02*
X175810333Y-81951000D01*
X175810333Y-81951000D02*
X176403000Y-82395500D01*
X179066371Y-83820000D02*
G75*
G03X179066371Y-83820000I-1266371J0D01*
G01*
X176533629Y-100330000D02*
X176360000Y-100330000D01*
X176403000Y-99350000D02*
X176403000Y-98461000D01*
X176403000Y-98905500D02*
X175810333Y-99350000D01*
X175810333Y-99350000D02*
X175810333Y-98461000D01*
X175810333Y-98461000D02*
X176403000Y-98905500D01*
X179066371Y-100330000D02*
G75*
G03X179066371Y-100330000I-1266371J0D01*
G01*
X176533629Y-96520000D02*
X176360000Y-96520000D01*
X176403000Y-95540000D02*
X176403000Y-94651000D01*
X176403000Y-95095500D02*
X175810333Y-95540000D01*
X175810333Y-95540000D02*
X175810333Y-94651000D01*
X175810333Y-94651000D02*
X176403000Y-95095500D01*
X179066371Y-96520000D02*
G75*
G03X179066371Y-96520000I-1266371J0D01*
G01*
X176533629Y-113030000D02*
X176360000Y-113030000D01*
X176403000Y-112050000D02*
X176403000Y-111161000D01*
X176403000Y-111605500D02*
X175810333Y-112050000D01*
X175810333Y-112050000D02*
X175810333Y-111161000D01*
X175810333Y-111161000D02*
X176403000Y-111605500D01*
X179066371Y-113030000D02*
G75*
G03X179066371Y-113030000I-1266371J0D01*
G01*
X176340000Y-91650000D02*
X177070000Y-91650000D01*
X178530000Y-91650000D02*
X179611000Y-91650000D01*
X176340000Y-93770000D02*
X177070000Y-93770000D01*
X178530000Y-93770000D02*
X179611000Y-93770000D01*
X176530000Y-91650000D02*
X176530000Y-93770000D01*
X176340000Y-86570000D02*
X177070000Y-86570000D01*
X178530000Y-86570000D02*
X179611000Y-86570000D01*
X176340000Y-88690000D02*
X177070000Y-88690000D01*
X178530000Y-88690000D02*
X179611000Y-88690000D01*
X176530000Y-86570000D02*
X176530000Y-88690000D01*
X176340000Y-108160000D02*
X177070000Y-108160000D01*
X178530000Y-108160000D02*
X179611000Y-108160000D01*
X176340000Y-110280000D02*
X177070000Y-110280000D01*
X178530000Y-110280000D02*
X179611000Y-110280000D01*
X176530000Y-108160000D02*
X176530000Y-110280000D01*
X176340000Y-103080000D02*
X177070000Y-103080000D01*
X178530000Y-103080000D02*
X179611000Y-103080000D01*
X176340000Y-105200000D02*
X177070000Y-105200000D01*
X178530000Y-105200000D02*
X179611000Y-105200000D01*
X176530000Y-103080000D02*
X176530000Y-105200000D01*
X111700000Y-110550000D02*
X114360000Y-110550000D01*
X111700000Y-102870000D02*
X111700000Y-110550000D01*
X114360000Y-102870000D02*
X114360000Y-110550000D01*
X111700000Y-102870000D02*
X114360000Y-102870000D01*
X111700000Y-101600000D02*
X111700000Y-100270000D01*
X111700000Y-100270000D02*
X113030000Y-100270000D01*
X111700000Y-96580000D02*
X114360000Y-96580000D01*
X111700000Y-88900000D02*
X111700000Y-96580000D01*
X114360000Y-88900000D02*
X114360000Y-96580000D01*
X111700000Y-88900000D02*
X114360000Y-88900000D01*
X111700000Y-87630000D02*
X111700000Y-86300000D01*
X111700000Y-86300000D02*
X113030000Y-86300000D01*
X187220000Y-86260000D02*
X186220000Y-85260000D01*
X182320000Y-95160000D02*
X187220000Y-95160000D01*
X187220000Y-95160000D02*
X187220000Y-86260000D01*
X186220000Y-85260000D02*
X182320000Y-85260000D01*
X182320000Y-85260000D02*
X182320000Y-95160000D01*
X187220000Y-102770000D02*
X186220000Y-101770000D01*
X182320000Y-111670000D02*
X187220000Y-111670000D01*
X187220000Y-111670000D02*
X187220000Y-102770000D01*
X186220000Y-101770000D02*
X182320000Y-101770000D01*
X182320000Y-101770000D02*
X182320000Y-111670000D01*
X122272000Y-114808000D02*
G75*
G03X122272000Y-114808000I-860000J0D01*
G01*
X120552000Y-114808000D02*
X119872000Y-114808000D01*
X134210000Y-91440000D02*
G75*
G03X134210000Y-91440000I-860000J0D01*
G01*
X132490000Y-91440000D02*
X131810000Y-91440000D01*
X134210000Y-88900000D02*
G75*
G03X134210000Y-88900000I-860000J0D01*
G01*
X132490000Y-88900000D02*
X131810000Y-88900000D01*
X134210000Y-106680000D02*
G75*
G03X134210000Y-106680000I-860000J0D01*
G01*
X132490000Y-106680000D02*
X131810000Y-106680000D01*
X134210000Y-104140000D02*
G75*
G03X134210000Y-104140000I-860000J0D01*
G01*
X132490000Y-104140000D02*
X131810000Y-104140000D01*
X139290000Y-91440000D02*
G75*
G03X139290000Y-91440000I-860000J0D01*
G01*
X137570000Y-91440000D02*
X136890000Y-91440000D01*
X136750000Y-88900000D02*
G75*
G03X136750000Y-88900000I-860000J0D01*
G01*
X136750000Y-88900000D02*
X137430000Y-88900000D01*
X136750000Y-104140000D02*
G75*
G03X136750000Y-104140000I-860000J0D01*
G01*
X136750000Y-104140000D02*
X137430000Y-104140000D01*
X141830000Y-91440000D02*
G75*
G03X141830000Y-91440000I-860000J0D01*
G01*
X141830000Y-91440000D02*
X142510000Y-91440000D01*
X141830000Y-88900000D02*
G75*
G03X141830000Y-88900000I-860000J0D01*
G01*
X141830000Y-88900000D02*
X142510000Y-88900000D01*
X141830000Y-106680000D02*
G75*
G03X141830000Y-106680000I-860000J0D01*
G01*
X141830000Y-106680000D02*
X142510000Y-106680000D01*
X141830000Y-104140000D02*
G75*
G03X141830000Y-104140000I-860000J0D01*
G01*
X141830000Y-104140000D02*
X142510000Y-104140000D01*
X177130000Y-77430000D02*
X177130000Y-80050000D01*
X177130000Y-80050000D02*
X183550000Y-80050000D01*
X183550000Y-80050000D02*
X183550000Y-77430000D01*
X183550000Y-77430000D02*
X177130000Y-77430000D01*
X176240000Y-78740000D02*
X177130000Y-78740000D01*
X184440000Y-78740000D02*
X183550000Y-78740000D01*
X189900000Y-83860000D02*
X189900000Y-81240000D01*
X189900000Y-81240000D02*
X183480000Y-81240000D01*
X183480000Y-81240000D02*
X183480000Y-83860000D01*
X183480000Y-83860000D02*
X189900000Y-83860000D01*
X190790000Y-82550000D02*
X189900000Y-82550000D01*
X182590000Y-82550000D02*
X183480000Y-82550000D01*
X183480000Y-112990000D02*
X183480000Y-115610000D01*
X183480000Y-115610000D02*
X189900000Y-115610000D01*
X189900000Y-115610000D02*
X189900000Y-112990000D01*
X189900000Y-112990000D02*
X183480000Y-112990000D01*
X182590000Y-114300000D02*
X183480000Y-114300000D01*
X190790000Y-114300000D02*
X189900000Y-114300000D01*
X183550000Y-119420000D02*
X183550000Y-116800000D01*
X183550000Y-116800000D02*
X177130000Y-116800000D01*
X177130000Y-116800000D02*
X177130000Y-119420000D01*
X177130000Y-119420000D02*
X183550000Y-119420000D01*
X184440000Y-118110000D02*
X183550000Y-118110000D01*
X176240000Y-118110000D02*
X177130000Y-118110000D01*
X145990000Y-96790000D02*
G75*
G02X145990000Y-98790000I0J-1000000D01*
G01*
X145990000Y-98790000D02*
X145990000Y-100040000D01*
X145990000Y-100040000D02*
X156270000Y-100040000D01*
X156270000Y-100040000D02*
X156270000Y-95540000D01*
X156270000Y-95540000D02*
X145990000Y-95540000D01*
X145990000Y-95540000D02*
X145990000Y-96790000D01*
X124190000Y-85030000D02*
G75*
G02X122190000Y-85030000I-1000000J0D01*
G01*
X122190000Y-85030000D02*
X120940000Y-85030000D01*
X120940000Y-85030000D02*
X120940000Y-110550000D01*
X120940000Y-110550000D02*
X125440000Y-110550000D01*
X125440000Y-110550000D02*
X125440000Y-85030000D01*
X125440000Y-85030000D02*
X124190000Y-85030000D01*
X170240000Y-86090000D02*
G75*
G02X170240000Y-84090000I0J1000000D01*
G01*
X170240000Y-84090000D02*
X170240000Y-82840000D01*
X170240000Y-82840000D02*
X159960000Y-82840000D01*
X159960000Y-82840000D02*
X159960000Y-87340000D01*
X159960000Y-87340000D02*
X170240000Y-87340000D01*
X170240000Y-87340000D02*
X170240000Y-86090000D01*
X170300000Y-79840000D02*
X159900000Y-79840000D01*
X159900000Y-79840000D02*
X159900000Y-90340000D01*
X159900000Y-90340000D02*
X170300000Y-90340000D01*
X170300000Y-90340000D02*
X170300000Y-79840000D01*
X170240000Y-112760000D02*
G75*
G02X170240000Y-110760000I0J1000000D01*
G01*
X170240000Y-110760000D02*
X170240000Y-109510000D01*
X170240000Y-109510000D02*
X159960000Y-109510000D01*
X159960000Y-109510000D02*
X159960000Y-114010000D01*
X159960000Y-114010000D02*
X170240000Y-114010000D01*
X170240000Y-114010000D02*
X170240000Y-112760000D01*
X170300000Y-106510000D02*
X159900000Y-106510000D01*
X159900000Y-106510000D02*
X159900000Y-117010000D01*
X159900000Y-117010000D02*
X170300000Y-117010000D01*
X170300000Y-117010000D02*
X170300000Y-106510000D01*
D13*
X136993334Y-108992381D02*
X136660000Y-108516190D01*
X136421905Y-108992381D02*
X136421905Y-107992381D01*
X136802858Y-107992381D01*
X136898096Y-108040000D01*
X136945715Y-108087619D01*
X136993334Y-108182857D01*
X136993334Y-108325714D01*
X136945715Y-108420952D01*
X136898096Y-108468571D01*
X136802858Y-108516190D01*
X136421905Y-108516190D01*
X137564762Y-108420952D02*
X137469524Y-108373333D01*
X137421905Y-108325714D01*
X137374286Y-108230476D01*
X137374286Y-108182857D01*
X137421905Y-108087619D01*
X137469524Y-108040000D01*
X137564762Y-107992381D01*
X137755239Y-107992381D01*
X137850477Y-108040000D01*
X137898096Y-108087619D01*
X137945715Y-108182857D01*
X137945715Y-108230476D01*
X137898096Y-108325714D01*
X137850477Y-108373333D01*
X137755239Y-108420952D01*
X137564762Y-108420952D01*
X137469524Y-108468571D01*
X137421905Y-108516190D01*
X137374286Y-108611429D01*
X137374286Y-108801905D01*
X137421905Y-108897143D01*
X137469524Y-108944762D01*
X137564762Y-108992381D01*
X137755239Y-108992381D01*
X137850477Y-108944762D01*
X137898096Y-108897143D01*
X137945715Y-108801905D01*
X137945715Y-108611429D01*
X137898096Y-108516190D01*
X137850477Y-108468571D01*
X137755239Y-108420952D01*
X145125143Y-87248666D02*
X145172762Y-87296285D01*
X145220381Y-87439142D01*
X145220381Y-87534380D01*
X145172762Y-87677238D01*
X145077524Y-87772476D01*
X144982286Y-87820095D01*
X144791810Y-87867714D01*
X144648952Y-87867714D01*
X144458476Y-87820095D01*
X144363238Y-87772476D01*
X144268000Y-87677238D01*
X144220381Y-87534380D01*
X144220381Y-87439142D01*
X144268000Y-87296285D01*
X144315619Y-87248666D01*
X145220381Y-86296285D02*
X145220381Y-86867714D01*
X145220381Y-86582000D02*
X144220381Y-86582000D01*
X144363238Y-86677238D01*
X144458476Y-86772476D01*
X144506095Y-86867714D01*
X114137143Y-78866666D02*
X114184762Y-78914285D01*
X114232381Y-79057142D01*
X114232381Y-79152380D01*
X114184762Y-79295238D01*
X114089524Y-79390476D01*
X113994286Y-79438095D01*
X113803810Y-79485714D01*
X113660952Y-79485714D01*
X113470476Y-79438095D01*
X113375238Y-79390476D01*
X113280000Y-79295238D01*
X113232381Y-79152380D01*
X113232381Y-79057142D01*
X113280000Y-78914285D01*
X113327619Y-78866666D01*
X113327619Y-78485714D02*
X113280000Y-78438095D01*
X113232381Y-78342857D01*
X113232381Y-78104761D01*
X113280000Y-78009523D01*
X113327619Y-77961904D01*
X113422857Y-77914285D01*
X113518095Y-77914285D01*
X113660952Y-77961904D01*
X114232381Y-78533333D01*
X114232381Y-77914285D01*
X120487143Y-78946666D02*
X120534762Y-78994285D01*
X120582381Y-79137142D01*
X120582381Y-79232380D01*
X120534762Y-79375238D01*
X120439524Y-79470476D01*
X120344286Y-79518095D01*
X120153810Y-79565714D01*
X120010952Y-79565714D01*
X119820476Y-79518095D01*
X119725238Y-79470476D01*
X119630000Y-79375238D01*
X119582381Y-79232380D01*
X119582381Y-79137142D01*
X119630000Y-78994285D01*
X119677619Y-78946666D01*
X119582381Y-78613333D02*
X119582381Y-77994285D01*
X119963333Y-78327619D01*
X119963333Y-78184761D01*
X120010952Y-78089523D01*
X120058571Y-78041904D01*
X120153810Y-77994285D01*
X120391905Y-77994285D01*
X120487143Y-78041904D01*
X120534762Y-78089523D01*
X120582381Y-78184761D01*
X120582381Y-78470476D01*
X120534762Y-78565714D01*
X120487143Y-78613333D01*
X133223334Y-88507143D02*
X133175715Y-88554762D01*
X133032858Y-88602381D01*
X132937620Y-88602381D01*
X132794762Y-88554762D01*
X132699524Y-88459524D01*
X132651905Y-88364286D01*
X132604286Y-88173810D01*
X132604286Y-88030952D01*
X132651905Y-87840476D01*
X132699524Y-87745238D01*
X132794762Y-87650000D01*
X132937620Y-87602381D01*
X133032858Y-87602381D01*
X133175715Y-87650000D01*
X133223334Y-87697619D01*
X134080477Y-87935714D02*
X134080477Y-88602381D01*
X133842381Y-87554762D02*
X133604286Y-88269048D01*
X134223334Y-88269048D01*
X133223334Y-103747143D02*
X133175715Y-103794762D01*
X133032858Y-103842381D01*
X132937620Y-103842381D01*
X132794762Y-103794762D01*
X132699524Y-103699524D01*
X132651905Y-103604286D01*
X132604286Y-103413810D01*
X132604286Y-103270952D01*
X132651905Y-103080476D01*
X132699524Y-102985238D01*
X132794762Y-102890000D01*
X132937620Y-102842381D01*
X133032858Y-102842381D01*
X133175715Y-102890000D01*
X133223334Y-102937619D01*
X134128096Y-102842381D02*
X133651905Y-102842381D01*
X133604286Y-103318571D01*
X133651905Y-103270952D01*
X133747143Y-103223333D01*
X133985239Y-103223333D01*
X134080477Y-103270952D01*
X134128096Y-103318571D01*
X134175715Y-103413810D01*
X134175715Y-103651905D01*
X134128096Y-103747143D01*
X134080477Y-103794762D01*
X133985239Y-103842381D01*
X133747143Y-103842381D01*
X133651905Y-103794762D01*
X133604286Y-103747143D01*
X133223334Y-98667143D02*
X133175715Y-98714762D01*
X133032858Y-98762381D01*
X132937620Y-98762381D01*
X132794762Y-98714762D01*
X132699524Y-98619524D01*
X132651905Y-98524286D01*
X132604286Y-98333810D01*
X132604286Y-98190952D01*
X132651905Y-98000476D01*
X132699524Y-97905238D01*
X132794762Y-97810000D01*
X132937620Y-97762381D01*
X133032858Y-97762381D01*
X133175715Y-97810000D01*
X133223334Y-97857619D01*
X134080477Y-97762381D02*
X133890000Y-97762381D01*
X133794762Y-97810000D01*
X133747143Y-97857619D01*
X133651905Y-98000476D01*
X133604286Y-98190952D01*
X133604286Y-98571905D01*
X133651905Y-98667143D01*
X133699524Y-98714762D01*
X133794762Y-98762381D01*
X133985239Y-98762381D01*
X134080477Y-98714762D01*
X134128096Y-98667143D01*
X134175715Y-98571905D01*
X134175715Y-98333810D01*
X134128096Y-98238571D01*
X134080477Y-98190952D01*
X133985239Y-98143333D01*
X133794762Y-98143333D01*
X133699524Y-98190952D01*
X133651905Y-98238571D01*
X133604286Y-98333810D01*
X133143334Y-113907143D02*
X133095715Y-113954762D01*
X132952858Y-114002381D01*
X132857620Y-114002381D01*
X132714762Y-113954762D01*
X132619524Y-113859524D01*
X132571905Y-113764286D01*
X132524286Y-113573810D01*
X132524286Y-113430952D01*
X132571905Y-113240476D01*
X132619524Y-113145238D01*
X132714762Y-113050000D01*
X132857620Y-113002381D01*
X132952858Y-113002381D01*
X133095715Y-113050000D01*
X133143334Y-113097619D01*
X133476667Y-113002381D02*
X134143334Y-113002381D01*
X133714762Y-114002381D01*
X140843334Y-92547143D02*
X140795715Y-92594762D01*
X140652858Y-92642381D01*
X140557620Y-92642381D01*
X140414762Y-92594762D01*
X140319524Y-92499524D01*
X140271905Y-92404286D01*
X140224286Y-92213810D01*
X140224286Y-92070952D01*
X140271905Y-91880476D01*
X140319524Y-91785238D01*
X140414762Y-91690000D01*
X140557620Y-91642381D01*
X140652858Y-91642381D01*
X140795715Y-91690000D01*
X140843334Y-91737619D01*
X141414762Y-92070952D02*
X141319524Y-92023333D01*
X141271905Y-91975714D01*
X141224286Y-91880476D01*
X141224286Y-91832857D01*
X141271905Y-91737619D01*
X141319524Y-91690000D01*
X141414762Y-91642381D01*
X141605239Y-91642381D01*
X141700477Y-91690000D01*
X141748096Y-91737619D01*
X141795715Y-91832857D01*
X141795715Y-91880476D01*
X141748096Y-91975714D01*
X141700477Y-92023333D01*
X141605239Y-92070952D01*
X141414762Y-92070952D01*
X141319524Y-92118571D01*
X141271905Y-92166190D01*
X141224286Y-92261429D01*
X141224286Y-92451905D01*
X141271905Y-92547143D01*
X141319524Y-92594762D01*
X141414762Y-92642381D01*
X141605239Y-92642381D01*
X141700477Y-92594762D01*
X141748096Y-92547143D01*
X141795715Y-92451905D01*
X141795715Y-92261429D01*
X141748096Y-92166190D01*
X141700477Y-92118571D01*
X141605239Y-92070952D01*
X140763334Y-88507143D02*
X140715715Y-88554762D01*
X140572858Y-88602381D01*
X140477620Y-88602381D01*
X140334762Y-88554762D01*
X140239524Y-88459524D01*
X140191905Y-88364286D01*
X140144286Y-88173810D01*
X140144286Y-88030952D01*
X140191905Y-87840476D01*
X140239524Y-87745238D01*
X140334762Y-87650000D01*
X140477620Y-87602381D01*
X140572858Y-87602381D01*
X140715715Y-87650000D01*
X140763334Y-87697619D01*
X141239524Y-88602381D02*
X141430000Y-88602381D01*
X141525239Y-88554762D01*
X141572858Y-88507143D01*
X141668096Y-88364286D01*
X141715715Y-88173810D01*
X141715715Y-87792857D01*
X141668096Y-87697619D01*
X141620477Y-87650000D01*
X141525239Y-87602381D01*
X141334762Y-87602381D01*
X141239524Y-87650000D01*
X141191905Y-87697619D01*
X141144286Y-87792857D01*
X141144286Y-88030952D01*
X141191905Y-88126190D01*
X141239524Y-88173810D01*
X141334762Y-88221429D01*
X141525239Y-88221429D01*
X141620477Y-88173810D01*
X141668096Y-88126190D01*
X141715715Y-88030952D01*
X140367143Y-107787143D02*
X140319524Y-107834762D01*
X140176667Y-107882381D01*
X140081429Y-107882381D01*
X139938571Y-107834762D01*
X139843333Y-107739524D01*
X139795714Y-107644286D01*
X139748095Y-107453810D01*
X139748095Y-107310952D01*
X139795714Y-107120476D01*
X139843333Y-107025238D01*
X139938571Y-106930000D01*
X140081429Y-106882381D01*
X140176667Y-106882381D01*
X140319524Y-106930000D01*
X140367143Y-106977619D01*
X141319524Y-107882381D02*
X140748095Y-107882381D01*
X141033809Y-107882381D02*
X141033809Y-106882381D01*
X140938571Y-107025238D01*
X140843333Y-107120476D01*
X140748095Y-107168095D01*
X141938571Y-106882381D02*
X142033810Y-106882381D01*
X142129048Y-106930000D01*
X142176667Y-106977619D01*
X142224286Y-107072857D01*
X142271905Y-107263333D01*
X142271905Y-107501429D01*
X142224286Y-107691905D01*
X142176667Y-107787143D01*
X142129048Y-107834762D01*
X142033810Y-107882381D01*
X141938571Y-107882381D01*
X141843333Y-107834762D01*
X141795714Y-107787143D01*
X141748095Y-107691905D01*
X141700476Y-107501429D01*
X141700476Y-107263333D01*
X141748095Y-107072857D01*
X141795714Y-106977619D01*
X141843333Y-106930000D01*
X141938571Y-106882381D01*
X140367143Y-103747143D02*
X140319524Y-103794762D01*
X140176667Y-103842381D01*
X140081429Y-103842381D01*
X139938571Y-103794762D01*
X139843333Y-103699524D01*
X139795714Y-103604286D01*
X139748095Y-103413810D01*
X139748095Y-103270952D01*
X139795714Y-103080476D01*
X139843333Y-102985238D01*
X139938571Y-102890000D01*
X140081429Y-102842381D01*
X140176667Y-102842381D01*
X140319524Y-102890000D01*
X140367143Y-102937619D01*
X141319524Y-103842381D02*
X140748095Y-103842381D01*
X141033809Y-103842381D02*
X141033809Y-102842381D01*
X140938571Y-102985238D01*
X140843333Y-103080476D01*
X140748095Y-103128095D01*
X142271905Y-103842381D02*
X141700476Y-103842381D01*
X141986190Y-103842381D02*
X141986190Y-102842381D01*
X141890952Y-102985238D01*
X141795714Y-103080476D01*
X141700476Y-103128095D01*
X154337143Y-84927143D02*
X154289524Y-84974762D01*
X154146667Y-85022381D01*
X154051429Y-85022381D01*
X153908571Y-84974762D01*
X153813333Y-84879524D01*
X153765714Y-84784286D01*
X153718095Y-84593810D01*
X153718095Y-84450952D01*
X153765714Y-84260476D01*
X153813333Y-84165238D01*
X153908571Y-84070000D01*
X154051429Y-84022381D01*
X154146667Y-84022381D01*
X154289524Y-84070000D01*
X154337143Y-84117619D01*
X155289524Y-85022381D02*
X154718095Y-85022381D01*
X155003809Y-85022381D02*
X155003809Y-84022381D01*
X154908571Y-84165238D01*
X154813333Y-84260476D01*
X154718095Y-84308095D01*
X155670476Y-84117619D02*
X155718095Y-84070000D01*
X155813333Y-84022381D01*
X156051429Y-84022381D01*
X156146667Y-84070000D01*
X156194286Y-84117619D01*
X156241905Y-84212857D01*
X156241905Y-84308095D01*
X156194286Y-84450952D01*
X155622857Y-85022381D01*
X156241905Y-85022381D01*
X154257143Y-106517143D02*
X154209524Y-106564762D01*
X154066667Y-106612381D01*
X153971429Y-106612381D01*
X153828571Y-106564762D01*
X153733333Y-106469524D01*
X153685714Y-106374286D01*
X153638095Y-106183810D01*
X153638095Y-106040952D01*
X153685714Y-105850476D01*
X153733333Y-105755238D01*
X153828571Y-105660000D01*
X153971429Y-105612381D01*
X154066667Y-105612381D01*
X154209524Y-105660000D01*
X154257143Y-105707619D01*
X155209524Y-106612381D02*
X154638095Y-106612381D01*
X154923809Y-106612381D02*
X154923809Y-105612381D01*
X154828571Y-105755238D01*
X154733333Y-105850476D01*
X154638095Y-105898095D01*
X155542857Y-105612381D02*
X156161905Y-105612381D01*
X155828571Y-105993333D01*
X155971429Y-105993333D01*
X156066667Y-106040952D01*
X156114286Y-106088571D01*
X156161905Y-106183810D01*
X156161905Y-106421905D01*
X156114286Y-106517143D01*
X156066667Y-106564762D01*
X155971429Y-106612381D01*
X155685714Y-106612381D01*
X155590476Y-106564762D01*
X155542857Y-106517143D01*
X159627143Y-81882857D02*
X159674762Y-81930476D01*
X159722381Y-82073333D01*
X159722381Y-82168571D01*
X159674762Y-82311429D01*
X159579524Y-82406667D01*
X159484286Y-82454286D01*
X159293810Y-82501905D01*
X159150952Y-82501905D01*
X158960476Y-82454286D01*
X158865238Y-82406667D01*
X158770000Y-82311429D01*
X158722381Y-82168571D01*
X158722381Y-82073333D01*
X158770000Y-81930476D01*
X158817619Y-81882857D01*
X159722381Y-80930476D02*
X159722381Y-81501905D01*
X159722381Y-81216191D02*
X158722381Y-81216191D01*
X158865238Y-81311429D01*
X158960476Y-81406667D01*
X159008095Y-81501905D01*
X159055714Y-80073333D02*
X159722381Y-80073333D01*
X158674762Y-80311429D02*
X159389048Y-80549524D01*
X159389048Y-79930476D01*
X160687143Y-91277143D02*
X160639524Y-91324762D01*
X160496667Y-91372381D01*
X160401429Y-91372381D01*
X160258571Y-91324762D01*
X160163333Y-91229524D01*
X160115714Y-91134286D01*
X160068095Y-90943810D01*
X160068095Y-90800952D01*
X160115714Y-90610476D01*
X160163333Y-90515238D01*
X160258571Y-90420000D01*
X160401429Y-90372381D01*
X160496667Y-90372381D01*
X160639524Y-90420000D01*
X160687143Y-90467619D01*
X161639524Y-91372381D02*
X161068095Y-91372381D01*
X161353809Y-91372381D02*
X161353809Y-90372381D01*
X161258571Y-90515238D01*
X161163333Y-90610476D01*
X161068095Y-90658095D01*
X162544286Y-90372381D02*
X162068095Y-90372381D01*
X162020476Y-90848571D01*
X162068095Y-90800952D01*
X162163333Y-90753333D01*
X162401429Y-90753333D01*
X162496667Y-90800952D01*
X162544286Y-90848571D01*
X162591905Y-90943810D01*
X162591905Y-91181905D01*
X162544286Y-91277143D01*
X162496667Y-91324762D01*
X162401429Y-91372381D01*
X162163333Y-91372381D01*
X162068095Y-91324762D01*
X162020476Y-91277143D01*
X160607143Y-106287143D02*
X160559524Y-106334762D01*
X160416667Y-106382381D01*
X160321429Y-106382381D01*
X160178571Y-106334762D01*
X160083333Y-106239524D01*
X160035714Y-106144286D01*
X159988095Y-105953810D01*
X159988095Y-105810952D01*
X160035714Y-105620476D01*
X160083333Y-105525238D01*
X160178571Y-105430000D01*
X160321429Y-105382381D01*
X160416667Y-105382381D01*
X160559524Y-105430000D01*
X160607143Y-105477619D01*
X161559524Y-106382381D02*
X160988095Y-106382381D01*
X161273809Y-106382381D02*
X161273809Y-105382381D01*
X161178571Y-105525238D01*
X161083333Y-105620476D01*
X160988095Y-105668095D01*
X162416667Y-105382381D02*
X162226190Y-105382381D01*
X162130952Y-105430000D01*
X162083333Y-105477619D01*
X161988095Y-105620476D01*
X161940476Y-105810952D01*
X161940476Y-106191905D01*
X161988095Y-106287143D01*
X162035714Y-106334762D01*
X162130952Y-106382381D01*
X162321429Y-106382381D01*
X162416667Y-106334762D01*
X162464286Y-106287143D01*
X162511905Y-106191905D01*
X162511905Y-105953810D01*
X162464286Y-105858571D01*
X162416667Y-105810952D01*
X162321429Y-105763333D01*
X162130952Y-105763333D01*
X162035714Y-105810952D01*
X161988095Y-105858571D01*
X161940476Y-105953810D01*
X159627143Y-116172857D02*
X159674762Y-116220476D01*
X159722381Y-116363333D01*
X159722381Y-116458571D01*
X159674762Y-116601429D01*
X159579524Y-116696667D01*
X159484286Y-116744286D01*
X159293810Y-116791905D01*
X159150952Y-116791905D01*
X158960476Y-116744286D01*
X158865238Y-116696667D01*
X158770000Y-116601429D01*
X158722381Y-116458571D01*
X158722381Y-116363333D01*
X158770000Y-116220476D01*
X158817619Y-116172857D01*
X159722381Y-115220476D02*
X159722381Y-115791905D01*
X159722381Y-115506191D02*
X158722381Y-115506191D01*
X158865238Y-115601429D01*
X158960476Y-115696667D01*
X159008095Y-115791905D01*
X158722381Y-114887143D02*
X158722381Y-114220476D01*
X159722381Y-114649048D01*
X169577143Y-92697143D02*
X169529524Y-92744762D01*
X169386667Y-92792381D01*
X169291429Y-92792381D01*
X169148571Y-92744762D01*
X169053333Y-92649524D01*
X169005714Y-92554286D01*
X168958095Y-92363810D01*
X168958095Y-92220952D01*
X169005714Y-92030476D01*
X169053333Y-91935238D01*
X169148571Y-91840000D01*
X169291429Y-91792381D01*
X169386667Y-91792381D01*
X169529524Y-91840000D01*
X169577143Y-91887619D01*
X170529524Y-92792381D02*
X169958095Y-92792381D01*
X170243809Y-92792381D02*
X170243809Y-91792381D01*
X170148571Y-91935238D01*
X170053333Y-92030476D01*
X169958095Y-92078095D01*
X171100952Y-92220952D02*
X171005714Y-92173333D01*
X170958095Y-92125714D01*
X170910476Y-92030476D01*
X170910476Y-91982857D01*
X170958095Y-91887619D01*
X171005714Y-91840000D01*
X171100952Y-91792381D01*
X171291429Y-91792381D01*
X171386667Y-91840000D01*
X171434286Y-91887619D01*
X171481905Y-91982857D01*
X171481905Y-92030476D01*
X171434286Y-92125714D01*
X171386667Y-92173333D01*
X171291429Y-92220952D01*
X171100952Y-92220952D01*
X171005714Y-92268571D01*
X170958095Y-92316190D01*
X170910476Y-92411429D01*
X170910476Y-92601905D01*
X170958095Y-92697143D01*
X171005714Y-92744762D01*
X171100952Y-92792381D01*
X171291429Y-92792381D01*
X171386667Y-92744762D01*
X171434286Y-92697143D01*
X171481905Y-92601905D01*
X171481905Y-92411429D01*
X171434286Y-92316190D01*
X171386667Y-92268571D01*
X171291429Y-92220952D01*
X168307143Y-74917143D02*
X168259524Y-74964762D01*
X168116667Y-75012381D01*
X168021429Y-75012381D01*
X167878571Y-74964762D01*
X167783333Y-74869524D01*
X167735714Y-74774286D01*
X167688095Y-74583810D01*
X167688095Y-74440952D01*
X167735714Y-74250476D01*
X167783333Y-74155238D01*
X167878571Y-74060000D01*
X168021429Y-74012381D01*
X168116667Y-74012381D01*
X168259524Y-74060000D01*
X168307143Y-74107619D01*
X169259524Y-75012381D02*
X168688095Y-75012381D01*
X168973809Y-75012381D02*
X168973809Y-74012381D01*
X168878571Y-74155238D01*
X168783333Y-74250476D01*
X168688095Y-74298095D01*
X169735714Y-75012381D02*
X169926190Y-75012381D01*
X170021429Y-74964762D01*
X170069048Y-74917143D01*
X170164286Y-74774286D01*
X170211905Y-74583810D01*
X170211905Y-74202857D01*
X170164286Y-74107619D01*
X170116667Y-74060000D01*
X170021429Y-74012381D01*
X169830952Y-74012381D01*
X169735714Y-74060000D01*
X169688095Y-74107619D01*
X169640476Y-74202857D01*
X169640476Y-74440952D01*
X169688095Y-74536190D01*
X169735714Y-74583810D01*
X169830952Y-74631429D01*
X170021429Y-74631429D01*
X170116667Y-74583810D01*
X170164286Y-74536190D01*
X170211905Y-74440952D01*
X168227143Y-116827143D02*
X168179524Y-116874762D01*
X168036667Y-116922381D01*
X167941429Y-116922381D01*
X167798571Y-116874762D01*
X167703333Y-116779524D01*
X167655714Y-116684286D01*
X167608095Y-116493810D01*
X167608095Y-116350952D01*
X167655714Y-116160476D01*
X167703333Y-116065238D01*
X167798571Y-115970000D01*
X167941429Y-115922381D01*
X168036667Y-115922381D01*
X168179524Y-115970000D01*
X168227143Y-116017619D01*
X168608095Y-116017619D02*
X168655714Y-115970000D01*
X168750952Y-115922381D01*
X168989048Y-115922381D01*
X169084286Y-115970000D01*
X169131905Y-116017619D01*
X169179524Y-116112857D01*
X169179524Y-116208095D01*
X169131905Y-116350952D01*
X168560476Y-116922381D01*
X169179524Y-116922381D01*
X169798571Y-115922381D02*
X169893810Y-115922381D01*
X169989048Y-115970000D01*
X170036667Y-116017619D01*
X170084286Y-116112857D01*
X170131905Y-116303333D01*
X170131905Y-116541429D01*
X170084286Y-116731905D01*
X170036667Y-116827143D01*
X169989048Y-116874762D01*
X169893810Y-116922381D01*
X169798571Y-116922381D01*
X169703333Y-116874762D01*
X169655714Y-116827143D01*
X169608095Y-116731905D01*
X169560476Y-116541429D01*
X169560476Y-116303333D01*
X169608095Y-116112857D01*
X169655714Y-116017619D01*
X169703333Y-115970000D01*
X169798571Y-115922381D01*
X169577143Y-99047143D02*
X169529524Y-99094762D01*
X169386667Y-99142381D01*
X169291429Y-99142381D01*
X169148571Y-99094762D01*
X169053333Y-98999524D01*
X169005714Y-98904286D01*
X168958095Y-98713810D01*
X168958095Y-98570952D01*
X169005714Y-98380476D01*
X169053333Y-98285238D01*
X169148571Y-98190000D01*
X169291429Y-98142381D01*
X169386667Y-98142381D01*
X169529524Y-98190000D01*
X169577143Y-98237619D01*
X169958095Y-98237619D02*
X170005714Y-98190000D01*
X170100952Y-98142381D01*
X170339048Y-98142381D01*
X170434286Y-98190000D01*
X170481905Y-98237619D01*
X170529524Y-98332857D01*
X170529524Y-98428095D01*
X170481905Y-98570952D01*
X169910476Y-99142381D01*
X170529524Y-99142381D01*
X171481905Y-99142381D02*
X170910476Y-99142381D01*
X171196190Y-99142381D02*
X171196190Y-98142381D01*
X171100952Y-98285238D01*
X171005714Y-98380476D01*
X170910476Y-98428095D01*
X175791905Y-86538752D02*
X175791905Y-85538752D01*
X176030000Y-85538752D01*
X176172858Y-85586371D01*
X176268096Y-85681609D01*
X176315715Y-85776847D01*
X176363334Y-85967323D01*
X176363334Y-86110181D01*
X176315715Y-86300657D01*
X176268096Y-86395895D01*
X176172858Y-86491133D01*
X176030000Y-86538752D01*
X175791905Y-86538752D01*
X177315715Y-86538752D02*
X176744286Y-86538752D01*
X177030000Y-86538752D02*
X177030000Y-85538752D01*
X176934762Y-85681609D01*
X176839524Y-85776847D01*
X176744286Y-85824466D01*
X175791905Y-103048752D02*
X175791905Y-102048752D01*
X176030000Y-102048752D01*
X176172858Y-102096371D01*
X176268096Y-102191609D01*
X176315715Y-102286847D01*
X176363334Y-102477323D01*
X176363334Y-102620181D01*
X176315715Y-102810657D01*
X176268096Y-102905895D01*
X176172858Y-103001133D01*
X176030000Y-103048752D01*
X175791905Y-103048752D01*
X176744286Y-102143990D02*
X176791905Y-102096371D01*
X176887143Y-102048752D01*
X177125239Y-102048752D01*
X177220477Y-102096371D01*
X177268096Y-102143990D01*
X177315715Y-102239228D01*
X177315715Y-102334466D01*
X177268096Y-102477323D01*
X176696667Y-103048752D01*
X177315715Y-103048752D01*
X175791905Y-99238752D02*
X175791905Y-98238752D01*
X176030000Y-98238752D01*
X176172858Y-98286371D01*
X176268096Y-98381609D01*
X176315715Y-98476847D01*
X176363334Y-98667323D01*
X176363334Y-98810181D01*
X176315715Y-99000657D01*
X176268096Y-99095895D01*
X176172858Y-99191133D01*
X176030000Y-99238752D01*
X175791905Y-99238752D01*
X176696667Y-98238752D02*
X177315715Y-98238752D01*
X176982381Y-98619704D01*
X177125239Y-98619704D01*
X177220477Y-98667323D01*
X177268096Y-98714942D01*
X177315715Y-98810181D01*
X177315715Y-99048276D01*
X177268096Y-99143514D01*
X177220477Y-99191133D01*
X177125239Y-99238752D01*
X176839524Y-99238752D01*
X176744286Y-99191133D01*
X176696667Y-99143514D01*
X175791905Y-115748752D02*
X175791905Y-114748752D01*
X176030000Y-114748752D01*
X176172858Y-114796371D01*
X176268096Y-114891609D01*
X176315715Y-114986847D01*
X176363334Y-115177323D01*
X176363334Y-115320181D01*
X176315715Y-115510657D01*
X176268096Y-115605895D01*
X176172858Y-115701133D01*
X176030000Y-115748752D01*
X175791905Y-115748752D01*
X177220477Y-115082085D02*
X177220477Y-115748752D01*
X176982381Y-114701133D02*
X176744286Y-115415419D01*
X177363334Y-115415419D01*
X177061905Y-90578571D02*
X176728571Y-90578571D01*
X176728571Y-91102381D02*
X176728571Y-90102381D01*
X177204762Y-90102381D01*
X178061905Y-91102381D02*
X177585714Y-91102381D01*
X177585714Y-90102381D01*
X178919048Y-91102381D02*
X178347619Y-91102381D01*
X178633333Y-91102381D02*
X178633333Y-90102381D01*
X178538095Y-90245238D01*
X178442857Y-90340476D01*
X178347619Y-90388095D01*
X177061905Y-85498571D02*
X176728571Y-85498571D01*
X176728571Y-86022381D02*
X176728571Y-85022381D01*
X177204762Y-85022381D01*
X178061905Y-86022381D02*
X177585714Y-86022381D01*
X177585714Y-85022381D01*
X178347619Y-85117619D02*
X178395238Y-85070000D01*
X178490476Y-85022381D01*
X178728572Y-85022381D01*
X178823810Y-85070000D01*
X178871429Y-85117619D01*
X178919048Y-85212857D01*
X178919048Y-85308095D01*
X178871429Y-85450952D01*
X178300000Y-86022381D01*
X178919048Y-86022381D01*
X177061905Y-107088571D02*
X176728571Y-107088571D01*
X176728571Y-107612381D02*
X176728571Y-106612381D01*
X177204762Y-106612381D01*
X178061905Y-107612381D02*
X177585714Y-107612381D01*
X177585714Y-106612381D01*
X178300000Y-106612381D02*
X178919048Y-106612381D01*
X178585714Y-106993333D01*
X178728572Y-106993333D01*
X178823810Y-107040952D01*
X178871429Y-107088571D01*
X178919048Y-107183810D01*
X178919048Y-107421905D01*
X178871429Y-107517143D01*
X178823810Y-107564762D01*
X178728572Y-107612381D01*
X178442857Y-107612381D01*
X178347619Y-107564762D01*
X178300000Y-107517143D01*
X177061905Y-102008571D02*
X176728571Y-102008571D01*
X176728571Y-102532381D02*
X176728571Y-101532381D01*
X177204762Y-101532381D01*
X178061905Y-102532381D02*
X177585714Y-102532381D01*
X177585714Y-101532381D01*
X178823810Y-101865714D02*
X178823810Y-102532381D01*
X178585714Y-101484762D02*
X178347619Y-102199048D01*
X178966667Y-102199048D01*
X112696667Y-98722381D02*
X112696667Y-99436667D01*
X112649047Y-99579524D01*
X112553809Y-99674762D01*
X112410952Y-99722381D01*
X112315714Y-99722381D01*
X113077619Y-98722381D02*
X113696667Y-98722381D01*
X113363333Y-99103333D01*
X113506191Y-99103333D01*
X113601429Y-99150952D01*
X113649048Y-99198571D01*
X113696667Y-99293810D01*
X113696667Y-99531905D01*
X113649048Y-99627143D01*
X113601429Y-99674762D01*
X113506191Y-99722381D01*
X113220476Y-99722381D01*
X113125238Y-99674762D01*
X113077619Y-99627143D01*
X112696667Y-84752381D02*
X112696667Y-85466667D01*
X112649047Y-85609524D01*
X112553809Y-85704762D01*
X112410952Y-85752381D01*
X112315714Y-85752381D01*
X113601429Y-85085714D02*
X113601429Y-85752381D01*
X113363333Y-84704762D02*
X113125238Y-85419048D01*
X113744286Y-85419048D01*
X181062381Y-90503333D02*
X181776667Y-90503333D01*
X181919524Y-90550953D01*
X182014762Y-90646191D01*
X182062381Y-90789048D01*
X182062381Y-90884286D01*
X181062381Y-89550952D02*
X181062381Y-90027143D01*
X181538571Y-90074762D01*
X181490952Y-90027143D01*
X181443333Y-89931905D01*
X181443333Y-89693809D01*
X181490952Y-89598571D01*
X181538571Y-89550952D01*
X181633810Y-89503333D01*
X181871905Y-89503333D01*
X181967143Y-89550952D01*
X182014762Y-89598571D01*
X182062381Y-89693809D01*
X182062381Y-89931905D01*
X182014762Y-90027143D01*
X181967143Y-90074762D01*
X181062381Y-107013333D02*
X181776667Y-107013333D01*
X181919524Y-107060953D01*
X182014762Y-107156191D01*
X182062381Y-107299048D01*
X182062381Y-107394286D01*
X181062381Y-106108571D02*
X181062381Y-106299048D01*
X181110000Y-106394286D01*
X181157619Y-106441905D01*
X181300476Y-106537143D01*
X181490952Y-106584762D01*
X181871905Y-106584762D01*
X181967143Y-106537143D01*
X182014762Y-106489524D01*
X182062381Y-106394286D01*
X182062381Y-106203809D01*
X182014762Y-106108571D01*
X181967143Y-106060952D01*
X181871905Y-106013333D01*
X181633810Y-106013333D01*
X181538571Y-106060952D01*
X181490952Y-106108571D01*
X181443333Y-106203809D01*
X181443333Y-106394286D01*
X181490952Y-106489524D01*
X181538571Y-106537143D01*
X181633810Y-106584762D01*
X119975334Y-117120381D02*
X119642000Y-116644190D01*
X119403905Y-117120381D02*
X119403905Y-116120381D01*
X119784858Y-116120381D01*
X119880096Y-116168000D01*
X119927715Y-116215619D01*
X119975334Y-116310857D01*
X119975334Y-116453714D01*
X119927715Y-116548952D01*
X119880096Y-116596571D01*
X119784858Y-116644190D01*
X119403905Y-116644190D01*
X120927715Y-117120381D02*
X120356286Y-117120381D01*
X120642000Y-117120381D02*
X120642000Y-116120381D01*
X120546762Y-116263238D01*
X120451524Y-116358476D01*
X120356286Y-116406095D01*
X131913334Y-93752381D02*
X131580000Y-93276190D01*
X131341905Y-93752381D02*
X131341905Y-92752381D01*
X131722858Y-92752381D01*
X131818096Y-92800000D01*
X131865715Y-92847619D01*
X131913334Y-92942857D01*
X131913334Y-93085714D01*
X131865715Y-93180952D01*
X131818096Y-93228571D01*
X131722858Y-93276190D01*
X131341905Y-93276190D01*
X132294286Y-92847619D02*
X132341905Y-92800000D01*
X132437143Y-92752381D01*
X132675239Y-92752381D01*
X132770477Y-92800000D01*
X132818096Y-92847619D01*
X132865715Y-92942857D01*
X132865715Y-93038095D01*
X132818096Y-93180952D01*
X132246667Y-93752381D01*
X132865715Y-93752381D01*
X131913334Y-91212381D02*
X131580000Y-90736190D01*
X131341905Y-91212381D02*
X131341905Y-90212381D01*
X131722858Y-90212381D01*
X131818096Y-90260000D01*
X131865715Y-90307619D01*
X131913334Y-90402857D01*
X131913334Y-90545714D01*
X131865715Y-90640952D01*
X131818096Y-90688571D01*
X131722858Y-90736190D01*
X131341905Y-90736190D01*
X132246667Y-90212381D02*
X132865715Y-90212381D01*
X132532381Y-90593333D01*
X132675239Y-90593333D01*
X132770477Y-90640952D01*
X132818096Y-90688571D01*
X132865715Y-90783810D01*
X132865715Y-91021905D01*
X132818096Y-91117143D01*
X132770477Y-91164762D01*
X132675239Y-91212381D01*
X132389524Y-91212381D01*
X132294286Y-91164762D01*
X132246667Y-91117143D01*
X131913334Y-108992381D02*
X131580000Y-108516190D01*
X131341905Y-108992381D02*
X131341905Y-107992381D01*
X131722858Y-107992381D01*
X131818096Y-108040000D01*
X131865715Y-108087619D01*
X131913334Y-108182857D01*
X131913334Y-108325714D01*
X131865715Y-108420952D01*
X131818096Y-108468571D01*
X131722858Y-108516190D01*
X131341905Y-108516190D01*
X132770477Y-108325714D02*
X132770477Y-108992381D01*
X132532381Y-107944762D02*
X132294286Y-108659048D01*
X132913334Y-108659048D01*
X131913334Y-106452381D02*
X131580000Y-105976190D01*
X131341905Y-106452381D02*
X131341905Y-105452381D01*
X131722858Y-105452381D01*
X131818096Y-105500000D01*
X131865715Y-105547619D01*
X131913334Y-105642857D01*
X131913334Y-105785714D01*
X131865715Y-105880952D01*
X131818096Y-105928571D01*
X131722858Y-105976190D01*
X131341905Y-105976190D01*
X132818096Y-105452381D02*
X132341905Y-105452381D01*
X132294286Y-105928571D01*
X132341905Y-105880952D01*
X132437143Y-105833333D01*
X132675239Y-105833333D01*
X132770477Y-105880952D01*
X132818096Y-105928571D01*
X132865715Y-106023810D01*
X132865715Y-106261905D01*
X132818096Y-106357143D01*
X132770477Y-106404762D01*
X132675239Y-106452381D01*
X132437143Y-106452381D01*
X132341905Y-106404762D01*
X132294286Y-106357143D01*
X136993334Y-93752381D02*
X136660000Y-93276190D01*
X136421905Y-93752381D02*
X136421905Y-92752381D01*
X136802858Y-92752381D01*
X136898096Y-92800000D01*
X136945715Y-92847619D01*
X136993334Y-92942857D01*
X136993334Y-93085714D01*
X136945715Y-93180952D01*
X136898096Y-93228571D01*
X136802858Y-93276190D01*
X136421905Y-93276190D01*
X137850477Y-92752381D02*
X137660000Y-92752381D01*
X137564762Y-92800000D01*
X137517143Y-92847619D01*
X137421905Y-92990476D01*
X137374286Y-93180952D01*
X137374286Y-93561905D01*
X137421905Y-93657143D01*
X137469524Y-93704762D01*
X137564762Y-93752381D01*
X137755239Y-93752381D01*
X137850477Y-93704762D01*
X137898096Y-93657143D01*
X137945715Y-93561905D01*
X137945715Y-93323810D01*
X137898096Y-93228571D01*
X137850477Y-93180952D01*
X137755239Y-93133333D01*
X137564762Y-93133333D01*
X137469524Y-93180952D01*
X137421905Y-93228571D01*
X137374286Y-93323810D01*
X136993334Y-87492381D02*
X136660000Y-87016190D01*
X136421905Y-87492381D02*
X136421905Y-86492381D01*
X136802858Y-86492381D01*
X136898096Y-86540000D01*
X136945715Y-86587619D01*
X136993334Y-86682857D01*
X136993334Y-86825714D01*
X136945715Y-86920952D01*
X136898096Y-86968571D01*
X136802858Y-87016190D01*
X136421905Y-87016190D01*
X137326667Y-86492381D02*
X137993334Y-86492381D01*
X137564762Y-87492381D01*
X136993334Y-102732381D02*
X136660000Y-102256190D01*
X136421905Y-102732381D02*
X136421905Y-101732381D01*
X136802858Y-101732381D01*
X136898096Y-101780000D01*
X136945715Y-101827619D01*
X136993334Y-101922857D01*
X136993334Y-102065714D01*
X136945715Y-102160952D01*
X136898096Y-102208571D01*
X136802858Y-102256190D01*
X136421905Y-102256190D01*
X137469524Y-102732381D02*
X137660000Y-102732381D01*
X137755239Y-102684762D01*
X137802858Y-102637143D01*
X137898096Y-102494286D01*
X137945715Y-102303810D01*
X137945715Y-101922857D01*
X137898096Y-101827619D01*
X137850477Y-101780000D01*
X137755239Y-101732381D01*
X137564762Y-101732381D01*
X137469524Y-101780000D01*
X137421905Y-101827619D01*
X137374286Y-101922857D01*
X137374286Y-102160952D01*
X137421905Y-102256190D01*
X137469524Y-102303810D01*
X137564762Y-102351429D01*
X137755239Y-102351429D01*
X137850477Y-102303810D01*
X137898096Y-102256190D01*
X137945715Y-102160952D01*
X141597143Y-90032381D02*
X141263809Y-89556190D01*
X141025714Y-90032381D02*
X141025714Y-89032381D01*
X141406667Y-89032381D01*
X141501905Y-89080000D01*
X141549524Y-89127619D01*
X141597143Y-89222857D01*
X141597143Y-89365714D01*
X141549524Y-89460952D01*
X141501905Y-89508571D01*
X141406667Y-89556190D01*
X141025714Y-89556190D01*
X142549524Y-90032381D02*
X141978095Y-90032381D01*
X142263809Y-90032381D02*
X142263809Y-89032381D01*
X142168571Y-89175238D01*
X142073333Y-89270476D01*
X141978095Y-89318095D01*
X143168571Y-89032381D02*
X143263810Y-89032381D01*
X143359048Y-89080000D01*
X143406667Y-89127619D01*
X143454286Y-89222857D01*
X143501905Y-89413333D01*
X143501905Y-89651429D01*
X143454286Y-89841905D01*
X143406667Y-89937143D01*
X143359048Y-89984762D01*
X143263810Y-90032381D01*
X143168571Y-90032381D01*
X143073333Y-89984762D01*
X143025714Y-89937143D01*
X142978095Y-89841905D01*
X142930476Y-89651429D01*
X142930476Y-89413333D01*
X142978095Y-89222857D01*
X143025714Y-89127619D01*
X143073333Y-89080000D01*
X143168571Y-89032381D01*
X141597143Y-87492381D02*
X141263809Y-87016190D01*
X141025714Y-87492381D02*
X141025714Y-86492381D01*
X141406667Y-86492381D01*
X141501905Y-86540000D01*
X141549524Y-86587619D01*
X141597143Y-86682857D01*
X141597143Y-86825714D01*
X141549524Y-86920952D01*
X141501905Y-86968571D01*
X141406667Y-87016190D01*
X141025714Y-87016190D01*
X142549524Y-87492381D02*
X141978095Y-87492381D01*
X142263809Y-87492381D02*
X142263809Y-86492381D01*
X142168571Y-86635238D01*
X142073333Y-86730476D01*
X141978095Y-86778095D01*
X143501905Y-87492381D02*
X142930476Y-87492381D01*
X143216190Y-87492381D02*
X143216190Y-86492381D01*
X143120952Y-86635238D01*
X143025714Y-86730476D01*
X142930476Y-86778095D01*
X141597143Y-105272381D02*
X141263809Y-104796190D01*
X141025714Y-105272381D02*
X141025714Y-104272381D01*
X141406667Y-104272381D01*
X141501905Y-104320000D01*
X141549524Y-104367619D01*
X141597143Y-104462857D01*
X141597143Y-104605714D01*
X141549524Y-104700952D01*
X141501905Y-104748571D01*
X141406667Y-104796190D01*
X141025714Y-104796190D01*
X142549524Y-105272381D02*
X141978095Y-105272381D01*
X142263809Y-105272381D02*
X142263809Y-104272381D01*
X142168571Y-104415238D01*
X142073333Y-104510476D01*
X141978095Y-104558095D01*
X142930476Y-104367619D02*
X142978095Y-104320000D01*
X143073333Y-104272381D01*
X143311429Y-104272381D01*
X143406667Y-104320000D01*
X143454286Y-104367619D01*
X143501905Y-104462857D01*
X143501905Y-104558095D01*
X143454286Y-104700952D01*
X142882857Y-105272381D01*
X143501905Y-105272381D01*
X141597143Y-102732381D02*
X141263809Y-102256190D01*
X141025714Y-102732381D02*
X141025714Y-101732381D01*
X141406667Y-101732381D01*
X141501905Y-101780000D01*
X141549524Y-101827619D01*
X141597143Y-101922857D01*
X141597143Y-102065714D01*
X141549524Y-102160952D01*
X141501905Y-102208571D01*
X141406667Y-102256190D01*
X141025714Y-102256190D01*
X142549524Y-102732381D02*
X141978095Y-102732381D01*
X142263809Y-102732381D02*
X142263809Y-101732381D01*
X142168571Y-101875238D01*
X142073333Y-101970476D01*
X141978095Y-102018095D01*
X142882857Y-101732381D02*
X143501905Y-101732381D01*
X143168571Y-102113333D01*
X143311429Y-102113333D01*
X143406667Y-102160952D01*
X143454286Y-102208571D01*
X143501905Y-102303810D01*
X143501905Y-102541905D01*
X143454286Y-102637143D01*
X143406667Y-102684762D01*
X143311429Y-102732381D01*
X143025714Y-102732381D01*
X142930476Y-102684762D01*
X142882857Y-102637143D01*
X179697143Y-76882381D02*
X179363809Y-76406190D01*
X179125714Y-76882381D02*
X179125714Y-75882381D01*
X179506667Y-75882381D01*
X179601905Y-75930000D01*
X179649524Y-75977619D01*
X179697143Y-76072857D01*
X179697143Y-76215714D01*
X179649524Y-76310952D01*
X179601905Y-76358571D01*
X179506667Y-76406190D01*
X179125714Y-76406190D01*
X180649524Y-76882381D02*
X180078095Y-76882381D01*
X180363809Y-76882381D02*
X180363809Y-75882381D01*
X180268571Y-76025238D01*
X180173333Y-76120476D01*
X180078095Y-76168095D01*
X181506667Y-76215714D02*
X181506667Y-76882381D01*
X181268571Y-75834762D02*
X181030476Y-76549048D01*
X181649524Y-76549048D01*
X186047143Y-85312381D02*
X185713809Y-84836190D01*
X185475714Y-85312381D02*
X185475714Y-84312381D01*
X185856667Y-84312381D01*
X185951905Y-84360000D01*
X185999524Y-84407619D01*
X186047143Y-84502857D01*
X186047143Y-84645714D01*
X185999524Y-84740952D01*
X185951905Y-84788571D01*
X185856667Y-84836190D01*
X185475714Y-84836190D01*
X186999524Y-85312381D02*
X186428095Y-85312381D01*
X186713809Y-85312381D02*
X186713809Y-84312381D01*
X186618571Y-84455238D01*
X186523333Y-84550476D01*
X186428095Y-84598095D01*
X187904286Y-84312381D02*
X187428095Y-84312381D01*
X187380476Y-84788571D01*
X187428095Y-84740952D01*
X187523333Y-84693333D01*
X187761429Y-84693333D01*
X187856667Y-84740952D01*
X187904286Y-84788571D01*
X187951905Y-84883810D01*
X187951905Y-85121905D01*
X187904286Y-85217143D01*
X187856667Y-85264762D01*
X187761429Y-85312381D01*
X187523333Y-85312381D01*
X187428095Y-85264762D01*
X187380476Y-85217143D01*
X186047143Y-112442381D02*
X185713809Y-111966190D01*
X185475714Y-112442381D02*
X185475714Y-111442381D01*
X185856667Y-111442381D01*
X185951905Y-111490000D01*
X185999524Y-111537619D01*
X186047143Y-111632857D01*
X186047143Y-111775714D01*
X185999524Y-111870952D01*
X185951905Y-111918571D01*
X185856667Y-111966190D01*
X185475714Y-111966190D01*
X186999524Y-112442381D02*
X186428095Y-112442381D01*
X186713809Y-112442381D02*
X186713809Y-111442381D01*
X186618571Y-111585238D01*
X186523333Y-111680476D01*
X186428095Y-111728095D01*
X187856667Y-111442381D02*
X187666190Y-111442381D01*
X187570952Y-111490000D01*
X187523333Y-111537619D01*
X187428095Y-111680476D01*
X187380476Y-111870952D01*
X187380476Y-112251905D01*
X187428095Y-112347143D01*
X187475714Y-112394762D01*
X187570952Y-112442381D01*
X187761429Y-112442381D01*
X187856667Y-112394762D01*
X187904286Y-112347143D01*
X187951905Y-112251905D01*
X187951905Y-112013810D01*
X187904286Y-111918571D01*
X187856667Y-111870952D01*
X187761429Y-111823333D01*
X187570952Y-111823333D01*
X187475714Y-111870952D01*
X187428095Y-111918571D01*
X187380476Y-112013810D01*
X179697143Y-120872381D02*
X179363809Y-120396190D01*
X179125714Y-120872381D02*
X179125714Y-119872381D01*
X179506667Y-119872381D01*
X179601905Y-119920000D01*
X179649524Y-119967619D01*
X179697143Y-120062857D01*
X179697143Y-120205714D01*
X179649524Y-120300952D01*
X179601905Y-120348571D01*
X179506667Y-120396190D01*
X179125714Y-120396190D01*
X180649524Y-120872381D02*
X180078095Y-120872381D01*
X180363809Y-120872381D02*
X180363809Y-119872381D01*
X180268571Y-120015238D01*
X180173333Y-120110476D01*
X180078095Y-120158095D01*
X180982857Y-119872381D02*
X181649524Y-119872381D01*
X181220952Y-120872381D01*
X144442381Y-98551905D02*
X145251905Y-98551905D01*
X145347143Y-98504286D01*
X145394762Y-98456667D01*
X145442381Y-98361429D01*
X145442381Y-98170952D01*
X145394762Y-98075714D01*
X145347143Y-98028095D01*
X145251905Y-97980476D01*
X144442381Y-97980476D01*
X145442381Y-96980476D02*
X145442381Y-97551905D01*
X145442381Y-97266191D02*
X144442381Y-97266191D01*
X144585238Y-97361429D01*
X144680476Y-97456667D01*
X144728095Y-97551905D01*
X122428095Y-83482381D02*
X122428095Y-84291905D01*
X122475714Y-84387143D01*
X122523333Y-84434762D01*
X122618571Y-84482381D01*
X122809048Y-84482381D01*
X122904286Y-84434762D01*
X122951905Y-84387143D01*
X122999524Y-84291905D01*
X122999524Y-83482381D01*
X123428095Y-83577619D02*
X123475714Y-83530000D01*
X123570952Y-83482381D01*
X123809048Y-83482381D01*
X123904286Y-83530000D01*
X123951905Y-83577619D01*
X123999524Y-83672857D01*
X123999524Y-83768095D01*
X123951905Y-83910952D01*
X123380476Y-84482381D01*
X123999524Y-84482381D01*
X170692381Y-85851905D02*
X171501905Y-85851905D01*
X171597143Y-85804286D01*
X171644762Y-85756667D01*
X171692381Y-85661429D01*
X171692381Y-85470952D01*
X171644762Y-85375714D01*
X171597143Y-85328095D01*
X171501905Y-85280476D01*
X170692381Y-85280476D01*
X170692381Y-84899524D02*
X170692381Y-84280476D01*
X171073333Y-84613810D01*
X171073333Y-84470952D01*
X171120952Y-84375714D01*
X171168571Y-84328095D01*
X171263810Y-84280476D01*
X171501905Y-84280476D01*
X171597143Y-84328095D01*
X171644762Y-84375714D01*
X171692381Y-84470952D01*
X171692381Y-84756667D01*
X171644762Y-84851905D01*
X171597143Y-84899524D01*
X170692381Y-112521905D02*
X171501905Y-112521905D01*
X171597143Y-112474286D01*
X171644762Y-112426667D01*
X171692381Y-112331429D01*
X171692381Y-112140952D01*
X171644762Y-112045714D01*
X171597143Y-111998095D01*
X171501905Y-111950476D01*
X170692381Y-111950476D01*
X171025714Y-111045714D02*
X171692381Y-111045714D01*
X170644762Y-111283810D02*
X171359048Y-111521905D01*
X171359048Y-110902857D01*
M02*
