M48
;DRILL file {KiCad 4.0.7} date 04/02/18 12:26:09
;FORMAT={-:-/ absolute / inch / decimal}
FMAT,2
INCH,TZ
T1C0.028
T2C0.031
T3C0.032
T4C0.035
T5C0.039
T6C0.047
%
G90
G05
M72
T1
X4.82Y-4.5
X4.92Y-4.5
X5.15Y-3.5
X5.15Y-3.6
X5.15Y-4.1
X5.15Y-4.2
X5.25Y-3.5
X5.25Y-3.6
X5.25Y-4.1
X5.25Y-4.2
X5.35Y-3.5
X5.35Y-3.6
X5.35Y-4.1
X5.35Y-4.2
X5.45Y-3.5
X5.45Y-3.6
X5.45Y-4.1
X5.45Y-4.2
X5.55Y-3.5
X5.55Y-3.6
X5.55Y-4.1
X5.55Y-4.2
X5.65Y-3.5
X5.65Y-3.6
X5.65Y-4.1
X5.65Y-4.2
T2
X4.5Y-3.3631
X4.5Y-3.56
X4.5Y-3.7031
X4.5Y-3.9
X4.7Y-3.4
X4.7Y-3.5
X4.7Y-3.6
X4.7Y-3.7
X4.7Y-3.8
X4.7Y-3.9
X4.7Y-4.
X4.7Y-4.1
X4.7Y-4.2
X4.7Y-4.3
X5.Y-3.4
X5.Y-3.5
X5.Y-3.6
X5.Y-3.7
X5.Y-3.8
X5.Y-3.9
X5.Y-4.
X5.Y-4.1
X5.Y-4.2
X5.Y-4.3
X5.15Y-4.35
X5.1531Y-3.35
X5.1531Y-3.75
X5.1531Y-3.95
X5.3469Y-4.35
X5.35Y-3.35
X5.35Y-3.75
X5.35Y-3.95
X5.45Y-3.35
X5.4531Y-3.75
X5.4531Y-3.95
X5.4531Y-4.35
X5.6469Y-3.35
X5.65Y-3.75
X5.65Y-3.95
X5.65Y-4.35
X5.81Y-3.69
X5.81Y-3.99
X5.8131Y-3.25
X5.91Y-3.69
X5.91Y-3.99
X6.Y-4.3
X6.0031Y-3.45
X6.01Y-3.25
X6.01Y-3.69
X6.01Y-3.99
X6.11Y-3.69
X6.11Y-3.99
X6.1969Y-4.3
X6.2Y-3.45
X6.2631Y-3.74
X6.2631Y-4.02
X6.35Y-3.2
X6.35Y-3.5
X6.35Y-4.25
X6.35Y-4.55
X6.45Y-3.2
X6.45Y-3.5
X6.45Y-4.25
X6.45Y-4.55
X6.46Y-3.74
X6.46Y-4.02
X6.55Y-3.2
X6.55Y-3.5
X6.55Y-4.25
X6.55Y-4.55
X6.6Y-4.02
X6.6031Y-3.74
X6.65Y-3.2
X6.65Y-3.5
X6.65Y-4.25
X6.65Y-4.55
X6.7969Y-4.02
X6.8Y-3.74
X6.82Y-3.14
X6.82Y-3.3369
X6.82Y-4.4831
X6.82Y-4.68
X6.96Y-3.22
X6.96Y-3.78
X6.96Y-4.1
X6.96Y-4.66
X7.06Y-3.22
X7.06Y-3.78
X7.06Y-4.1
X7.06Y-4.66
X7.22Y-3.22
X7.22Y-3.78
X7.22Y-4.1
X7.22Y-4.66
X7.62Y-3.22
X7.62Y-3.78
X7.62Y-4.1
X7.62Y-4.66
T3
X4.875Y-2.98
X5.Y-2.98
X5.06Y-3.075
X5.125Y-2.98
X5.185Y-3.075
X5.31Y-3.075
T4
X6.96Y-3.4
X6.96Y-3.6
X6.96Y-4.28
X6.96Y-4.48
X7.06Y-3.4
X7.06Y-3.6
X7.06Y-4.28
X7.06Y-4.48
X7.16Y-3.4
X7.16Y-3.6
X7.16Y-4.28
X7.16Y-4.48
T5
X4.48Y-3.16
X4.49Y-4.09
X4.49Y-4.19
X4.49Y-4.29
X4.49Y-4.39
X4.58Y-3.16
X4.68Y-3.16
X4.78Y-3.16
T6
X7.44Y-3.4
X7.44Y-3.5
X7.44Y-3.6
X7.44Y-4.28
X7.44Y-4.38
X7.44Y-4.48
T0
M30
