G04 #@! TF.FileFunction,Legend,Top*
%FSLAX46Y46*%
G04 Gerber Fmt 4.6, Leading zero omitted, Abs format (unit mm)*
G04 Created by KiCad (PCBNEW 4.0.7) date 03/30/18 11:02:30*
%MOMM*%
%LPD*%
G01*
G04 APERTURE LIST*
%ADD10C,0.100000*%
%ADD11C,0.150000*%
%ADD12C,0.300000*%
%ADD13C,0.120000*%
G04 APERTURE END LIST*
D10*
D11*
X108736000Y-111958381D02*
X108736000Y-110958381D01*
X108974095Y-110958381D01*
X109116953Y-111006000D01*
X109212191Y-111101238D01*
X109259810Y-111196476D01*
X109307429Y-111386952D01*
X109307429Y-111529810D01*
X109259810Y-111720286D01*
X109212191Y-111815524D01*
X109116953Y-111910762D01*
X108974095Y-111958381D01*
X108736000Y-111958381D01*
X109688381Y-111672667D02*
X110164572Y-111672667D01*
X109593143Y-111958381D02*
X109926476Y-110958381D01*
X110259810Y-111958381D01*
X110450286Y-110958381D02*
X111021715Y-110958381D01*
X110736000Y-111958381D02*
X110736000Y-110958381D01*
X111307429Y-111672667D02*
X111783620Y-111672667D01*
X111212191Y-111958381D02*
X111545524Y-110958381D01*
X111878858Y-111958381D01*
X108902667Y-108894571D02*
X109045524Y-108942190D01*
X109093143Y-108989810D01*
X109140762Y-109085048D01*
X109140762Y-109227905D01*
X109093143Y-109323143D01*
X109045524Y-109370762D01*
X108950286Y-109418381D01*
X108569333Y-109418381D01*
X108569333Y-108418381D01*
X108902667Y-108418381D01*
X108997905Y-108466000D01*
X109045524Y-108513619D01*
X109093143Y-108608857D01*
X109093143Y-108704095D01*
X109045524Y-108799333D01*
X108997905Y-108846952D01*
X108902667Y-108894571D01*
X108569333Y-108894571D01*
X110140762Y-109323143D02*
X110093143Y-109370762D01*
X109950286Y-109418381D01*
X109855048Y-109418381D01*
X109712190Y-109370762D01*
X109616952Y-109275524D01*
X109569333Y-109180286D01*
X109521714Y-108989810D01*
X109521714Y-108846952D01*
X109569333Y-108656476D01*
X109616952Y-108561238D01*
X109712190Y-108466000D01*
X109855048Y-108418381D01*
X109950286Y-108418381D01*
X110093143Y-108466000D01*
X110140762Y-108513619D01*
X111045524Y-109418381D02*
X110569333Y-109418381D01*
X110569333Y-108418381D01*
X111378857Y-109418381D02*
X111378857Y-108418381D01*
X111950286Y-109418381D02*
X111521714Y-108846952D01*
X111950286Y-108418381D02*
X111378857Y-108989810D01*
X108497905Y-106878381D02*
X108497905Y-105878381D01*
X108831239Y-106592667D01*
X109164572Y-105878381D01*
X109164572Y-106878381D01*
X110212191Y-106783143D02*
X110164572Y-106830762D01*
X110021715Y-106878381D01*
X109926477Y-106878381D01*
X109783619Y-106830762D01*
X109688381Y-106735524D01*
X109640762Y-106640286D01*
X109593143Y-106449810D01*
X109593143Y-106306952D01*
X109640762Y-106116476D01*
X109688381Y-106021238D01*
X109783619Y-105926000D01*
X109926477Y-105878381D01*
X110021715Y-105878381D01*
X110164572Y-105926000D01*
X110212191Y-105973619D01*
X111116953Y-106878381D02*
X110640762Y-106878381D01*
X110640762Y-105878381D01*
X111450286Y-106878381D02*
X111450286Y-105878381D01*
X112021715Y-106878381D02*
X111593143Y-106306952D01*
X112021715Y-105878381D02*
X111450286Y-106449810D01*
X109045524Y-104338381D02*
X108569333Y-104338381D01*
X108569333Y-103338381D01*
X109950286Y-104338381D02*
X109616952Y-103862190D01*
X109378857Y-104338381D02*
X109378857Y-103338381D01*
X109759810Y-103338381D01*
X109855048Y-103386000D01*
X109902667Y-103433619D01*
X109950286Y-103528857D01*
X109950286Y-103671714D01*
X109902667Y-103766952D01*
X109855048Y-103814571D01*
X109759810Y-103862190D01*
X109378857Y-103862190D01*
X110950286Y-104243143D02*
X110902667Y-104290762D01*
X110759810Y-104338381D01*
X110664572Y-104338381D01*
X110521714Y-104290762D01*
X110426476Y-104195524D01*
X110378857Y-104100286D01*
X110331238Y-103909810D01*
X110331238Y-103766952D01*
X110378857Y-103576476D01*
X110426476Y-103481238D01*
X110521714Y-103386000D01*
X110664572Y-103338381D01*
X110759810Y-103338381D01*
X110902667Y-103386000D01*
X110950286Y-103433619D01*
X111378857Y-104338381D02*
X111378857Y-103338381D01*
X111950286Y-104338381D02*
X111521714Y-103766952D01*
X111950286Y-103338381D02*
X111378857Y-103909810D01*
X121031048Y-78049429D02*
X121792953Y-78049429D01*
X121412001Y-78430381D02*
X121412001Y-77668476D01*
X118681524Y-77430381D02*
X118205333Y-77430381D01*
X118157714Y-77906571D01*
X118205333Y-77858952D01*
X118300571Y-77811333D01*
X118538667Y-77811333D01*
X118633905Y-77858952D01*
X118681524Y-77906571D01*
X118729143Y-78001810D01*
X118729143Y-78239905D01*
X118681524Y-78335143D01*
X118633905Y-78382762D01*
X118538667Y-78430381D01*
X118300571Y-78430381D01*
X118205333Y-78382762D01*
X118157714Y-78335143D01*
X119014857Y-77430381D02*
X119348190Y-78430381D01*
X119681524Y-77430381D01*
X116593905Y-77478000D02*
X116498667Y-77430381D01*
X116355810Y-77430381D01*
X116212952Y-77478000D01*
X116117714Y-77573238D01*
X116070095Y-77668476D01*
X116022476Y-77858952D01*
X116022476Y-78001810D01*
X116070095Y-78192286D01*
X116117714Y-78287524D01*
X116212952Y-78382762D01*
X116355810Y-78430381D01*
X116451048Y-78430381D01*
X116593905Y-78382762D01*
X116641524Y-78335143D01*
X116641524Y-78001810D01*
X116451048Y-78001810D01*
X113157048Y-78049429D02*
X113918953Y-78049429D01*
D12*
X170729143Y-74108571D02*
X171729143Y-74108571D01*
X170729143Y-75608571D01*
X171729143Y-75608571D01*
X172586285Y-74108571D02*
X172871999Y-74108571D01*
X173014857Y-74180000D01*
X173157714Y-74322857D01*
X173229142Y-74608571D01*
X173229142Y-75108571D01*
X173157714Y-75394286D01*
X173014857Y-75537143D01*
X172871999Y-75608571D01*
X172586285Y-75608571D01*
X172443428Y-75537143D01*
X172300571Y-75394286D01*
X172229142Y-75108571D01*
X172229142Y-74608571D01*
X172300571Y-74322857D01*
X172443428Y-74180000D01*
X172586285Y-74108571D01*
X173800571Y-75537143D02*
X174014857Y-75608571D01*
X174372000Y-75608571D01*
X174514857Y-75537143D01*
X174586286Y-75465714D01*
X174657714Y-75322857D01*
X174657714Y-75180000D01*
X174586286Y-75037143D01*
X174514857Y-74965714D01*
X174372000Y-74894286D01*
X174086286Y-74822857D01*
X173943428Y-74751429D01*
X173872000Y-74680000D01*
X173800571Y-74537143D01*
X173800571Y-74394286D01*
X173872000Y-74251429D01*
X173943428Y-74180000D01*
X174086286Y-74108571D01*
X174443428Y-74108571D01*
X174657714Y-74180000D01*
X175300571Y-74822857D02*
X175800571Y-74822857D01*
X176014857Y-75608571D02*
X175300571Y-75608571D01*
X175300571Y-74108571D01*
X176014857Y-74108571D01*
X178514857Y-75608571D02*
X177800571Y-75608571D01*
X177800571Y-74108571D01*
X179014857Y-75608571D02*
X179014857Y-74608571D01*
X179014857Y-74108571D02*
X178943428Y-74180000D01*
X179014857Y-74251429D01*
X179086285Y-74180000D01*
X179014857Y-74108571D01*
X179014857Y-74251429D01*
X179729143Y-74608571D02*
X179729143Y-75608571D01*
X179729143Y-74751429D02*
X179800571Y-74680000D01*
X179943429Y-74608571D01*
X180157714Y-74608571D01*
X180300571Y-74680000D01*
X180372000Y-74822857D01*
X180372000Y-75608571D01*
X181657714Y-75537143D02*
X181514857Y-75608571D01*
X181229143Y-75608571D01*
X181086286Y-75537143D01*
X181014857Y-75394286D01*
X181014857Y-74822857D01*
X181086286Y-74680000D01*
X181229143Y-74608571D01*
X181514857Y-74608571D01*
X181657714Y-74680000D01*
X181729143Y-74822857D01*
X181729143Y-74965714D01*
X181014857Y-75108571D01*
X183729143Y-75608571D02*
X183586285Y-75537143D01*
X183514857Y-75465714D01*
X183443428Y-75322857D01*
X183443428Y-74894286D01*
X183514857Y-74751429D01*
X183586285Y-74680000D01*
X183729143Y-74608571D01*
X183943428Y-74608571D01*
X184086285Y-74680000D01*
X184157714Y-74751429D01*
X184229143Y-74894286D01*
X184229143Y-75322857D01*
X184157714Y-75465714D01*
X184086285Y-75537143D01*
X183943428Y-75608571D01*
X183729143Y-75608571D01*
X185514857Y-74608571D02*
X185514857Y-75608571D01*
X184872000Y-74608571D02*
X184872000Y-75394286D01*
X184943428Y-75537143D01*
X185086286Y-75608571D01*
X185300571Y-75608571D01*
X185443428Y-75537143D01*
X185514857Y-75465714D01*
X186014857Y-74608571D02*
X186586286Y-74608571D01*
X186229143Y-74108571D02*
X186229143Y-75394286D01*
X186300571Y-75537143D01*
X186443429Y-75608571D01*
X186586286Y-75608571D01*
X188229143Y-75608571D02*
X188229143Y-74108571D01*
X188229143Y-74680000D02*
X188372000Y-74608571D01*
X188657714Y-74608571D01*
X188800571Y-74680000D01*
X188872000Y-74751429D01*
X188943429Y-74894286D01*
X188943429Y-75322857D01*
X188872000Y-75465714D01*
X188800571Y-75537143D01*
X188657714Y-75608571D01*
X188372000Y-75608571D01*
X188229143Y-75537143D01*
X189800572Y-75608571D02*
X189657714Y-75537143D01*
X189586286Y-75465714D01*
X189514857Y-75322857D01*
X189514857Y-74894286D01*
X189586286Y-74751429D01*
X189657714Y-74680000D01*
X189800572Y-74608571D01*
X190014857Y-74608571D01*
X190157714Y-74680000D01*
X190229143Y-74751429D01*
X190300572Y-74894286D01*
X190300572Y-75322857D01*
X190229143Y-75465714D01*
X190157714Y-75537143D01*
X190014857Y-75608571D01*
X189800572Y-75608571D01*
X191586286Y-75608571D02*
X191586286Y-74822857D01*
X191514857Y-74680000D01*
X191372000Y-74608571D01*
X191086286Y-74608571D01*
X190943429Y-74680000D01*
X191586286Y-75537143D02*
X191443429Y-75608571D01*
X191086286Y-75608571D01*
X190943429Y-75537143D01*
X190872000Y-75394286D01*
X190872000Y-75251429D01*
X190943429Y-75108571D01*
X191086286Y-75037143D01*
X191443429Y-75037143D01*
X191586286Y-74965714D01*
X192300572Y-75608571D02*
X192300572Y-74608571D01*
X192300572Y-74894286D02*
X192372000Y-74751429D01*
X192443429Y-74680000D01*
X192586286Y-74608571D01*
X192729143Y-74608571D01*
X193872000Y-75608571D02*
X193872000Y-74108571D01*
X193872000Y-75537143D02*
X193729143Y-75608571D01*
X193443429Y-75608571D01*
X193300571Y-75537143D01*
X193229143Y-75465714D01*
X193157714Y-75322857D01*
X193157714Y-74894286D01*
X193229143Y-74751429D01*
X193300571Y-74680000D01*
X193443429Y-74608571D01*
X193729143Y-74608571D01*
X193872000Y-74680000D01*
X116213715Y-120566571D02*
X116213715Y-119066571D01*
X117713715Y-119138000D02*
X117570858Y-119066571D01*
X117356572Y-119066571D01*
X117142287Y-119138000D01*
X116999429Y-119280857D01*
X116928001Y-119423714D01*
X116856572Y-119709429D01*
X116856572Y-119923714D01*
X116928001Y-120209429D01*
X116999429Y-120352286D01*
X117142287Y-120495143D01*
X117356572Y-120566571D01*
X117499429Y-120566571D01*
X117713715Y-120495143D01*
X117785144Y-120423714D01*
X117785144Y-119923714D01*
X117499429Y-119923714D01*
X118428001Y-120566571D02*
X118428001Y-119066571D01*
X119285144Y-120566571D01*
X119285144Y-119066571D01*
X121999430Y-120566571D02*
X121499430Y-119852286D01*
X121142287Y-120566571D02*
X121142287Y-119066571D01*
X121713715Y-119066571D01*
X121856573Y-119138000D01*
X121928001Y-119209429D01*
X121999430Y-119352286D01*
X121999430Y-119566571D01*
X121928001Y-119709429D01*
X121856573Y-119780857D01*
X121713715Y-119852286D01*
X121142287Y-119852286D01*
X123213715Y-120495143D02*
X123070858Y-120566571D01*
X122785144Y-120566571D01*
X122642287Y-120495143D01*
X122570858Y-120352286D01*
X122570858Y-119780857D01*
X122642287Y-119638000D01*
X122785144Y-119566571D01*
X123070858Y-119566571D01*
X123213715Y-119638000D01*
X123285144Y-119780857D01*
X123285144Y-119923714D01*
X122570858Y-120066571D01*
X123785144Y-119566571D02*
X124142287Y-120566571D01*
X124499429Y-119566571D01*
X125070858Y-120423714D02*
X125142286Y-120495143D01*
X125070858Y-120566571D01*
X124999429Y-120495143D01*
X125070858Y-120423714D01*
X125070858Y-120566571D01*
X126856572Y-120138000D02*
X127570858Y-120138000D01*
X126713715Y-120566571D02*
X127213715Y-119066571D01*
X127713715Y-120566571D01*
D13*
X178057629Y-118364000D02*
X177884000Y-118364000D01*
X177927000Y-117384000D02*
X177927000Y-116495000D01*
X177927000Y-116939500D02*
X177334333Y-117384000D01*
X177334333Y-117384000D02*
X177334333Y-116495000D01*
X177334333Y-116495000D02*
X177927000Y-116939500D01*
X180590371Y-118364000D02*
G75*
G03X180590371Y-118364000I-1266371J0D01*
G01*
X178057629Y-81788000D02*
X177884000Y-81788000D01*
X177927000Y-80808000D02*
X177927000Y-79919000D01*
X177927000Y-80363500D02*
X177334333Y-80808000D01*
X177334333Y-80808000D02*
X177334333Y-79919000D01*
X177334333Y-79919000D02*
X177927000Y-80363500D01*
X180590371Y-81788000D02*
G75*
G03X180590371Y-81788000I-1266371J0D01*
G01*
X139290000Y-106680000D02*
G75*
G03X139290000Y-106680000I-860000J0D01*
G01*
X137570000Y-106680000D02*
X136890000Y-106680000D01*
X153814000Y-84360000D02*
X146494000Y-84360000D01*
X153814000Y-80740000D02*
X146494000Y-80740000D01*
X153814000Y-84360000D02*
X153814000Y-80740000D01*
X146494000Y-84360000D02*
X146494000Y-80740000D01*
X112490000Y-100220000D02*
X112490000Y-92900000D01*
X116110000Y-100220000D02*
X116110000Y-92900000D01*
X112490000Y-100220000D02*
X116110000Y-100220000D01*
X112490000Y-92900000D02*
X116110000Y-92900000D01*
X112490000Y-91584000D02*
X112490000Y-84264000D01*
X116110000Y-91584000D02*
X116110000Y-84264000D01*
X112490000Y-91584000D02*
X116110000Y-91584000D01*
X112490000Y-84264000D02*
X116110000Y-84264000D01*
X137050000Y-86900000D02*
X129730000Y-86900000D01*
X137050000Y-83280000D02*
X129730000Y-83280000D01*
X137050000Y-86900000D02*
X137050000Y-83280000D01*
X129730000Y-86900000D02*
X129730000Y-83280000D01*
X137050000Y-102140000D02*
X129730000Y-102140000D01*
X137050000Y-98520000D02*
X129730000Y-98520000D01*
X137050000Y-102140000D02*
X137050000Y-98520000D01*
X129730000Y-102140000D02*
X129730000Y-98520000D01*
X137050000Y-97060000D02*
X129730000Y-97060000D01*
X137050000Y-93440000D02*
X129730000Y-93440000D01*
X137050000Y-97060000D02*
X137050000Y-93440000D01*
X129730000Y-97060000D02*
X129730000Y-93440000D01*
X136970000Y-112300000D02*
X129650000Y-112300000D01*
X136970000Y-108680000D02*
X129650000Y-108680000D01*
X136970000Y-112300000D02*
X136970000Y-108680000D01*
X129650000Y-112300000D02*
X129650000Y-108680000D01*
X137350000Y-93440000D02*
X144670000Y-93440000D01*
X137350000Y-97060000D02*
X144670000Y-97060000D01*
X137350000Y-93440000D02*
X137350000Y-97060000D01*
X144670000Y-93440000D02*
X144670000Y-97060000D01*
X144590000Y-86900000D02*
X137270000Y-86900000D01*
X144590000Y-83280000D02*
X137270000Y-83280000D01*
X144590000Y-86900000D02*
X144590000Y-83280000D01*
X137270000Y-86900000D02*
X137270000Y-83280000D01*
X137350000Y-108680000D02*
X144670000Y-108680000D01*
X137350000Y-112300000D02*
X144670000Y-112300000D01*
X137350000Y-108680000D02*
X137350000Y-112300000D01*
X144670000Y-108680000D02*
X144670000Y-112300000D01*
X144670000Y-102140000D02*
X137350000Y-102140000D01*
X144670000Y-98520000D02*
X137350000Y-98520000D01*
X144670000Y-102140000D02*
X144670000Y-98520000D01*
X137350000Y-102140000D02*
X137350000Y-98520000D01*
X151320000Y-85820000D02*
X158640000Y-85820000D01*
X151320000Y-89440000D02*
X158640000Y-89440000D01*
X151320000Y-85820000D02*
X151320000Y-89440000D01*
X158640000Y-85820000D02*
X158640000Y-89440000D01*
X151240000Y-107410000D02*
X158560000Y-107410000D01*
X151240000Y-111030000D02*
X158560000Y-111030000D01*
X151240000Y-107410000D02*
X151240000Y-111030000D01*
X158560000Y-107410000D02*
X158560000Y-111030000D01*
X165244000Y-96806000D02*
X157924000Y-96806000D01*
X165244000Y-93186000D02*
X157924000Y-93186000D01*
X165244000Y-96806000D02*
X165244000Y-93186000D01*
X157924000Y-96806000D02*
X157924000Y-93186000D01*
X165244000Y-103918000D02*
X157924000Y-103918000D01*
X165244000Y-100298000D02*
X157924000Y-100298000D01*
X165244000Y-103918000D02*
X165244000Y-100298000D01*
X157924000Y-103918000D02*
X157924000Y-100298000D01*
X167610000Y-93336000D02*
X172830000Y-93336000D01*
X167610000Y-96656000D02*
X172830000Y-96656000D01*
X167610000Y-93336000D02*
X167610000Y-94000000D01*
X167610000Y-95992000D02*
X167610000Y-96656000D01*
X172830000Y-93336000D02*
X172830000Y-94000000D01*
X172830000Y-95992000D02*
X172830000Y-96656000D01*
X171568000Y-84866000D02*
X171568000Y-79646000D01*
X174888000Y-84866000D02*
X174888000Y-79646000D01*
X171568000Y-84866000D02*
X172232000Y-84866000D01*
X174224000Y-84866000D02*
X174888000Y-84866000D01*
X171568000Y-79646000D02*
X172232000Y-79646000D01*
X174224000Y-79646000D02*
X174888000Y-79646000D01*
X174888000Y-113762000D02*
X174888000Y-118982000D01*
X171568000Y-113762000D02*
X171568000Y-118982000D01*
X174888000Y-113762000D02*
X174224000Y-113762000D01*
X172232000Y-113762000D02*
X171568000Y-113762000D01*
X174888000Y-118982000D02*
X174224000Y-118982000D01*
X172232000Y-118982000D02*
X171568000Y-118982000D01*
X167530000Y-100448000D02*
X172750000Y-100448000D01*
X167530000Y-103768000D02*
X172750000Y-103768000D01*
X167530000Y-100448000D02*
X167530000Y-101112000D01*
X167530000Y-103104000D02*
X167530000Y-103768000D01*
X172750000Y-100448000D02*
X172750000Y-101112000D01*
X172750000Y-103104000D02*
X172750000Y-103768000D01*
X178057629Y-104140000D02*
X177884000Y-104140000D01*
X177927000Y-103160000D02*
X177927000Y-102271000D01*
X177927000Y-102715500D02*
X177334333Y-103160000D01*
X177334333Y-103160000D02*
X177334333Y-102271000D01*
X177334333Y-102271000D02*
X177927000Y-102715500D01*
X180590371Y-104140000D02*
G75*
G03X180590371Y-104140000I-1266371J0D01*
G01*
X178057629Y-96012000D02*
X177884000Y-96012000D01*
X177927000Y-95032000D02*
X177927000Y-94143000D01*
X177927000Y-94587500D02*
X177334333Y-95032000D01*
X177334333Y-95032000D02*
X177334333Y-94143000D01*
X177334333Y-94143000D02*
X177927000Y-94587500D01*
X180590371Y-96012000D02*
G75*
G03X180590371Y-96012000I-1266371J0D01*
G01*
X177864000Y-90380000D02*
X178594000Y-90380000D01*
X180054000Y-90380000D02*
X181135000Y-90380000D01*
X177864000Y-92500000D02*
X178594000Y-92500000D01*
X180054000Y-92500000D02*
X181135000Y-92500000D01*
X178054000Y-90380000D02*
X178054000Y-92500000D01*
X177864000Y-85300000D02*
X178594000Y-85300000D01*
X180054000Y-85300000D02*
X181135000Y-85300000D01*
X177864000Y-87420000D02*
X178594000Y-87420000D01*
X180054000Y-87420000D02*
X181135000Y-87420000D01*
X178054000Y-85300000D02*
X178054000Y-87420000D01*
X177864000Y-112732000D02*
X178594000Y-112732000D01*
X180054000Y-112732000D02*
X181135000Y-112732000D01*
X177864000Y-114852000D02*
X178594000Y-114852000D01*
X180054000Y-114852000D02*
X181135000Y-114852000D01*
X178054000Y-112732000D02*
X178054000Y-114852000D01*
X177864000Y-107652000D02*
X178594000Y-107652000D01*
X180054000Y-107652000D02*
X181135000Y-107652000D01*
X177864000Y-109772000D02*
X178594000Y-109772000D01*
X180054000Y-109772000D02*
X181135000Y-109772000D01*
X178054000Y-107652000D02*
X178054000Y-109772000D01*
X112716000Y-112836000D02*
X115376000Y-112836000D01*
X112716000Y-105156000D02*
X112716000Y-112836000D01*
X115376000Y-105156000D02*
X115376000Y-112836000D01*
X112716000Y-105156000D02*
X115376000Y-105156000D01*
X112716000Y-103886000D02*
X112716000Y-102556000D01*
X112716000Y-102556000D02*
X114046000Y-102556000D01*
X112462000Y-78934000D02*
X112462000Y-81594000D01*
X120142000Y-78934000D02*
X112462000Y-78934000D01*
X120142000Y-81594000D02*
X112462000Y-81594000D01*
X120142000Y-78934000D02*
X120142000Y-81594000D01*
X121412000Y-78934000D02*
X122742000Y-78934000D01*
X122742000Y-78934000D02*
X122742000Y-80264000D01*
X190776000Y-84990000D02*
X189776000Y-83990000D01*
X185876000Y-93890000D02*
X190776000Y-93890000D01*
X190776000Y-93890000D02*
X190776000Y-84990000D01*
X189776000Y-83990000D02*
X185876000Y-83990000D01*
X185876000Y-83990000D02*
X185876000Y-93890000D01*
X190776000Y-107342000D02*
X189776000Y-106342000D01*
X185876000Y-116242000D02*
X190776000Y-116242000D01*
X190776000Y-116242000D02*
X190776000Y-107342000D01*
X189776000Y-106342000D02*
X185876000Y-106342000D01*
X185876000Y-106342000D02*
X185876000Y-116242000D01*
X125828000Y-114300000D02*
G75*
G03X125828000Y-114300000I-860000J0D01*
G01*
X124108000Y-114300000D02*
X123428000Y-114300000D01*
X134210000Y-91440000D02*
G75*
G03X134210000Y-91440000I-860000J0D01*
G01*
X132490000Y-91440000D02*
X131810000Y-91440000D01*
X134210000Y-88900000D02*
G75*
G03X134210000Y-88900000I-860000J0D01*
G01*
X132490000Y-88900000D02*
X131810000Y-88900000D01*
X134210000Y-106680000D02*
G75*
G03X134210000Y-106680000I-860000J0D01*
G01*
X132490000Y-106680000D02*
X131810000Y-106680000D01*
X134210000Y-104140000D02*
G75*
G03X134210000Y-104140000I-860000J0D01*
G01*
X132490000Y-104140000D02*
X131810000Y-104140000D01*
X139290000Y-91440000D02*
G75*
G03X139290000Y-91440000I-860000J0D01*
G01*
X137570000Y-91440000D02*
X136890000Y-91440000D01*
X136750000Y-88900000D02*
G75*
G03X136750000Y-88900000I-860000J0D01*
G01*
X136750000Y-88900000D02*
X137430000Y-88900000D01*
X136750000Y-104140000D02*
G75*
G03X136750000Y-104140000I-860000J0D01*
G01*
X136750000Y-104140000D02*
X137430000Y-104140000D01*
X141830000Y-91440000D02*
G75*
G03X141830000Y-91440000I-860000J0D01*
G01*
X141830000Y-91440000D02*
X142510000Y-91440000D01*
X141830000Y-88900000D02*
G75*
G03X141830000Y-88900000I-860000J0D01*
G01*
X141830000Y-88900000D02*
X142510000Y-88900000D01*
X141830000Y-106680000D02*
G75*
G03X141830000Y-106680000I-860000J0D01*
G01*
X141830000Y-106680000D02*
X142510000Y-106680000D01*
X141830000Y-104140000D02*
G75*
G03X141830000Y-104140000I-860000J0D01*
G01*
X141830000Y-104140000D02*
X142510000Y-104140000D01*
X185258000Y-94702000D02*
X185258000Y-97322000D01*
X185258000Y-97322000D02*
X191678000Y-97322000D01*
X191678000Y-97322000D02*
X191678000Y-94702000D01*
X191678000Y-94702000D02*
X185258000Y-94702000D01*
X184368000Y-96012000D02*
X185258000Y-96012000D01*
X192568000Y-96012000D02*
X191678000Y-96012000D01*
X191678000Y-83098000D02*
X191678000Y-80478000D01*
X191678000Y-80478000D02*
X185258000Y-80478000D01*
X185258000Y-80478000D02*
X185258000Y-83098000D01*
X185258000Y-83098000D02*
X191678000Y-83098000D01*
X192568000Y-81788000D02*
X191678000Y-81788000D01*
X184368000Y-81788000D02*
X185258000Y-81788000D01*
X185258000Y-117054000D02*
X185258000Y-119674000D01*
X185258000Y-119674000D02*
X191678000Y-119674000D01*
X191678000Y-119674000D02*
X191678000Y-117054000D01*
X191678000Y-117054000D02*
X185258000Y-117054000D01*
X184368000Y-118364000D02*
X185258000Y-118364000D01*
X192568000Y-118364000D02*
X191678000Y-118364000D01*
X191678000Y-105450000D02*
X191678000Y-102830000D01*
X191678000Y-102830000D02*
X185258000Y-102830000D01*
X185258000Y-102830000D02*
X185258000Y-105450000D01*
X185258000Y-105450000D02*
X191678000Y-105450000D01*
X192568000Y-104140000D02*
X191678000Y-104140000D01*
X184368000Y-104140000D02*
X185258000Y-104140000D01*
X145990000Y-96790000D02*
G75*
G02X145990000Y-98790000I0J-1000000D01*
G01*
X145990000Y-98790000D02*
X145990000Y-100040000D01*
X145990000Y-100040000D02*
X156270000Y-100040000D01*
X156270000Y-100040000D02*
X156270000Y-95540000D01*
X156270000Y-95540000D02*
X145990000Y-95540000D01*
X145990000Y-95540000D02*
X145990000Y-96790000D01*
X124190000Y-85030000D02*
G75*
G02X122190000Y-85030000I-1000000J0D01*
G01*
X122190000Y-85030000D02*
X120940000Y-85030000D01*
X120940000Y-85030000D02*
X120940000Y-110550000D01*
X120940000Y-110550000D02*
X125440000Y-110550000D01*
X125440000Y-110550000D02*
X125440000Y-85030000D01*
X125440000Y-85030000D02*
X124190000Y-85030000D01*
X170240000Y-86090000D02*
G75*
G02X170240000Y-84090000I0J1000000D01*
G01*
X170240000Y-84090000D02*
X170240000Y-82840000D01*
X170240000Y-82840000D02*
X159960000Y-82840000D01*
X159960000Y-82840000D02*
X159960000Y-87340000D01*
X159960000Y-87340000D02*
X170240000Y-87340000D01*
X170240000Y-87340000D02*
X170240000Y-86090000D01*
X170300000Y-79840000D02*
X159900000Y-79840000D01*
X159900000Y-79840000D02*
X159900000Y-90340000D01*
X159900000Y-90340000D02*
X170300000Y-90340000D01*
X170300000Y-90340000D02*
X170300000Y-79840000D01*
X170240000Y-112760000D02*
G75*
G02X170240000Y-110760000I0J1000000D01*
G01*
X170240000Y-110760000D02*
X170240000Y-109510000D01*
X170240000Y-109510000D02*
X159960000Y-109510000D01*
X159960000Y-109510000D02*
X159960000Y-114010000D01*
X159960000Y-114010000D02*
X170240000Y-114010000D01*
X170240000Y-114010000D02*
X170240000Y-112760000D01*
X170300000Y-106510000D02*
X159900000Y-106510000D01*
X159900000Y-106510000D02*
X159900000Y-117010000D01*
X159900000Y-117010000D02*
X170300000Y-117010000D01*
X170300000Y-117010000D02*
X170300000Y-106510000D01*
D11*
X136953667Y-77557381D02*
X136953667Y-78271667D01*
X136906047Y-78414524D01*
X136810809Y-78509762D01*
X136667952Y-78557381D01*
X136572714Y-78557381D01*
X137382238Y-77652619D02*
X137429857Y-77605000D01*
X137525095Y-77557381D01*
X137763191Y-77557381D01*
X137858429Y-77605000D01*
X137906048Y-77652619D01*
X137953667Y-77747857D01*
X137953667Y-77843095D01*
X137906048Y-77985952D01*
X137334619Y-78557381D01*
X137953667Y-78557381D01*
X132381667Y-75271381D02*
X132381667Y-75985667D01*
X132334047Y-76128524D01*
X132238809Y-76223762D01*
X132095952Y-76271381D01*
X132000714Y-76271381D01*
X133381667Y-76271381D02*
X132810238Y-76271381D01*
X133095952Y-76271381D02*
X133095952Y-75271381D01*
X133000714Y-75414238D01*
X132905476Y-75509476D01*
X132810238Y-75557095D01*
X181125905Y-117813081D02*
X181125905Y-116813081D01*
X181364000Y-116813081D01*
X181506858Y-116860700D01*
X181602096Y-116955938D01*
X181649715Y-117051176D01*
X181697334Y-117241652D01*
X181697334Y-117384510D01*
X181649715Y-117574986D01*
X181602096Y-117670224D01*
X181506858Y-117765462D01*
X181364000Y-117813081D01*
X181125905Y-117813081D01*
X182554477Y-117146414D02*
X182554477Y-117813081D01*
X182316381Y-116765462D02*
X182078286Y-117479748D01*
X182697334Y-117479748D01*
X181037005Y-83383381D02*
X181037005Y-82383381D01*
X181275100Y-82383381D01*
X181417958Y-82431000D01*
X181513196Y-82526238D01*
X181560815Y-82621476D01*
X181608434Y-82811952D01*
X181608434Y-82954810D01*
X181560815Y-83145286D01*
X181513196Y-83240524D01*
X181417958Y-83335762D01*
X181275100Y-83383381D01*
X181037005Y-83383381D01*
X182560815Y-83383381D02*
X181989386Y-83383381D01*
X182275100Y-83383381D02*
X182275100Y-82383381D01*
X182179862Y-82526238D01*
X182084624Y-82621476D01*
X181989386Y-82669095D01*
X137018734Y-108618281D02*
X136685400Y-108142090D01*
X136447305Y-108618281D02*
X136447305Y-107618281D01*
X136828258Y-107618281D01*
X136923496Y-107665900D01*
X136971115Y-107713519D01*
X137018734Y-107808757D01*
X137018734Y-107951614D01*
X136971115Y-108046852D01*
X136923496Y-108094471D01*
X136828258Y-108142090D01*
X136447305Y-108142090D01*
X137590162Y-108046852D02*
X137494924Y-107999233D01*
X137447305Y-107951614D01*
X137399686Y-107856376D01*
X137399686Y-107808757D01*
X137447305Y-107713519D01*
X137494924Y-107665900D01*
X137590162Y-107618281D01*
X137780639Y-107618281D01*
X137875877Y-107665900D01*
X137923496Y-107713519D01*
X137971115Y-107808757D01*
X137971115Y-107856376D01*
X137923496Y-107951614D01*
X137875877Y-107999233D01*
X137780639Y-108046852D01*
X137590162Y-108046852D01*
X137494924Y-108094471D01*
X137447305Y-108142090D01*
X137399686Y-108237329D01*
X137399686Y-108427805D01*
X137447305Y-108523043D01*
X137494924Y-108570662D01*
X137590162Y-108618281D01*
X137780639Y-108618281D01*
X137875877Y-108570662D01*
X137923496Y-108523043D01*
X137971115Y-108427805D01*
X137971115Y-108237329D01*
X137923496Y-108142090D01*
X137875877Y-108094471D01*
X137780639Y-108046852D01*
X150014634Y-83072243D02*
X149967015Y-83119862D01*
X149824158Y-83167481D01*
X149728920Y-83167481D01*
X149586062Y-83119862D01*
X149490824Y-83024624D01*
X149443205Y-82929386D01*
X149395586Y-82738910D01*
X149395586Y-82596052D01*
X149443205Y-82405576D01*
X149490824Y-82310338D01*
X149586062Y-82215100D01*
X149728920Y-82167481D01*
X149824158Y-82167481D01*
X149967015Y-82215100D01*
X150014634Y-82262719D01*
X150967015Y-83167481D02*
X150395586Y-83167481D01*
X150681300Y-83167481D02*
X150681300Y-82167481D01*
X150586062Y-82310338D01*
X150490824Y-82405576D01*
X150395586Y-82453195D01*
X114695243Y-96690466D02*
X114742862Y-96738085D01*
X114790481Y-96880942D01*
X114790481Y-96976180D01*
X114742862Y-97119038D01*
X114647624Y-97214276D01*
X114552386Y-97261895D01*
X114361910Y-97309514D01*
X114219052Y-97309514D01*
X114028576Y-97261895D01*
X113933338Y-97214276D01*
X113838100Y-97119038D01*
X113790481Y-96976180D01*
X113790481Y-96880942D01*
X113838100Y-96738085D01*
X113885719Y-96690466D01*
X113885719Y-96309514D02*
X113838100Y-96261895D01*
X113790481Y-96166657D01*
X113790481Y-95928561D01*
X113838100Y-95833323D01*
X113885719Y-95785704D01*
X113980957Y-95738085D01*
X114076195Y-95738085D01*
X114219052Y-95785704D01*
X114790481Y-96357133D01*
X114790481Y-95738085D01*
X114669843Y-88012566D02*
X114717462Y-88060185D01*
X114765081Y-88203042D01*
X114765081Y-88298280D01*
X114717462Y-88441138D01*
X114622224Y-88536376D01*
X114526986Y-88583995D01*
X114336510Y-88631614D01*
X114193652Y-88631614D01*
X114003176Y-88583995D01*
X113907938Y-88536376D01*
X113812700Y-88441138D01*
X113765081Y-88298280D01*
X113765081Y-88203042D01*
X113812700Y-88060185D01*
X113860319Y-88012566D01*
X113765081Y-87679233D02*
X113765081Y-87060185D01*
X114146033Y-87393519D01*
X114146033Y-87250661D01*
X114193652Y-87155423D01*
X114241271Y-87107804D01*
X114336510Y-87060185D01*
X114574605Y-87060185D01*
X114669843Y-87107804D01*
X114717462Y-87155423D01*
X114765081Y-87250661D01*
X114765081Y-87536376D01*
X114717462Y-87631614D01*
X114669843Y-87679233D01*
X133069034Y-85586843D02*
X133021415Y-85634462D01*
X132878558Y-85682081D01*
X132783320Y-85682081D01*
X132640462Y-85634462D01*
X132545224Y-85539224D01*
X132497605Y-85443986D01*
X132449986Y-85253510D01*
X132449986Y-85110652D01*
X132497605Y-84920176D01*
X132545224Y-84824938D01*
X132640462Y-84729700D01*
X132783320Y-84682081D01*
X132878558Y-84682081D01*
X133021415Y-84729700D01*
X133069034Y-84777319D01*
X133926177Y-85015414D02*
X133926177Y-85682081D01*
X133688081Y-84634462D02*
X133449986Y-85348748D01*
X134069034Y-85348748D01*
X133056334Y-100750643D02*
X133008715Y-100798262D01*
X132865858Y-100845881D01*
X132770620Y-100845881D01*
X132627762Y-100798262D01*
X132532524Y-100703024D01*
X132484905Y-100607786D01*
X132437286Y-100417310D01*
X132437286Y-100274452D01*
X132484905Y-100083976D01*
X132532524Y-99988738D01*
X132627762Y-99893500D01*
X132770620Y-99845881D01*
X132865858Y-99845881D01*
X133008715Y-99893500D01*
X133056334Y-99941119D01*
X133961096Y-99845881D02*
X133484905Y-99845881D01*
X133437286Y-100322071D01*
X133484905Y-100274452D01*
X133580143Y-100226833D01*
X133818239Y-100226833D01*
X133913477Y-100274452D01*
X133961096Y-100322071D01*
X134008715Y-100417310D01*
X134008715Y-100655405D01*
X133961096Y-100750643D01*
X133913477Y-100798262D01*
X133818239Y-100845881D01*
X133580143Y-100845881D01*
X133484905Y-100798262D01*
X133437286Y-100750643D01*
X133107134Y-95772243D02*
X133059515Y-95819862D01*
X132916658Y-95867481D01*
X132821420Y-95867481D01*
X132678562Y-95819862D01*
X132583324Y-95724624D01*
X132535705Y-95629386D01*
X132488086Y-95438910D01*
X132488086Y-95296052D01*
X132535705Y-95105576D01*
X132583324Y-95010338D01*
X132678562Y-94915100D01*
X132821420Y-94867481D01*
X132916658Y-94867481D01*
X133059515Y-94915100D01*
X133107134Y-94962719D01*
X133964277Y-94867481D02*
X133773800Y-94867481D01*
X133678562Y-94915100D01*
X133630943Y-94962719D01*
X133535705Y-95105576D01*
X133488086Y-95296052D01*
X133488086Y-95677005D01*
X133535705Y-95772243D01*
X133583324Y-95819862D01*
X133678562Y-95867481D01*
X133869039Y-95867481D01*
X133964277Y-95819862D01*
X134011896Y-95772243D01*
X134059515Y-95677005D01*
X134059515Y-95438910D01*
X134011896Y-95343671D01*
X133964277Y-95296052D01*
X133869039Y-95248433D01*
X133678562Y-95248433D01*
X133583324Y-95296052D01*
X133535705Y-95343671D01*
X133488086Y-95438910D01*
X133056334Y-111939343D02*
X133008715Y-111986962D01*
X132865858Y-112034581D01*
X132770620Y-112034581D01*
X132627762Y-111986962D01*
X132532524Y-111891724D01*
X132484905Y-111796486D01*
X132437286Y-111606010D01*
X132437286Y-111463152D01*
X132484905Y-111272676D01*
X132532524Y-111177438D01*
X132627762Y-111082200D01*
X132770620Y-111034581D01*
X132865858Y-111034581D01*
X133008715Y-111082200D01*
X133056334Y-111129819D01*
X133389667Y-111034581D02*
X134056334Y-111034581D01*
X133627762Y-112034581D01*
X140816034Y-95543643D02*
X140768415Y-95591262D01*
X140625558Y-95638881D01*
X140530320Y-95638881D01*
X140387462Y-95591262D01*
X140292224Y-95496024D01*
X140244605Y-95400786D01*
X140196986Y-95210310D01*
X140196986Y-95067452D01*
X140244605Y-94876976D01*
X140292224Y-94781738D01*
X140387462Y-94686500D01*
X140530320Y-94638881D01*
X140625558Y-94638881D01*
X140768415Y-94686500D01*
X140816034Y-94734119D01*
X141387462Y-95067452D02*
X141292224Y-95019833D01*
X141244605Y-94972214D01*
X141196986Y-94876976D01*
X141196986Y-94829357D01*
X141244605Y-94734119D01*
X141292224Y-94686500D01*
X141387462Y-94638881D01*
X141577939Y-94638881D01*
X141673177Y-94686500D01*
X141720796Y-94734119D01*
X141768415Y-94829357D01*
X141768415Y-94876976D01*
X141720796Y-94972214D01*
X141673177Y-95019833D01*
X141577939Y-95067452D01*
X141387462Y-95067452D01*
X141292224Y-95115071D01*
X141244605Y-95162690D01*
X141196986Y-95257929D01*
X141196986Y-95448405D01*
X141244605Y-95543643D01*
X141292224Y-95591262D01*
X141387462Y-95638881D01*
X141577939Y-95638881D01*
X141673177Y-95591262D01*
X141720796Y-95543643D01*
X141768415Y-95448405D01*
X141768415Y-95257929D01*
X141720796Y-95162690D01*
X141673177Y-95115071D01*
X141577939Y-95067452D01*
X140701734Y-85637643D02*
X140654115Y-85685262D01*
X140511258Y-85732881D01*
X140416020Y-85732881D01*
X140273162Y-85685262D01*
X140177924Y-85590024D01*
X140130305Y-85494786D01*
X140082686Y-85304310D01*
X140082686Y-85161452D01*
X140130305Y-84970976D01*
X140177924Y-84875738D01*
X140273162Y-84780500D01*
X140416020Y-84732881D01*
X140511258Y-84732881D01*
X140654115Y-84780500D01*
X140701734Y-84828119D01*
X141177924Y-85732881D02*
X141368400Y-85732881D01*
X141463639Y-85685262D01*
X141511258Y-85637643D01*
X141606496Y-85494786D01*
X141654115Y-85304310D01*
X141654115Y-84923357D01*
X141606496Y-84828119D01*
X141558877Y-84780500D01*
X141463639Y-84732881D01*
X141273162Y-84732881D01*
X141177924Y-84780500D01*
X141130305Y-84828119D01*
X141082686Y-84923357D01*
X141082686Y-85161452D01*
X141130305Y-85256690D01*
X141177924Y-85304310D01*
X141273162Y-85351929D01*
X141463639Y-85351929D01*
X141558877Y-85304310D01*
X141606496Y-85256690D01*
X141654115Y-85161452D01*
X140200143Y-111939343D02*
X140152524Y-111986962D01*
X140009667Y-112034581D01*
X139914429Y-112034581D01*
X139771571Y-111986962D01*
X139676333Y-111891724D01*
X139628714Y-111796486D01*
X139581095Y-111606010D01*
X139581095Y-111463152D01*
X139628714Y-111272676D01*
X139676333Y-111177438D01*
X139771571Y-111082200D01*
X139914429Y-111034581D01*
X140009667Y-111034581D01*
X140152524Y-111082200D01*
X140200143Y-111129819D01*
X141152524Y-112034581D02*
X140581095Y-112034581D01*
X140866809Y-112034581D02*
X140866809Y-111034581D01*
X140771571Y-111177438D01*
X140676333Y-111272676D01*
X140581095Y-111320295D01*
X141771571Y-111034581D02*
X141866810Y-111034581D01*
X141962048Y-111082200D01*
X142009667Y-111129819D01*
X142057286Y-111225057D01*
X142104905Y-111415533D01*
X142104905Y-111653629D01*
X142057286Y-111844105D01*
X142009667Y-111939343D01*
X141962048Y-111986962D01*
X141866810Y-112034581D01*
X141771571Y-112034581D01*
X141676333Y-111986962D01*
X141628714Y-111939343D01*
X141581095Y-111844105D01*
X141533476Y-111653629D01*
X141533476Y-111415533D01*
X141581095Y-111225057D01*
X141628714Y-111129819D01*
X141676333Y-111082200D01*
X141771571Y-111034581D01*
X140339843Y-100750643D02*
X140292224Y-100798262D01*
X140149367Y-100845881D01*
X140054129Y-100845881D01*
X139911271Y-100798262D01*
X139816033Y-100703024D01*
X139768414Y-100607786D01*
X139720795Y-100417310D01*
X139720795Y-100274452D01*
X139768414Y-100083976D01*
X139816033Y-99988738D01*
X139911271Y-99893500D01*
X140054129Y-99845881D01*
X140149367Y-99845881D01*
X140292224Y-99893500D01*
X140339843Y-99941119D01*
X141292224Y-100845881D02*
X140720795Y-100845881D01*
X141006509Y-100845881D02*
X141006509Y-99845881D01*
X140911271Y-99988738D01*
X140816033Y-100083976D01*
X140720795Y-100131595D01*
X142244605Y-100845881D02*
X141673176Y-100845881D01*
X141958890Y-100845881D02*
X141958890Y-99845881D01*
X141863652Y-99988738D01*
X141768414Y-100083976D01*
X141673176Y-100131595D01*
X154373343Y-89041243D02*
X154325724Y-89088862D01*
X154182867Y-89136481D01*
X154087629Y-89136481D01*
X153944771Y-89088862D01*
X153849533Y-88993624D01*
X153801914Y-88898386D01*
X153754295Y-88707910D01*
X153754295Y-88565052D01*
X153801914Y-88374576D01*
X153849533Y-88279338D01*
X153944771Y-88184100D01*
X154087629Y-88136481D01*
X154182867Y-88136481D01*
X154325724Y-88184100D01*
X154373343Y-88231719D01*
X155325724Y-89136481D02*
X154754295Y-89136481D01*
X155040009Y-89136481D02*
X155040009Y-88136481D01*
X154944771Y-88279338D01*
X154849533Y-88374576D01*
X154754295Y-88422195D01*
X155706676Y-88231719D02*
X155754295Y-88184100D01*
X155849533Y-88136481D01*
X156087629Y-88136481D01*
X156182867Y-88184100D01*
X156230486Y-88231719D01*
X156278105Y-88326957D01*
X156278105Y-88422195D01*
X156230486Y-88565052D01*
X155659057Y-89136481D01*
X156278105Y-89136481D01*
X154271743Y-109615243D02*
X154224124Y-109662862D01*
X154081267Y-109710481D01*
X153986029Y-109710481D01*
X153843171Y-109662862D01*
X153747933Y-109567624D01*
X153700314Y-109472386D01*
X153652695Y-109281910D01*
X153652695Y-109139052D01*
X153700314Y-108948576D01*
X153747933Y-108853338D01*
X153843171Y-108758100D01*
X153986029Y-108710481D01*
X154081267Y-108710481D01*
X154224124Y-108758100D01*
X154271743Y-108805719D01*
X155224124Y-109710481D02*
X154652695Y-109710481D01*
X154938409Y-109710481D02*
X154938409Y-108710481D01*
X154843171Y-108853338D01*
X154747933Y-108948576D01*
X154652695Y-108996195D01*
X155557457Y-108710481D02*
X156176505Y-108710481D01*
X155843171Y-109091433D01*
X155986029Y-109091433D01*
X156081267Y-109139052D01*
X156128886Y-109186671D01*
X156176505Y-109281910D01*
X156176505Y-109520005D01*
X156128886Y-109615243D01*
X156081267Y-109662862D01*
X155986029Y-109710481D01*
X155700314Y-109710481D01*
X155605076Y-109662862D01*
X155557457Y-109615243D01*
X161082743Y-95353143D02*
X161035124Y-95400762D01*
X160892267Y-95448381D01*
X160797029Y-95448381D01*
X160654171Y-95400762D01*
X160558933Y-95305524D01*
X160511314Y-95210286D01*
X160463695Y-95019810D01*
X160463695Y-94876952D01*
X160511314Y-94686476D01*
X160558933Y-94591238D01*
X160654171Y-94496000D01*
X160797029Y-94448381D01*
X160892267Y-94448381D01*
X161035124Y-94496000D01*
X161082743Y-94543619D01*
X162035124Y-95448381D02*
X161463695Y-95448381D01*
X161749409Y-95448381D02*
X161749409Y-94448381D01*
X161654171Y-94591238D01*
X161558933Y-94686476D01*
X161463695Y-94734095D01*
X162939886Y-94448381D02*
X162463695Y-94448381D01*
X162416076Y-94924571D01*
X162463695Y-94876952D01*
X162558933Y-94829333D01*
X162797029Y-94829333D01*
X162892267Y-94876952D01*
X162939886Y-94924571D01*
X162987505Y-95019810D01*
X162987505Y-95257905D01*
X162939886Y-95353143D01*
X162892267Y-95400762D01*
X162797029Y-95448381D01*
X162558933Y-95448381D01*
X162463695Y-95400762D01*
X162416076Y-95353143D01*
X160930343Y-102465143D02*
X160882724Y-102512762D01*
X160739867Y-102560381D01*
X160644629Y-102560381D01*
X160501771Y-102512762D01*
X160406533Y-102417524D01*
X160358914Y-102322286D01*
X160311295Y-102131810D01*
X160311295Y-101988952D01*
X160358914Y-101798476D01*
X160406533Y-101703238D01*
X160501771Y-101608000D01*
X160644629Y-101560381D01*
X160739867Y-101560381D01*
X160882724Y-101608000D01*
X160930343Y-101655619D01*
X161882724Y-102560381D02*
X161311295Y-102560381D01*
X161597009Y-102560381D02*
X161597009Y-101560381D01*
X161501771Y-101703238D01*
X161406533Y-101798476D01*
X161311295Y-101846095D01*
X162739867Y-101560381D02*
X162549390Y-101560381D01*
X162454152Y-101608000D01*
X162406533Y-101655619D01*
X162311295Y-101798476D01*
X162263676Y-101988952D01*
X162263676Y-102369905D01*
X162311295Y-102465143D01*
X162358914Y-102512762D01*
X162454152Y-102560381D01*
X162644629Y-102560381D01*
X162739867Y-102512762D01*
X162787486Y-102465143D01*
X162835105Y-102369905D01*
X162835105Y-102131810D01*
X162787486Y-102036571D01*
X162739867Y-101988952D01*
X162644629Y-101941333D01*
X162454152Y-101941333D01*
X162358914Y-101988952D01*
X162311295Y-102036571D01*
X162263676Y-102131810D01*
X169562543Y-95226143D02*
X169514924Y-95273762D01*
X169372067Y-95321381D01*
X169276829Y-95321381D01*
X169133971Y-95273762D01*
X169038733Y-95178524D01*
X168991114Y-95083286D01*
X168943495Y-94892810D01*
X168943495Y-94749952D01*
X168991114Y-94559476D01*
X169038733Y-94464238D01*
X169133971Y-94369000D01*
X169276829Y-94321381D01*
X169372067Y-94321381D01*
X169514924Y-94369000D01*
X169562543Y-94416619D01*
X170514924Y-95321381D02*
X169943495Y-95321381D01*
X170229209Y-95321381D02*
X170229209Y-94321381D01*
X170133971Y-94464238D01*
X170038733Y-94559476D01*
X169943495Y-94607095D01*
X171086352Y-94749952D02*
X170991114Y-94702333D01*
X170943495Y-94654714D01*
X170895876Y-94559476D01*
X170895876Y-94511857D01*
X170943495Y-94416619D01*
X170991114Y-94369000D01*
X171086352Y-94321381D01*
X171276829Y-94321381D01*
X171372067Y-94369000D01*
X171419686Y-94416619D01*
X171467305Y-94511857D01*
X171467305Y-94559476D01*
X171419686Y-94654714D01*
X171372067Y-94702333D01*
X171276829Y-94749952D01*
X171086352Y-94749952D01*
X170991114Y-94797571D01*
X170943495Y-94845190D01*
X170895876Y-94940429D01*
X170895876Y-95130905D01*
X170943495Y-95226143D01*
X170991114Y-95273762D01*
X171086352Y-95321381D01*
X171276829Y-95321381D01*
X171372067Y-95273762D01*
X171419686Y-95226143D01*
X171467305Y-95130905D01*
X171467305Y-94940429D01*
X171419686Y-94845190D01*
X171372067Y-94797571D01*
X171276829Y-94749952D01*
X173648643Y-83112857D02*
X173696262Y-83160476D01*
X173743881Y-83303333D01*
X173743881Y-83398571D01*
X173696262Y-83541429D01*
X173601024Y-83636667D01*
X173505786Y-83684286D01*
X173315310Y-83731905D01*
X173172452Y-83731905D01*
X172981976Y-83684286D01*
X172886738Y-83636667D01*
X172791500Y-83541429D01*
X172743881Y-83398571D01*
X172743881Y-83303333D01*
X172791500Y-83160476D01*
X172839119Y-83112857D01*
X173743881Y-82160476D02*
X173743881Y-82731905D01*
X173743881Y-82446191D02*
X172743881Y-82446191D01*
X172886738Y-82541429D01*
X172981976Y-82636667D01*
X173029595Y-82731905D01*
X173743881Y-81684286D02*
X173743881Y-81493810D01*
X173696262Y-81398571D01*
X173648643Y-81350952D01*
X173505786Y-81255714D01*
X173315310Y-81208095D01*
X172934357Y-81208095D01*
X172839119Y-81255714D01*
X172791500Y-81303333D01*
X172743881Y-81398571D01*
X172743881Y-81589048D01*
X172791500Y-81684286D01*
X172839119Y-81731905D01*
X172934357Y-81779524D01*
X173172452Y-81779524D01*
X173267690Y-81731905D01*
X173315310Y-81684286D01*
X173362929Y-81589048D01*
X173362929Y-81398571D01*
X173315310Y-81303333D01*
X173267690Y-81255714D01*
X173172452Y-81208095D01*
X173585143Y-117029457D02*
X173632762Y-117077076D01*
X173680381Y-117219933D01*
X173680381Y-117315171D01*
X173632762Y-117458029D01*
X173537524Y-117553267D01*
X173442286Y-117600886D01*
X173251810Y-117648505D01*
X173108952Y-117648505D01*
X172918476Y-117600886D01*
X172823238Y-117553267D01*
X172728000Y-117458029D01*
X172680381Y-117315171D01*
X172680381Y-117219933D01*
X172728000Y-117077076D01*
X172775619Y-117029457D01*
X172775619Y-116648505D02*
X172728000Y-116600886D01*
X172680381Y-116505648D01*
X172680381Y-116267552D01*
X172728000Y-116172314D01*
X172775619Y-116124695D01*
X172870857Y-116077076D01*
X172966095Y-116077076D01*
X173108952Y-116124695D01*
X173680381Y-116696124D01*
X173680381Y-116077076D01*
X172680381Y-115458029D02*
X172680381Y-115362790D01*
X172728000Y-115267552D01*
X172775619Y-115219933D01*
X172870857Y-115172314D01*
X173061333Y-115124695D01*
X173299429Y-115124695D01*
X173489905Y-115172314D01*
X173585143Y-115219933D01*
X173632762Y-115267552D01*
X173680381Y-115362790D01*
X173680381Y-115458029D01*
X173632762Y-115553267D01*
X173585143Y-115600886D01*
X173489905Y-115648505D01*
X173299429Y-115696124D01*
X173061333Y-115696124D01*
X172870857Y-115648505D01*
X172775619Y-115600886D01*
X172728000Y-115553267D01*
X172680381Y-115458029D01*
X169507943Y-102414343D02*
X169460324Y-102461962D01*
X169317467Y-102509581D01*
X169222229Y-102509581D01*
X169079371Y-102461962D01*
X168984133Y-102366724D01*
X168936514Y-102271486D01*
X168888895Y-102081010D01*
X168888895Y-101938152D01*
X168936514Y-101747676D01*
X168984133Y-101652438D01*
X169079371Y-101557200D01*
X169222229Y-101509581D01*
X169317467Y-101509581D01*
X169460324Y-101557200D01*
X169507943Y-101604819D01*
X169888895Y-101604819D02*
X169936514Y-101557200D01*
X170031752Y-101509581D01*
X170269848Y-101509581D01*
X170365086Y-101557200D01*
X170412705Y-101604819D01*
X170460324Y-101700057D01*
X170460324Y-101795295D01*
X170412705Y-101938152D01*
X169841276Y-102509581D01*
X170460324Y-102509581D01*
X171412705Y-102509581D02*
X170841276Y-102509581D01*
X171126990Y-102509581D02*
X171126990Y-101509581D01*
X171031752Y-101652438D01*
X170936514Y-101747676D01*
X170841276Y-101795295D01*
X181151305Y-104706681D02*
X181151305Y-103706681D01*
X181389400Y-103706681D01*
X181532258Y-103754300D01*
X181627496Y-103849538D01*
X181675115Y-103944776D01*
X181722734Y-104135252D01*
X181722734Y-104278110D01*
X181675115Y-104468586D01*
X181627496Y-104563824D01*
X181532258Y-104659062D01*
X181389400Y-104706681D01*
X181151305Y-104706681D01*
X182103686Y-103801919D02*
X182151305Y-103754300D01*
X182246543Y-103706681D01*
X182484639Y-103706681D01*
X182579877Y-103754300D01*
X182627496Y-103801919D01*
X182675115Y-103897157D01*
X182675115Y-103992395D01*
X182627496Y-104135252D01*
X182056067Y-104706681D01*
X182675115Y-104706681D01*
X181113205Y-96451681D02*
X181113205Y-95451681D01*
X181351300Y-95451681D01*
X181494158Y-95499300D01*
X181589396Y-95594538D01*
X181637015Y-95689776D01*
X181684634Y-95880252D01*
X181684634Y-96023110D01*
X181637015Y-96213586D01*
X181589396Y-96308824D01*
X181494158Y-96404062D01*
X181351300Y-96451681D01*
X181113205Y-96451681D01*
X182017967Y-95451681D02*
X182637015Y-95451681D01*
X182303681Y-95832633D01*
X182446539Y-95832633D01*
X182541777Y-95880252D01*
X182589396Y-95927871D01*
X182637015Y-96023110D01*
X182637015Y-96261205D01*
X182589396Y-96356443D01*
X182541777Y-96404062D01*
X182446539Y-96451681D01*
X182160824Y-96451681D01*
X182065586Y-96404062D01*
X182017967Y-96356443D01*
X180313105Y-89273071D02*
X179979771Y-89273071D01*
X179979771Y-89796881D02*
X179979771Y-88796881D01*
X180455962Y-88796881D01*
X181313105Y-89796881D02*
X180836914Y-89796881D01*
X180836914Y-88796881D01*
X182170248Y-89796881D02*
X181598819Y-89796881D01*
X181884533Y-89796881D02*
X181884533Y-88796881D01*
X181789295Y-88939738D01*
X181694057Y-89034976D01*
X181598819Y-89082595D01*
X176020505Y-88434871D02*
X175687171Y-88434871D01*
X175687171Y-88958681D02*
X175687171Y-87958681D01*
X176163362Y-87958681D01*
X177020505Y-88958681D02*
X176544314Y-88958681D01*
X176544314Y-87958681D01*
X177306219Y-88053919D02*
X177353838Y-88006300D01*
X177449076Y-87958681D01*
X177687172Y-87958681D01*
X177782410Y-88006300D01*
X177830029Y-88053919D01*
X177877648Y-88149157D01*
X177877648Y-88244395D01*
X177830029Y-88387252D01*
X177258600Y-88958681D01*
X177877648Y-88958681D01*
X180287705Y-111485371D02*
X179954371Y-111485371D01*
X179954371Y-112009181D02*
X179954371Y-111009181D01*
X180430562Y-111009181D01*
X181287705Y-112009181D02*
X180811514Y-112009181D01*
X180811514Y-111009181D01*
X181525800Y-111009181D02*
X182144848Y-111009181D01*
X181811514Y-111390133D01*
X181954372Y-111390133D01*
X182049610Y-111437752D01*
X182097229Y-111485371D01*
X182144848Y-111580610D01*
X182144848Y-111818705D01*
X182097229Y-111913943D01*
X182049610Y-111961562D01*
X181954372Y-112009181D01*
X181668657Y-112009181D01*
X181573419Y-111961562D01*
X181525800Y-111913943D01*
X175944305Y-110863071D02*
X175610971Y-110863071D01*
X175610971Y-111386881D02*
X175610971Y-110386881D01*
X176087162Y-110386881D01*
X176944305Y-111386881D02*
X176468114Y-111386881D01*
X176468114Y-110386881D01*
X177706210Y-110720214D02*
X177706210Y-111386881D01*
X177468114Y-110339262D02*
X177230019Y-111053548D01*
X177849067Y-111053548D01*
X113712667Y-101008381D02*
X113712667Y-101722667D01*
X113665047Y-101865524D01*
X113569809Y-101960762D01*
X113426952Y-102008381D01*
X113331714Y-102008381D01*
X114093619Y-101008381D02*
X114712667Y-101008381D01*
X114379333Y-101389333D01*
X114522191Y-101389333D01*
X114617429Y-101436952D01*
X114665048Y-101484571D01*
X114712667Y-101579810D01*
X114712667Y-101817905D01*
X114665048Y-101913143D01*
X114617429Y-101960762D01*
X114522191Y-102008381D01*
X114236476Y-102008381D01*
X114141238Y-101960762D01*
X114093619Y-101913143D01*
X123194381Y-80597333D02*
X123908667Y-80597333D01*
X124051524Y-80644953D01*
X124146762Y-80740191D01*
X124194381Y-80883048D01*
X124194381Y-80978286D01*
X123527714Y-79692571D02*
X124194381Y-79692571D01*
X123146762Y-79930667D02*
X123861048Y-80168762D01*
X123861048Y-79549714D01*
X191222381Y-88966633D02*
X191936667Y-88966633D01*
X192079524Y-89014253D01*
X192174762Y-89109491D01*
X192222381Y-89252348D01*
X192222381Y-89347586D01*
X191222381Y-88014252D02*
X191222381Y-88490443D01*
X191698571Y-88538062D01*
X191650952Y-88490443D01*
X191603333Y-88395205D01*
X191603333Y-88157109D01*
X191650952Y-88061871D01*
X191698571Y-88014252D01*
X191793810Y-87966633D01*
X192031905Y-87966633D01*
X192127143Y-88014252D01*
X192174762Y-88061871D01*
X192222381Y-88157109D01*
X192222381Y-88395205D01*
X192174762Y-88490443D01*
X192127143Y-88538062D01*
X191247781Y-111585333D02*
X191962067Y-111585333D01*
X192104924Y-111632953D01*
X192200162Y-111728191D01*
X192247781Y-111871048D01*
X192247781Y-111966286D01*
X191247781Y-110680571D02*
X191247781Y-110871048D01*
X191295400Y-110966286D01*
X191343019Y-111013905D01*
X191485876Y-111109143D01*
X191676352Y-111156762D01*
X192057305Y-111156762D01*
X192152543Y-111109143D01*
X192200162Y-111061524D01*
X192247781Y-110966286D01*
X192247781Y-110775809D01*
X192200162Y-110680571D01*
X192152543Y-110632952D01*
X192057305Y-110585333D01*
X191819210Y-110585333D01*
X191723971Y-110632952D01*
X191676352Y-110680571D01*
X191628733Y-110775809D01*
X191628733Y-110966286D01*
X191676352Y-111061524D01*
X191723971Y-111109143D01*
X191819210Y-111156762D01*
X123531334Y-116612381D02*
X123198000Y-116136190D01*
X122959905Y-116612381D02*
X122959905Y-115612381D01*
X123340858Y-115612381D01*
X123436096Y-115660000D01*
X123483715Y-115707619D01*
X123531334Y-115802857D01*
X123531334Y-115945714D01*
X123483715Y-116040952D01*
X123436096Y-116088571D01*
X123340858Y-116136190D01*
X122959905Y-116136190D01*
X124483715Y-116612381D02*
X123912286Y-116612381D01*
X124198000Y-116612381D02*
X124198000Y-115612381D01*
X124102762Y-115755238D01*
X124007524Y-115850476D01*
X123912286Y-115898095D01*
X131786334Y-93454481D02*
X131453000Y-92978290D01*
X131214905Y-93454481D02*
X131214905Y-92454481D01*
X131595858Y-92454481D01*
X131691096Y-92502100D01*
X131738715Y-92549719D01*
X131786334Y-92644957D01*
X131786334Y-92787814D01*
X131738715Y-92883052D01*
X131691096Y-92930671D01*
X131595858Y-92978290D01*
X131214905Y-92978290D01*
X132167286Y-92549719D02*
X132214905Y-92502100D01*
X132310143Y-92454481D01*
X132548239Y-92454481D01*
X132643477Y-92502100D01*
X132691096Y-92549719D01*
X132738715Y-92644957D01*
X132738715Y-92740195D01*
X132691096Y-92883052D01*
X132119667Y-93454481D01*
X132738715Y-93454481D01*
X131951434Y-88095081D02*
X131618100Y-87618890D01*
X131380005Y-88095081D02*
X131380005Y-87095081D01*
X131760958Y-87095081D01*
X131856196Y-87142700D01*
X131903815Y-87190319D01*
X131951434Y-87285557D01*
X131951434Y-87428414D01*
X131903815Y-87523652D01*
X131856196Y-87571271D01*
X131760958Y-87618890D01*
X131380005Y-87618890D01*
X132284767Y-87095081D02*
X132903815Y-87095081D01*
X132570481Y-87476033D01*
X132713339Y-87476033D01*
X132808577Y-87523652D01*
X132856196Y-87571271D01*
X132903815Y-87666510D01*
X132903815Y-87904605D01*
X132856196Y-87999843D01*
X132808577Y-88047462D01*
X132713339Y-88095081D01*
X132427624Y-88095081D01*
X132332386Y-88047462D01*
X132284767Y-87999843D01*
X131938734Y-108618281D02*
X131605400Y-108142090D01*
X131367305Y-108618281D02*
X131367305Y-107618281D01*
X131748258Y-107618281D01*
X131843496Y-107665900D01*
X131891115Y-107713519D01*
X131938734Y-107808757D01*
X131938734Y-107951614D01*
X131891115Y-108046852D01*
X131843496Y-108094471D01*
X131748258Y-108142090D01*
X131367305Y-108142090D01*
X132795877Y-107951614D02*
X132795877Y-108618281D01*
X132557781Y-107570662D02*
X132319686Y-108284948D01*
X132938734Y-108284948D01*
X131938734Y-103347781D02*
X131605400Y-102871590D01*
X131367305Y-103347781D02*
X131367305Y-102347781D01*
X131748258Y-102347781D01*
X131843496Y-102395400D01*
X131891115Y-102443019D01*
X131938734Y-102538257D01*
X131938734Y-102681114D01*
X131891115Y-102776352D01*
X131843496Y-102823971D01*
X131748258Y-102871590D01*
X131367305Y-102871590D01*
X132843496Y-102347781D02*
X132367305Y-102347781D01*
X132319686Y-102823971D01*
X132367305Y-102776352D01*
X132462543Y-102728733D01*
X132700639Y-102728733D01*
X132795877Y-102776352D01*
X132843496Y-102823971D01*
X132891115Y-102919210D01*
X132891115Y-103157305D01*
X132843496Y-103252543D01*
X132795877Y-103300162D01*
X132700639Y-103347781D01*
X132462543Y-103347781D01*
X132367305Y-103300162D01*
X132319686Y-103252543D01*
X137006034Y-93403681D02*
X136672700Y-92927490D01*
X136434605Y-93403681D02*
X136434605Y-92403681D01*
X136815558Y-92403681D01*
X136910796Y-92451300D01*
X136958415Y-92498919D01*
X137006034Y-92594157D01*
X137006034Y-92737014D01*
X136958415Y-92832252D01*
X136910796Y-92879871D01*
X136815558Y-92927490D01*
X136434605Y-92927490D01*
X137863177Y-92403681D02*
X137672700Y-92403681D01*
X137577462Y-92451300D01*
X137529843Y-92498919D01*
X137434605Y-92641776D01*
X137386986Y-92832252D01*
X137386986Y-93213205D01*
X137434605Y-93308443D01*
X137482224Y-93356062D01*
X137577462Y-93403681D01*
X137767939Y-93403681D01*
X137863177Y-93356062D01*
X137910796Y-93308443D01*
X137958415Y-93213205D01*
X137958415Y-92975110D01*
X137910796Y-92879871D01*
X137863177Y-92832252D01*
X137767939Y-92784633D01*
X137577462Y-92784633D01*
X137482224Y-92832252D01*
X137434605Y-92879871D01*
X137386986Y-92975110D01*
X137056834Y-87993481D02*
X136723500Y-87517290D01*
X136485405Y-87993481D02*
X136485405Y-86993481D01*
X136866358Y-86993481D01*
X136961596Y-87041100D01*
X137009215Y-87088719D01*
X137056834Y-87183957D01*
X137056834Y-87326814D01*
X137009215Y-87422052D01*
X136961596Y-87469671D01*
X136866358Y-87517290D01*
X136485405Y-87517290D01*
X137390167Y-86993481D02*
X138056834Y-86993481D01*
X137628262Y-87993481D01*
X137069534Y-103385881D02*
X136736200Y-102909690D01*
X136498105Y-103385881D02*
X136498105Y-102385881D01*
X136879058Y-102385881D01*
X136974296Y-102433500D01*
X137021915Y-102481119D01*
X137069534Y-102576357D01*
X137069534Y-102719214D01*
X137021915Y-102814452D01*
X136974296Y-102862071D01*
X136879058Y-102909690D01*
X136498105Y-102909690D01*
X137545724Y-103385881D02*
X137736200Y-103385881D01*
X137831439Y-103338262D01*
X137879058Y-103290643D01*
X137974296Y-103147786D01*
X138021915Y-102957310D01*
X138021915Y-102576357D01*
X137974296Y-102481119D01*
X137926677Y-102433500D01*
X137831439Y-102385881D01*
X137640962Y-102385881D01*
X137545724Y-102433500D01*
X137498105Y-102481119D01*
X137450486Y-102576357D01*
X137450486Y-102814452D01*
X137498105Y-102909690D01*
X137545724Y-102957310D01*
X137640962Y-103004929D01*
X137831439Y-103004929D01*
X137926677Y-102957310D01*
X137974296Y-102909690D01*
X138021915Y-102814452D01*
X141673343Y-93378281D02*
X141340009Y-92902090D01*
X141101914Y-93378281D02*
X141101914Y-92378281D01*
X141482867Y-92378281D01*
X141578105Y-92425900D01*
X141625724Y-92473519D01*
X141673343Y-92568757D01*
X141673343Y-92711614D01*
X141625724Y-92806852D01*
X141578105Y-92854471D01*
X141482867Y-92902090D01*
X141101914Y-92902090D01*
X142625724Y-93378281D02*
X142054295Y-93378281D01*
X142340009Y-93378281D02*
X142340009Y-92378281D01*
X142244771Y-92521138D01*
X142149533Y-92616376D01*
X142054295Y-92663995D01*
X143244771Y-92378281D02*
X143340010Y-92378281D01*
X143435248Y-92425900D01*
X143482867Y-92473519D01*
X143530486Y-92568757D01*
X143578105Y-92759233D01*
X143578105Y-92997329D01*
X143530486Y-93187805D01*
X143482867Y-93283043D01*
X143435248Y-93330662D01*
X143340010Y-93378281D01*
X143244771Y-93378281D01*
X143149533Y-93330662D01*
X143101914Y-93283043D01*
X143054295Y-93187805D01*
X143006676Y-92997329D01*
X143006676Y-92759233D01*
X143054295Y-92568757D01*
X143101914Y-92473519D01*
X143149533Y-92425900D01*
X143244771Y-92378281D01*
X141609843Y-87904581D02*
X141276509Y-87428390D01*
X141038414Y-87904581D02*
X141038414Y-86904581D01*
X141419367Y-86904581D01*
X141514605Y-86952200D01*
X141562224Y-86999819D01*
X141609843Y-87095057D01*
X141609843Y-87237914D01*
X141562224Y-87333152D01*
X141514605Y-87380771D01*
X141419367Y-87428390D01*
X141038414Y-87428390D01*
X142562224Y-87904581D02*
X141990795Y-87904581D01*
X142276509Y-87904581D02*
X142276509Y-86904581D01*
X142181271Y-87047438D01*
X142086033Y-87142676D01*
X141990795Y-87190295D01*
X143514605Y-87904581D02*
X142943176Y-87904581D01*
X143228890Y-87904581D02*
X143228890Y-86904581D01*
X143133652Y-87047438D01*
X143038414Y-87142676D01*
X142943176Y-87190295D01*
X141736843Y-108656381D02*
X141403509Y-108180190D01*
X141165414Y-108656381D02*
X141165414Y-107656381D01*
X141546367Y-107656381D01*
X141641605Y-107704000D01*
X141689224Y-107751619D01*
X141736843Y-107846857D01*
X141736843Y-107989714D01*
X141689224Y-108084952D01*
X141641605Y-108132571D01*
X141546367Y-108180190D01*
X141165414Y-108180190D01*
X142689224Y-108656381D02*
X142117795Y-108656381D01*
X142403509Y-108656381D02*
X142403509Y-107656381D01*
X142308271Y-107799238D01*
X142213033Y-107894476D01*
X142117795Y-107942095D01*
X143070176Y-107751619D02*
X143117795Y-107704000D01*
X143213033Y-107656381D01*
X143451129Y-107656381D01*
X143546367Y-107704000D01*
X143593986Y-107751619D01*
X143641605Y-107846857D01*
X143641605Y-107942095D01*
X143593986Y-108084952D01*
X143022557Y-108656381D01*
X143641605Y-108656381D01*
X141686043Y-103169981D02*
X141352709Y-102693790D01*
X141114614Y-103169981D02*
X141114614Y-102169981D01*
X141495567Y-102169981D01*
X141590805Y-102217600D01*
X141638424Y-102265219D01*
X141686043Y-102360457D01*
X141686043Y-102503314D01*
X141638424Y-102598552D01*
X141590805Y-102646171D01*
X141495567Y-102693790D01*
X141114614Y-102693790D01*
X142638424Y-103169981D02*
X142066995Y-103169981D01*
X142352709Y-103169981D02*
X142352709Y-102169981D01*
X142257471Y-102312838D01*
X142162233Y-102408076D01*
X142066995Y-102455695D01*
X142971757Y-102169981D02*
X143590805Y-102169981D01*
X143257471Y-102550933D01*
X143400329Y-102550933D01*
X143495567Y-102598552D01*
X143543186Y-102646171D01*
X143590805Y-102741410D01*
X143590805Y-102979505D01*
X143543186Y-103074743D01*
X143495567Y-103122362D01*
X143400329Y-103169981D01*
X143114614Y-103169981D01*
X143019376Y-103122362D01*
X142971757Y-103074743D01*
X187621943Y-96502481D02*
X187288609Y-96026290D01*
X187050514Y-96502481D02*
X187050514Y-95502481D01*
X187431467Y-95502481D01*
X187526705Y-95550100D01*
X187574324Y-95597719D01*
X187621943Y-95692957D01*
X187621943Y-95835814D01*
X187574324Y-95931052D01*
X187526705Y-95978671D01*
X187431467Y-96026290D01*
X187050514Y-96026290D01*
X188574324Y-96502481D02*
X188002895Y-96502481D01*
X188288609Y-96502481D02*
X188288609Y-95502481D01*
X188193371Y-95645338D01*
X188098133Y-95740576D01*
X188002895Y-95788195D01*
X189431467Y-95835814D02*
X189431467Y-96502481D01*
X189193371Y-95454862D02*
X188955276Y-96169148D01*
X189574324Y-96169148D01*
X187774343Y-82278481D02*
X187441009Y-81802290D01*
X187202914Y-82278481D02*
X187202914Y-81278481D01*
X187583867Y-81278481D01*
X187679105Y-81326100D01*
X187726724Y-81373719D01*
X187774343Y-81468957D01*
X187774343Y-81611814D01*
X187726724Y-81707052D01*
X187679105Y-81754671D01*
X187583867Y-81802290D01*
X187202914Y-81802290D01*
X188726724Y-82278481D02*
X188155295Y-82278481D01*
X188441009Y-82278481D02*
X188441009Y-81278481D01*
X188345771Y-81421338D01*
X188250533Y-81516576D01*
X188155295Y-81564195D01*
X189631486Y-81278481D02*
X189155295Y-81278481D01*
X189107676Y-81754671D01*
X189155295Y-81707052D01*
X189250533Y-81659433D01*
X189488629Y-81659433D01*
X189583867Y-81707052D01*
X189631486Y-81754671D01*
X189679105Y-81849910D01*
X189679105Y-82088005D01*
X189631486Y-82183243D01*
X189583867Y-82230862D01*
X189488629Y-82278481D01*
X189250533Y-82278481D01*
X189155295Y-82230862D01*
X189107676Y-82183243D01*
X187812443Y-118740181D02*
X187479109Y-118263990D01*
X187241014Y-118740181D02*
X187241014Y-117740181D01*
X187621967Y-117740181D01*
X187717205Y-117787800D01*
X187764824Y-117835419D01*
X187812443Y-117930657D01*
X187812443Y-118073514D01*
X187764824Y-118168752D01*
X187717205Y-118216371D01*
X187621967Y-118263990D01*
X187241014Y-118263990D01*
X188764824Y-118740181D02*
X188193395Y-118740181D01*
X188479109Y-118740181D02*
X188479109Y-117740181D01*
X188383871Y-117883038D01*
X188288633Y-117978276D01*
X188193395Y-118025895D01*
X189621967Y-117740181D02*
X189431490Y-117740181D01*
X189336252Y-117787800D01*
X189288633Y-117835419D01*
X189193395Y-117978276D01*
X189145776Y-118168752D01*
X189145776Y-118549705D01*
X189193395Y-118644943D01*
X189241014Y-118692562D01*
X189336252Y-118740181D01*
X189526729Y-118740181D01*
X189621967Y-118692562D01*
X189669586Y-118644943D01*
X189717205Y-118549705D01*
X189717205Y-118311610D01*
X189669586Y-118216371D01*
X189621967Y-118168752D01*
X189526729Y-118121133D01*
X189336252Y-118121133D01*
X189241014Y-118168752D01*
X189193395Y-118216371D01*
X189145776Y-118311610D01*
X187761643Y-104681281D02*
X187428309Y-104205090D01*
X187190214Y-104681281D02*
X187190214Y-103681281D01*
X187571167Y-103681281D01*
X187666405Y-103728900D01*
X187714024Y-103776519D01*
X187761643Y-103871757D01*
X187761643Y-104014614D01*
X187714024Y-104109852D01*
X187666405Y-104157471D01*
X187571167Y-104205090D01*
X187190214Y-104205090D01*
X188714024Y-104681281D02*
X188142595Y-104681281D01*
X188428309Y-104681281D02*
X188428309Y-103681281D01*
X188333071Y-103824138D01*
X188237833Y-103919376D01*
X188142595Y-103966995D01*
X189047357Y-103681281D02*
X189714024Y-103681281D01*
X189285452Y-104681281D01*
X150328381Y-98386805D02*
X151137905Y-98386805D01*
X151233143Y-98339186D01*
X151280762Y-98291567D01*
X151328381Y-98196329D01*
X151328381Y-98005852D01*
X151280762Y-97910614D01*
X151233143Y-97862995D01*
X151137905Y-97815376D01*
X150328381Y-97815376D01*
X151328381Y-96815376D02*
X151328381Y-97386805D01*
X151328381Y-97101091D02*
X150328381Y-97101091D01*
X150471238Y-97196329D01*
X150566476Y-97291567D01*
X150614095Y-97386805D01*
X122428095Y-97496381D02*
X122428095Y-98305905D01*
X122475714Y-98401143D01*
X122523333Y-98448762D01*
X122618571Y-98496381D01*
X122809048Y-98496381D01*
X122904286Y-98448762D01*
X122951905Y-98401143D01*
X122999524Y-98305905D01*
X122999524Y-97496381D01*
X123428095Y-97591619D02*
X123475714Y-97544000D01*
X123570952Y-97496381D01*
X123809048Y-97496381D01*
X123904286Y-97544000D01*
X123951905Y-97591619D01*
X123999524Y-97686857D01*
X123999524Y-97782095D01*
X123951905Y-97924952D01*
X123380476Y-98496381D01*
X123999524Y-98496381D01*
X164514281Y-85953505D02*
X165323805Y-85953505D01*
X165419043Y-85905886D01*
X165466662Y-85858267D01*
X165514281Y-85763029D01*
X165514281Y-85572552D01*
X165466662Y-85477314D01*
X165419043Y-85429695D01*
X165323805Y-85382076D01*
X164514281Y-85382076D01*
X164514281Y-85001124D02*
X164514281Y-84382076D01*
X164895233Y-84715410D01*
X164895233Y-84572552D01*
X164942852Y-84477314D01*
X164990471Y-84429695D01*
X165085710Y-84382076D01*
X165323805Y-84382076D01*
X165419043Y-84429695D01*
X165466662Y-84477314D01*
X165514281Y-84572552D01*
X165514281Y-84858267D01*
X165466662Y-84953505D01*
X165419043Y-85001124D01*
X164463481Y-112572705D02*
X165273005Y-112572705D01*
X165368243Y-112525086D01*
X165415862Y-112477467D01*
X165463481Y-112382229D01*
X165463481Y-112191752D01*
X165415862Y-112096514D01*
X165368243Y-112048895D01*
X165273005Y-112001276D01*
X164463481Y-112001276D01*
X164796814Y-111096514D02*
X165463481Y-111096514D01*
X164415862Y-111334610D02*
X165130148Y-111572705D01*
X165130148Y-110953657D01*
M02*
