G04 #@! TF.FileFunction,Profile,NP*
%FSLAX46Y46*%
G04 Gerber Fmt 4.6, Leading zero omitted, Abs format (unit mm)*
G04 Created by KiCad (PCBNEW 4.0.7) date 03/29/18 08:59:41*
%MOMM*%
%LPD*%
G01*
G04 APERTURE LIST*
%ADD10C,0.100000*%
%ADD11C,0.150000*%
G04 APERTURE END LIST*
D10*
D11*
X109702646Y-119926100D02*
G75*
G03X109702646Y-119926100I-1752646J0D01*
G01*
X200710984Y-119938800D02*
G75*
G03X200710984Y-119938800I-1752784J0D01*
G01*
X109703014Y-74930000D02*
G75*
G03X109703014Y-74930000I-1753014J0D01*
G01*
X200609200Y-74930000D02*
G75*
G03X200609200Y-74930000I-1752600J0D01*
G01*
X200611686Y-74930000D02*
G75*
G03X200611686Y-74930000I-1750000J0D01*
G01*
X197111686Y-73180000D02*
X200611686Y-76680000D01*
X197111686Y-76680000D02*
X200611686Y-73180000D01*
X104775000Y-123190000D02*
X104775000Y-71755000D01*
X201930000Y-123190000D02*
X104775000Y-123190000D01*
X201930000Y-71755000D02*
X201930000Y-123190000D01*
X104775000Y-71755000D02*
X201930000Y-71755000D01*
X200700000Y-119930000D02*
G75*
G03X200700000Y-119930000I-1750000J0D01*
G01*
X197200000Y-118180000D02*
X200700000Y-121680000D01*
X197200000Y-121680000D02*
X200700000Y-118180000D01*
X109700000Y-74930000D02*
G75*
G03X109700000Y-74930000I-1750000J0D01*
G01*
X106200000Y-73180000D02*
X109700000Y-76680000D01*
X106200000Y-76680000D02*
X109700000Y-73180000D01*
X109700000Y-119930000D02*
G75*
G03X109700000Y-119930000I-1750000J0D01*
G01*
X106200000Y-118180000D02*
X109700000Y-121680000D01*
X106200000Y-121680000D02*
X109700000Y-118180000D01*
M02*
