M48
;DRILL file {KiCad 4.0.7} date 03/30/18 11:02:19
;FORMAT={-:-/ absolute / metric / decimal}
FMAT,2
METRIC,TZ
T1C0.700
T2C0.800
T3C0.800
T4C0.900
T5C1.000
T6C1.200
%
G90
G05
M71
T1
X122.428Y-114.3
X124.968Y-114.3
X130.81Y-88.9
X130.81Y-91.44
X130.81Y-104.14
X130.81Y-106.68
X133.35Y-88.9
X133.35Y-91.44
X133.35Y-104.14
X133.35Y-106.68
X135.89Y-88.9
X135.89Y-91.44
X135.89Y-104.14
X135.89Y-106.68
X138.43Y-88.9
X138.43Y-91.44
X138.43Y-104.14
X138.43Y-106.68
X140.97Y-88.9
X140.97Y-91.44
X140.97Y-104.14
X140.97Y-106.68
X143.51Y-88.9
X143.51Y-91.44
X143.51Y-104.14
X143.51Y-106.68
T2
X114.3Y-85.424
X114.3Y-90.424
X114.3Y-94.06
X114.3Y-99.06
X119.38Y-86.36
X119.38Y-88.9
X119.38Y-91.44
X119.38Y-93.98
X119.38Y-96.52
X119.38Y-99.06
X119.38Y-101.6
X119.38Y-104.14
X119.38Y-106.68
X119.38Y-109.22
X127.Y-86.36
X127.Y-88.9
X127.Y-91.44
X127.Y-93.98
X127.Y-96.52
X127.Y-99.06
X127.Y-101.6
X127.Y-104.14
X127.Y-106.68
X127.Y-109.22
X130.81Y-110.49
X130.89Y-85.09
X130.89Y-95.25
X130.89Y-100.33
X135.81Y-110.49
X135.89Y-85.09
X135.89Y-95.25
X135.89Y-100.33
X138.43Y-85.09
X138.51Y-95.25
X138.51Y-100.33
X138.51Y-110.49
X143.43Y-85.09
X143.51Y-95.25
X143.51Y-100.33
X143.51Y-110.49
X147.32Y-93.98
X147.32Y-101.6
X147.654Y-82.55
X149.86Y-93.98
X149.86Y-101.6
X152.4Y-93.98
X152.4Y-101.6
X152.4Y-109.22
X152.48Y-87.63
X152.654Y-82.55
X154.94Y-93.98
X154.94Y-101.6
X157.4Y-109.22
X157.48Y-87.63
X159.084Y-94.996
X159.084Y-102.108
X161.29Y-81.28
X161.29Y-88.9
X161.29Y-107.95
X161.29Y-115.57
X163.83Y-81.28
X163.83Y-88.9
X163.83Y-107.95
X163.83Y-115.57
X164.084Y-94.996
X164.084Y-102.108
X166.37Y-81.28
X166.37Y-88.9
X166.37Y-107.95
X166.37Y-115.57
X167.64Y-102.108
X167.72Y-94.996
X168.91Y-81.28
X168.91Y-88.9
X168.91Y-107.95
X168.91Y-115.57
X172.64Y-102.108
X172.72Y-94.996
X173.228Y-79.756
X173.228Y-84.756
X173.228Y-113.872
X173.228Y-118.872
X176.784Y-81.788
X176.784Y-96.012
X176.784Y-104.14
X176.784Y-118.364
X179.324Y-81.788
X179.324Y-96.012
X179.324Y-104.14
X179.324Y-118.364
X183.388Y-81.788
X183.388Y-96.012
X183.388Y-104.14
X183.388Y-118.364
X193.548Y-81.788
X193.548Y-96.012
X193.548Y-104.14
X193.548Y-118.364
T3
X123.825Y-75.692
X127.Y-75.692
X128.524Y-78.105
X130.175Y-75.692
X131.699Y-78.105
X134.874Y-78.105
T4
X176.784Y-86.36
X176.784Y-91.44
X176.784Y-108.712
X176.784Y-113.792
X179.324Y-86.36
X179.324Y-91.44
X179.324Y-108.712
X179.324Y-113.792
X181.864Y-86.36
X181.864Y-91.44
X181.864Y-108.712
X181.864Y-113.792
T5
X113.792Y-80.264
X114.046Y-103.886
X114.046Y-106.426
X114.046Y-108.966
X114.046Y-111.506
X116.332Y-80.264
X118.872Y-80.264
X121.412Y-80.264
T6
X188.976Y-86.36
X188.976Y-88.9
X188.976Y-91.44
X188.976Y-108.712
X188.976Y-111.252
X188.976Y-113.792
T0
M30
