G04 #@! TF.FileFunction,Other,Fab,Top*
%FSLAX46Y46*%
G04 Gerber Fmt 4.6, Leading zero omitted, Abs format (unit mm)*
G04 Created by KiCad (PCBNEW 4.0.7) date 03/28/18 16:01:48*
%MOMM*%
%LPD*%
G01*
G04 APERTURE LIST*
%ADD10C,0.100000*%
%ADD11C,0.150000*%
G04 APERTURE END LIST*
D10*
X139230000Y-106680000D02*
G75*
G03X139230000Y-106680000I-800000J0D01*
G01*
X138430000Y-106680000D02*
X135890000Y-106680000D01*
X146078000Y-90682000D02*
X149578000Y-90682000D01*
X149578000Y-90682000D02*
X149578000Y-83482000D01*
X149578000Y-83482000D02*
X146078000Y-83482000D01*
X146078000Y-83482000D02*
X146078000Y-90682000D01*
X115090000Y-82300000D02*
X118590000Y-82300000D01*
X118590000Y-82300000D02*
X118590000Y-75100000D01*
X118590000Y-75100000D02*
X115090000Y-75100000D01*
X115090000Y-75100000D02*
X115090000Y-82300000D01*
X121440000Y-82380000D02*
X124940000Y-82380000D01*
X124940000Y-82380000D02*
X124940000Y-75180000D01*
X124940000Y-75180000D02*
X121440000Y-75180000D01*
X121440000Y-75180000D02*
X121440000Y-82380000D01*
X136990000Y-86840000D02*
X136990000Y-83340000D01*
X136990000Y-83340000D02*
X129790000Y-83340000D01*
X129790000Y-83340000D02*
X129790000Y-86840000D01*
X129790000Y-86840000D02*
X136990000Y-86840000D01*
X136990000Y-102080000D02*
X136990000Y-98580000D01*
X136990000Y-98580000D02*
X129790000Y-98580000D01*
X129790000Y-98580000D02*
X129790000Y-102080000D01*
X129790000Y-102080000D02*
X136990000Y-102080000D01*
X136990000Y-97000000D02*
X136990000Y-93500000D01*
X136990000Y-93500000D02*
X129790000Y-93500000D01*
X129790000Y-93500000D02*
X129790000Y-97000000D01*
X129790000Y-97000000D02*
X136990000Y-97000000D01*
X136910000Y-112240000D02*
X136910000Y-108740000D01*
X136910000Y-108740000D02*
X129710000Y-108740000D01*
X129710000Y-108740000D02*
X129710000Y-112240000D01*
X129710000Y-112240000D02*
X136910000Y-112240000D01*
X137410000Y-93500000D02*
X137410000Y-97000000D01*
X137410000Y-97000000D02*
X144610000Y-97000000D01*
X144610000Y-97000000D02*
X144610000Y-93500000D01*
X144610000Y-93500000D02*
X137410000Y-93500000D01*
X144530000Y-86840000D02*
X144530000Y-83340000D01*
X144530000Y-83340000D02*
X137330000Y-83340000D01*
X137330000Y-83340000D02*
X137330000Y-86840000D01*
X137330000Y-86840000D02*
X144530000Y-86840000D01*
X137410000Y-108740000D02*
X137410000Y-112240000D01*
X137410000Y-112240000D02*
X144610000Y-112240000D01*
X144610000Y-112240000D02*
X144610000Y-108740000D01*
X144610000Y-108740000D02*
X137410000Y-108740000D01*
X144610000Y-102080000D02*
X144610000Y-98580000D01*
X144610000Y-98580000D02*
X137410000Y-98580000D01*
X137410000Y-98580000D02*
X137410000Y-102080000D01*
X137410000Y-102080000D02*
X144610000Y-102080000D01*
X151380000Y-85880000D02*
X151380000Y-89380000D01*
X151380000Y-89380000D02*
X158580000Y-89380000D01*
X158580000Y-89380000D02*
X158580000Y-85880000D01*
X158580000Y-85880000D02*
X151380000Y-85880000D01*
X151300000Y-107470000D02*
X151300000Y-110970000D01*
X151300000Y-110970000D02*
X158500000Y-110970000D01*
X158500000Y-110970000D02*
X158500000Y-107470000D01*
X158500000Y-107470000D02*
X151300000Y-107470000D01*
X157960000Y-77640000D02*
X154460000Y-77640000D01*
X154460000Y-77640000D02*
X154460000Y-84840000D01*
X154460000Y-84840000D02*
X157960000Y-84840000D01*
X157960000Y-84840000D02*
X157960000Y-77640000D01*
X157730000Y-92230000D02*
X157730000Y-95730000D01*
X157730000Y-95730000D02*
X164930000Y-95730000D01*
X164930000Y-95730000D02*
X164930000Y-92230000D01*
X164930000Y-92230000D02*
X157730000Y-92230000D01*
X164850000Y-104620000D02*
X164850000Y-101120000D01*
X164850000Y-101120000D02*
X157650000Y-101120000D01*
X157650000Y-101120000D02*
X157650000Y-104620000D01*
X157650000Y-104620000D02*
X164850000Y-104620000D01*
X157960000Y-111930000D02*
X154460000Y-111930000D01*
X154460000Y-111930000D02*
X154460000Y-119130000D01*
X154460000Y-119130000D02*
X157960000Y-119130000D01*
X157960000Y-119130000D02*
X157960000Y-111930000D01*
X167670000Y-93650000D02*
X167670000Y-96850000D01*
X167670000Y-96850000D02*
X172770000Y-96850000D01*
X172770000Y-96850000D02*
X172770000Y-93650000D01*
X172770000Y-93650000D02*
X167670000Y-93650000D01*
X166400000Y-75870000D02*
X166400000Y-79070000D01*
X166400000Y-79070000D02*
X171500000Y-79070000D01*
X171500000Y-79070000D02*
X171500000Y-75870000D01*
X171500000Y-75870000D02*
X166400000Y-75870000D01*
X166320000Y-117780000D02*
X166320000Y-120980000D01*
X166320000Y-120980000D02*
X171420000Y-120980000D01*
X171420000Y-120980000D02*
X171420000Y-117780000D01*
X171420000Y-117780000D02*
X166320000Y-117780000D01*
X167670000Y-100000000D02*
X167670000Y-103200000D01*
X167670000Y-103200000D02*
X172770000Y-103200000D01*
X172770000Y-103200000D02*
X172770000Y-100000000D01*
X172770000Y-100000000D02*
X167670000Y-100000000D01*
X177800000Y-83820000D02*
X175260000Y-83820000D01*
X178800000Y-83820000D02*
G75*
G03X178800000Y-83820000I-1000000J0D01*
G01*
X177800000Y-100330000D02*
X175260000Y-100330000D01*
X178800000Y-100330000D02*
G75*
G03X178800000Y-100330000I-1000000J0D01*
G01*
X177800000Y-96520000D02*
X175260000Y-96520000D01*
X178800000Y-96520000D02*
G75*
G03X178800000Y-96520000I-1000000J0D01*
G01*
X177800000Y-113030000D02*
X175260000Y-113030000D01*
X178800000Y-113030000D02*
G75*
G03X178800000Y-113030000I-1000000J0D01*
G01*
X175300000Y-91710000D02*
X175300000Y-93710000D01*
X175300000Y-93710000D02*
X180300000Y-93710000D01*
X180300000Y-93710000D02*
X180300000Y-91710000D01*
X180300000Y-91710000D02*
X175300000Y-91710000D01*
X175300000Y-86630000D02*
X175300000Y-88630000D01*
X175300000Y-88630000D02*
X180300000Y-88630000D01*
X180300000Y-88630000D02*
X180300000Y-86630000D01*
X180300000Y-86630000D02*
X175300000Y-86630000D01*
X175300000Y-108220000D02*
X175300000Y-110220000D01*
X175300000Y-110220000D02*
X180300000Y-110220000D01*
X180300000Y-110220000D02*
X180300000Y-108220000D01*
X180300000Y-108220000D02*
X175300000Y-108220000D01*
X175300000Y-103140000D02*
X175300000Y-105140000D01*
X175300000Y-105140000D02*
X180300000Y-105140000D01*
X180300000Y-105140000D02*
X180300000Y-103140000D01*
X180300000Y-103140000D02*
X175300000Y-103140000D01*
X112395000Y-100330000D02*
X114300000Y-100330000D01*
X114300000Y-100330000D02*
X114300000Y-110490000D01*
X114300000Y-110490000D02*
X111760000Y-110490000D01*
X111760000Y-110490000D02*
X111760000Y-100965000D01*
X111760000Y-100965000D02*
X112395000Y-100330000D01*
X112395000Y-86360000D02*
X114300000Y-86360000D01*
X114300000Y-86360000D02*
X114300000Y-96520000D01*
X114300000Y-96520000D02*
X111760000Y-96520000D01*
X111760000Y-96520000D02*
X111760000Y-86995000D01*
X111760000Y-86995000D02*
X112395000Y-86360000D01*
X182420000Y-85360000D02*
X182420000Y-95060000D01*
X186120000Y-85360000D02*
X182420000Y-85360000D01*
X187120000Y-86360000D02*
X186120000Y-85360000D01*
X187120000Y-95060000D02*
X187120000Y-86360000D01*
X182420000Y-95060000D02*
X187120000Y-95060000D01*
X182420000Y-101870000D02*
X182420000Y-111570000D01*
X186120000Y-101870000D02*
X182420000Y-101870000D01*
X187120000Y-102870000D02*
X186120000Y-101870000D01*
X187120000Y-111570000D02*
X187120000Y-102870000D01*
X182420000Y-111570000D02*
X187120000Y-111570000D01*
X122212000Y-114808000D02*
G75*
G03X122212000Y-114808000I-800000J0D01*
G01*
X121412000Y-114808000D02*
X118872000Y-114808000D01*
X134150000Y-91440000D02*
G75*
G03X134150000Y-91440000I-800000J0D01*
G01*
X133350000Y-91440000D02*
X130810000Y-91440000D01*
X134150000Y-88900000D02*
G75*
G03X134150000Y-88900000I-800000J0D01*
G01*
X133350000Y-88900000D02*
X130810000Y-88900000D01*
X134150000Y-106680000D02*
G75*
G03X134150000Y-106680000I-800000J0D01*
G01*
X133350000Y-106680000D02*
X130810000Y-106680000D01*
X134150000Y-104140000D02*
G75*
G03X134150000Y-104140000I-800000J0D01*
G01*
X133350000Y-104140000D02*
X130810000Y-104140000D01*
X139230000Y-91440000D02*
G75*
G03X139230000Y-91440000I-800000J0D01*
G01*
X138430000Y-91440000D02*
X135890000Y-91440000D01*
X136690000Y-88900000D02*
G75*
G03X136690000Y-88900000I-800000J0D01*
G01*
X135890000Y-88900000D02*
X138430000Y-88900000D01*
X136690000Y-104140000D02*
G75*
G03X136690000Y-104140000I-800000J0D01*
G01*
X135890000Y-104140000D02*
X138430000Y-104140000D01*
X141770000Y-91440000D02*
G75*
G03X141770000Y-91440000I-800000J0D01*
G01*
X140970000Y-91440000D02*
X143510000Y-91440000D01*
X141770000Y-88900000D02*
G75*
G03X141770000Y-88900000I-800000J0D01*
G01*
X140970000Y-88900000D02*
X143510000Y-88900000D01*
X141770000Y-106680000D02*
G75*
G03X141770000Y-106680000I-800000J0D01*
G01*
X140970000Y-106680000D02*
X143510000Y-106680000D01*
X141770000Y-104140000D02*
G75*
G03X141770000Y-104140000I-800000J0D01*
G01*
X140970000Y-104140000D02*
X143510000Y-104140000D01*
X177190000Y-77490000D02*
X177190000Y-79990000D01*
X177190000Y-79990000D02*
X183490000Y-79990000D01*
X183490000Y-79990000D02*
X183490000Y-77490000D01*
X183490000Y-77490000D02*
X177190000Y-77490000D01*
X175260000Y-78740000D02*
X177190000Y-78740000D01*
X185420000Y-78740000D02*
X183490000Y-78740000D01*
X189840000Y-83800000D02*
X189840000Y-81300000D01*
X189840000Y-81300000D02*
X183540000Y-81300000D01*
X183540000Y-81300000D02*
X183540000Y-83800000D01*
X183540000Y-83800000D02*
X189840000Y-83800000D01*
X191770000Y-82550000D02*
X189840000Y-82550000D01*
X181610000Y-82550000D02*
X183540000Y-82550000D01*
X183540000Y-113050000D02*
X183540000Y-115550000D01*
X183540000Y-115550000D02*
X189840000Y-115550000D01*
X189840000Y-115550000D02*
X189840000Y-113050000D01*
X189840000Y-113050000D02*
X183540000Y-113050000D01*
X181610000Y-114300000D02*
X183540000Y-114300000D01*
X191770000Y-114300000D02*
X189840000Y-114300000D01*
X183490000Y-119360000D02*
X183490000Y-116860000D01*
X183490000Y-116860000D02*
X177190000Y-116860000D01*
X177190000Y-116860000D02*
X177190000Y-119360000D01*
X177190000Y-119360000D02*
X183490000Y-119360000D01*
X185420000Y-118110000D02*
X183490000Y-118110000D01*
X175260000Y-118110000D02*
X177190000Y-118110000D01*
X146050000Y-99965000D02*
X146050000Y-94615000D01*
X146050000Y-94615000D02*
X156210000Y-94615000D01*
X156210000Y-94615000D02*
X156210000Y-100965000D01*
X156210000Y-100965000D02*
X147050000Y-100965000D01*
X147050000Y-100965000D02*
X146050000Y-99965000D01*
X121015000Y-85090000D02*
X126365000Y-85090000D01*
X126365000Y-85090000D02*
X126365000Y-110490000D01*
X126365000Y-110490000D02*
X120015000Y-110490000D01*
X120015000Y-110490000D02*
X120015000Y-86090000D01*
X120015000Y-86090000D02*
X121015000Y-85090000D01*
X170180000Y-82915000D02*
X170180000Y-88265000D01*
X170180000Y-88265000D02*
X160020000Y-88265000D01*
X160020000Y-88265000D02*
X160020000Y-81915000D01*
X160020000Y-81915000D02*
X169180000Y-81915000D01*
X169180000Y-81915000D02*
X170180000Y-82915000D01*
X170240000Y-80010000D02*
X159960000Y-80010000D01*
X159960000Y-80010000D02*
X159960000Y-90170000D01*
X159960000Y-90170000D02*
X170240000Y-90170000D01*
X170240000Y-90170000D02*
X170240000Y-80010000D01*
X170180000Y-109585000D02*
X170180000Y-114935000D01*
X170180000Y-114935000D02*
X160020000Y-114935000D01*
X160020000Y-114935000D02*
X160020000Y-108585000D01*
X160020000Y-108585000D02*
X169180000Y-108585000D01*
X169180000Y-108585000D02*
X170180000Y-109585000D01*
X170240000Y-106680000D02*
X159960000Y-106680000D01*
X159960000Y-106680000D02*
X159960000Y-116840000D01*
X159960000Y-116840000D02*
X170240000Y-116840000D01*
X170240000Y-116840000D02*
X170240000Y-106680000D01*
D11*
X135850477Y-105272381D02*
X135279048Y-105272381D01*
X135564762Y-105272381D02*
X135564762Y-104272381D01*
X135469524Y-104415238D01*
X135374286Y-104510476D01*
X135279048Y-104558095D01*
X136183810Y-104272381D02*
X136802858Y-104272381D01*
X136469524Y-104653333D01*
X136612382Y-104653333D01*
X136707620Y-104700952D01*
X136755239Y-104748571D01*
X136802858Y-104843810D01*
X136802858Y-105081905D01*
X136755239Y-105177143D01*
X136707620Y-105224762D01*
X136612382Y-105272381D01*
X136326667Y-105272381D01*
X136231429Y-105224762D01*
X136183810Y-105177143D01*
X137231429Y-105177143D02*
X137279048Y-105224762D01*
X137231429Y-105272381D01*
X137183810Y-105224762D01*
X137231429Y-105177143D01*
X137231429Y-105272381D01*
X137612381Y-104272381D02*
X138279048Y-104272381D01*
X137850476Y-105272381D01*
X138660000Y-105272381D02*
X138660000Y-104272381D01*
X138755238Y-104891429D02*
X139040953Y-105272381D01*
X139040953Y-104605714D02*
X138660000Y-104986667D01*
X150340381Y-88724857D02*
X150340381Y-88629618D01*
X150388000Y-88534380D01*
X150435619Y-88486761D01*
X150530857Y-88439142D01*
X150721333Y-88391523D01*
X150959429Y-88391523D01*
X151149905Y-88439142D01*
X151245143Y-88486761D01*
X151292762Y-88534380D01*
X151340381Y-88629618D01*
X151340381Y-88724857D01*
X151292762Y-88820095D01*
X151245143Y-88867714D01*
X151149905Y-88915333D01*
X150959429Y-88962952D01*
X150721333Y-88962952D01*
X150530857Y-88915333D01*
X150435619Y-88867714D01*
X150388000Y-88820095D01*
X150340381Y-88724857D01*
X151245143Y-87962952D02*
X151292762Y-87915333D01*
X151340381Y-87962952D01*
X151292762Y-88010571D01*
X151245143Y-87962952D01*
X151340381Y-87962952D01*
X151340381Y-86962952D02*
X151340381Y-87534381D01*
X151340381Y-87248667D02*
X150340381Y-87248667D01*
X150483238Y-87343905D01*
X150578476Y-87439143D01*
X150626095Y-87534381D01*
X150673714Y-86105809D02*
X151340381Y-86105809D01*
X150673714Y-86534381D02*
X151197524Y-86534381D01*
X151292762Y-86486762D01*
X151340381Y-86391524D01*
X151340381Y-86248666D01*
X151292762Y-86153428D01*
X151245143Y-86105809D01*
X150816571Y-85296285D02*
X150816571Y-85629619D01*
X151340381Y-85629619D02*
X150340381Y-85629619D01*
X150340381Y-85153428D01*
X148185143Y-87248666D02*
X148232762Y-87296285D01*
X148280381Y-87439142D01*
X148280381Y-87534380D01*
X148232762Y-87677238D01*
X148137524Y-87772476D01*
X148042286Y-87820095D01*
X147851810Y-87867714D01*
X147708952Y-87867714D01*
X147518476Y-87820095D01*
X147423238Y-87772476D01*
X147328000Y-87677238D01*
X147280381Y-87534380D01*
X147280381Y-87439142D01*
X147328000Y-87296285D01*
X147375619Y-87248666D01*
X148280381Y-86296285D02*
X148280381Y-86867714D01*
X148280381Y-86582000D02*
X147280381Y-86582000D01*
X147423238Y-86677238D01*
X147518476Y-86772476D01*
X147566095Y-86867714D01*
X119352381Y-80342857D02*
X119352381Y-80247618D01*
X119400000Y-80152380D01*
X119447619Y-80104761D01*
X119542857Y-80057142D01*
X119733333Y-80009523D01*
X119971429Y-80009523D01*
X120161905Y-80057142D01*
X120257143Y-80104761D01*
X120304762Y-80152380D01*
X120352381Y-80247618D01*
X120352381Y-80342857D01*
X120304762Y-80438095D01*
X120257143Y-80485714D01*
X120161905Y-80533333D01*
X119971429Y-80580952D01*
X119733333Y-80580952D01*
X119542857Y-80533333D01*
X119447619Y-80485714D01*
X119400000Y-80438095D01*
X119352381Y-80342857D01*
X120257143Y-79580952D02*
X120304762Y-79533333D01*
X120352381Y-79580952D01*
X120304762Y-79628571D01*
X120257143Y-79580952D01*
X120352381Y-79580952D01*
X120352381Y-78580952D02*
X120352381Y-79152381D01*
X120352381Y-78866667D02*
X119352381Y-78866667D01*
X119495238Y-78961905D01*
X119590476Y-79057143D01*
X119638095Y-79152381D01*
X119685714Y-77723809D02*
X120352381Y-77723809D01*
X119685714Y-78152381D02*
X120209524Y-78152381D01*
X120304762Y-78104762D01*
X120352381Y-78009524D01*
X120352381Y-77866666D01*
X120304762Y-77771428D01*
X120257143Y-77723809D01*
X119828571Y-76914285D02*
X119828571Y-77247619D01*
X120352381Y-77247619D02*
X119352381Y-77247619D01*
X119352381Y-76771428D01*
X117197143Y-78826666D02*
X117244762Y-78874285D01*
X117292381Y-79017142D01*
X117292381Y-79112380D01*
X117244762Y-79255238D01*
X117149524Y-79350476D01*
X117054286Y-79398095D01*
X116863810Y-79445714D01*
X116720952Y-79445714D01*
X116530476Y-79398095D01*
X116435238Y-79350476D01*
X116340000Y-79255238D01*
X116292381Y-79112380D01*
X116292381Y-79017142D01*
X116340000Y-78874285D01*
X116387619Y-78826666D01*
X116387619Y-78445714D02*
X116340000Y-78398095D01*
X116292381Y-78302857D01*
X116292381Y-78064761D01*
X116340000Y-77969523D01*
X116387619Y-77921904D01*
X116482857Y-77874285D01*
X116578095Y-77874285D01*
X116720952Y-77921904D01*
X117292381Y-78493333D01*
X117292381Y-77874285D01*
X126702381Y-79851428D02*
X126702381Y-80422857D01*
X126702381Y-80137143D02*
X125702381Y-80137143D01*
X125845238Y-80232381D01*
X125940476Y-80327619D01*
X125988095Y-80422857D01*
X125702381Y-79232381D02*
X125702381Y-79137142D01*
X125750000Y-79041904D01*
X125797619Y-78994285D01*
X125892857Y-78946666D01*
X126083333Y-78899047D01*
X126321429Y-78899047D01*
X126511905Y-78946666D01*
X126607143Y-78994285D01*
X126654762Y-79041904D01*
X126702381Y-79137142D01*
X126702381Y-79232381D01*
X126654762Y-79327619D01*
X126607143Y-79375238D01*
X126511905Y-79422857D01*
X126321429Y-79470476D01*
X126083333Y-79470476D01*
X125892857Y-79422857D01*
X125797619Y-79375238D01*
X125750000Y-79327619D01*
X125702381Y-79232381D01*
X126035714Y-78041904D02*
X126702381Y-78041904D01*
X126035714Y-78470476D02*
X126559524Y-78470476D01*
X126654762Y-78422857D01*
X126702381Y-78327619D01*
X126702381Y-78184761D01*
X126654762Y-78089523D01*
X126607143Y-78041904D01*
X126178571Y-77232380D02*
X126178571Y-77565714D01*
X126702381Y-77565714D02*
X125702381Y-77565714D01*
X125702381Y-77089523D01*
X123547143Y-78946666D02*
X123594762Y-78994285D01*
X123642381Y-79137142D01*
X123642381Y-79232380D01*
X123594762Y-79375238D01*
X123499524Y-79470476D01*
X123404286Y-79518095D01*
X123213810Y-79565714D01*
X123070952Y-79565714D01*
X122880476Y-79518095D01*
X122785238Y-79470476D01*
X122690000Y-79375238D01*
X122642381Y-79232380D01*
X122642381Y-79137142D01*
X122690000Y-78994285D01*
X122737619Y-78946666D01*
X122642381Y-78613333D02*
X122642381Y-77994285D01*
X123023333Y-78327619D01*
X123023333Y-78184761D01*
X123070952Y-78089523D01*
X123118571Y-78041904D01*
X123213810Y-77994285D01*
X123451905Y-77994285D01*
X123547143Y-78041904D01*
X123594762Y-78089523D01*
X123642381Y-78184761D01*
X123642381Y-78470476D01*
X123594762Y-78565714D01*
X123547143Y-78613333D01*
X132794762Y-82482381D02*
X132223333Y-82482381D01*
X132509047Y-82482381D02*
X132509047Y-81482381D01*
X132413809Y-81625238D01*
X132318571Y-81720476D01*
X132223333Y-81768095D01*
X133223333Y-81815714D02*
X133223333Y-82482381D01*
X133223333Y-81910952D02*
X133270952Y-81863333D01*
X133366190Y-81815714D01*
X133509048Y-81815714D01*
X133604286Y-81863333D01*
X133651905Y-81958571D01*
X133651905Y-82482381D01*
X134461429Y-81958571D02*
X134128095Y-81958571D01*
X134128095Y-82482381D02*
X134128095Y-81482381D01*
X134604286Y-81482381D01*
X133223334Y-85447143D02*
X133175715Y-85494762D01*
X133032858Y-85542381D01*
X132937620Y-85542381D01*
X132794762Y-85494762D01*
X132699524Y-85399524D01*
X132651905Y-85304286D01*
X132604286Y-85113810D01*
X132604286Y-84970952D01*
X132651905Y-84780476D01*
X132699524Y-84685238D01*
X132794762Y-84590000D01*
X132937620Y-84542381D01*
X133032858Y-84542381D01*
X133175715Y-84590000D01*
X133223334Y-84637619D01*
X134080477Y-84875714D02*
X134080477Y-85542381D01*
X133842381Y-84494762D02*
X133604286Y-85209048D01*
X134223334Y-85209048D01*
X132794762Y-97722381D02*
X132223333Y-97722381D01*
X132509047Y-97722381D02*
X132509047Y-96722381D01*
X132413809Y-96865238D01*
X132318571Y-96960476D01*
X132223333Y-97008095D01*
X133223333Y-97055714D02*
X133223333Y-97722381D01*
X133223333Y-97150952D02*
X133270952Y-97103333D01*
X133366190Y-97055714D01*
X133509048Y-97055714D01*
X133604286Y-97103333D01*
X133651905Y-97198571D01*
X133651905Y-97722381D01*
X134461429Y-97198571D02*
X134128095Y-97198571D01*
X134128095Y-97722381D02*
X134128095Y-96722381D01*
X134604286Y-96722381D01*
X133263334Y-100687143D02*
X133215715Y-100734762D01*
X133072858Y-100782381D01*
X132977620Y-100782381D01*
X132834762Y-100734762D01*
X132739524Y-100639524D01*
X132691905Y-100544286D01*
X132644286Y-100353810D01*
X132644286Y-100210952D01*
X132691905Y-100020476D01*
X132739524Y-99925238D01*
X132834762Y-99830000D01*
X132977620Y-99782381D01*
X133072858Y-99782381D01*
X133215715Y-99830000D01*
X133263334Y-99877619D01*
X134168096Y-99782381D02*
X133691905Y-99782381D01*
X133644286Y-100258571D01*
X133691905Y-100210952D01*
X133787143Y-100163333D01*
X134025239Y-100163333D01*
X134120477Y-100210952D01*
X134168096Y-100258571D01*
X134215715Y-100353810D01*
X134215715Y-100591905D01*
X134168096Y-100687143D01*
X134120477Y-100734762D01*
X134025239Y-100782381D01*
X133787143Y-100782381D01*
X133691905Y-100734762D01*
X133644286Y-100687143D01*
X132794762Y-92642381D02*
X132223333Y-92642381D01*
X132509047Y-92642381D02*
X132509047Y-91642381D01*
X132413809Y-91785238D01*
X132318571Y-91880476D01*
X132223333Y-91928095D01*
X133223333Y-91975714D02*
X133223333Y-92642381D01*
X133223333Y-92070952D02*
X133270952Y-92023333D01*
X133366190Y-91975714D01*
X133509048Y-91975714D01*
X133604286Y-92023333D01*
X133651905Y-92118571D01*
X133651905Y-92642381D01*
X134461429Y-92118571D02*
X134128095Y-92118571D01*
X134128095Y-92642381D02*
X134128095Y-91642381D01*
X134604286Y-91642381D01*
X133223334Y-95607143D02*
X133175715Y-95654762D01*
X133032858Y-95702381D01*
X132937620Y-95702381D01*
X132794762Y-95654762D01*
X132699524Y-95559524D01*
X132651905Y-95464286D01*
X132604286Y-95273810D01*
X132604286Y-95130952D01*
X132651905Y-94940476D01*
X132699524Y-94845238D01*
X132794762Y-94750000D01*
X132937620Y-94702381D01*
X133032858Y-94702381D01*
X133175715Y-94750000D01*
X133223334Y-94797619D01*
X134080477Y-94702381D02*
X133890000Y-94702381D01*
X133794762Y-94750000D01*
X133747143Y-94797619D01*
X133651905Y-94940476D01*
X133604286Y-95130952D01*
X133604286Y-95511905D01*
X133651905Y-95607143D01*
X133699524Y-95654762D01*
X133794762Y-95702381D01*
X133985239Y-95702381D01*
X134080477Y-95654762D01*
X134128096Y-95607143D01*
X134175715Y-95511905D01*
X134175715Y-95273810D01*
X134128096Y-95178571D01*
X134080477Y-95130952D01*
X133985239Y-95083333D01*
X133794762Y-95083333D01*
X133699524Y-95130952D01*
X133651905Y-95178571D01*
X133604286Y-95273810D01*
X132714762Y-107882381D02*
X132143333Y-107882381D01*
X132429047Y-107882381D02*
X132429047Y-106882381D01*
X132333809Y-107025238D01*
X132238571Y-107120476D01*
X132143333Y-107168095D01*
X133143333Y-107215714D02*
X133143333Y-107882381D01*
X133143333Y-107310952D02*
X133190952Y-107263333D01*
X133286190Y-107215714D01*
X133429048Y-107215714D01*
X133524286Y-107263333D01*
X133571905Y-107358571D01*
X133571905Y-107882381D01*
X134381429Y-107358571D02*
X134048095Y-107358571D01*
X134048095Y-107882381D02*
X134048095Y-106882381D01*
X134524286Y-106882381D01*
X133143334Y-110847143D02*
X133095715Y-110894762D01*
X132952858Y-110942381D01*
X132857620Y-110942381D01*
X132714762Y-110894762D01*
X132619524Y-110799524D01*
X132571905Y-110704286D01*
X132524286Y-110513810D01*
X132524286Y-110370952D01*
X132571905Y-110180476D01*
X132619524Y-110085238D01*
X132714762Y-109990000D01*
X132857620Y-109942381D01*
X132952858Y-109942381D01*
X133095715Y-109990000D01*
X133143334Y-110037619D01*
X133476667Y-109942381D02*
X134143334Y-109942381D01*
X133714762Y-110942381D01*
X138890952Y-97857619D02*
X138938571Y-97810000D01*
X139033809Y-97762381D01*
X139271905Y-97762381D01*
X139367143Y-97810000D01*
X139414762Y-97857619D01*
X139462381Y-97952857D01*
X139462381Y-98048095D01*
X139414762Y-98190952D01*
X138843333Y-98762381D01*
X139462381Y-98762381D01*
X139843333Y-97857619D02*
X139890952Y-97810000D01*
X139986190Y-97762381D01*
X140224286Y-97762381D01*
X140319524Y-97810000D01*
X140367143Y-97857619D01*
X140414762Y-97952857D01*
X140414762Y-98048095D01*
X140367143Y-98190952D01*
X139795714Y-98762381D01*
X140414762Y-98762381D01*
X141033809Y-97762381D02*
X141129048Y-97762381D01*
X141224286Y-97810000D01*
X141271905Y-97857619D01*
X141319524Y-97952857D01*
X141367143Y-98143333D01*
X141367143Y-98381429D01*
X141319524Y-98571905D01*
X141271905Y-98667143D01*
X141224286Y-98714762D01*
X141129048Y-98762381D01*
X141033809Y-98762381D01*
X140938571Y-98714762D01*
X140890952Y-98667143D01*
X140843333Y-98571905D01*
X140795714Y-98381429D01*
X140795714Y-98143333D01*
X140843333Y-97952857D01*
X140890952Y-97857619D01*
X140938571Y-97810000D01*
X141033809Y-97762381D01*
X141795714Y-98095714D02*
X141795714Y-99095714D01*
X141795714Y-98143333D02*
X141890952Y-98095714D01*
X142081429Y-98095714D01*
X142176667Y-98143333D01*
X142224286Y-98190952D01*
X142271905Y-98286190D01*
X142271905Y-98571905D01*
X142224286Y-98667143D01*
X142176667Y-98714762D01*
X142081429Y-98762381D01*
X141890952Y-98762381D01*
X141795714Y-98714762D01*
X143033810Y-98238571D02*
X142700476Y-98238571D01*
X142700476Y-98762381D02*
X142700476Y-97762381D01*
X143176667Y-97762381D01*
X140803334Y-95607143D02*
X140755715Y-95654762D01*
X140612858Y-95702381D01*
X140517620Y-95702381D01*
X140374762Y-95654762D01*
X140279524Y-95559524D01*
X140231905Y-95464286D01*
X140184286Y-95273810D01*
X140184286Y-95130952D01*
X140231905Y-94940476D01*
X140279524Y-94845238D01*
X140374762Y-94750000D01*
X140517620Y-94702381D01*
X140612858Y-94702381D01*
X140755715Y-94750000D01*
X140803334Y-94797619D01*
X141374762Y-95130952D02*
X141279524Y-95083333D01*
X141231905Y-95035714D01*
X141184286Y-94940476D01*
X141184286Y-94892857D01*
X141231905Y-94797619D01*
X141279524Y-94750000D01*
X141374762Y-94702381D01*
X141565239Y-94702381D01*
X141660477Y-94750000D01*
X141708096Y-94797619D01*
X141755715Y-94892857D01*
X141755715Y-94940476D01*
X141708096Y-95035714D01*
X141660477Y-95083333D01*
X141565239Y-95130952D01*
X141374762Y-95130952D01*
X141279524Y-95178571D01*
X141231905Y-95226190D01*
X141184286Y-95321429D01*
X141184286Y-95511905D01*
X141231905Y-95607143D01*
X141279524Y-95654762D01*
X141374762Y-95702381D01*
X141565239Y-95702381D01*
X141660477Y-95654762D01*
X141708096Y-95607143D01*
X141755715Y-95511905D01*
X141755715Y-95321429D01*
X141708096Y-95226190D01*
X141660477Y-95178571D01*
X141565239Y-95130952D01*
X138810952Y-81577619D02*
X138858571Y-81530000D01*
X138953809Y-81482381D01*
X139191905Y-81482381D01*
X139287143Y-81530000D01*
X139334762Y-81577619D01*
X139382381Y-81672857D01*
X139382381Y-81768095D01*
X139334762Y-81910952D01*
X138763333Y-82482381D01*
X139382381Y-82482381D01*
X139763333Y-81577619D02*
X139810952Y-81530000D01*
X139906190Y-81482381D01*
X140144286Y-81482381D01*
X140239524Y-81530000D01*
X140287143Y-81577619D01*
X140334762Y-81672857D01*
X140334762Y-81768095D01*
X140287143Y-81910952D01*
X139715714Y-82482381D01*
X140334762Y-82482381D01*
X140953809Y-81482381D02*
X141049048Y-81482381D01*
X141144286Y-81530000D01*
X141191905Y-81577619D01*
X141239524Y-81672857D01*
X141287143Y-81863333D01*
X141287143Y-82101429D01*
X141239524Y-82291905D01*
X141191905Y-82387143D01*
X141144286Y-82434762D01*
X141049048Y-82482381D01*
X140953809Y-82482381D01*
X140858571Y-82434762D01*
X140810952Y-82387143D01*
X140763333Y-82291905D01*
X140715714Y-82101429D01*
X140715714Y-81863333D01*
X140763333Y-81672857D01*
X140810952Y-81577619D01*
X140858571Y-81530000D01*
X140953809Y-81482381D01*
X141715714Y-81815714D02*
X141715714Y-82815714D01*
X141715714Y-81863333D02*
X141810952Y-81815714D01*
X142001429Y-81815714D01*
X142096667Y-81863333D01*
X142144286Y-81910952D01*
X142191905Y-82006190D01*
X142191905Y-82291905D01*
X142144286Y-82387143D01*
X142096667Y-82434762D01*
X142001429Y-82482381D01*
X141810952Y-82482381D01*
X141715714Y-82434762D01*
X142953810Y-81958571D02*
X142620476Y-81958571D01*
X142620476Y-82482381D02*
X142620476Y-81482381D01*
X143096667Y-81482381D01*
X140763334Y-85447143D02*
X140715715Y-85494762D01*
X140572858Y-85542381D01*
X140477620Y-85542381D01*
X140334762Y-85494762D01*
X140239524Y-85399524D01*
X140191905Y-85304286D01*
X140144286Y-85113810D01*
X140144286Y-84970952D01*
X140191905Y-84780476D01*
X140239524Y-84685238D01*
X140334762Y-84590000D01*
X140477620Y-84542381D01*
X140572858Y-84542381D01*
X140715715Y-84590000D01*
X140763334Y-84637619D01*
X141239524Y-85542381D02*
X141430000Y-85542381D01*
X141525239Y-85494762D01*
X141572858Y-85447143D01*
X141668096Y-85304286D01*
X141715715Y-85113810D01*
X141715715Y-84732857D01*
X141668096Y-84637619D01*
X141620477Y-84590000D01*
X141525239Y-84542381D01*
X141334762Y-84542381D01*
X141239524Y-84590000D01*
X141191905Y-84637619D01*
X141144286Y-84732857D01*
X141144286Y-84970952D01*
X141191905Y-85066190D01*
X141239524Y-85113810D01*
X141334762Y-85161429D01*
X141525239Y-85161429D01*
X141620477Y-85113810D01*
X141668096Y-85066190D01*
X141715715Y-84970952D01*
X138890952Y-113097619D02*
X138938571Y-113050000D01*
X139033809Y-113002381D01*
X139271905Y-113002381D01*
X139367143Y-113050000D01*
X139414762Y-113097619D01*
X139462381Y-113192857D01*
X139462381Y-113288095D01*
X139414762Y-113430952D01*
X138843333Y-114002381D01*
X139462381Y-114002381D01*
X139843333Y-113097619D02*
X139890952Y-113050000D01*
X139986190Y-113002381D01*
X140224286Y-113002381D01*
X140319524Y-113050000D01*
X140367143Y-113097619D01*
X140414762Y-113192857D01*
X140414762Y-113288095D01*
X140367143Y-113430952D01*
X139795714Y-114002381D01*
X140414762Y-114002381D01*
X141033809Y-113002381D02*
X141129048Y-113002381D01*
X141224286Y-113050000D01*
X141271905Y-113097619D01*
X141319524Y-113192857D01*
X141367143Y-113383333D01*
X141367143Y-113621429D01*
X141319524Y-113811905D01*
X141271905Y-113907143D01*
X141224286Y-113954762D01*
X141129048Y-114002381D01*
X141033809Y-114002381D01*
X140938571Y-113954762D01*
X140890952Y-113907143D01*
X140843333Y-113811905D01*
X140795714Y-113621429D01*
X140795714Y-113383333D01*
X140843333Y-113192857D01*
X140890952Y-113097619D01*
X140938571Y-113050000D01*
X141033809Y-113002381D01*
X141795714Y-113335714D02*
X141795714Y-114335714D01*
X141795714Y-113383333D02*
X141890952Y-113335714D01*
X142081429Y-113335714D01*
X142176667Y-113383333D01*
X142224286Y-113430952D01*
X142271905Y-113526190D01*
X142271905Y-113811905D01*
X142224286Y-113907143D01*
X142176667Y-113954762D01*
X142081429Y-114002381D01*
X141890952Y-114002381D01*
X141795714Y-113954762D01*
X143033810Y-113478571D02*
X142700476Y-113478571D01*
X142700476Y-114002381D02*
X142700476Y-113002381D01*
X143176667Y-113002381D01*
X140367143Y-110847143D02*
X140319524Y-110894762D01*
X140176667Y-110942381D01*
X140081429Y-110942381D01*
X139938571Y-110894762D01*
X139843333Y-110799524D01*
X139795714Y-110704286D01*
X139748095Y-110513810D01*
X139748095Y-110370952D01*
X139795714Y-110180476D01*
X139843333Y-110085238D01*
X139938571Y-109990000D01*
X140081429Y-109942381D01*
X140176667Y-109942381D01*
X140319524Y-109990000D01*
X140367143Y-110037619D01*
X141319524Y-110942381D02*
X140748095Y-110942381D01*
X141033809Y-110942381D02*
X141033809Y-109942381D01*
X140938571Y-110085238D01*
X140843333Y-110180476D01*
X140748095Y-110228095D01*
X141938571Y-109942381D02*
X142033810Y-109942381D01*
X142129048Y-109990000D01*
X142176667Y-110037619D01*
X142224286Y-110132857D01*
X142271905Y-110323333D01*
X142271905Y-110561429D01*
X142224286Y-110751905D01*
X142176667Y-110847143D01*
X142129048Y-110894762D01*
X142033810Y-110942381D01*
X141938571Y-110942381D01*
X141843333Y-110894762D01*
X141795714Y-110847143D01*
X141748095Y-110751905D01*
X141700476Y-110561429D01*
X141700476Y-110323333D01*
X141748095Y-110132857D01*
X141795714Y-110037619D01*
X141843333Y-109990000D01*
X141938571Y-109942381D01*
X138890952Y-96817619D02*
X138938571Y-96770000D01*
X139033809Y-96722381D01*
X139271905Y-96722381D01*
X139367143Y-96770000D01*
X139414762Y-96817619D01*
X139462381Y-96912857D01*
X139462381Y-97008095D01*
X139414762Y-97150952D01*
X138843333Y-97722381D01*
X139462381Y-97722381D01*
X139843333Y-96817619D02*
X139890952Y-96770000D01*
X139986190Y-96722381D01*
X140224286Y-96722381D01*
X140319524Y-96770000D01*
X140367143Y-96817619D01*
X140414762Y-96912857D01*
X140414762Y-97008095D01*
X140367143Y-97150952D01*
X139795714Y-97722381D01*
X140414762Y-97722381D01*
X141033809Y-96722381D02*
X141129048Y-96722381D01*
X141224286Y-96770000D01*
X141271905Y-96817619D01*
X141319524Y-96912857D01*
X141367143Y-97103333D01*
X141367143Y-97341429D01*
X141319524Y-97531905D01*
X141271905Y-97627143D01*
X141224286Y-97674762D01*
X141129048Y-97722381D01*
X141033809Y-97722381D01*
X140938571Y-97674762D01*
X140890952Y-97627143D01*
X140843333Y-97531905D01*
X140795714Y-97341429D01*
X140795714Y-97103333D01*
X140843333Y-96912857D01*
X140890952Y-96817619D01*
X140938571Y-96770000D01*
X141033809Y-96722381D01*
X141795714Y-97055714D02*
X141795714Y-98055714D01*
X141795714Y-97103333D02*
X141890952Y-97055714D01*
X142081429Y-97055714D01*
X142176667Y-97103333D01*
X142224286Y-97150952D01*
X142271905Y-97246190D01*
X142271905Y-97531905D01*
X142224286Y-97627143D01*
X142176667Y-97674762D01*
X142081429Y-97722381D01*
X141890952Y-97722381D01*
X141795714Y-97674762D01*
X143033810Y-97198571D02*
X142700476Y-97198571D01*
X142700476Y-97722381D02*
X142700476Y-96722381D01*
X143176667Y-96722381D01*
X140367143Y-100687143D02*
X140319524Y-100734762D01*
X140176667Y-100782381D01*
X140081429Y-100782381D01*
X139938571Y-100734762D01*
X139843333Y-100639524D01*
X139795714Y-100544286D01*
X139748095Y-100353810D01*
X139748095Y-100210952D01*
X139795714Y-100020476D01*
X139843333Y-99925238D01*
X139938571Y-99830000D01*
X140081429Y-99782381D01*
X140176667Y-99782381D01*
X140319524Y-99830000D01*
X140367143Y-99877619D01*
X141319524Y-100782381D02*
X140748095Y-100782381D01*
X141033809Y-100782381D02*
X141033809Y-99782381D01*
X140938571Y-99925238D01*
X140843333Y-100020476D01*
X140748095Y-100068095D01*
X142271905Y-100782381D02*
X141700476Y-100782381D01*
X141986190Y-100782381D02*
X141986190Y-99782381D01*
X141890952Y-99925238D01*
X141795714Y-100020476D01*
X141700476Y-100068095D01*
X153813334Y-90475714D02*
X153813334Y-91142381D01*
X153575238Y-90094762D02*
X153337143Y-90809048D01*
X153956191Y-90809048D01*
X154241905Y-90142381D02*
X154908572Y-90142381D01*
X154480000Y-91142381D01*
X155718096Y-90475714D02*
X155718096Y-91142381D01*
X155289524Y-90475714D02*
X155289524Y-90999524D01*
X155337143Y-91094762D01*
X155432381Y-91142381D01*
X155575239Y-91142381D01*
X155670477Y-91094762D01*
X155718096Y-91047143D01*
X156527620Y-90618571D02*
X156194286Y-90618571D01*
X156194286Y-91142381D02*
X156194286Y-90142381D01*
X156670477Y-90142381D01*
X154337143Y-87987143D02*
X154289524Y-88034762D01*
X154146667Y-88082381D01*
X154051429Y-88082381D01*
X153908571Y-88034762D01*
X153813333Y-87939524D01*
X153765714Y-87844286D01*
X153718095Y-87653810D01*
X153718095Y-87510952D01*
X153765714Y-87320476D01*
X153813333Y-87225238D01*
X153908571Y-87130000D01*
X154051429Y-87082381D01*
X154146667Y-87082381D01*
X154289524Y-87130000D01*
X154337143Y-87177619D01*
X155289524Y-88082381D02*
X154718095Y-88082381D01*
X155003809Y-88082381D02*
X155003809Y-87082381D01*
X154908571Y-87225238D01*
X154813333Y-87320476D01*
X154718095Y-87368095D01*
X155670476Y-87177619D02*
X155718095Y-87130000D01*
X155813333Y-87082381D01*
X156051429Y-87082381D01*
X156146667Y-87130000D01*
X156194286Y-87177619D01*
X156241905Y-87272857D01*
X156241905Y-87368095D01*
X156194286Y-87510952D01*
X155622857Y-88082381D01*
X156241905Y-88082381D01*
X153733334Y-112065714D02*
X153733334Y-112732381D01*
X153495238Y-111684762D02*
X153257143Y-112399048D01*
X153876191Y-112399048D01*
X154161905Y-111732381D02*
X154828572Y-111732381D01*
X154400000Y-112732381D01*
X155638096Y-112065714D02*
X155638096Y-112732381D01*
X155209524Y-112065714D02*
X155209524Y-112589524D01*
X155257143Y-112684762D01*
X155352381Y-112732381D01*
X155495239Y-112732381D01*
X155590477Y-112684762D01*
X155638096Y-112637143D01*
X156447620Y-112208571D02*
X156114286Y-112208571D01*
X156114286Y-112732381D02*
X156114286Y-111732381D01*
X156590477Y-111732381D01*
X154257143Y-109577143D02*
X154209524Y-109624762D01*
X154066667Y-109672381D01*
X153971429Y-109672381D01*
X153828571Y-109624762D01*
X153733333Y-109529524D01*
X153685714Y-109434286D01*
X153638095Y-109243810D01*
X153638095Y-109100952D01*
X153685714Y-108910476D01*
X153733333Y-108815238D01*
X153828571Y-108720000D01*
X153971429Y-108672381D01*
X154066667Y-108672381D01*
X154209524Y-108720000D01*
X154257143Y-108767619D01*
X155209524Y-109672381D02*
X154638095Y-109672381D01*
X154923809Y-109672381D02*
X154923809Y-108672381D01*
X154828571Y-108815238D01*
X154733333Y-108910476D01*
X154638095Y-108958095D01*
X155542857Y-108672381D02*
X156161905Y-108672381D01*
X155828571Y-109053333D01*
X155971429Y-109053333D01*
X156066667Y-109100952D01*
X156114286Y-109148571D01*
X156161905Y-109243810D01*
X156161905Y-109481905D01*
X156114286Y-109577143D01*
X156066667Y-109624762D01*
X155971429Y-109672381D01*
X155685714Y-109672381D01*
X155590476Y-109624762D01*
X155542857Y-109577143D01*
X153602381Y-81835238D02*
X153602381Y-82406667D01*
X153602381Y-82120953D02*
X152602381Y-82120953D01*
X152745238Y-82216191D01*
X152840476Y-82311429D01*
X152888095Y-82406667D01*
X152935714Y-80978095D02*
X153602381Y-80978095D01*
X152935714Y-81406667D02*
X153459524Y-81406667D01*
X153554762Y-81359048D01*
X153602381Y-81263810D01*
X153602381Y-81120952D01*
X153554762Y-81025714D01*
X153507143Y-80978095D01*
X153078571Y-80168571D02*
X153078571Y-80501905D01*
X153602381Y-80501905D02*
X152602381Y-80501905D01*
X152602381Y-80025714D01*
X156567143Y-81882857D02*
X156614762Y-81930476D01*
X156662381Y-82073333D01*
X156662381Y-82168571D01*
X156614762Y-82311429D01*
X156519524Y-82406667D01*
X156424286Y-82454286D01*
X156233810Y-82501905D01*
X156090952Y-82501905D01*
X155900476Y-82454286D01*
X155805238Y-82406667D01*
X155710000Y-82311429D01*
X155662381Y-82168571D01*
X155662381Y-82073333D01*
X155710000Y-81930476D01*
X155757619Y-81882857D01*
X156662381Y-80930476D02*
X156662381Y-81501905D01*
X156662381Y-81216191D02*
X155662381Y-81216191D01*
X155805238Y-81311429D01*
X155900476Y-81406667D01*
X155948095Y-81501905D01*
X155995714Y-80073333D02*
X156662381Y-80073333D01*
X155614762Y-80311429D02*
X156329048Y-80549524D01*
X156329048Y-79930476D01*
X160734762Y-97492381D02*
X160163333Y-97492381D01*
X160449047Y-97492381D02*
X160449047Y-96492381D01*
X160353809Y-96635238D01*
X160258571Y-96730476D01*
X160163333Y-96778095D01*
X161591905Y-96825714D02*
X161591905Y-97492381D01*
X161163333Y-96825714D02*
X161163333Y-97349524D01*
X161210952Y-97444762D01*
X161306190Y-97492381D01*
X161449048Y-97492381D01*
X161544286Y-97444762D01*
X161591905Y-97397143D01*
X162401429Y-96968571D02*
X162068095Y-96968571D01*
X162068095Y-97492381D02*
X162068095Y-96492381D01*
X162544286Y-96492381D01*
X160687143Y-94337143D02*
X160639524Y-94384762D01*
X160496667Y-94432381D01*
X160401429Y-94432381D01*
X160258571Y-94384762D01*
X160163333Y-94289524D01*
X160115714Y-94194286D01*
X160068095Y-94003810D01*
X160068095Y-93860952D01*
X160115714Y-93670476D01*
X160163333Y-93575238D01*
X160258571Y-93480000D01*
X160401429Y-93432381D01*
X160496667Y-93432381D01*
X160639524Y-93480000D01*
X160687143Y-93527619D01*
X161639524Y-94432381D02*
X161068095Y-94432381D01*
X161353809Y-94432381D02*
X161353809Y-93432381D01*
X161258571Y-93575238D01*
X161163333Y-93670476D01*
X161068095Y-93718095D01*
X162544286Y-93432381D02*
X162068095Y-93432381D01*
X162020476Y-93908571D01*
X162068095Y-93860952D01*
X162163333Y-93813333D01*
X162401429Y-93813333D01*
X162496667Y-93860952D01*
X162544286Y-93908571D01*
X162591905Y-94003810D01*
X162591905Y-94241905D01*
X162544286Y-94337143D01*
X162496667Y-94384762D01*
X162401429Y-94432381D01*
X162163333Y-94432381D01*
X162068095Y-94384762D01*
X162020476Y-94337143D01*
X160654762Y-100262381D02*
X160083333Y-100262381D01*
X160369047Y-100262381D02*
X160369047Y-99262381D01*
X160273809Y-99405238D01*
X160178571Y-99500476D01*
X160083333Y-99548095D01*
X161511905Y-99595714D02*
X161511905Y-100262381D01*
X161083333Y-99595714D02*
X161083333Y-100119524D01*
X161130952Y-100214762D01*
X161226190Y-100262381D01*
X161369048Y-100262381D01*
X161464286Y-100214762D01*
X161511905Y-100167143D01*
X162321429Y-99738571D02*
X161988095Y-99738571D01*
X161988095Y-100262381D02*
X161988095Y-99262381D01*
X162464286Y-99262381D01*
X160607143Y-103227143D02*
X160559524Y-103274762D01*
X160416667Y-103322381D01*
X160321429Y-103322381D01*
X160178571Y-103274762D01*
X160083333Y-103179524D01*
X160035714Y-103084286D01*
X159988095Y-102893810D01*
X159988095Y-102750952D01*
X160035714Y-102560476D01*
X160083333Y-102465238D01*
X160178571Y-102370000D01*
X160321429Y-102322381D01*
X160416667Y-102322381D01*
X160559524Y-102370000D01*
X160607143Y-102417619D01*
X161559524Y-103322381D02*
X160988095Y-103322381D01*
X161273809Y-103322381D02*
X161273809Y-102322381D01*
X161178571Y-102465238D01*
X161083333Y-102560476D01*
X160988095Y-102608095D01*
X162416667Y-102322381D02*
X162226190Y-102322381D01*
X162130952Y-102370000D01*
X162083333Y-102417619D01*
X161988095Y-102560476D01*
X161940476Y-102750952D01*
X161940476Y-103131905D01*
X161988095Y-103227143D01*
X162035714Y-103274762D01*
X162130952Y-103322381D01*
X162321429Y-103322381D01*
X162416667Y-103274762D01*
X162464286Y-103227143D01*
X162511905Y-103131905D01*
X162511905Y-102893810D01*
X162464286Y-102798571D01*
X162416667Y-102750952D01*
X162321429Y-102703333D01*
X162130952Y-102703333D01*
X162035714Y-102750952D01*
X161988095Y-102798571D01*
X161940476Y-102893810D01*
X153602381Y-116125238D02*
X153602381Y-116696667D01*
X153602381Y-116410953D02*
X152602381Y-116410953D01*
X152745238Y-116506191D01*
X152840476Y-116601429D01*
X152888095Y-116696667D01*
X152935714Y-115268095D02*
X153602381Y-115268095D01*
X152935714Y-115696667D02*
X153459524Y-115696667D01*
X153554762Y-115649048D01*
X153602381Y-115553810D01*
X153602381Y-115410952D01*
X153554762Y-115315714D01*
X153507143Y-115268095D01*
X153078571Y-114458571D02*
X153078571Y-114791905D01*
X153602381Y-114791905D02*
X152602381Y-114791905D01*
X152602381Y-114315714D01*
X156567143Y-116212857D02*
X156614762Y-116260476D01*
X156662381Y-116403333D01*
X156662381Y-116498571D01*
X156614762Y-116641429D01*
X156519524Y-116736667D01*
X156424286Y-116784286D01*
X156233810Y-116831905D01*
X156090952Y-116831905D01*
X155900476Y-116784286D01*
X155805238Y-116736667D01*
X155710000Y-116641429D01*
X155662381Y-116498571D01*
X155662381Y-116403333D01*
X155710000Y-116260476D01*
X155757619Y-116212857D01*
X156662381Y-115260476D02*
X156662381Y-115831905D01*
X156662381Y-115546191D02*
X155662381Y-115546191D01*
X155805238Y-115641429D01*
X155900476Y-115736667D01*
X155948095Y-115831905D01*
X155662381Y-114927143D02*
X155662381Y-114260476D01*
X156662381Y-114689048D01*
X168100952Y-97707619D02*
X168148571Y-97660000D01*
X168243809Y-97612381D01*
X168481905Y-97612381D01*
X168577143Y-97660000D01*
X168624762Y-97707619D01*
X168672381Y-97802857D01*
X168672381Y-97898095D01*
X168624762Y-98040952D01*
X168053333Y-98612381D01*
X168672381Y-98612381D01*
X169053333Y-97707619D02*
X169100952Y-97660000D01*
X169196190Y-97612381D01*
X169434286Y-97612381D01*
X169529524Y-97660000D01*
X169577143Y-97707619D01*
X169624762Y-97802857D01*
X169624762Y-97898095D01*
X169577143Y-98040952D01*
X169005714Y-98612381D01*
X169624762Y-98612381D01*
X170243809Y-97612381D02*
X170339048Y-97612381D01*
X170434286Y-97660000D01*
X170481905Y-97707619D01*
X170529524Y-97802857D01*
X170577143Y-97993333D01*
X170577143Y-98231429D01*
X170529524Y-98421905D01*
X170481905Y-98517143D01*
X170434286Y-98564762D01*
X170339048Y-98612381D01*
X170243809Y-98612381D01*
X170148571Y-98564762D01*
X170100952Y-98517143D01*
X170053333Y-98421905D01*
X170005714Y-98231429D01*
X170005714Y-97993333D01*
X170053333Y-97802857D01*
X170100952Y-97707619D01*
X170148571Y-97660000D01*
X170243809Y-97612381D01*
X171434286Y-97945714D02*
X171434286Y-98612381D01*
X171005714Y-97945714D02*
X171005714Y-98469524D01*
X171053333Y-98564762D01*
X171148571Y-98612381D01*
X171291429Y-98612381D01*
X171386667Y-98564762D01*
X171434286Y-98517143D01*
X172243810Y-98088571D02*
X171910476Y-98088571D01*
X171910476Y-98612381D02*
X171910476Y-97612381D01*
X172386667Y-97612381D01*
X169577143Y-95607143D02*
X169529524Y-95654762D01*
X169386667Y-95702381D01*
X169291429Y-95702381D01*
X169148571Y-95654762D01*
X169053333Y-95559524D01*
X169005714Y-95464286D01*
X168958095Y-95273810D01*
X168958095Y-95130952D01*
X169005714Y-94940476D01*
X169053333Y-94845238D01*
X169148571Y-94750000D01*
X169291429Y-94702381D01*
X169386667Y-94702381D01*
X169529524Y-94750000D01*
X169577143Y-94797619D01*
X170529524Y-95702381D02*
X169958095Y-95702381D01*
X170243809Y-95702381D02*
X170243809Y-94702381D01*
X170148571Y-94845238D01*
X170053333Y-94940476D01*
X169958095Y-94988095D01*
X171100952Y-95130952D02*
X171005714Y-95083333D01*
X170958095Y-95035714D01*
X170910476Y-94940476D01*
X170910476Y-94892857D01*
X170958095Y-94797619D01*
X171005714Y-94750000D01*
X171100952Y-94702381D01*
X171291429Y-94702381D01*
X171386667Y-94750000D01*
X171434286Y-94797619D01*
X171481905Y-94892857D01*
X171481905Y-94940476D01*
X171434286Y-95035714D01*
X171386667Y-95083333D01*
X171291429Y-95130952D01*
X171100952Y-95130952D01*
X171005714Y-95178571D01*
X170958095Y-95226190D01*
X170910476Y-95321429D01*
X170910476Y-95511905D01*
X170958095Y-95607143D01*
X171005714Y-95654762D01*
X171100952Y-95702381D01*
X171291429Y-95702381D01*
X171386667Y-95654762D01*
X171434286Y-95607143D01*
X171481905Y-95511905D01*
X171481905Y-95321429D01*
X171434286Y-95226190D01*
X171386667Y-95178571D01*
X171291429Y-95130952D01*
X166830952Y-79927619D02*
X166878571Y-79880000D01*
X166973809Y-79832381D01*
X167211905Y-79832381D01*
X167307143Y-79880000D01*
X167354762Y-79927619D01*
X167402381Y-80022857D01*
X167402381Y-80118095D01*
X167354762Y-80260952D01*
X166783333Y-80832381D01*
X167402381Y-80832381D01*
X167783333Y-79927619D02*
X167830952Y-79880000D01*
X167926190Y-79832381D01*
X168164286Y-79832381D01*
X168259524Y-79880000D01*
X168307143Y-79927619D01*
X168354762Y-80022857D01*
X168354762Y-80118095D01*
X168307143Y-80260952D01*
X167735714Y-80832381D01*
X168354762Y-80832381D01*
X168973809Y-79832381D02*
X169069048Y-79832381D01*
X169164286Y-79880000D01*
X169211905Y-79927619D01*
X169259524Y-80022857D01*
X169307143Y-80213333D01*
X169307143Y-80451429D01*
X169259524Y-80641905D01*
X169211905Y-80737143D01*
X169164286Y-80784762D01*
X169069048Y-80832381D01*
X168973809Y-80832381D01*
X168878571Y-80784762D01*
X168830952Y-80737143D01*
X168783333Y-80641905D01*
X168735714Y-80451429D01*
X168735714Y-80213333D01*
X168783333Y-80022857D01*
X168830952Y-79927619D01*
X168878571Y-79880000D01*
X168973809Y-79832381D01*
X170164286Y-80165714D02*
X170164286Y-80832381D01*
X169735714Y-80165714D02*
X169735714Y-80689524D01*
X169783333Y-80784762D01*
X169878571Y-80832381D01*
X170021429Y-80832381D01*
X170116667Y-80784762D01*
X170164286Y-80737143D01*
X170973810Y-80308571D02*
X170640476Y-80308571D01*
X170640476Y-80832381D02*
X170640476Y-79832381D01*
X171116667Y-79832381D01*
X168307143Y-77827143D02*
X168259524Y-77874762D01*
X168116667Y-77922381D01*
X168021429Y-77922381D01*
X167878571Y-77874762D01*
X167783333Y-77779524D01*
X167735714Y-77684286D01*
X167688095Y-77493810D01*
X167688095Y-77350952D01*
X167735714Y-77160476D01*
X167783333Y-77065238D01*
X167878571Y-76970000D01*
X168021429Y-76922381D01*
X168116667Y-76922381D01*
X168259524Y-76970000D01*
X168307143Y-77017619D01*
X169259524Y-77922381D02*
X168688095Y-77922381D01*
X168973809Y-77922381D02*
X168973809Y-76922381D01*
X168878571Y-77065238D01*
X168783333Y-77160476D01*
X168688095Y-77208095D01*
X169735714Y-77922381D02*
X169926190Y-77922381D01*
X170021429Y-77874762D01*
X170069048Y-77827143D01*
X170164286Y-77684286D01*
X170211905Y-77493810D01*
X170211905Y-77112857D01*
X170164286Y-77017619D01*
X170116667Y-76970000D01*
X170021429Y-76922381D01*
X169830952Y-76922381D01*
X169735714Y-76970000D01*
X169688095Y-77017619D01*
X169640476Y-77112857D01*
X169640476Y-77350952D01*
X169688095Y-77446190D01*
X169735714Y-77493810D01*
X169830952Y-77541429D01*
X170021429Y-77541429D01*
X170116667Y-77493810D01*
X170164286Y-77446190D01*
X170211905Y-77350952D01*
X166750952Y-121837619D02*
X166798571Y-121790000D01*
X166893809Y-121742381D01*
X167131905Y-121742381D01*
X167227143Y-121790000D01*
X167274762Y-121837619D01*
X167322381Y-121932857D01*
X167322381Y-122028095D01*
X167274762Y-122170952D01*
X166703333Y-122742381D01*
X167322381Y-122742381D01*
X167703333Y-121837619D02*
X167750952Y-121790000D01*
X167846190Y-121742381D01*
X168084286Y-121742381D01*
X168179524Y-121790000D01*
X168227143Y-121837619D01*
X168274762Y-121932857D01*
X168274762Y-122028095D01*
X168227143Y-122170952D01*
X167655714Y-122742381D01*
X168274762Y-122742381D01*
X168893809Y-121742381D02*
X168989048Y-121742381D01*
X169084286Y-121790000D01*
X169131905Y-121837619D01*
X169179524Y-121932857D01*
X169227143Y-122123333D01*
X169227143Y-122361429D01*
X169179524Y-122551905D01*
X169131905Y-122647143D01*
X169084286Y-122694762D01*
X168989048Y-122742381D01*
X168893809Y-122742381D01*
X168798571Y-122694762D01*
X168750952Y-122647143D01*
X168703333Y-122551905D01*
X168655714Y-122361429D01*
X168655714Y-122123333D01*
X168703333Y-121932857D01*
X168750952Y-121837619D01*
X168798571Y-121790000D01*
X168893809Y-121742381D01*
X170084286Y-122075714D02*
X170084286Y-122742381D01*
X169655714Y-122075714D02*
X169655714Y-122599524D01*
X169703333Y-122694762D01*
X169798571Y-122742381D01*
X169941429Y-122742381D01*
X170036667Y-122694762D01*
X170084286Y-122647143D01*
X170893810Y-122218571D02*
X170560476Y-122218571D01*
X170560476Y-122742381D02*
X170560476Y-121742381D01*
X171036667Y-121742381D01*
X168267143Y-119737143D02*
X168219524Y-119784762D01*
X168076667Y-119832381D01*
X167981429Y-119832381D01*
X167838571Y-119784762D01*
X167743333Y-119689524D01*
X167695714Y-119594286D01*
X167648095Y-119403810D01*
X167648095Y-119260952D01*
X167695714Y-119070476D01*
X167743333Y-118975238D01*
X167838571Y-118880000D01*
X167981429Y-118832381D01*
X168076667Y-118832381D01*
X168219524Y-118880000D01*
X168267143Y-118927619D01*
X168648095Y-118927619D02*
X168695714Y-118880000D01*
X168790952Y-118832381D01*
X169029048Y-118832381D01*
X169124286Y-118880000D01*
X169171905Y-118927619D01*
X169219524Y-119022857D01*
X169219524Y-119118095D01*
X169171905Y-119260952D01*
X168600476Y-119832381D01*
X169219524Y-119832381D01*
X169838571Y-118832381D02*
X169933810Y-118832381D01*
X170029048Y-118880000D01*
X170076667Y-118927619D01*
X170124286Y-119022857D01*
X170171905Y-119213333D01*
X170171905Y-119451429D01*
X170124286Y-119641905D01*
X170076667Y-119737143D01*
X170029048Y-119784762D01*
X169933810Y-119832381D01*
X169838571Y-119832381D01*
X169743333Y-119784762D01*
X169695714Y-119737143D01*
X169648095Y-119641905D01*
X169600476Y-119451429D01*
X169600476Y-119213333D01*
X169648095Y-119022857D01*
X169695714Y-118927619D01*
X169743333Y-118880000D01*
X169838571Y-118832381D01*
X168100952Y-104057619D02*
X168148571Y-104010000D01*
X168243809Y-103962381D01*
X168481905Y-103962381D01*
X168577143Y-104010000D01*
X168624762Y-104057619D01*
X168672381Y-104152857D01*
X168672381Y-104248095D01*
X168624762Y-104390952D01*
X168053333Y-104962381D01*
X168672381Y-104962381D01*
X169053333Y-104057619D02*
X169100952Y-104010000D01*
X169196190Y-103962381D01*
X169434286Y-103962381D01*
X169529524Y-104010000D01*
X169577143Y-104057619D01*
X169624762Y-104152857D01*
X169624762Y-104248095D01*
X169577143Y-104390952D01*
X169005714Y-104962381D01*
X169624762Y-104962381D01*
X170243809Y-103962381D02*
X170339048Y-103962381D01*
X170434286Y-104010000D01*
X170481905Y-104057619D01*
X170529524Y-104152857D01*
X170577143Y-104343333D01*
X170577143Y-104581429D01*
X170529524Y-104771905D01*
X170481905Y-104867143D01*
X170434286Y-104914762D01*
X170339048Y-104962381D01*
X170243809Y-104962381D01*
X170148571Y-104914762D01*
X170100952Y-104867143D01*
X170053333Y-104771905D01*
X170005714Y-104581429D01*
X170005714Y-104343333D01*
X170053333Y-104152857D01*
X170100952Y-104057619D01*
X170148571Y-104010000D01*
X170243809Y-103962381D01*
X171434286Y-104295714D02*
X171434286Y-104962381D01*
X171005714Y-104295714D02*
X171005714Y-104819524D01*
X171053333Y-104914762D01*
X171148571Y-104962381D01*
X171291429Y-104962381D01*
X171386667Y-104914762D01*
X171434286Y-104867143D01*
X172243810Y-104438571D02*
X171910476Y-104438571D01*
X171910476Y-104962381D02*
X171910476Y-103962381D01*
X172386667Y-103962381D01*
X169537143Y-101957143D02*
X169489524Y-102004762D01*
X169346667Y-102052381D01*
X169251429Y-102052381D01*
X169108571Y-102004762D01*
X169013333Y-101909524D01*
X168965714Y-101814286D01*
X168918095Y-101623810D01*
X168918095Y-101480952D01*
X168965714Y-101290476D01*
X169013333Y-101195238D01*
X169108571Y-101100000D01*
X169251429Y-101052381D01*
X169346667Y-101052381D01*
X169489524Y-101100000D01*
X169537143Y-101147619D01*
X169918095Y-101147619D02*
X169965714Y-101100000D01*
X170060952Y-101052381D01*
X170299048Y-101052381D01*
X170394286Y-101100000D01*
X170441905Y-101147619D01*
X170489524Y-101242857D01*
X170489524Y-101338095D01*
X170441905Y-101480952D01*
X169870476Y-102052381D01*
X170489524Y-102052381D01*
X171441905Y-102052381D02*
X170870476Y-102052381D01*
X171156190Y-102052381D02*
X171156190Y-101052381D01*
X171060952Y-101195238D01*
X170965714Y-101290476D01*
X170870476Y-101338095D01*
X176268095Y-81117010D02*
X176268095Y-80117010D01*
X176506190Y-80117010D01*
X176649048Y-80164629D01*
X176744286Y-80259867D01*
X176791905Y-80355105D01*
X176839524Y-80545581D01*
X176839524Y-80688439D01*
X176791905Y-80878915D01*
X176744286Y-80974153D01*
X176649048Y-81069391D01*
X176506190Y-81117010D01*
X176268095Y-81117010D01*
X179504466Y-84272381D02*
X179504466Y-83272381D01*
X180075895Y-84272381D02*
X179647323Y-83700952D01*
X180075895Y-83272381D02*
X179504466Y-83843810D01*
X175791905Y-84272381D02*
X175791905Y-83272381D01*
X176030000Y-83272381D01*
X176172858Y-83320000D01*
X176268096Y-83415238D01*
X176315715Y-83510476D01*
X176363334Y-83700952D01*
X176363334Y-83843810D01*
X176315715Y-84034286D01*
X176268096Y-84129524D01*
X176172858Y-84224762D01*
X176030000Y-84272381D01*
X175791905Y-84272381D01*
X177315715Y-84272381D02*
X176744286Y-84272381D01*
X177030000Y-84272381D02*
X177030000Y-83272381D01*
X176934762Y-83415238D01*
X176839524Y-83510476D01*
X176744286Y-83558095D01*
X176268095Y-97627010D02*
X176268095Y-96627010D01*
X176506190Y-96627010D01*
X176649048Y-96674629D01*
X176744286Y-96769867D01*
X176791905Y-96865105D01*
X176839524Y-97055581D01*
X176839524Y-97198439D01*
X176791905Y-97388915D01*
X176744286Y-97484153D01*
X176649048Y-97579391D01*
X176506190Y-97627010D01*
X176268095Y-97627010D01*
X179504466Y-100782381D02*
X179504466Y-99782381D01*
X180075895Y-100782381D02*
X179647323Y-100210952D01*
X180075895Y-99782381D02*
X179504466Y-100353810D01*
X175791905Y-100782381D02*
X175791905Y-99782381D01*
X176030000Y-99782381D01*
X176172858Y-99830000D01*
X176268096Y-99925238D01*
X176315715Y-100020476D01*
X176363334Y-100210952D01*
X176363334Y-100353810D01*
X176315715Y-100544286D01*
X176268096Y-100639524D01*
X176172858Y-100734762D01*
X176030000Y-100782381D01*
X175791905Y-100782381D01*
X176744286Y-99877619D02*
X176791905Y-99830000D01*
X176887143Y-99782381D01*
X177125239Y-99782381D01*
X177220477Y-99830000D01*
X177268096Y-99877619D01*
X177315715Y-99972857D01*
X177315715Y-100068095D01*
X177268096Y-100210952D01*
X176696667Y-100782381D01*
X177315715Y-100782381D01*
X176268095Y-93817010D02*
X176268095Y-92817010D01*
X176506190Y-92817010D01*
X176649048Y-92864629D01*
X176744286Y-92959867D01*
X176791905Y-93055105D01*
X176839524Y-93245581D01*
X176839524Y-93388439D01*
X176791905Y-93578915D01*
X176744286Y-93674153D01*
X176649048Y-93769391D01*
X176506190Y-93817010D01*
X176268095Y-93817010D01*
X179504466Y-96972381D02*
X179504466Y-95972381D01*
X180075895Y-96972381D02*
X179647323Y-96400952D01*
X180075895Y-95972381D02*
X179504466Y-96543810D01*
X175791905Y-96972381D02*
X175791905Y-95972381D01*
X176030000Y-95972381D01*
X176172858Y-96020000D01*
X176268096Y-96115238D01*
X176315715Y-96210476D01*
X176363334Y-96400952D01*
X176363334Y-96543810D01*
X176315715Y-96734286D01*
X176268096Y-96829524D01*
X176172858Y-96924762D01*
X176030000Y-96972381D01*
X175791905Y-96972381D01*
X176696667Y-95972381D02*
X177315715Y-95972381D01*
X176982381Y-96353333D01*
X177125239Y-96353333D01*
X177220477Y-96400952D01*
X177268096Y-96448571D01*
X177315715Y-96543810D01*
X177315715Y-96781905D01*
X177268096Y-96877143D01*
X177220477Y-96924762D01*
X177125239Y-96972381D01*
X176839524Y-96972381D01*
X176744286Y-96924762D01*
X176696667Y-96877143D01*
X176268095Y-110327010D02*
X176268095Y-109327010D01*
X176506190Y-109327010D01*
X176649048Y-109374629D01*
X176744286Y-109469867D01*
X176791905Y-109565105D01*
X176839524Y-109755581D01*
X176839524Y-109898439D01*
X176791905Y-110088915D01*
X176744286Y-110184153D01*
X176649048Y-110279391D01*
X176506190Y-110327010D01*
X176268095Y-110327010D01*
X179504466Y-113482381D02*
X179504466Y-112482381D01*
X180075895Y-113482381D02*
X179647323Y-112910952D01*
X180075895Y-112482381D02*
X179504466Y-113053810D01*
X175791905Y-113482381D02*
X175791905Y-112482381D01*
X176030000Y-112482381D01*
X176172858Y-112530000D01*
X176268096Y-112625238D01*
X176315715Y-112720476D01*
X176363334Y-112910952D01*
X176363334Y-113053810D01*
X176315715Y-113244286D01*
X176268096Y-113339524D01*
X176172858Y-113434762D01*
X176030000Y-113482381D01*
X175791905Y-113482381D01*
X177220477Y-112815714D02*
X177220477Y-113482381D01*
X176982381Y-112434762D02*
X176744286Y-113149048D01*
X177363334Y-113149048D01*
X172752380Y-94698571D02*
X173085714Y-94698571D01*
X173228571Y-95222381D02*
X172752380Y-95222381D01*
X172752380Y-94222381D01*
X173228571Y-94222381D01*
X173657142Y-95222381D02*
X173657142Y-94222381D01*
X173990476Y-94936667D01*
X174323809Y-94222381D01*
X174323809Y-95222381D01*
X174799999Y-95222381D02*
X174799999Y-94222381D01*
X175038094Y-95317619D02*
X175799999Y-95317619D01*
X176371428Y-94698571D02*
X176038094Y-94698571D01*
X176038094Y-95222381D02*
X176038094Y-94222381D01*
X176514285Y-94222381D01*
X176895237Y-95222381D02*
X176895237Y-94555714D01*
X176895237Y-94222381D02*
X176847618Y-94270000D01*
X176895237Y-94317619D01*
X176942856Y-94270000D01*
X176895237Y-94222381D01*
X176895237Y-94317619D01*
X177514284Y-95222381D02*
X177419046Y-95174762D01*
X177371427Y-95079524D01*
X177371427Y-94222381D01*
X177752380Y-94555714D02*
X178133332Y-94555714D01*
X177895237Y-94222381D02*
X177895237Y-95079524D01*
X177942856Y-95174762D01*
X178038094Y-95222381D01*
X178133332Y-95222381D01*
X178847619Y-95174762D02*
X178752381Y-95222381D01*
X178561904Y-95222381D01*
X178466666Y-95174762D01*
X178419047Y-95079524D01*
X178419047Y-94698571D01*
X178466666Y-94603333D01*
X178561904Y-94555714D01*
X178752381Y-94555714D01*
X178847619Y-94603333D01*
X178895238Y-94698571D01*
X178895238Y-94793810D01*
X178419047Y-94889048D01*
X179323809Y-95222381D02*
X179323809Y-94555714D01*
X179323809Y-94746190D02*
X179371428Y-94650952D01*
X179419047Y-94603333D01*
X179514285Y-94555714D01*
X179609524Y-94555714D01*
X179704762Y-95317619D02*
X180466667Y-95317619D01*
X181180953Y-95222381D02*
X180704762Y-95222381D01*
X180704762Y-94222381D01*
X182085715Y-95127143D02*
X182038096Y-95174762D01*
X181895239Y-95222381D01*
X181800001Y-95222381D01*
X181657143Y-95174762D01*
X181561905Y-95079524D01*
X181514286Y-94984286D01*
X181466667Y-94793810D01*
X181466667Y-94650952D01*
X181514286Y-94460476D01*
X181561905Y-94365238D01*
X181657143Y-94270000D01*
X181800001Y-94222381D01*
X181895239Y-94222381D01*
X182038096Y-94270000D01*
X182085715Y-94317619D01*
X182990477Y-95222381D02*
X182514286Y-95222381D01*
X182514286Y-94222381D01*
X172752380Y-89618571D02*
X173085714Y-89618571D01*
X173228571Y-90142381D02*
X172752380Y-90142381D01*
X172752380Y-89142381D01*
X173228571Y-89142381D01*
X173657142Y-90142381D02*
X173657142Y-89142381D01*
X173990476Y-89856667D01*
X174323809Y-89142381D01*
X174323809Y-90142381D01*
X174799999Y-90142381D02*
X174799999Y-89142381D01*
X175038094Y-90237619D02*
X175799999Y-90237619D01*
X176371428Y-89618571D02*
X176038094Y-89618571D01*
X176038094Y-90142381D02*
X176038094Y-89142381D01*
X176514285Y-89142381D01*
X176895237Y-90142381D02*
X176895237Y-89475714D01*
X176895237Y-89142381D02*
X176847618Y-89190000D01*
X176895237Y-89237619D01*
X176942856Y-89190000D01*
X176895237Y-89142381D01*
X176895237Y-89237619D01*
X177514284Y-90142381D02*
X177419046Y-90094762D01*
X177371427Y-89999524D01*
X177371427Y-89142381D01*
X177752380Y-89475714D02*
X178133332Y-89475714D01*
X177895237Y-89142381D02*
X177895237Y-89999524D01*
X177942856Y-90094762D01*
X178038094Y-90142381D01*
X178133332Y-90142381D01*
X178847619Y-90094762D02*
X178752381Y-90142381D01*
X178561904Y-90142381D01*
X178466666Y-90094762D01*
X178419047Y-89999524D01*
X178419047Y-89618571D01*
X178466666Y-89523333D01*
X178561904Y-89475714D01*
X178752381Y-89475714D01*
X178847619Y-89523333D01*
X178895238Y-89618571D01*
X178895238Y-89713810D01*
X178419047Y-89809048D01*
X179323809Y-90142381D02*
X179323809Y-89475714D01*
X179323809Y-89666190D02*
X179371428Y-89570952D01*
X179419047Y-89523333D01*
X179514285Y-89475714D01*
X179609524Y-89475714D01*
X179704762Y-90237619D02*
X180466667Y-90237619D01*
X181180953Y-90142381D02*
X180704762Y-90142381D01*
X180704762Y-89142381D01*
X182085715Y-90047143D02*
X182038096Y-90094762D01*
X181895239Y-90142381D01*
X181800001Y-90142381D01*
X181657143Y-90094762D01*
X181561905Y-89999524D01*
X181514286Y-89904286D01*
X181466667Y-89713810D01*
X181466667Y-89570952D01*
X181514286Y-89380476D01*
X181561905Y-89285238D01*
X181657143Y-89190000D01*
X181800001Y-89142381D01*
X181895239Y-89142381D01*
X182038096Y-89190000D01*
X182085715Y-89237619D01*
X182990477Y-90142381D02*
X182514286Y-90142381D01*
X182514286Y-89142381D01*
X172752380Y-111208571D02*
X173085714Y-111208571D01*
X173228571Y-111732381D02*
X172752380Y-111732381D01*
X172752380Y-110732381D01*
X173228571Y-110732381D01*
X173657142Y-111732381D02*
X173657142Y-110732381D01*
X173990476Y-111446667D01*
X174323809Y-110732381D01*
X174323809Y-111732381D01*
X174799999Y-111732381D02*
X174799999Y-110732381D01*
X175038094Y-111827619D02*
X175799999Y-111827619D01*
X176371428Y-111208571D02*
X176038094Y-111208571D01*
X176038094Y-111732381D02*
X176038094Y-110732381D01*
X176514285Y-110732381D01*
X176895237Y-111732381D02*
X176895237Y-111065714D01*
X176895237Y-110732381D02*
X176847618Y-110780000D01*
X176895237Y-110827619D01*
X176942856Y-110780000D01*
X176895237Y-110732381D01*
X176895237Y-110827619D01*
X177514284Y-111732381D02*
X177419046Y-111684762D01*
X177371427Y-111589524D01*
X177371427Y-110732381D01*
X177752380Y-111065714D02*
X178133332Y-111065714D01*
X177895237Y-110732381D02*
X177895237Y-111589524D01*
X177942856Y-111684762D01*
X178038094Y-111732381D01*
X178133332Y-111732381D01*
X178847619Y-111684762D02*
X178752381Y-111732381D01*
X178561904Y-111732381D01*
X178466666Y-111684762D01*
X178419047Y-111589524D01*
X178419047Y-111208571D01*
X178466666Y-111113333D01*
X178561904Y-111065714D01*
X178752381Y-111065714D01*
X178847619Y-111113333D01*
X178895238Y-111208571D01*
X178895238Y-111303810D01*
X178419047Y-111399048D01*
X179323809Y-111732381D02*
X179323809Y-111065714D01*
X179323809Y-111256190D02*
X179371428Y-111160952D01*
X179419047Y-111113333D01*
X179514285Y-111065714D01*
X179609524Y-111065714D01*
X179704762Y-111827619D02*
X180466667Y-111827619D01*
X181180953Y-111732381D02*
X180704762Y-111732381D01*
X180704762Y-110732381D01*
X182085715Y-111637143D02*
X182038096Y-111684762D01*
X181895239Y-111732381D01*
X181800001Y-111732381D01*
X181657143Y-111684762D01*
X181561905Y-111589524D01*
X181514286Y-111494286D01*
X181466667Y-111303810D01*
X181466667Y-111160952D01*
X181514286Y-110970476D01*
X181561905Y-110875238D01*
X181657143Y-110780000D01*
X181800001Y-110732381D01*
X181895239Y-110732381D01*
X182038096Y-110780000D01*
X182085715Y-110827619D01*
X182990477Y-111732381D02*
X182514286Y-111732381D01*
X182514286Y-110732381D01*
X172752380Y-106128571D02*
X173085714Y-106128571D01*
X173228571Y-106652381D02*
X172752380Y-106652381D01*
X172752380Y-105652381D01*
X173228571Y-105652381D01*
X173657142Y-106652381D02*
X173657142Y-105652381D01*
X173990476Y-106366667D01*
X174323809Y-105652381D01*
X174323809Y-106652381D01*
X174799999Y-106652381D02*
X174799999Y-105652381D01*
X175038094Y-106747619D02*
X175799999Y-106747619D01*
X176371428Y-106128571D02*
X176038094Y-106128571D01*
X176038094Y-106652381D02*
X176038094Y-105652381D01*
X176514285Y-105652381D01*
X176895237Y-106652381D02*
X176895237Y-105985714D01*
X176895237Y-105652381D02*
X176847618Y-105700000D01*
X176895237Y-105747619D01*
X176942856Y-105700000D01*
X176895237Y-105652381D01*
X176895237Y-105747619D01*
X177514284Y-106652381D02*
X177419046Y-106604762D01*
X177371427Y-106509524D01*
X177371427Y-105652381D01*
X177752380Y-105985714D02*
X178133332Y-105985714D01*
X177895237Y-105652381D02*
X177895237Y-106509524D01*
X177942856Y-106604762D01*
X178038094Y-106652381D01*
X178133332Y-106652381D01*
X178847619Y-106604762D02*
X178752381Y-106652381D01*
X178561904Y-106652381D01*
X178466666Y-106604762D01*
X178419047Y-106509524D01*
X178419047Y-106128571D01*
X178466666Y-106033333D01*
X178561904Y-105985714D01*
X178752381Y-105985714D01*
X178847619Y-106033333D01*
X178895238Y-106128571D01*
X178895238Y-106223810D01*
X178419047Y-106319048D01*
X179323809Y-106652381D02*
X179323809Y-105985714D01*
X179323809Y-106176190D02*
X179371428Y-106080952D01*
X179419047Y-106033333D01*
X179514285Y-105985714D01*
X179609524Y-105985714D01*
X179704762Y-106747619D02*
X180466667Y-106747619D01*
X181180953Y-106652381D02*
X180704762Y-106652381D01*
X180704762Y-105652381D01*
X182085715Y-106557143D02*
X182038096Y-106604762D01*
X181895239Y-106652381D01*
X181800001Y-106652381D01*
X181657143Y-106604762D01*
X181561905Y-106509524D01*
X181514286Y-106414286D01*
X181466667Y-106223810D01*
X181466667Y-106080952D01*
X181514286Y-105890476D01*
X181561905Y-105795238D01*
X181657143Y-105700000D01*
X181800001Y-105652381D01*
X181895239Y-105652381D01*
X182038096Y-105700000D01*
X182085715Y-105747619D01*
X182990477Y-106652381D02*
X182514286Y-106652381D01*
X182514286Y-105652381D01*
X110506190Y-112002381D02*
X110506190Y-111002381D01*
X110744285Y-111002381D01*
X110887143Y-111050000D01*
X110982381Y-111145238D01*
X111030000Y-111240476D01*
X111077619Y-111430952D01*
X111077619Y-111573810D01*
X111030000Y-111764286D01*
X110982381Y-111859524D01*
X110887143Y-111954762D01*
X110744285Y-112002381D01*
X110506190Y-112002381D01*
X111934762Y-112002381D02*
X111934762Y-111478571D01*
X111887143Y-111383333D01*
X111791905Y-111335714D01*
X111601428Y-111335714D01*
X111506190Y-111383333D01*
X111934762Y-111954762D02*
X111839524Y-112002381D01*
X111601428Y-112002381D01*
X111506190Y-111954762D01*
X111458571Y-111859524D01*
X111458571Y-111764286D01*
X111506190Y-111669048D01*
X111601428Y-111621429D01*
X111839524Y-111621429D01*
X111934762Y-111573810D01*
X112268095Y-111335714D02*
X112649047Y-111335714D01*
X112410952Y-111002381D02*
X112410952Y-111859524D01*
X112458571Y-111954762D01*
X112553809Y-112002381D01*
X112649047Y-112002381D01*
X113410953Y-112002381D02*
X113410953Y-111478571D01*
X113363334Y-111383333D01*
X113268096Y-111335714D01*
X113077619Y-111335714D01*
X112982381Y-111383333D01*
X113410953Y-111954762D02*
X113315715Y-112002381D01*
X113077619Y-112002381D01*
X112982381Y-111954762D01*
X112934762Y-111859524D01*
X112934762Y-111764286D01*
X112982381Y-111669048D01*
X113077619Y-111621429D01*
X113315715Y-111621429D01*
X113410953Y-111573810D01*
X114649048Y-112002381D02*
X114649048Y-111002381D01*
X115125238Y-111335714D02*
X115125238Y-112002381D01*
X115125238Y-111430952D02*
X115172857Y-111383333D01*
X115268095Y-111335714D01*
X115410953Y-111335714D01*
X115506191Y-111383333D01*
X115553810Y-111478571D01*
X115553810Y-112002381D01*
X112482381Y-105743333D02*
X113196667Y-105743333D01*
X113339524Y-105790953D01*
X113434762Y-105886191D01*
X113482381Y-106029048D01*
X113482381Y-106124286D01*
X112482381Y-105362381D02*
X112482381Y-104743333D01*
X112863333Y-105076667D01*
X112863333Y-104933809D01*
X112910952Y-104838571D01*
X112958571Y-104790952D01*
X113053810Y-104743333D01*
X113291905Y-104743333D01*
X113387143Y-104790952D01*
X113434762Y-104838571D01*
X113482381Y-104933809D01*
X113482381Y-105219524D01*
X113434762Y-105314762D01*
X113387143Y-105362381D01*
X109982381Y-98032381D02*
X109982381Y-97032381D01*
X110363334Y-97032381D01*
X110458572Y-97080000D01*
X110506191Y-97127619D01*
X110553810Y-97222857D01*
X110553810Y-97365714D01*
X110506191Y-97460952D01*
X110458572Y-97508571D01*
X110363334Y-97556190D01*
X109982381Y-97556190D01*
X111125238Y-98032381D02*
X111030000Y-97984762D01*
X110982381Y-97937143D01*
X110934762Y-97841905D01*
X110934762Y-97556190D01*
X110982381Y-97460952D01*
X111030000Y-97413333D01*
X111125238Y-97365714D01*
X111268096Y-97365714D01*
X111363334Y-97413333D01*
X111410953Y-97460952D01*
X111458572Y-97556190D01*
X111458572Y-97841905D01*
X111410953Y-97937143D01*
X111363334Y-97984762D01*
X111268096Y-98032381D01*
X111125238Y-98032381D01*
X111791905Y-97365714D02*
X111982381Y-98032381D01*
X112172858Y-97556190D01*
X112363334Y-98032381D01*
X112553810Y-97365714D01*
X113315715Y-97984762D02*
X113220477Y-98032381D01*
X113030000Y-98032381D01*
X112934762Y-97984762D01*
X112887143Y-97889524D01*
X112887143Y-97508571D01*
X112934762Y-97413333D01*
X113030000Y-97365714D01*
X113220477Y-97365714D01*
X113315715Y-97413333D01*
X113363334Y-97508571D01*
X113363334Y-97603810D01*
X112887143Y-97699048D01*
X113791905Y-98032381D02*
X113791905Y-97365714D01*
X113791905Y-97556190D02*
X113839524Y-97460952D01*
X113887143Y-97413333D01*
X113982381Y-97365714D01*
X114077620Y-97365714D01*
X115172858Y-98032381D02*
X115172858Y-97032381D01*
X115649048Y-97365714D02*
X115649048Y-98032381D01*
X115649048Y-97460952D02*
X115696667Y-97413333D01*
X115791905Y-97365714D01*
X115934763Y-97365714D01*
X116030001Y-97413333D01*
X116077620Y-97508571D01*
X116077620Y-98032381D01*
X112482381Y-91773333D02*
X113196667Y-91773333D01*
X113339524Y-91820953D01*
X113434762Y-91916191D01*
X113482381Y-92059048D01*
X113482381Y-92154286D01*
X112815714Y-90868571D02*
X113482381Y-90868571D01*
X112434762Y-91106667D02*
X113149048Y-91344762D01*
X113149048Y-90725714D01*
X188412381Y-90860476D02*
X188412381Y-91336667D01*
X187412381Y-91336667D01*
X188364762Y-90146190D02*
X188412381Y-90241428D01*
X188412381Y-90431905D01*
X188364762Y-90527143D01*
X188269524Y-90574762D01*
X187888571Y-90574762D01*
X187793333Y-90527143D01*
X187745714Y-90431905D01*
X187745714Y-90241428D01*
X187793333Y-90146190D01*
X187888571Y-90098571D01*
X187983810Y-90098571D01*
X188079048Y-90574762D01*
X187745714Y-89812857D02*
X187745714Y-89431905D01*
X188412381Y-89670000D02*
X187555238Y-89670000D01*
X187460000Y-89622381D01*
X187412381Y-89527143D01*
X187412381Y-89431905D01*
X187745714Y-89241428D02*
X187745714Y-88860476D01*
X187412381Y-89098571D02*
X188269524Y-89098571D01*
X188364762Y-89050952D01*
X188412381Y-88955714D01*
X188412381Y-88860476D01*
X188412381Y-107799047D02*
X187936190Y-108132381D01*
X188412381Y-108370476D02*
X187412381Y-108370476D01*
X187412381Y-107989523D01*
X187460000Y-107894285D01*
X187507619Y-107846666D01*
X187602857Y-107799047D01*
X187745714Y-107799047D01*
X187840952Y-107846666D01*
X187888571Y-107894285D01*
X187936190Y-107989523D01*
X187936190Y-108370476D01*
X188412381Y-107370476D02*
X187745714Y-107370476D01*
X187412381Y-107370476D02*
X187460000Y-107418095D01*
X187507619Y-107370476D01*
X187460000Y-107322857D01*
X187412381Y-107370476D01*
X187507619Y-107370476D01*
X187745714Y-106465714D02*
X188555238Y-106465714D01*
X188650476Y-106513333D01*
X188698095Y-106560952D01*
X188745714Y-106656191D01*
X188745714Y-106799048D01*
X188698095Y-106894286D01*
X188364762Y-106465714D02*
X188412381Y-106560952D01*
X188412381Y-106751429D01*
X188364762Y-106846667D01*
X188317143Y-106894286D01*
X188221905Y-106941905D01*
X187936190Y-106941905D01*
X187840952Y-106894286D01*
X187793333Y-106846667D01*
X187745714Y-106751429D01*
X187745714Y-106560952D01*
X187793333Y-106465714D01*
X188412381Y-105989524D02*
X187412381Y-105989524D01*
X188412381Y-105560952D02*
X187888571Y-105560952D01*
X187793333Y-105608571D01*
X187745714Y-105703809D01*
X187745714Y-105846667D01*
X187793333Y-105941905D01*
X187840952Y-105989524D01*
X187745714Y-105227619D02*
X187745714Y-104846667D01*
X187412381Y-105084762D02*
X188269524Y-105084762D01*
X188364762Y-105037143D01*
X188412381Y-104941905D01*
X188412381Y-104846667D01*
X120022953Y-113400381D02*
X119451524Y-113400381D01*
X119737238Y-113400381D02*
X119737238Y-112400381D01*
X119642000Y-112543238D01*
X119546762Y-112638476D01*
X119451524Y-112686095D01*
X120451524Y-113400381D02*
X120451524Y-112400381D01*
X120546762Y-113019429D02*
X120832477Y-113400381D01*
X120832477Y-112733714D02*
X120451524Y-113114667D01*
X130770477Y-90032381D02*
X130199048Y-90032381D01*
X130484762Y-90032381D02*
X130484762Y-89032381D01*
X130389524Y-89175238D01*
X130294286Y-89270476D01*
X130199048Y-89318095D01*
X131103810Y-89032381D02*
X131722858Y-89032381D01*
X131389524Y-89413333D01*
X131532382Y-89413333D01*
X131627620Y-89460952D01*
X131675239Y-89508571D01*
X131722858Y-89603810D01*
X131722858Y-89841905D01*
X131675239Y-89937143D01*
X131627620Y-89984762D01*
X131532382Y-90032381D01*
X131246667Y-90032381D01*
X131151429Y-89984762D01*
X131103810Y-89937143D01*
X132151429Y-89937143D02*
X132199048Y-89984762D01*
X132151429Y-90032381D01*
X132103810Y-89984762D01*
X132151429Y-89937143D01*
X132151429Y-90032381D01*
X132532381Y-89032381D02*
X133199048Y-89032381D01*
X132770476Y-90032381D01*
X133580000Y-90032381D02*
X133580000Y-89032381D01*
X133675238Y-89651429D02*
X133960953Y-90032381D01*
X133960953Y-89365714D02*
X133580000Y-89746667D01*
X130770477Y-87492381D02*
X130199048Y-87492381D01*
X130484762Y-87492381D02*
X130484762Y-86492381D01*
X130389524Y-86635238D01*
X130294286Y-86730476D01*
X130199048Y-86778095D01*
X131103810Y-86492381D02*
X131722858Y-86492381D01*
X131389524Y-86873333D01*
X131532382Y-86873333D01*
X131627620Y-86920952D01*
X131675239Y-86968571D01*
X131722858Y-87063810D01*
X131722858Y-87301905D01*
X131675239Y-87397143D01*
X131627620Y-87444762D01*
X131532382Y-87492381D01*
X131246667Y-87492381D01*
X131151429Y-87444762D01*
X131103810Y-87397143D01*
X132151429Y-87397143D02*
X132199048Y-87444762D01*
X132151429Y-87492381D01*
X132103810Y-87444762D01*
X132151429Y-87397143D01*
X132151429Y-87492381D01*
X132532381Y-86492381D02*
X133199048Y-86492381D01*
X132770476Y-87492381D01*
X133580000Y-87492381D02*
X133580000Y-86492381D01*
X133675238Y-87111429D02*
X133960953Y-87492381D01*
X133960953Y-86825714D02*
X133580000Y-87206667D01*
X130770477Y-105272381D02*
X130199048Y-105272381D01*
X130484762Y-105272381D02*
X130484762Y-104272381D01*
X130389524Y-104415238D01*
X130294286Y-104510476D01*
X130199048Y-104558095D01*
X131103810Y-104272381D02*
X131722858Y-104272381D01*
X131389524Y-104653333D01*
X131532382Y-104653333D01*
X131627620Y-104700952D01*
X131675239Y-104748571D01*
X131722858Y-104843810D01*
X131722858Y-105081905D01*
X131675239Y-105177143D01*
X131627620Y-105224762D01*
X131532382Y-105272381D01*
X131246667Y-105272381D01*
X131151429Y-105224762D01*
X131103810Y-105177143D01*
X132151429Y-105177143D02*
X132199048Y-105224762D01*
X132151429Y-105272381D01*
X132103810Y-105224762D01*
X132151429Y-105177143D01*
X132151429Y-105272381D01*
X132532381Y-104272381D02*
X133199048Y-104272381D01*
X132770476Y-105272381D01*
X133580000Y-105272381D02*
X133580000Y-104272381D01*
X133675238Y-104891429D02*
X133960953Y-105272381D01*
X133960953Y-104605714D02*
X133580000Y-104986667D01*
X130770477Y-102732381D02*
X130199048Y-102732381D01*
X130484762Y-102732381D02*
X130484762Y-101732381D01*
X130389524Y-101875238D01*
X130294286Y-101970476D01*
X130199048Y-102018095D01*
X131103810Y-101732381D02*
X131722858Y-101732381D01*
X131389524Y-102113333D01*
X131532382Y-102113333D01*
X131627620Y-102160952D01*
X131675239Y-102208571D01*
X131722858Y-102303810D01*
X131722858Y-102541905D01*
X131675239Y-102637143D01*
X131627620Y-102684762D01*
X131532382Y-102732381D01*
X131246667Y-102732381D01*
X131151429Y-102684762D01*
X131103810Y-102637143D01*
X132151429Y-102637143D02*
X132199048Y-102684762D01*
X132151429Y-102732381D01*
X132103810Y-102684762D01*
X132151429Y-102637143D01*
X132151429Y-102732381D01*
X132532381Y-101732381D02*
X133199048Y-101732381D01*
X132770476Y-102732381D01*
X133580000Y-102732381D02*
X133580000Y-101732381D01*
X133675238Y-102351429D02*
X133960953Y-102732381D01*
X133960953Y-102065714D02*
X133580000Y-102446667D01*
X135850477Y-90032381D02*
X135279048Y-90032381D01*
X135564762Y-90032381D02*
X135564762Y-89032381D01*
X135469524Y-89175238D01*
X135374286Y-89270476D01*
X135279048Y-89318095D01*
X136183810Y-89032381D02*
X136802858Y-89032381D01*
X136469524Y-89413333D01*
X136612382Y-89413333D01*
X136707620Y-89460952D01*
X136755239Y-89508571D01*
X136802858Y-89603810D01*
X136802858Y-89841905D01*
X136755239Y-89937143D01*
X136707620Y-89984762D01*
X136612382Y-90032381D01*
X136326667Y-90032381D01*
X136231429Y-89984762D01*
X136183810Y-89937143D01*
X137231429Y-89937143D02*
X137279048Y-89984762D01*
X137231429Y-90032381D01*
X137183810Y-89984762D01*
X137231429Y-89937143D01*
X137231429Y-90032381D01*
X137612381Y-89032381D02*
X138279048Y-89032381D01*
X137850476Y-90032381D01*
X138660000Y-90032381D02*
X138660000Y-89032381D01*
X138755238Y-89651429D02*
X139040953Y-90032381D01*
X139040953Y-89365714D02*
X138660000Y-89746667D01*
X135850477Y-91212381D02*
X135279048Y-91212381D01*
X135564762Y-91212381D02*
X135564762Y-90212381D01*
X135469524Y-90355238D01*
X135374286Y-90450476D01*
X135279048Y-90498095D01*
X136183810Y-90212381D02*
X136802858Y-90212381D01*
X136469524Y-90593333D01*
X136612382Y-90593333D01*
X136707620Y-90640952D01*
X136755239Y-90688571D01*
X136802858Y-90783810D01*
X136802858Y-91021905D01*
X136755239Y-91117143D01*
X136707620Y-91164762D01*
X136612382Y-91212381D01*
X136326667Y-91212381D01*
X136231429Y-91164762D01*
X136183810Y-91117143D01*
X137231429Y-91117143D02*
X137279048Y-91164762D01*
X137231429Y-91212381D01*
X137183810Y-91164762D01*
X137231429Y-91117143D01*
X137231429Y-91212381D01*
X137612381Y-90212381D02*
X138279048Y-90212381D01*
X137850476Y-91212381D01*
X138660000Y-91212381D02*
X138660000Y-90212381D01*
X138755238Y-90831429D02*
X139040953Y-91212381D01*
X139040953Y-90545714D02*
X138660000Y-90926667D01*
X135350477Y-106452381D02*
X134779048Y-106452381D01*
X135064762Y-106452381D02*
X135064762Y-105452381D01*
X134969524Y-105595238D01*
X134874286Y-105690476D01*
X134779048Y-105738095D01*
X135683810Y-105452381D02*
X136302858Y-105452381D01*
X135969524Y-105833333D01*
X136112382Y-105833333D01*
X136207620Y-105880952D01*
X136255239Y-105928571D01*
X136302858Y-106023810D01*
X136302858Y-106261905D01*
X136255239Y-106357143D01*
X136207620Y-106404762D01*
X136112382Y-106452381D01*
X135826667Y-106452381D01*
X135731429Y-106404762D01*
X135683810Y-106357143D01*
X136731429Y-106357143D02*
X136779048Y-106404762D01*
X136731429Y-106452381D01*
X136683810Y-106404762D01*
X136731429Y-106357143D01*
X136731429Y-106452381D01*
X137112381Y-105452381D02*
X137779048Y-105452381D01*
X137350476Y-106452381D01*
X138160000Y-106452381D02*
X138160000Y-105452381D01*
X138255238Y-106071429D02*
X138540953Y-106452381D01*
X138540953Y-105785714D02*
X138160000Y-106166667D01*
X139540953Y-106452381D02*
X139207619Y-105976190D01*
X138969524Y-106452381D02*
X138969524Y-105452381D01*
X139350477Y-105452381D01*
X139445715Y-105500000D01*
X139493334Y-105547619D01*
X139540953Y-105642857D01*
X139540953Y-105785714D01*
X139493334Y-105880952D01*
X139445715Y-105928571D01*
X139350477Y-105976190D01*
X138969524Y-105976190D01*
X140311429Y-92752381D02*
X140930477Y-92752381D01*
X140597143Y-93133333D01*
X140740001Y-93133333D01*
X140835239Y-93180952D01*
X140882858Y-93228571D01*
X140930477Y-93323810D01*
X140930477Y-93561905D01*
X140882858Y-93657143D01*
X140835239Y-93704762D01*
X140740001Y-93752381D01*
X140454286Y-93752381D01*
X140359048Y-93704762D01*
X140311429Y-93657143D01*
X141359048Y-93657143D02*
X141406667Y-93704762D01*
X141359048Y-93752381D01*
X141311429Y-93704762D01*
X141359048Y-93657143D01*
X141359048Y-93752381D01*
X141740000Y-92752381D02*
X142359048Y-92752381D01*
X142025714Y-93133333D01*
X142168572Y-93133333D01*
X142263810Y-93180952D01*
X142311429Y-93228571D01*
X142359048Y-93323810D01*
X142359048Y-93561905D01*
X142311429Y-93657143D01*
X142263810Y-93704762D01*
X142168572Y-93752381D01*
X141882857Y-93752381D01*
X141787619Y-93704762D01*
X141740000Y-93657143D01*
X142740000Y-92847619D02*
X142787619Y-92800000D01*
X142882857Y-92752381D01*
X143120953Y-92752381D01*
X143216191Y-92800000D01*
X143263810Y-92847619D01*
X143311429Y-92942857D01*
X143311429Y-93038095D01*
X143263810Y-93180952D01*
X142692381Y-93752381D01*
X143311429Y-93752381D01*
X143740000Y-93752381D02*
X143740000Y-92752381D01*
X143835238Y-93371429D02*
X144120953Y-93752381D01*
X144120953Y-93085714D02*
X143740000Y-93466667D01*
X140311429Y-90212381D02*
X140930477Y-90212381D01*
X140597143Y-90593333D01*
X140740001Y-90593333D01*
X140835239Y-90640952D01*
X140882858Y-90688571D01*
X140930477Y-90783810D01*
X140930477Y-91021905D01*
X140882858Y-91117143D01*
X140835239Y-91164762D01*
X140740001Y-91212381D01*
X140454286Y-91212381D01*
X140359048Y-91164762D01*
X140311429Y-91117143D01*
X141406667Y-91164762D02*
X141406667Y-91212381D01*
X141359048Y-91307619D01*
X141311429Y-91355238D01*
X141740000Y-90212381D02*
X142359048Y-90212381D01*
X142025714Y-90593333D01*
X142168572Y-90593333D01*
X142263810Y-90640952D01*
X142311429Y-90688571D01*
X142359048Y-90783810D01*
X142359048Y-91021905D01*
X142311429Y-91117143D01*
X142263810Y-91164762D01*
X142168572Y-91212381D01*
X141882857Y-91212381D01*
X141787619Y-91164762D01*
X141740000Y-91117143D01*
X142740000Y-90307619D02*
X142787619Y-90260000D01*
X142882857Y-90212381D01*
X143120953Y-90212381D01*
X143216191Y-90260000D01*
X143263810Y-90307619D01*
X143311429Y-90402857D01*
X143311429Y-90498095D01*
X143263810Y-90640952D01*
X142692381Y-91212381D01*
X143311429Y-91212381D01*
X143740000Y-91212381D02*
X143740000Y-90212381D01*
X143835238Y-90831429D02*
X144120953Y-91212381D01*
X144120953Y-90545714D02*
X143740000Y-90926667D01*
X140311429Y-107992381D02*
X140930477Y-107992381D01*
X140597143Y-108373333D01*
X140740001Y-108373333D01*
X140835239Y-108420952D01*
X140882858Y-108468571D01*
X140930477Y-108563810D01*
X140930477Y-108801905D01*
X140882858Y-108897143D01*
X140835239Y-108944762D01*
X140740001Y-108992381D01*
X140454286Y-108992381D01*
X140359048Y-108944762D01*
X140311429Y-108897143D01*
X141359048Y-108897143D02*
X141406667Y-108944762D01*
X141359048Y-108992381D01*
X141311429Y-108944762D01*
X141359048Y-108897143D01*
X141359048Y-108992381D01*
X141740000Y-107992381D02*
X142359048Y-107992381D01*
X142025714Y-108373333D01*
X142168572Y-108373333D01*
X142263810Y-108420952D01*
X142311429Y-108468571D01*
X142359048Y-108563810D01*
X142359048Y-108801905D01*
X142311429Y-108897143D01*
X142263810Y-108944762D01*
X142168572Y-108992381D01*
X141882857Y-108992381D01*
X141787619Y-108944762D01*
X141740000Y-108897143D01*
X142740000Y-108087619D02*
X142787619Y-108040000D01*
X142882857Y-107992381D01*
X143120953Y-107992381D01*
X143216191Y-108040000D01*
X143263810Y-108087619D01*
X143311429Y-108182857D01*
X143311429Y-108278095D01*
X143263810Y-108420952D01*
X142692381Y-108992381D01*
X143311429Y-108992381D01*
X143740000Y-108992381D02*
X143740000Y-107992381D01*
X143835238Y-108611429D02*
X144120953Y-108992381D01*
X144120953Y-108325714D02*
X143740000Y-108706667D01*
X140311429Y-105452381D02*
X140930477Y-105452381D01*
X140597143Y-105833333D01*
X140740001Y-105833333D01*
X140835239Y-105880952D01*
X140882858Y-105928571D01*
X140930477Y-106023810D01*
X140930477Y-106261905D01*
X140882858Y-106357143D01*
X140835239Y-106404762D01*
X140740001Y-106452381D01*
X140454286Y-106452381D01*
X140359048Y-106404762D01*
X140311429Y-106357143D01*
X141359048Y-106357143D02*
X141406667Y-106404762D01*
X141359048Y-106452381D01*
X141311429Y-106404762D01*
X141359048Y-106357143D01*
X141359048Y-106452381D01*
X141740000Y-105452381D02*
X142359048Y-105452381D01*
X142025714Y-105833333D01*
X142168572Y-105833333D01*
X142263810Y-105880952D01*
X142311429Y-105928571D01*
X142359048Y-106023810D01*
X142359048Y-106261905D01*
X142311429Y-106357143D01*
X142263810Y-106404762D01*
X142168572Y-106452381D01*
X141882857Y-106452381D01*
X141787619Y-106404762D01*
X141740000Y-106357143D01*
X142740000Y-105547619D02*
X142787619Y-105500000D01*
X142882857Y-105452381D01*
X143120953Y-105452381D01*
X143216191Y-105500000D01*
X143263810Y-105547619D01*
X143311429Y-105642857D01*
X143311429Y-105738095D01*
X143263810Y-105880952D01*
X142692381Y-106452381D01*
X143311429Y-106452381D01*
X143740000Y-106452381D02*
X143740000Y-105452381D01*
X143835238Y-106071429D02*
X144120953Y-106452381D01*
X144120953Y-105785714D02*
X143740000Y-106166667D01*
X179268572Y-81502381D02*
X178697143Y-81502381D01*
X178982857Y-81502381D02*
X178982857Y-80502381D01*
X178887619Y-80645238D01*
X178792381Y-80740476D01*
X178697143Y-80788095D01*
X179887619Y-80502381D02*
X179982858Y-80502381D01*
X180078096Y-80550000D01*
X180125715Y-80597619D01*
X180173334Y-80692857D01*
X180220953Y-80883333D01*
X180220953Y-81121429D01*
X180173334Y-81311905D01*
X180125715Y-81407143D01*
X180078096Y-81454762D01*
X179982858Y-81502381D01*
X179887619Y-81502381D01*
X179792381Y-81454762D01*
X179744762Y-81407143D01*
X179697143Y-81311905D01*
X179649524Y-81121429D01*
X179649524Y-80883333D01*
X179697143Y-80692857D01*
X179744762Y-80597619D01*
X179792381Y-80550000D01*
X179887619Y-80502381D01*
X180840000Y-80502381D02*
X180935239Y-80502381D01*
X181030477Y-80550000D01*
X181078096Y-80597619D01*
X181125715Y-80692857D01*
X181173334Y-80883333D01*
X181173334Y-81121429D01*
X181125715Y-81311905D01*
X181078096Y-81407143D01*
X181030477Y-81454762D01*
X180935239Y-81502381D01*
X180840000Y-81502381D01*
X180744762Y-81454762D01*
X180697143Y-81407143D01*
X180649524Y-81311905D01*
X180601905Y-81121429D01*
X180601905Y-80883333D01*
X180649524Y-80692857D01*
X180697143Y-80597619D01*
X180744762Y-80550000D01*
X180840000Y-80502381D01*
X181601905Y-81502381D02*
X181601905Y-80502381D01*
X181697143Y-81121429D02*
X181982858Y-81502381D01*
X181982858Y-80835714D02*
X181601905Y-81216667D01*
X185618572Y-80692381D02*
X185047143Y-80692381D01*
X185332857Y-80692381D02*
X185332857Y-79692381D01*
X185237619Y-79835238D01*
X185142381Y-79930476D01*
X185047143Y-79978095D01*
X186237619Y-79692381D02*
X186332858Y-79692381D01*
X186428096Y-79740000D01*
X186475715Y-79787619D01*
X186523334Y-79882857D01*
X186570953Y-80073333D01*
X186570953Y-80311429D01*
X186523334Y-80501905D01*
X186475715Y-80597143D01*
X186428096Y-80644762D01*
X186332858Y-80692381D01*
X186237619Y-80692381D01*
X186142381Y-80644762D01*
X186094762Y-80597143D01*
X186047143Y-80501905D01*
X185999524Y-80311429D01*
X185999524Y-80073333D01*
X186047143Y-79882857D01*
X186094762Y-79787619D01*
X186142381Y-79740000D01*
X186237619Y-79692381D01*
X187190000Y-79692381D02*
X187285239Y-79692381D01*
X187380477Y-79740000D01*
X187428096Y-79787619D01*
X187475715Y-79882857D01*
X187523334Y-80073333D01*
X187523334Y-80311429D01*
X187475715Y-80501905D01*
X187428096Y-80597143D01*
X187380477Y-80644762D01*
X187285239Y-80692381D01*
X187190000Y-80692381D01*
X187094762Y-80644762D01*
X187047143Y-80597143D01*
X186999524Y-80501905D01*
X186951905Y-80311429D01*
X186951905Y-80073333D01*
X186999524Y-79882857D01*
X187047143Y-79787619D01*
X187094762Y-79740000D01*
X187190000Y-79692381D01*
X187951905Y-80692381D02*
X187951905Y-79692381D01*
X188047143Y-80311429D02*
X188332858Y-80692381D01*
X188332858Y-80025714D02*
X187951905Y-80406667D01*
X185618572Y-117062381D02*
X185047143Y-117062381D01*
X185332857Y-117062381D02*
X185332857Y-116062381D01*
X185237619Y-116205238D01*
X185142381Y-116300476D01*
X185047143Y-116348095D01*
X186237619Y-116062381D02*
X186332858Y-116062381D01*
X186428096Y-116110000D01*
X186475715Y-116157619D01*
X186523334Y-116252857D01*
X186570953Y-116443333D01*
X186570953Y-116681429D01*
X186523334Y-116871905D01*
X186475715Y-116967143D01*
X186428096Y-117014762D01*
X186332858Y-117062381D01*
X186237619Y-117062381D01*
X186142381Y-117014762D01*
X186094762Y-116967143D01*
X186047143Y-116871905D01*
X185999524Y-116681429D01*
X185999524Y-116443333D01*
X186047143Y-116252857D01*
X186094762Y-116157619D01*
X186142381Y-116110000D01*
X186237619Y-116062381D01*
X187190000Y-116062381D02*
X187285239Y-116062381D01*
X187380477Y-116110000D01*
X187428096Y-116157619D01*
X187475715Y-116252857D01*
X187523334Y-116443333D01*
X187523334Y-116681429D01*
X187475715Y-116871905D01*
X187428096Y-116967143D01*
X187380477Y-117014762D01*
X187285239Y-117062381D01*
X187190000Y-117062381D01*
X187094762Y-117014762D01*
X187047143Y-116967143D01*
X186999524Y-116871905D01*
X186951905Y-116681429D01*
X186951905Y-116443333D01*
X186999524Y-116252857D01*
X187047143Y-116157619D01*
X187094762Y-116110000D01*
X187190000Y-116062381D01*
X187951905Y-117062381D02*
X187951905Y-116062381D01*
X188047143Y-116681429D02*
X188332858Y-117062381D01*
X188332858Y-116395714D02*
X187951905Y-116776667D01*
X179268572Y-116252381D02*
X178697143Y-116252381D01*
X178982857Y-116252381D02*
X178982857Y-115252381D01*
X178887619Y-115395238D01*
X178792381Y-115490476D01*
X178697143Y-115538095D01*
X179887619Y-115252381D02*
X179982858Y-115252381D01*
X180078096Y-115300000D01*
X180125715Y-115347619D01*
X180173334Y-115442857D01*
X180220953Y-115633333D01*
X180220953Y-115871429D01*
X180173334Y-116061905D01*
X180125715Y-116157143D01*
X180078096Y-116204762D01*
X179982858Y-116252381D01*
X179887619Y-116252381D01*
X179792381Y-116204762D01*
X179744762Y-116157143D01*
X179697143Y-116061905D01*
X179649524Y-115871429D01*
X179649524Y-115633333D01*
X179697143Y-115442857D01*
X179744762Y-115347619D01*
X179792381Y-115300000D01*
X179887619Y-115252381D01*
X180840000Y-115252381D02*
X180935239Y-115252381D01*
X181030477Y-115300000D01*
X181078096Y-115347619D01*
X181125715Y-115442857D01*
X181173334Y-115633333D01*
X181173334Y-115871429D01*
X181125715Y-116061905D01*
X181078096Y-116157143D01*
X181030477Y-116204762D01*
X180935239Y-116252381D01*
X180840000Y-116252381D01*
X180744762Y-116204762D01*
X180697143Y-116157143D01*
X180649524Y-116061905D01*
X180601905Y-115871429D01*
X180601905Y-115633333D01*
X180649524Y-115442857D01*
X180697143Y-115347619D01*
X180744762Y-115300000D01*
X180840000Y-115252381D01*
X181601905Y-116252381D02*
X181601905Y-115252381D01*
X181697143Y-115871429D02*
X181982858Y-116252381D01*
X181982858Y-115585714D02*
X181601905Y-115966667D01*
X156722381Y-100718572D02*
X156722381Y-100528095D01*
X156770000Y-100432857D01*
X156865238Y-100337619D01*
X157055714Y-100290000D01*
X157389048Y-100290000D01*
X157579524Y-100337619D01*
X157674762Y-100432857D01*
X157722381Y-100528095D01*
X157722381Y-100718572D01*
X157674762Y-100813810D01*
X157579524Y-100909048D01*
X157389048Y-100956667D01*
X157055714Y-100956667D01*
X156865238Y-100909048D01*
X156770000Y-100813810D01*
X156722381Y-100718572D01*
X157722381Y-99861429D02*
X156722381Y-99861429D01*
X156722381Y-99480476D01*
X156770000Y-99385238D01*
X156817619Y-99337619D01*
X156912857Y-99290000D01*
X157055714Y-99290000D01*
X157150952Y-99337619D01*
X157198571Y-99385238D01*
X157246190Y-99480476D01*
X157246190Y-99861429D01*
X157436667Y-98909048D02*
X157436667Y-98432857D01*
X157722381Y-99004286D02*
X156722381Y-98670953D01*
X157722381Y-98337619D01*
X156817619Y-98051905D02*
X156770000Y-98004286D01*
X156722381Y-97909048D01*
X156722381Y-97670952D01*
X156770000Y-97575714D01*
X156817619Y-97528095D01*
X156912857Y-97480476D01*
X157008095Y-97480476D01*
X157150952Y-97528095D01*
X157722381Y-98099524D01*
X157722381Y-97480476D01*
X156722381Y-96623333D02*
X156722381Y-96813810D01*
X156770000Y-96909048D01*
X156817619Y-96956667D01*
X156960476Y-97051905D01*
X157150952Y-97099524D01*
X157531905Y-97099524D01*
X157627143Y-97051905D01*
X157674762Y-97004286D01*
X157722381Y-96909048D01*
X157722381Y-96718571D01*
X157674762Y-96623333D01*
X157627143Y-96575714D01*
X157531905Y-96528095D01*
X157293810Y-96528095D01*
X157198571Y-96575714D01*
X157150952Y-96623333D01*
X157103333Y-96718571D01*
X157103333Y-96909048D01*
X157150952Y-97004286D01*
X157198571Y-97051905D01*
X157293810Y-97099524D01*
X156722381Y-95909048D02*
X156722381Y-95813809D01*
X156770000Y-95718571D01*
X156817619Y-95670952D01*
X156912857Y-95623333D01*
X157103333Y-95575714D01*
X157341429Y-95575714D01*
X157531905Y-95623333D01*
X157627143Y-95670952D01*
X157674762Y-95718571D01*
X157722381Y-95813809D01*
X157722381Y-95909048D01*
X157674762Y-96004286D01*
X157627143Y-96051905D01*
X157531905Y-96099524D01*
X157341429Y-96147143D01*
X157103333Y-96147143D01*
X156912857Y-96099524D01*
X156817619Y-96051905D01*
X156770000Y-96004286D01*
X156722381Y-95909048D01*
X157055714Y-94718571D02*
X157722381Y-94718571D01*
X156674762Y-94956667D02*
X157389048Y-95194762D01*
X157389048Y-94575714D01*
X150582381Y-98551905D02*
X151391905Y-98551905D01*
X151487143Y-98504286D01*
X151534762Y-98456667D01*
X151582381Y-98361429D01*
X151582381Y-98170952D01*
X151534762Y-98075714D01*
X151487143Y-98028095D01*
X151391905Y-97980476D01*
X150582381Y-97980476D01*
X151582381Y-96980476D02*
X151582381Y-97551905D01*
X151582381Y-97266191D02*
X150582381Y-97266191D01*
X150725238Y-97361429D01*
X150820476Y-97456667D01*
X150868095Y-97551905D01*
X121118572Y-111907143D02*
X121070953Y-111954762D01*
X120928096Y-112002381D01*
X120832858Y-112002381D01*
X120690000Y-111954762D01*
X120594762Y-111859524D01*
X120547143Y-111764286D01*
X120499524Y-111573810D01*
X120499524Y-111430952D01*
X120547143Y-111240476D01*
X120594762Y-111145238D01*
X120690000Y-111050000D01*
X120832858Y-111002381D01*
X120928096Y-111002381D01*
X121070953Y-111050000D01*
X121118572Y-111097619D01*
X121499524Y-111954762D02*
X121642381Y-112002381D01*
X121880477Y-112002381D01*
X121975715Y-111954762D01*
X122023334Y-111907143D01*
X122070953Y-111811905D01*
X122070953Y-111716667D01*
X122023334Y-111621429D01*
X121975715Y-111573810D01*
X121880477Y-111526190D01*
X121690000Y-111478571D01*
X121594762Y-111430952D01*
X121547143Y-111383333D01*
X121499524Y-111288095D01*
X121499524Y-111192857D01*
X121547143Y-111097619D01*
X121594762Y-111050000D01*
X121690000Y-111002381D01*
X121928096Y-111002381D01*
X122070953Y-111050000D01*
X122928096Y-111335714D02*
X122928096Y-112002381D01*
X122690000Y-110954762D02*
X122451905Y-111669048D01*
X123070953Y-111669048D01*
X123356667Y-111002381D02*
X123975715Y-111002381D01*
X123642381Y-111383333D01*
X123785239Y-111383333D01*
X123880477Y-111430952D01*
X123928096Y-111478571D01*
X123975715Y-111573810D01*
X123975715Y-111811905D01*
X123928096Y-111907143D01*
X123880477Y-111954762D01*
X123785239Y-112002381D01*
X123499524Y-112002381D01*
X123404286Y-111954762D01*
X123356667Y-111907143D01*
X124451905Y-112002381D02*
X124642381Y-112002381D01*
X124737620Y-111954762D01*
X124785239Y-111907143D01*
X124880477Y-111764286D01*
X124928096Y-111573810D01*
X124928096Y-111192857D01*
X124880477Y-111097619D01*
X124832858Y-111050000D01*
X124737620Y-111002381D01*
X124547143Y-111002381D01*
X124451905Y-111050000D01*
X124404286Y-111097619D01*
X124356667Y-111192857D01*
X124356667Y-111430952D01*
X124404286Y-111526190D01*
X124451905Y-111573810D01*
X124547143Y-111621429D01*
X124737620Y-111621429D01*
X124832858Y-111573810D01*
X124880477Y-111526190D01*
X124928096Y-111430952D01*
X125547143Y-111002381D02*
X125642382Y-111002381D01*
X125737620Y-111050000D01*
X125785239Y-111097619D01*
X125832858Y-111192857D01*
X125880477Y-111383333D01*
X125880477Y-111621429D01*
X125832858Y-111811905D01*
X125785239Y-111907143D01*
X125737620Y-111954762D01*
X125642382Y-112002381D01*
X125547143Y-112002381D01*
X125451905Y-111954762D01*
X125404286Y-111907143D01*
X125356667Y-111811905D01*
X125309048Y-111621429D01*
X125309048Y-111383333D01*
X125356667Y-111192857D01*
X125404286Y-111097619D01*
X125451905Y-111050000D01*
X125547143Y-111002381D01*
X122428095Y-97242381D02*
X122428095Y-98051905D01*
X122475714Y-98147143D01*
X122523333Y-98194762D01*
X122618571Y-98242381D01*
X122809048Y-98242381D01*
X122904286Y-98194762D01*
X122951905Y-98147143D01*
X122999524Y-98051905D01*
X122999524Y-97242381D01*
X123428095Y-97337619D02*
X123475714Y-97290000D01*
X123570952Y-97242381D01*
X123809048Y-97242381D01*
X123904286Y-97290000D01*
X123951905Y-97337619D01*
X123999524Y-97432857D01*
X123999524Y-97528095D01*
X123951905Y-97670952D01*
X123380476Y-98242381D01*
X123999524Y-98242381D01*
X159412381Y-87709048D02*
X158412381Y-87709048D01*
X158412381Y-87470953D01*
X158460000Y-87328095D01*
X158555238Y-87232857D01*
X158650476Y-87185238D01*
X158840952Y-87137619D01*
X158983810Y-87137619D01*
X159174286Y-87185238D01*
X159269524Y-87232857D01*
X159364762Y-87328095D01*
X159412381Y-87470953D01*
X159412381Y-87709048D01*
X159412381Y-86137619D02*
X158936190Y-86470953D01*
X159412381Y-86709048D02*
X158412381Y-86709048D01*
X158412381Y-86328095D01*
X158460000Y-86232857D01*
X158507619Y-86185238D01*
X158602857Y-86137619D01*
X158745714Y-86137619D01*
X158840952Y-86185238D01*
X158888571Y-86232857D01*
X158936190Y-86328095D01*
X158936190Y-86709048D01*
X158412381Y-85851905D02*
X159412381Y-85518572D01*
X158412381Y-85185238D01*
X159412381Y-84328095D02*
X159412381Y-84899524D01*
X159412381Y-84613810D02*
X158412381Y-84613810D01*
X158555238Y-84709048D01*
X158650476Y-84804286D01*
X158698095Y-84899524D01*
X158412381Y-83994762D02*
X158412381Y-83375714D01*
X158793333Y-83709048D01*
X158793333Y-83566190D01*
X158840952Y-83470952D01*
X158888571Y-83423333D01*
X158983810Y-83375714D01*
X159221905Y-83375714D01*
X159317143Y-83423333D01*
X159364762Y-83470952D01*
X159412381Y-83566190D01*
X159412381Y-83851905D01*
X159364762Y-83947143D01*
X159317143Y-83994762D01*
X158745714Y-82518571D02*
X159412381Y-82518571D01*
X158364762Y-82756667D02*
X159079048Y-82994762D01*
X159079048Y-82375714D01*
X164552381Y-85851905D02*
X165361905Y-85851905D01*
X165457143Y-85804286D01*
X165504762Y-85756667D01*
X165552381Y-85661429D01*
X165552381Y-85470952D01*
X165504762Y-85375714D01*
X165457143Y-85328095D01*
X165361905Y-85280476D01*
X164552381Y-85280476D01*
X164552381Y-84899524D02*
X164552381Y-84280476D01*
X164933333Y-84613810D01*
X164933333Y-84470952D01*
X164980952Y-84375714D01*
X165028571Y-84328095D01*
X165123810Y-84280476D01*
X165361905Y-84280476D01*
X165457143Y-84328095D01*
X165504762Y-84375714D01*
X165552381Y-84470952D01*
X165552381Y-84756667D01*
X165504762Y-84851905D01*
X165457143Y-84899524D01*
X159412381Y-114379048D02*
X158412381Y-114379048D01*
X158412381Y-114140953D01*
X158460000Y-113998095D01*
X158555238Y-113902857D01*
X158650476Y-113855238D01*
X158840952Y-113807619D01*
X158983810Y-113807619D01*
X159174286Y-113855238D01*
X159269524Y-113902857D01*
X159364762Y-113998095D01*
X159412381Y-114140953D01*
X159412381Y-114379048D01*
X159412381Y-112807619D02*
X158936190Y-113140953D01*
X159412381Y-113379048D02*
X158412381Y-113379048D01*
X158412381Y-112998095D01*
X158460000Y-112902857D01*
X158507619Y-112855238D01*
X158602857Y-112807619D01*
X158745714Y-112807619D01*
X158840952Y-112855238D01*
X158888571Y-112902857D01*
X158936190Y-112998095D01*
X158936190Y-113379048D01*
X158412381Y-112521905D02*
X159412381Y-112188572D01*
X158412381Y-111855238D01*
X159412381Y-110998095D02*
X159412381Y-111569524D01*
X159412381Y-111283810D02*
X158412381Y-111283810D01*
X158555238Y-111379048D01*
X158650476Y-111474286D01*
X158698095Y-111569524D01*
X158412381Y-110664762D02*
X158412381Y-110045714D01*
X158793333Y-110379048D01*
X158793333Y-110236190D01*
X158840952Y-110140952D01*
X158888571Y-110093333D01*
X158983810Y-110045714D01*
X159221905Y-110045714D01*
X159317143Y-110093333D01*
X159364762Y-110140952D01*
X159412381Y-110236190D01*
X159412381Y-110521905D01*
X159364762Y-110617143D01*
X159317143Y-110664762D01*
X158745714Y-109188571D02*
X159412381Y-109188571D01*
X158364762Y-109426667D02*
X159079048Y-109664762D01*
X159079048Y-109045714D01*
X164552381Y-112521905D02*
X165361905Y-112521905D01*
X165457143Y-112474286D01*
X165504762Y-112426667D01*
X165552381Y-112331429D01*
X165552381Y-112140952D01*
X165504762Y-112045714D01*
X165457143Y-111998095D01*
X165361905Y-111950476D01*
X164552381Y-111950476D01*
X164885714Y-111045714D02*
X165552381Y-111045714D01*
X164504762Y-111283810D02*
X165219048Y-111521905D01*
X165219048Y-110902857D01*
M02*
